0
SECTION
2
HEADER
9
$INSUNITS
70
4
9
$ACADVER
1
AC1014
9
$HANDSEED
5
FFFF
0
ENDSEC
0
SECTION
2
TABLES
0
TABLE
2
VPORT
5
8
100
AcDbSymbolTable
0
ENDTAB
0
TABLE
2
LTYPE
5
5
100
AcDbSymbolTable
0
LTYPE
5
14
100
AcDbSymbolTableRecord
100
AcDbLinetypeTableRecord
2
BYBLOCK
70
0
0
LTYPE
5
15
100
AcDbSymbolTableRecord
100
AcDbLinetypeTableRecord
2
BYLAYER
70
0
0
LTYPE
5
16
100
AcDbSymbolTableRecord
100
AcDbLinetypeTableRecord
2
DASHED
70
0
3
Dashed __ __ __ __ __ __ __ __ __ __ __ __ __ _
72
65
73
2
40
0.75
49
0.5
74
0
49
-0.25
74
0
0
ENDTAB
0
TABLE
2
LAYER
5
2
100
AcDbSymbolTable
70
2
0
LAYER
5
50
100
AcDbSymbolTableRecord
100
AcDbLayerTableRecord
2
0
70
0
62
7
6
CONTINUOUS
0
ENDTAB
0
TABLE
2
STYLE
5
3
100
AcDbSymbolTable
70
1
0
STYLE
5
11
100
AcDbSymbolTableRecord
100
AcDbTextStyleTableRecord
2
STANDARD
70
0
0
ENDTAB
0
TABLE
2
VIEW
5
6
100
AcDbSymbolTable
70
0
0
ENDTAB
0
TABLE
2
UCS
5
7
100
AcDbSymbolTable
70
0
0
ENDTAB
0
TABLE
2
APPID
5
9
100
AcDbSymbolTable
70
2
0
APPID
5
12
100
AcDbSymbolTableRecord
100
AcDbRegAppTableRecord
2
ACAD
70
0
0
ENDTAB
0
TABLE
2
DIMSTYLE
5
A
100
AcDbSymbolTable
70
1
0
ENDTAB
0
TABLE
2
BLOCK_RECORD
5
1
100
AcDbSymbolTable
70
1
0
BLOCK_RECORD
5
1F
100
AcDbSymbolTableRecord
100
AcDbBlockTableRecord
2
*MODEL_SPACE
0
BLOCK_RECORD
5
1B
100
AcDbSymbolTableRecord
100
AcDbBlockTableRecord
2
*PAPER_SPACE
0
ENDTAB
0
ENDSEC
0
SECTION
2
BLOCKS
0
BLOCK
5
20
100
AcDbEntity
100
AcDbBlockBegin
2
*MODEL_SPACE
0
ENDBLK
5
21
100
AcDbEntity
100
AcDbBlockEnd
0
BLOCK
5
1C
100
AcDbEntity
100
AcDbBlockBegin
2
*PAPER_SPACE
0
ENDBLK
5
1D
100
AcDbEntity
100
AcDbBlockEnd
0
ENDSEC
0
SECTION
2
ENTITIES
0
POINT
5
100
100
AcDbEntity
8
0
100
AcDbPoint
10
0
20
0
30
0
0
POINT
5
101
100
AcDbEntity
8
0
100
AcDbPoint
10
-93.799998730421066
20
51.799998618662357
30
0
0
POINT
5
102
100
AcDbEntity
8
0
100
AcDbPoint
10
8.7999987304210627
20
30.100000000000009
30
0
0
POINT
5
103
100
AcDbEntity
8
0
100
AcDbPoint
10
122.07776853751693
20
41.750034817536623
30
0
0
POINT
5
104
100
AcDbEntity
8
0
100
AcDbPoint
10
26.114159412386364
20
-25.575945085192593
30
0
0
POINT
5
105
100
AcDbEntity
8
0
100
AcDbPoint
10
0
20
27.999997943639755
30
0
0
POINT
5
106
100
AcDbEntity
8
0
100
AcDbPoint
10
-6.0785393914224808e-15
20
63.540999999999997
30
0
0
POINT
5
107
100
AcDbEntity
8
0
100
AcDbPoint
10
-7.1887624160476373e-15
20
63.540999999999997
30
0
0
CIRCLE
5
108
100
AcDbEntity
8
0
100
AcDbCircle
10
-93.799998730421066
20
51.799998618662357
30
0
40
3.0000000000000044
210
0
220
0
230
1
0
CIRCLE
5
109
100
AcDbEntity
8
0
100
AcDbCircle
10
-98.87999873042105
20
51.799998772104061
30
0
40
0.89999999999999636
210
0
220
0
230
1
0
CIRCLE
5
110
100
AcDbEntity
8
0
100
AcDbCircle
10
-88.719998730421068
20
51.799998731304527
30
0
40
0.89999999999999636
210
0
220
0
230
1
0
CIRCLE
5
111
100
AcDbEntity
8
0
100
AcDbCircle
10
-66.87999873039999
20
51.800000153441701
30
0
40
0.89999999999999636
210
0
220
0
230
1
0
CIRCLE
5
112
100
AcDbEntity
8
0
100
AcDbCircle
10
-61.799998730399999
20
51.799999999999997
30
0
40
3.0000000000000044
210
0
220
0
230
1
0
CIRCLE
5
113
100
AcDbEntity
8
0
100
AcDbCircle
10
-56.719998730400008
20
51.800000112642167
30
0
40
0.89999999999999636
210
0
220
0
230
1
0
CIRCLE
5
114
100
AcDbEntity
8
0
100
AcDbCircle
10
-39.87999873039999
20
34.600000153441705
30
0
40
0.89999999999999636
210
0
220
0
230
1
0
CIRCLE
5
115
100
AcDbEntity
8
0
100
AcDbCircle
10
-34.799998730399999
20
34.600000000000001
30
0
40
3.0000000000000044
210
0
220
0
230
1
0
CIRCLE
5
116
100
AcDbEntity
8
0
100
AcDbCircle
10
-29.719998730400011
20
34.600000112642178
30
0
40
0.89999999999999636
210
0
220
0
230
1
0
CIRCLE
5
117
100
AcDbEntity
8
0
100
AcDbCircle
10
24.719998730421075
20
49.600000153441712
30
0
40
0.89999999999999636
210
0
220
0
230
1
0
CIRCLE
5
118
100
AcDbEntity
8
0
100
AcDbCircle
10
29.799998730421066
20
49.600000000000009
30
0
40
3.0000000000000044
210
0
220
0
230
1
0
CIRCLE
5
119
100
AcDbEntity
8
0
100
AcDbCircle
10
34.879998730421057
20
49.600000112642178
30
0
40
0.89999999999999636
210
0
220
0
230
1
0
CIRCLE
5
120
100
AcDbEntity
8
0
100
AcDbCircle
10
51.719998730421075
20
66.800000153441715
30
0
40
0.89999999999999636
210
0
220
0
230
1
0
CIRCLE
5
121
100
AcDbEntity
8
0
100
AcDbCircle
10
56.799998730421066
20
66.800000000000011
30
0
40
3.0000000000000044
210
0
220
0
230
1
0
CIRCLE
5
122
100
AcDbEntity
8
0
100
AcDbCircle
10
61.879998730421057
20
66.800000112642181
30
0
40
0.89999999999999636
210
0
220
0
230
1
0
CIRCLE
5
123
100
AcDbEntity
8
0
100
AcDbCircle
10
84.719998730421082
20
66.799998772104061
30
0
40
0.89999999999999636
210
0
220
0
230
1
0
CIRCLE
5
124
100
AcDbEntity
8
0
100
AcDbCircle
10
89.799998730421066
20
66.799998618662357
30
0
40
3.0000000000000044
210
0
220
0
230
1
0
CIRCLE
5
125
100
AcDbEntity
8
0
100
AcDbCircle
10
94.879998730421065
20
66.799998731304527
30
0
40
0.89999999999999636
210
0
220
0
230
1
0
CIRCLE
5
126
100
AcDbEntity
8
0
100
AcDbCircle
10
29.719998730421075
20
18.600000153441716
30
0
40
0.89999999999999636
210
0
220
0
230
1
0
CIRCLE
5
127
100
AcDbEntity
8
0
100
AcDbCircle
10
34.799998730421066
20
18.600000000000012
30
0
40
3.0000000000000044
210
0
220
0
230
1
0
CIRCLE
5
128
100
AcDbEntity
8
0
100
AcDbCircle
10
39.879998730421057
20
18.600000112642185
30
0
40
0.89999999999999636
210
0
220
0
230
1
0
CIRCLE
5
129
100
AcDbEntity
8
0
100
AcDbCircle
10
56.719998730421075
20
35.800000153441715
30
0
40
0.89999999999999636
210
0
220
0
230
1
0
CIRCLE
5
130
100
AcDbEntity
8
0
100
AcDbCircle
10
61.799998730421066
20
35.800000000000011
30
0
40
3.0000000000000044
210
0
220
0
230
1
0
CIRCLE
5
131
100
AcDbEntity
8
0
100
AcDbCircle
10
66.87999873042105
20
35.800000112642181
30
0
40
0.89999999999999636
210
0
220
0
230
1
0
CIRCLE
5
132
100
AcDbEntity
8
0
100
AcDbCircle
10
88.719998730421082
20
35.799998772104054
30
0
40
0.89999999999999636
210
0
220
0
230
1
0
CIRCLE
5
133
100
AcDbEntity
8
0
100
AcDbCircle
10
93.79999873042108
20
35.79999861866235
30
0
40
2.7000000000000002
210
0
220
0
230
1
0
CIRCLE
5
134
100
AcDbEntity
8
0
100
AcDbCircle
10
98.879998730421065
20
35.799998731304527
30
0
40
0.89999999999999636
210
0
220
0
230
1
0
CIRCLE
5
135
100
AcDbEntity
8
0
100
AcDbCircle
10
3.7199987304210724
20
30.100000153441712
30
0
40
0.89999999999999636
210
0
220
0
230
1
0
CIRCLE
5
136
100
AcDbEntity
8
0
100
AcDbCircle
10
13.879998730421054
20
30.100000112642178
30
0
40
0.89999999999999636
210
0
220
0
230
1
0
CIRCLE
5
137
100
AcDbEntity
8
0
100
AcDbCircle
10
8.7999987304210627
20
30.100000000000009
30
0
40
3.0000000000000044
210
0
220
0
230
1
0
CIRCLE
5
138
100
AcDbEntity
8
0
100
AcDbCircle
10
117.11818478813682
20
40.650521728535587
30
0
40
0.89999999999999636
210
0
220
-0
230
1
0
CIRCLE
5
139
100
AcDbEntity
8
0
100
AcDbCircle
10
127.03735222930592
20
42.849548166314293
30
0
40
0.89999999999999636
210
0
220
-0
230
1
0
CIRCLE
5
140
100
AcDbEntity
8
0
100
AcDbCircle
10
122.07776853751693
20
41.750034817536623
30
0
40
3.0000000000000044
210
0
220
-0
230
1
0
CIRCLE
5
141
100
AcDbEntity
8
0
100
AcDbCircle
10
21.612245158802867
20
-27.929488807620899
30
0
40
0.89999999999999636
210
0
220
-0
230
1
0
CIRCLE
5
142
100
AcDbEntity
8
0
100
AcDbCircle
10
30.616073542694259
20
-23.222401126959802
30
0
40
0.89999999999999636
210
0
220
-0
230
1
0
CIRCLE
5
143
100
AcDbEntity
8
0
100
AcDbCircle
10
26.114159412386364
20
-25.575945085192593
30
0
40
3.0000000000000044
210
0
220
-0
230
1
0
LINE
5
144
100
AcDbEntity
8
0
100
AcDbLine
10
0
20
1.75
30
0
11
0
21
22.5
31
0
0
CIRCLE
5
145
100
AcDbEntity
8
0
100
AcDbCircle
10
-26.114159412386364
20
-25.575945085192593
30
0
40
3.0000000000000044
210
0
220
-0
230
1
0
CIRCLE
5
146
100
AcDbEntity
8
0
100
AcDbCircle
10
-30.616073542694259
20
-23.222401126959802
30
0
40
0.89999999999999636
210
0
220
-0
230
1
0
CIRCLE
5
147
100
AcDbEntity
8
0
100
AcDbCircle
10
-21.612245158802867
20
-27.929488807620899
30
0
40
0.89999999999999636
210
0
220
-0
230
1
0
LWPOLYLINE
5
148
100
AcDbEntity
8
0
100
AcDbPolyline
90
8
70
1
43
0.0
10
127.50000000000003
20
-41.000002056360252
10
-127.50000000000006
20
-41.000002056360252
42
-0.41421356237309503
10
-134.99999999999997
20
-33.500002056360323
10
-134.99999999999997
20
89.499997943639769
42
-0.41421356237309503
10
-127.5
20
96.999997943639755
10
127.50000000000003
20
96.999997943639755
42
-0.41421356237309503
10
135.00000000000003
20
89.499997943639769
10
135.00000000000003
20
-33.500002056360266
42
-0.41421356237309503
0
LINE
5
149
100
AcDbEntity
8
0
100
AcDbLine
10
0
20
2.5
30
0
11
0
21
20
31
0
0
LINE
5
150
100
AcDbEntity
8
0
100
AcDbLine
10
148
20
104.99999794363976
30
0
11
-148
21
104.99999794363976
31
0
0
LINE
5
151
100
AcDbEntity
8
0
100
AcDbLine
10
0
20
96.999997943639741
30
0
11
0
21
-41.000002056360252
31
0
0
LINE
5
152
100
AcDbEntity
8
0
100
AcDbLine
10
-134.99999999999997
20
27.999997943639737
30
0
11
135.00000000000003
21
27.999997943639773
31
0
0
CIRCLE
5
153
100
AcDbEntity
8
0
100
AcDbCircle
10
-129.99999999999997
20
18.999997943639748
30
0
40
1.6000000000000003
210
0
220
0
230
1
0
CIRCLE
5
154
100
AcDbEntity
8
0
100
AcDbCircle
10
-129.99999999999997
20
-28.000002056360252
30
0
40
1.6000000000000003
210
0
220
0
230
1
0
CIRCLE
5
155
100
AcDbEntity
8
0
100
AcDbCircle
10
-130
20
83.999997943639713
30
0
40
1.6000000000000003
210
0
220
0
230
1
0
CIRCLE
5
156
100
AcDbEntity
8
0
100
AcDbCircle
10
-60.000000000000036
20
-36.000002056360252
30
0
40
1.5999999999999925
210
0
220
0
230
1
0
CIRCLE
5
157
100
AcDbEntity
8
0
100
AcDbCircle
10
0
20
-36.000002056360252
30
0
40
1.6000000000000003
210
0
220
0
230
1
0
CIRCLE
5
158
100
AcDbEntity
8
0
100
AcDbCircle
10
-45
20
91.999997943639741
30
0
40
1.6000000000000014
210
0
220
0
230
1
0
CIRCLE
5
159
100
AcDbEntity
8
0
100
AcDbCircle
10
45.000000000000071
20
91.999997943639698
30
0
40
1.6000000000000014
210
0
220
0
230
1
0
CIRCLE
5
160
100
AcDbEntity
8
0
100
AcDbCircle
10
130
20
83.999997943639713
30
0
40
1.6000000000000003
210
0
220
0
230
1
0
CIRCLE
5
161
100
AcDbEntity
8
0
100
AcDbCircle
10
129.99999999999997
20
18.999997943639748
30
0
40
1.6000000000000003
210
0
220
0
230
1
0
CIRCLE
5
162
100
AcDbEntity
8
0
100
AcDbCircle
10
129.99999999999997
20
-28.000002056360252
30
0
40
1.6000000000000003
210
0
220
0
230
1
0
CIRCLE
5
163
100
AcDbEntity
8
0
100
AcDbCircle
10
60.000000000000036
20
-36.000002056360252
30
0
40
1.5999999999999925
210
0
220
0
230
1
0
CIRCLE
5
164
100
AcDbEntity
8
0
100
AcDbCircle
10
-12.999999999999998
20
31.999997943639755
30
0
40
1.5999999999999994
210
0
220
0
230
1
0
CIRCLE
5
165
100
AcDbEntity
8
0
100
AcDbCircle
10
212.48237011480879
20
-1.0000020563602519
30
0
40
1.5999999999999994
210
0
220
0
230
1
0
CIRCLE
5
166
100
AcDbEntity
8
0
100
AcDbCircle
10
110.5
20
91.999997943639755
30
0
40
0.75000000000000011
210
0
220
0
230
1
0
CIRCLE
5
167
100
AcDbEntity
8
0
100
AcDbCircle
10
106.00000000000001
20
91.999997943639755
30
0
40
0.75000000000000011
210
0
220
0
230
1
0
CIRCLE
5
168
100
AcDbEntity
8
0
100
AcDbCircle
10
101.50000000000003
20
91.999997943639755
30
0
40
0.75000000000000011
210
0
220
0
230
1
0
LWPOLYLINE
5
169
100
AcDbEntity
8
0
100
AcDbPolyline
90
4
70
1
43
0.0
10
91
20
94.999997943639755
10
85
20
94.999997943639755
10
85
20
88.999997943639769
10
91
20
88.999997943639769
0
LWPOLYLINE
5
170
100
AcDbEntity
8
0
100
AcDbPolyline
90
4
70
1
43
0.0
10
92
20
94.599997943639778
10
91
20
94.599997943639778
10
91
20
93.899997943639761
10
92
20
93.899997943639761
0
LINE
5
171
100
AcDbEntity
8
0
100
AcDbLine
10
91
20
91.999997943639755
30
0
11
85
21
91.999997943639755
31
0
0
LINE
5
172
100
AcDbEntity
8
0
100
AcDbLine
10
88
20
94.999997943639755
30
0
11
88
21
88.999997943639769
31
0
0
LWPOLYLINE
5
173
100
AcDbEntity
8
0
100
AcDbPolyline
90
4
70
1
43
0.0
10
92
20
89.399997943639761
10
91
20
89.399997943639761
10
91
20
90.099997943639764
10
92
20
90.099997943639764
0
LWPOLYLINE
5
174
100
AcDbEntity
8
0
100
AcDbPolyline
90
4
70
1
43
0.0
10
84
20
94.599997943639778
10
85
20
94.599997943639778
10
85
20
93.899997943639761
10
84
20
93.899997943639761
0
LWPOLYLINE
5
175
100
AcDbEntity
8
0
100
AcDbPolyline
90
4
70
1
43
0.0
10
84
20
89.399997943639761
10
85
20
89.399997943639761
10
85
20
90.099997943639764
10
84
20
90.099997943639764
0
LINE
5
176
100
AcDbEntity
8
0
100
AcDbLine
10
92
20
94.249997943639769
30
0
11
91.299999999999983
21
94.249997943639769
31
0
6
DASHED
0
CIRCLE
5
177
100
AcDbEntity
8
0
100
AcDbCircle
10
91.649999999999991
20
94.249997943639769
30
0
40
0.59999999999999998
210
0
220
0
230
1
0
CIRCLE
5
178
100
AcDbEntity
8
0
100
AcDbCircle
10
84.350000000000023
20
94.249997943639769
30
0
40
0.59999999999999998
210
0
220
0
230
1
0
CIRCLE
5
179
100
AcDbEntity
8
0
100
AcDbCircle
10
84.350000000000023
20
89.749997943639755
30
0
40
0.59999999999999998
210
0
220
0
230
1
0
CIRCLE
5
180
100
AcDbEntity
8
0
100
AcDbCircle
10
91.649999999999977
20
89.749997943639755
30
0
40
0.59999999999999998
210
0
220
0
230
1
0
CIRCLE
5
181
100
AcDbEntity
8
0
100
AcDbCircle
10
69.350000000000023
20
94.249997943639769
30
0
40
0.59999999999999998
210
0
220
0
230
1
0
CIRCLE
5
182
100
AcDbEntity
8
0
100
AcDbCircle
10
69.350000000000023
20
89.749997943639755
30
0
40
0.59999999999999998
210
0
220
0
230
1
0
CIRCLE
5
183
100
AcDbEntity
8
0
100
AcDbCircle
10
76.650000000000034
20
89.749997943639755
30
0
40
0.59999999999999998
210
0
220
0
230
1
0
CIRCLE
5
184
100
AcDbEntity
8
0
100
AcDbCircle
10
76.650000000000034
20
94.249997943639769
30
0
40
0.59999999999999998
210
0
220
0
230
1
0
CIRCLE
5
185
100
AcDbEntity
8
0
100
AcDbCircle
10
54.350000000000023
20
94.249997943639769
30
0
40
0.59999999999999998
210
0
220
0
230
1
0
CIRCLE
5
186
100
AcDbEntity
8
0
100
AcDbCircle
10
54.350000000000023
20
89.749997943639755
30
0
40
0.59999999999999998
210
0
220
0
230
1
0
CIRCLE
5
187
100
AcDbEntity
8
0
100
AcDbCircle
10
61.650000000000027
20
89.749997943639755
30
0
40
0.59999999999999998
210
0
220
0
230
1
0
CIRCLE
5
188
100
AcDbEntity
8
0
100
AcDbCircle
10
61.650000000000027
20
94.249997943639769
30
0
40
0.59999999999999998
210
0
220
0
230
1
0
CIRCLE
5
189
100
AcDbEntity
8
0
100
AcDbCircle
10
-66.649999999999991
20
94.249997943639769
30
0
40
0.59999999999999998
210
0
220
0
230
1
0
CIRCLE
5
190
100
AcDbEntity
8
0
100
AcDbCircle
10
-59.349999999999987
20
94.249997943639769
30
0
40
0.59999999999999998
210
0
220
0
230
1
0
CIRCLE
5
191
100
AcDbEntity
8
0
100
AcDbCircle
10
-59.349999999999987
20
89.749997943639784
30
0
40
0.59999999999999998
210
0
220
0
230
1
0
CIRCLE
5
192
100
AcDbEntity
8
0
100
AcDbCircle
10
-66.649999999999991
20
89.749997943639784
30
0
40
0.59999999999999998
210
0
220
0
230
1
0
CIRCLE
5
193
100
AcDbEntity
8
0
100
AcDbCircle
10
-81.649999999999991
20
94.249997943639769
30
0
40
0.59999999999999998
210
0
220
0
230
1
0
CIRCLE
5
194
100
AcDbEntity
8
0
100
AcDbCircle
10
-81.649999999999991
20
89.749997943639784
30
0
40
0.59999999999999998
210
0
220
0
230
1
0
CIRCLE
5
195
100
AcDbEntity
8
0
100
AcDbCircle
10
-74.349999999999994
20
89.749997943639784
30
0
40
0.59999999999999998
210
0
220
0
230
1
0
CIRCLE
5
196
100
AcDbEntity
8
0
100
AcDbCircle
10
-74.349999999999994
20
94.249997943639769
30
0
40
0.59999999999999998
210
0
220
0
230
1
0
CIRCLE
5
197
100
AcDbEntity
8
0
100
AcDbCircle
10
-96.649999999999991
20
94.249997943639769
30
0
40
0.59999999999999998
210
0
220
0
230
1
0
CIRCLE
5
198
100
AcDbEntity
8
0
100
AcDbCircle
10
-96.649999999999991
20
89.749997943639784
30
0
40
0.59999999999999998
210
0
220
0
230
1
0
CIRCLE
5
199
100
AcDbEntity
8
0
100
AcDbCircle
10
-89.349999999999994
20
89.749997943639784
30
0
40
0.59999999999999998
210
0
220
0
230
1
0
CIRCLE
5
200
100
AcDbEntity
8
0
100
AcDbCircle
10
-89.349999999999994
20
94.249997943639769
30
0
40
0.59999999999999998
210
0
220
0
230
1
0
LWPOLYLINE
5
201
100
AcDbEntity
8
0
100
AcDbPolyline
90
8
70
1
43
0.0
10
7.9999999999999947
20
51.790999999999997
10
-7.9999999999999982
20
51.79099999999999
42
-0.41421356237309503
10
-9
20
52.790999999999997
10
-9.0000000000000018
20
74.290999999999997
42
-0.41421356237309503
10
-8.0000000000000053
20
75.290999999999997
10
7.9999999999999938
20
75.290999999999997
42
-0.41421356237309503
10
8.9999999999999964
20
74.290999999999997
10
8.9999999999999911
20
52.790999999999997
42
-0.41421356237309503
0
LINE
5
202
100
AcDbEntity
8
0
100
AcDbLine
10
-1.6853655980421934e-15
20
75.290999999999997
30
0
11
-1.6853655980421934e-15
21
51.790999999999997
31
0
0
LINE
5
203
100
AcDbEntity
8
0
100
AcDbLine
10
-9
20
51.790999999999997
30
0
11
8.9999999999999964
21
75.290999999999997
31
0
6
DASHED
0
LINE
5
204
100
AcDbEntity
8
0
100
AcDbLine
10
8.9999999999999964
20
51.790999999999997
30
0
11
-9.0000000000000036
21
75.290999999999997
31
0
6
DASHED
0
CIRCLE
5
205
100
AcDbEntity
8
0
100
AcDbCircle
10
8.9999999999999964
20
25.459997943639756
30
0
40
0.5
210
0
220
0
230
1
0
LWPOLYLINE
5
206
100
AcDbEntity
8
0
100
AcDbPolyline
90
4
70
1
43
0.0
10
70
20
88.999997943639769
10
76
20
88.999997943639769
10
76
20
94.999997943639755
10
70.000000000000014
20
94.999997943639755
0
LINE
5
207
100
AcDbEntity
8
0
100
AcDbLine
10
73
20
94.999997943639755
30
0
11
73
21
88.999997943639769
31
0
0
LINE
5
208
100
AcDbEntity
8
0
100
AcDbLine
10
76
20
91.999997943639755
30
0
11
70
21
91.999997943639755
31
0
0
LWPOLYLINE
5
209
100
AcDbEntity
8
0
100
AcDbPolyline
90
4
70
1
43
0.0
10
61
20
94.999997943639755
10
55.000000000000007
20
94.999997943639755
10
55
20
88.999997943639769
10
61
20
88.999997943639769
0
LINE
5
210
100
AcDbEntity
8
0
100
AcDbLine
10
61
20
91.999997943639755
30
0
11
55
21
91.999997943639755
31
0
0
LINE
5
211
100
AcDbEntity
8
0
100
AcDbLine
10
58.000000000000007
20
94.999997943639755
30
0
11
58.000000000000007
21
88.999997943639769
31
0
0
LWPOLYLINE
5
212
100
AcDbEntity
8
0
100
AcDbPolyline
90
4
70
1
43
0.0
10
-66.000000000000028
20
88.999997943639769
10
-60.000000000000014
20
88.999997943639769
10
-60.000000000000014
20
94.999997943639755
10
-66
20
94.999997943639755
0
LINE
5
213
100
AcDbEntity
8
0
100
AcDbLine
10
-63.000000000000007
20
94.999997943639755
30
0
11
-63.000000000000007
21
88.999997943639769
31
0
0
LINE
5
214
100
AcDbEntity
8
0
100
AcDbLine
10
-60.000000000000014
20
91.999997943639755
30
0
11
-66.000000000000014
21
91.999997943639755
31
0
0
LWPOLYLINE
5
215
100
AcDbEntity
8
0
100
AcDbPolyline
90
4
70
1
43
0.0
10
-81.000000000000028
20
88.999997943639769
10
-75.000000000000014
20
88.999997943639769
10
-75.000000000000014
20
94.999997943639755
10
-81.000000000000014
20
94.999997943639755
0
LINE
5
216
100
AcDbEntity
8
0
100
AcDbLine
10
-75.000000000000014
20
91.999997943639755
30
0
11
-81.000000000000014
21
91.999997943639755
31
0
0
LINE
5
217
100
AcDbEntity
8
0
100
AcDbLine
10
-78
20
94.999997943639755
30
0
11
-78
21
88.999997943639769
31
0
0
LWPOLYLINE
5
218
100
AcDbEntity
8
0
100
AcDbPolyline
90
4
70
1
43
0.0
10
-96.000000000000028
20
88.999997943639769
10
-90.000000000000014
20
88.999997943639769
10
-90.000000000000014
20
94.999997943639755
10
-96.000000000000028
20
94.999997943639755
0
LINE
5
219
100
AcDbEntity
8
0
100
AcDbLine
10
-90.000000000000014
20
91.999997943639755
30
0
11
-96.000000000000014
21
91.999997943639755
31
0
0
LINE
5
220
100
AcDbEntity
8
0
100
AcDbLine
10
-93
20
94.999997943639755
30
0
11
-93
21
88.999997943639769
31
0
0
ENDSEC
0
SECTION
2
OBJECTS
0
DICTIONARY
5
C
100
AcDbDictionary
3
ACAD_GROUP
350
D
3
ACAD_MLINESTYLE
350
17
0
DICTIONARY
5
D
100
AcDbDictionary
0
DICTIONARY
5
1A
330
C
100
AcDbDictionary
0
DICTIONARY
5
17
100
AcDbDictionary
0
ENDSEC
0
EOF
