G04 #@! TF.GenerationSoftware,KiCad,Pcbnew,9.0.0*
G04 #@! TF.CreationDate,2025-05-11T16:12:36-07:00*
G04 #@! TF.ProjectId,HE_Leverless_Mainboard,48455f4c-6576-4657-926c-6573735f4d61,rev?*
G04 #@! TF.SameCoordinates,Original*
G04 #@! TF.FileFunction,Legend,Bot*
G04 #@! TF.FilePolarity,Positive*
%FSLAX46Y46*%
G04 Gerber Fmt 4.6, Leading zero omitted, Abs format (unit mm)*
G04 Created by KiCad (PCBNEW 9.0.0) date 2025-05-11 16:12:36*
%MOMM*%
%LPD*%
G01*
G04 APERTURE LIST*
%ADD10C,1.000000*%
%ADD11C,0.100000*%
%ADD12C,2.500000*%
%ADD13C,1.905000*%
%ADD14C,0.900000*%
%ADD15C,2.700000*%
%ADD16C,1.000000*%
%ADD17C,6.400000*%
%ADD18C,2.000000*%
%ADD19C,1.200000*%
G04 APERTURE END LIST*
D10*
X297967376Y-169782796D02*
X295110233Y-169782796D01*
X297163805Y-174782796D02*
X296538805Y-169782796D01*
X293354281Y-174782796D02*
X293800709Y-174544701D01*
X293800709Y-174544701D02*
X294009042Y-174306605D01*
X294009042Y-174306605D02*
X294187614Y-173830415D01*
X294187614Y-173830415D02*
X294009042Y-172401843D01*
X294009042Y-172401843D02*
X293711423Y-171925653D01*
X293711423Y-171925653D02*
X293443566Y-171687558D01*
X293443566Y-171687558D02*
X292937614Y-171449462D01*
X292937614Y-171449462D02*
X292223328Y-171449462D01*
X292223328Y-171449462D02*
X291776900Y-171687558D01*
X291776900Y-171687558D02*
X291568566Y-171925653D01*
X291568566Y-171925653D02*
X291389995Y-172401843D01*
X291389995Y-172401843D02*
X291568566Y-173830415D01*
X291568566Y-173830415D02*
X291866185Y-174306605D01*
X291866185Y-174306605D02*
X292134042Y-174544701D01*
X292134042Y-174544701D02*
X292639995Y-174782796D01*
X292639995Y-174782796D02*
X293354281Y-174782796D01*
X289544756Y-174782796D02*
X289128090Y-171449462D01*
X289187613Y-171925653D02*
X288919756Y-171687558D01*
X288919756Y-171687558D02*
X288413804Y-171449462D01*
X288413804Y-171449462D02*
X287699518Y-171449462D01*
X287699518Y-171449462D02*
X287253090Y-171687558D01*
X287253090Y-171687558D02*
X287074518Y-172163748D01*
X287074518Y-172163748D02*
X287401899Y-174782796D01*
X287074518Y-172163748D02*
X286776899Y-171687558D01*
X286776899Y-171687558D02*
X286270947Y-171449462D01*
X286270947Y-171449462D02*
X285556661Y-171449462D01*
X285556661Y-171449462D02*
X285110232Y-171687558D01*
X285110232Y-171687558D02*
X284931661Y-172163748D01*
X284931661Y-172163748D02*
X285259042Y-174782796D01*
X280735232Y-174782796D02*
X280407851Y-172163748D01*
X280407851Y-172163748D02*
X280586423Y-171687558D01*
X280586423Y-171687558D02*
X281032851Y-171449462D01*
X281032851Y-171449462D02*
X281985232Y-171449462D01*
X281985232Y-171449462D02*
X282491184Y-171687558D01*
X280705470Y-174544701D02*
X281211423Y-174782796D01*
X281211423Y-174782796D02*
X282401899Y-174782796D01*
X282401899Y-174782796D02*
X282848327Y-174544701D01*
X282848327Y-174544701D02*
X283026899Y-174068510D01*
X283026899Y-174068510D02*
X282967375Y-173592320D01*
X282967375Y-173592320D02*
X282669756Y-173116129D01*
X282669756Y-173116129D02*
X282163804Y-172878034D01*
X282163804Y-172878034D02*
X280973327Y-172878034D01*
X280973327Y-172878034D02*
X280467375Y-172639939D01*
X278651898Y-171449462D02*
X276747136Y-171449462D01*
X277729279Y-169782796D02*
X278264994Y-174068510D01*
X278264994Y-174068510D02*
X278086422Y-174544701D01*
X278086422Y-174544701D02*
X277639994Y-174782796D01*
X277639994Y-174782796D02*
X277163803Y-174782796D01*
X274782851Y-174782796D02*
X275229279Y-174544701D01*
X275229279Y-174544701D02*
X275437612Y-174306605D01*
X275437612Y-174306605D02*
X275616184Y-173830415D01*
X275616184Y-173830415D02*
X275437612Y-172401843D01*
X275437612Y-172401843D02*
X275139993Y-171925653D01*
X275139993Y-171925653D02*
X274872136Y-171687558D01*
X274872136Y-171687558D02*
X274366184Y-171449462D01*
X274366184Y-171449462D02*
X273651898Y-171449462D01*
X273651898Y-171449462D02*
X273205470Y-171687558D01*
X273205470Y-171687558D02*
X272997136Y-171925653D01*
X272997136Y-171925653D02*
X272818565Y-172401843D01*
X272818565Y-172401843D02*
X272997136Y-173830415D01*
X272997136Y-173830415D02*
X273294755Y-174306605D01*
X273294755Y-174306605D02*
X273562612Y-174544701D01*
X273562612Y-174544701D02*
X274068565Y-174782796D01*
X274068565Y-174782796D02*
X274782851Y-174782796D01*
X269038802Y-174544701D02*
X269544755Y-174782796D01*
X269544755Y-174782796D02*
X270497136Y-174782796D01*
X270497136Y-174782796D02*
X270943564Y-174544701D01*
X270943564Y-174544701D02*
X271122136Y-174068510D01*
X271122136Y-174068510D02*
X270884041Y-172163748D01*
X270884041Y-172163748D02*
X270586421Y-171687558D01*
X270586421Y-171687558D02*
X270080469Y-171449462D01*
X270080469Y-171449462D02*
X269128088Y-171449462D01*
X269128088Y-171449462D02*
X268681660Y-171687558D01*
X268681660Y-171687558D02*
X268503088Y-172163748D01*
X268503088Y-172163748D02*
X268562612Y-172639939D01*
X268562612Y-172639939D02*
X271003088Y-173116129D01*
X266687612Y-174782796D02*
X266062612Y-169782796D01*
X266062612Y-169782796D02*
X264157850Y-169782796D01*
X264157850Y-169782796D02*
X263711422Y-170020891D01*
X263711422Y-170020891D02*
X263503088Y-170258986D01*
X263503088Y-170258986D02*
X263324517Y-170735177D01*
X263324517Y-170735177D02*
X263413803Y-171449462D01*
X263413803Y-171449462D02*
X263711422Y-171925653D01*
X263711422Y-171925653D02*
X263979279Y-172163748D01*
X263979279Y-172163748D02*
X264485231Y-172401843D01*
X264485231Y-172401843D02*
X266389993Y-172401843D01*
X259544755Y-174782796D02*
X259217374Y-172163748D01*
X259217374Y-172163748D02*
X259395946Y-171687558D01*
X259395946Y-171687558D02*
X259842374Y-171449462D01*
X259842374Y-171449462D02*
X260794755Y-171449462D01*
X260794755Y-171449462D02*
X261300707Y-171687558D01*
X259514993Y-174544701D02*
X260020946Y-174782796D01*
X260020946Y-174782796D02*
X261211422Y-174782796D01*
X261211422Y-174782796D02*
X261657850Y-174544701D01*
X261657850Y-174544701D02*
X261836422Y-174068510D01*
X261836422Y-174068510D02*
X261776898Y-173592320D01*
X261776898Y-173592320D02*
X261479279Y-173116129D01*
X261479279Y-173116129D02*
X260973327Y-172878034D01*
X260973327Y-172878034D02*
X259782850Y-172878034D01*
X259782850Y-172878034D02*
X259276898Y-172639939D01*
X255020945Y-174782796D02*
X254395945Y-169782796D01*
X254991183Y-174544701D02*
X255497136Y-174782796D01*
X255497136Y-174782796D02*
X256449517Y-174782796D01*
X256449517Y-174782796D02*
X256895945Y-174544701D01*
X256895945Y-174544701D02*
X257104278Y-174306605D01*
X257104278Y-174306605D02*
X257282850Y-173830415D01*
X257282850Y-173830415D02*
X257104278Y-172401843D01*
X257104278Y-172401843D02*
X256806659Y-171925653D01*
X256806659Y-171925653D02*
X256538802Y-171687558D01*
X256538802Y-171687558D02*
X256032850Y-171449462D01*
X256032850Y-171449462D02*
X255080469Y-171449462D01*
X255080469Y-171449462D02*
X254634040Y-171687558D01*
X253889992Y-175258986D02*
X250080468Y-175258986D01*
X248830468Y-174782796D02*
X248205468Y-169782796D01*
X248205468Y-169782796D02*
X246300706Y-169782796D01*
X246300706Y-169782796D02*
X245854278Y-170020891D01*
X245854278Y-170020891D02*
X245645944Y-170258986D01*
X245645944Y-170258986D02*
X245467373Y-170735177D01*
X245467373Y-170735177D02*
X245556659Y-171449462D01*
X245556659Y-171449462D02*
X245854278Y-171925653D01*
X245854278Y-171925653D02*
X246122135Y-172163748D01*
X246122135Y-172163748D02*
X246628087Y-172401843D01*
X246628087Y-172401843D02*
X248532849Y-172401843D01*
X243830468Y-174782796D02*
X243413802Y-171449462D01*
X243532849Y-172401843D02*
X243235230Y-171925653D01*
X243235230Y-171925653D02*
X242967373Y-171687558D01*
X242967373Y-171687558D02*
X242461421Y-171449462D01*
X242461421Y-171449462D02*
X241985230Y-171449462D01*
X240020945Y-174782796D02*
X240467373Y-174544701D01*
X240467373Y-174544701D02*
X240675706Y-174306605D01*
X240675706Y-174306605D02*
X240854278Y-173830415D01*
X240854278Y-173830415D02*
X240675706Y-172401843D01*
X240675706Y-172401843D02*
X240378087Y-171925653D01*
X240378087Y-171925653D02*
X240110230Y-171687558D01*
X240110230Y-171687558D02*
X239604278Y-171449462D01*
X239604278Y-171449462D02*
X238889992Y-171449462D01*
X238889992Y-171449462D02*
X238443564Y-171687558D01*
X238443564Y-171687558D02*
X238235230Y-171925653D01*
X238235230Y-171925653D02*
X238056659Y-172401843D01*
X238056659Y-172401843D02*
X238235230Y-173830415D01*
X238235230Y-173830415D02*
X238532849Y-174306605D01*
X238532849Y-174306605D02*
X238800706Y-174544701D01*
X238800706Y-174544701D02*
X239306659Y-174782796D01*
X239306659Y-174782796D02*
X240020945Y-174782796D01*
X236509039Y-171449462D02*
X234604277Y-171449462D01*
X235586420Y-169782796D02*
X236122135Y-174068510D01*
X236122135Y-174068510D02*
X235943563Y-174544701D01*
X235943563Y-174544701D02*
X235497135Y-174782796D01*
X235497135Y-174782796D02*
X235020944Y-174782796D01*
X233443563Y-169782796D02*
X232401896Y-174782796D01*
X232401896Y-174782796D02*
X230110230Y-169782796D01*
X226449516Y-174782796D02*
X229306658Y-174782796D01*
X227878087Y-174782796D02*
X227253087Y-169782796D01*
X227253087Y-169782796D02*
X227818563Y-170497081D01*
X227818563Y-170497081D02*
X228354278Y-170973272D01*
X228354278Y-170973272D02*
X228860230Y-171211367D01*
D11*
X203021699Y-95405699D02*
X203021699Y-110905699D01*
%LPC*%
D12*
X299196699Y-72196701D03*
X303696699Y-72196701D03*
X308196699Y-72196701D03*
D13*
X138346699Y-74446701D03*
X131046699Y-74446701D03*
X138346699Y-69946701D03*
X131046699Y-69946701D03*
D14*
X227416698Y-145596699D03*
D15*
X232496698Y-145596699D03*
D14*
X237576698Y-145596699D03*
D16*
X231226698Y-154596699D03*
X232496698Y-154596699D03*
X233766698Y-154596699D03*
D14*
X201416698Y-134096699D03*
D15*
X206496698Y-134096699D03*
D14*
X211576698Y-134096699D03*
D16*
X205226698Y-143096699D03*
X206496698Y-143096699D03*
X207766698Y-143096699D03*
D13*
X274346699Y-74446701D03*
X267046699Y-74446701D03*
X274346699Y-69946701D03*
X267046699Y-69946701D03*
D14*
X130816700Y-112396699D03*
D15*
X135896700Y-112396699D03*
D14*
X140976700Y-112396699D03*
D16*
X134626700Y-121396699D03*
X135896700Y-121396699D03*
X137166700Y-121396699D03*
D17*
X257696699Y-200196701D03*
D14*
X167080626Y-187419100D03*
D15*
X171582540Y-189772644D03*
D14*
X176084454Y-192126188D03*
D16*
X172888566Y-197203303D03*
X173476952Y-196077825D03*
X174065338Y-194952346D03*
D14*
X314814884Y-123556177D03*
D15*
X319774468Y-122456664D03*
D14*
X324734052Y-121357151D03*
D16*
X316028059Y-126810744D03*
X316302937Y-128050640D03*
X316577815Y-129290536D03*
D17*
X327696699Y-192196701D03*
D14*
X98816700Y-112396700D03*
D15*
X103896700Y-112396700D03*
D14*
X108976700Y-112396700D03*
D16*
X102626700Y-121396700D03*
X103896700Y-121396700D03*
X105166700Y-121396700D03*
D13*
X123346699Y-74446701D03*
X116046699Y-74446701D03*
X123346699Y-69946701D03*
X116046699Y-69946701D03*
D17*
X67696699Y-80196701D03*
D18*
X188696699Y-90495699D03*
X188696699Y-93035699D03*
X188696699Y-95575699D03*
X188696699Y-98115699D03*
X188696699Y-100655699D03*
X188696699Y-103195699D03*
X188696699Y-105735699D03*
X188696699Y-108275699D03*
X188696699Y-110815699D03*
X206696699Y-110815699D03*
X206696699Y-108275699D03*
X206696699Y-105735699D03*
X206696699Y-103195699D03*
X206696699Y-100655699D03*
X206696699Y-98115699D03*
X206696699Y-95575699D03*
X206696699Y-93035699D03*
X206696699Y-90495699D03*
D19*
X203046699Y-108855699D03*
X203046699Y-107255699D03*
X203046699Y-105655699D03*
X203046699Y-104055699D03*
X203046699Y-102455699D03*
X203046699Y-100855699D03*
X203046699Y-99255699D03*
X203046699Y-97655699D03*
D17*
X137696699Y-200196701D03*
X67696699Y-145196701D03*
D14*
X157816700Y-129596699D03*
D15*
X162896700Y-129596699D03*
D14*
X167976700Y-129596699D03*
D16*
X161626700Y-138596699D03*
X162896700Y-138596699D03*
X164166700Y-138596699D03*
D14*
X286416698Y-128396700D03*
D15*
X291496698Y-128396700D03*
D14*
X296576698Y-128396700D03*
D16*
X290226698Y-137396700D03*
X291496698Y-137396700D03*
X292766698Y-137396700D03*
D17*
X327696699Y-80196701D03*
D13*
X108346699Y-74446701D03*
X101046699Y-74446701D03*
X108346699Y-69946701D03*
X101046699Y-69946701D03*
D17*
X327696699Y-145196701D03*
D14*
X282416698Y-97396700D03*
D15*
X287496698Y-97396700D03*
D14*
X292576698Y-97396700D03*
D16*
X286226698Y-106396700D03*
X287496698Y-106396700D03*
X288766698Y-106396700D03*
D17*
X177521699Y-72196701D03*
D14*
X249416698Y-97396699D03*
D15*
X254496698Y-97396699D03*
D14*
X259576698Y-97396699D03*
D16*
X253226698Y-106396699D03*
X254496698Y-106396699D03*
X255766698Y-106396699D03*
D17*
X197696699Y-200196701D03*
D13*
X289346699Y-74446701D03*
X282046699Y-74446701D03*
X289346699Y-69946701D03*
X282046699Y-69946701D03*
D17*
X184696699Y-132196701D03*
D14*
X222416698Y-114596699D03*
D15*
X227496698Y-114596699D03*
D14*
X232576698Y-114596699D03*
D16*
X226226698Y-123596699D03*
X227496698Y-123596699D03*
X228766698Y-123596699D03*
D17*
X218196699Y-72196701D03*
D13*
X259346699Y-74446701D03*
X252046699Y-74446701D03*
X259346699Y-69946701D03*
X252046699Y-69946701D03*
D14*
X254416698Y-128396699D03*
D15*
X259496698Y-128396699D03*
D14*
X264576698Y-128396699D03*
D16*
X258226698Y-137396699D03*
X259496698Y-137396699D03*
X260766698Y-137396699D03*
D17*
X67696699Y-192196701D03*
D14*
X219308944Y-192126188D03*
D15*
X223810858Y-189772644D03*
D14*
X228312772Y-187419100D03*
D16*
X221328060Y-194952346D03*
X221916446Y-196077825D03*
X222504832Y-197203303D03*
%LPD*%
M02*
