%TF.GenerationSoftware,KiCad,Pcbnew,9.0.0*%
%TF.CreationDate,2025-05-11T16:12:43-07:00*%
%TF.ProjectId,HE_Leverless_Mainboard,48455f4c-6576-4657-926c-6573735f4d61,rev?*%
%TF.SameCoordinates,Original*%
%TF.FileFunction,Drillmap*%
%TF.FilePolarity,Positive*%
%FSLAX45Y45*%
G04 Gerber Fmt 4.5, Leading zero omitted, Abs format (unit mm)*
G04 Created by KiCad (PCBNEW 9.0.0) date 2025-05-11 16:12:43*
%MOMM*%
%LPD*%
G01*
G04 APERTURE LIST*
%ADD10C,0.050000*%
%ADD11C,0.010050*%
%ADD12C,0.200000*%
%ADD13C,0.100000*%
%ADD14C,0.150000*%
%ADD15C,0.320000*%
G04 APERTURE END LIST*
D10*
X20302170Y-8890570D02*
G75*
G02*
X20402170Y-8790570I100000J0D01*
G01*
X32519670Y-6719670D02*
G75*
G02*
X33269670Y-7469670I0J-750000D01*
G01*
X7019670Y-20519670D02*
X32519670Y-20515570D01*
X7019670Y-6719670D02*
X18152170Y-6719669D01*
X21419670Y-6719670D02*
X32519670Y-6719670D01*
X21319670Y-6819670D02*
G75*
G02*
X21419670Y-6719670I100000J0D01*
G01*
X33269670Y-19765570D02*
G75*
G02*
X32519670Y-20515570I-750000J0D01*
G01*
X20402170Y-8790570D02*
X21119670Y-8790570D01*
X6269670Y-19769670D02*
X6269670Y-7469670D01*
X7019670Y-20519670D02*
G75*
G02*
X6269670Y-19769670I0J750000D01*
G01*
X21319670Y-8590570D02*
G75*
G02*
X21119670Y-8790570I-200000J0D01*
G01*
X18152170Y-6719669D02*
G75*
G02*
X18252171Y-6819669I0J-100001D01*
G01*
D11*
X10390173Y-11239670D02*
G75*
G02*
X10389168Y-11239670I-503J0D01*
G01*
X10389168Y-11239670D02*
G75*
G02*
X10390173Y-11239670I503J0D01*
G01*
D10*
X33269670Y-7469670D02*
X33269670Y-19765570D01*
X21319670Y-8590570D02*
X21319670Y-6819670D01*
X19137170Y-8790570D02*
G75*
G02*
X19237170Y-8890570I0J-100000D01*
G01*
X18452170Y-8790570D02*
G75*
G02*
X18252170Y-8590570I0J200000D01*
G01*
X18252170Y-8590570D02*
X18252170Y-6819669D01*
X6269670Y-7469670D02*
G75*
G02*
X7019670Y-6719670I750000J0D01*
G01*
X18452170Y-8790570D02*
X19137170Y-8790570D01*
X19237170Y-8890570D02*
X19237170Y-11115570D01*
X20069670Y-9665570D02*
X20069670Y-10965570D01*
X20119670Y-9615570D02*
X20237170Y-9615570D01*
X20237170Y-11015570D02*
X20119670Y-11015570D01*
X20252170Y-11165570D02*
X19287170Y-11165570D01*
X20302170Y-9615570D02*
X20302170Y-8890570D01*
X20302170Y-11015570D02*
X20302170Y-11115570D01*
X19287170Y-11165570D02*
G75*
G02*
X19237170Y-11115570I0J50000D01*
G01*
X20069670Y-9665570D02*
G75*
G02*
X20119670Y-9615570I50000J0D01*
G01*
X20119670Y-11015570D02*
G75*
G02*
X20069670Y-10965570I0J50000D01*
G01*
X20237170Y-11015570D02*
G75*
G02*
X20302170Y-11015570I32500J0D01*
G01*
X20302170Y-9615570D02*
G75*
G02*
X20237170Y-9615570I-32500J0D01*
G01*
X20302170Y-11115570D02*
G75*
G02*
X20252170Y-11165570I-50000J0D01*
G01*
D12*
D13*
X7744670Y-17510570D02*
X7774670Y-17540570D01*
X7774670Y-17510570D02*
X7744670Y-17540570D01*
X7804670Y-10055570D02*
X7834670Y-10085570D01*
X7834670Y-10055570D02*
X7804670Y-10085570D01*
X10374670Y-12745570D02*
X10404670Y-12775570D01*
X10404670Y-12745570D02*
X10374670Y-12775570D01*
X11659670Y-18800570D02*
X11689670Y-18830570D01*
X11689670Y-18800570D02*
X11659670Y-18830570D01*
X13584670Y-12745570D02*
X13614670Y-12775570D01*
X13614670Y-12745570D02*
X13584670Y-12775570D01*
X14754670Y-8000570D02*
X14784670Y-8030570D01*
X14784670Y-8000570D02*
X14754670Y-8030570D01*
X15354670Y-7650570D02*
X15384670Y-7680570D01*
X15384670Y-7650570D02*
X15354670Y-7680570D01*
X15654670Y-9050570D02*
X15684670Y-9080570D01*
X15684670Y-9050570D02*
X15654670Y-9080570D01*
X15979670Y-10900570D02*
X16009670Y-10930570D01*
X16009670Y-10900570D02*
X15979670Y-10930570D01*
X16284670Y-14445570D02*
X16314670Y-14475570D01*
X16314670Y-14445570D02*
X16284670Y-14475570D01*
X16299670Y-8100570D02*
X16329670Y-8130570D01*
X16329670Y-8100570D02*
X16299670Y-8130570D01*
X16679670Y-9050570D02*
X16709670Y-9080570D01*
X16709670Y-9050570D02*
X16679670Y-9080570D01*
X17179670Y-9700570D02*
X17209670Y-9730570D01*
X17209670Y-9700570D02*
X17179670Y-9730570D01*
X17204670Y-17150570D02*
X17234670Y-17180570D01*
X17234670Y-17150570D02*
X17204670Y-17180570D01*
X17243115Y-10312125D02*
X17273115Y-10342125D01*
X17273115Y-10312125D02*
X17243115Y-10342125D01*
X17354670Y-16200570D02*
X17384670Y-16230570D01*
X17384670Y-16200570D02*
X17354670Y-16230570D01*
X17443115Y-10312125D02*
X17473115Y-10342125D01*
X17473115Y-10312125D02*
X17443115Y-10342125D01*
X17643115Y-10312125D02*
X17673115Y-10342125D01*
X17673115Y-10312125D02*
X17643115Y-10342125D01*
X17729670Y-15350570D02*
X17759670Y-15380570D01*
X17759670Y-15350570D02*
X17729670Y-15380570D01*
X17729670Y-15431820D02*
X17759670Y-15461820D01*
X17759670Y-15431820D02*
X17729670Y-15461820D01*
X17729670Y-15513070D02*
X17759670Y-15543070D01*
X17759670Y-15513070D02*
X17729670Y-15543070D01*
X17729670Y-15594320D02*
X17759670Y-15624320D01*
X17759670Y-15594320D02*
X17729670Y-15624320D01*
X17729670Y-15675570D02*
X17759670Y-15705570D01*
X17759670Y-15675570D02*
X17729670Y-15705570D01*
X18169670Y-19635570D02*
X18199670Y-19665570D01*
X18199670Y-19635570D02*
X18169670Y-19665570D01*
X18179670Y-15350570D02*
X18209670Y-15380570D01*
X18209670Y-15350570D02*
X18179670Y-15380570D01*
X18179670Y-15431820D02*
X18209670Y-15461820D01*
X18209670Y-15431820D02*
X18179670Y-15461820D01*
X18179670Y-15513070D02*
X18209670Y-15543070D01*
X18209670Y-15513070D02*
X18179670Y-15543070D01*
X18179670Y-15594320D02*
X18209670Y-15624320D01*
X18209670Y-15594320D02*
X18179670Y-15624320D01*
X18179670Y-15675570D02*
X18209670Y-15705570D01*
X18209670Y-15675570D02*
X18179670Y-15705570D01*
X18229670Y-16200570D02*
X18259670Y-16230570D01*
X18259670Y-16200570D02*
X18229670Y-16230570D01*
X18704670Y-17150570D02*
X18734670Y-17180570D01*
X18734670Y-17150570D02*
X18704670Y-17180570D01*
X19093254Y-11312264D02*
X19123254Y-11342264D01*
X19123254Y-11312264D02*
X19093254Y-11342264D01*
X19093254Y-11412264D02*
X19123254Y-11442264D01*
X19123254Y-11412264D02*
X19093254Y-11442264D01*
X19093254Y-11512264D02*
X19123254Y-11542264D01*
X19123254Y-11512264D02*
X19093254Y-11542264D01*
X19479670Y-18950570D02*
X19509670Y-18980570D01*
X19509670Y-18950570D02*
X19479670Y-18980570D01*
X19879670Y-15975570D02*
X19909670Y-16005570D01*
X19909670Y-15975570D02*
X19879670Y-16005570D01*
X19879670Y-18550570D02*
X19909670Y-18580570D01*
X19909670Y-18550570D02*
X19879670Y-18580570D01*
X20529670Y-14950570D02*
X20559670Y-14980570D01*
X20559670Y-14950570D02*
X20529670Y-14980570D01*
X21004670Y-11754670D02*
X21034670Y-11784670D01*
X21034670Y-11754670D02*
X21004670Y-11784670D01*
X21129670Y-19575570D02*
X21159670Y-19605570D01*
X21159670Y-19575570D02*
X21129670Y-19605570D01*
X21704670Y-14400570D02*
X21734670Y-14430570D01*
X21734670Y-14400570D02*
X21704670Y-14430570D01*
X22054670Y-7854670D02*
X22084670Y-7884670D01*
X22084670Y-7854670D02*
X22054670Y-7884670D01*
X22304670Y-13050570D02*
X22334670Y-13080570D01*
X22334670Y-13050570D02*
X22304670Y-13080570D01*
X22679670Y-15350570D02*
X22709670Y-15380570D01*
X22709670Y-15350570D02*
X22679670Y-15380570D01*
X22679670Y-15431820D02*
X22709670Y-15461820D01*
X22709670Y-15431820D02*
X22679670Y-15461820D01*
X22679670Y-15513070D02*
X22709670Y-15543070D01*
X22709670Y-15513070D02*
X22679670Y-15543070D01*
X22679670Y-15594320D02*
X22709670Y-15624320D01*
X22709670Y-15594320D02*
X22679670Y-15624320D01*
X22679670Y-15675570D02*
X22709670Y-15705570D01*
X22709670Y-15675570D02*
X22679670Y-15705570D01*
X22694670Y-12935570D02*
X22724670Y-12965570D01*
X22724670Y-12935570D02*
X22694670Y-12965570D01*
X23229670Y-16075570D02*
X23259670Y-16105570D01*
X23259670Y-16075570D02*
X23229670Y-16105570D01*
X23349670Y-8195570D02*
X23379670Y-8225570D01*
X23379670Y-8195570D02*
X23349670Y-8225570D01*
X23354670Y-9954670D02*
X23384670Y-9984670D01*
X23384670Y-9954670D02*
X23354670Y-9984670D01*
X23704670Y-15350570D02*
X23734670Y-15380570D01*
X23734670Y-15350570D02*
X23704670Y-15380570D01*
X23704670Y-15431820D02*
X23734670Y-15461820D01*
X23734670Y-15431820D02*
X23704670Y-15461820D01*
X23704670Y-15513070D02*
X23734670Y-15543070D01*
X23734670Y-15513070D02*
X23704670Y-15543070D01*
X23704670Y-15594320D02*
X23734670Y-15624320D01*
X23734670Y-15594320D02*
X23704670Y-15624320D01*
X23704670Y-15675570D02*
X23734670Y-15705570D01*
X23734670Y-15675570D02*
X23704670Y-15705570D01*
X23904670Y-8554670D02*
X23934670Y-8584670D01*
X23934670Y-8554670D02*
X23904670Y-8584670D01*
X23904670Y-8654670D02*
X23934670Y-8684670D01*
X23934670Y-8654670D02*
X23904670Y-8684670D01*
X23904670Y-8754670D02*
X23934670Y-8784670D01*
X23934670Y-8754670D02*
X23904670Y-8784670D01*
X23904670Y-8854670D02*
X23934670Y-8884670D01*
X23934670Y-8854670D02*
X23904670Y-8884670D01*
X24029670Y-8225570D02*
X24059670Y-8255570D01*
X24059670Y-8225570D02*
X24029670Y-8255570D01*
X24354670Y-7950570D02*
X24384670Y-7980570D01*
X24384670Y-7950570D02*
X24354670Y-7980570D01*
X24404670Y-12625570D02*
X24434670Y-12655570D01*
X24434670Y-12625570D02*
X24404670Y-12655570D01*
X24404670Y-13625570D02*
X24434670Y-13655570D01*
X24434670Y-13625570D02*
X24404670Y-13655570D01*
X24779670Y-13375570D02*
X24809670Y-13405570D01*
X24809670Y-13375570D02*
X24779670Y-13405570D01*
X24829670Y-12400570D02*
X24859670Y-12430570D01*
X24859670Y-12400570D02*
X24829670Y-12430570D01*
X25054670Y-11654670D02*
X25084670Y-11684670D01*
X25084670Y-11654670D02*
X25054670Y-11684670D01*
X25294670Y-11225570D02*
X25324670Y-11255570D01*
X25324670Y-11225570D02*
X25294670Y-11255570D01*
X25929670Y-14325570D02*
X25959670Y-14355570D01*
X25959670Y-14325570D02*
X25929670Y-14355570D01*
X27964670Y-18950570D02*
X27994670Y-18980570D01*
X27994670Y-18950570D02*
X27964670Y-18980570D01*
X28754670Y-11225570D02*
X28784670Y-11255570D01*
X28784670Y-11225570D02*
X28754670Y-11255570D01*
X29169670Y-14450570D02*
X29199670Y-14480570D01*
X29199670Y-14450570D02*
X29169670Y-14480570D01*
X29629670Y-8225570D02*
X29659670Y-8255570D01*
X29659670Y-8225570D02*
X29629670Y-8255570D01*
X30004670Y-7950570D02*
X30034670Y-7980570D01*
X30034670Y-7950570D02*
X30004670Y-7980570D01*
X30129670Y-14700570D02*
X30159670Y-14730570D01*
X30159670Y-14700570D02*
X30129670Y-14730570D01*
X30254670Y-12125570D02*
X30284670Y-12155570D01*
X30284670Y-12125570D02*
X30254670Y-12155570D01*
X30254670Y-13550570D02*
X30284670Y-13580570D01*
X30284670Y-13550570D02*
X30254670Y-13580570D01*
X30504670Y-12850570D02*
X30534670Y-12880570D01*
X30534670Y-12850570D02*
X30504670Y-12880570D01*
X30704670Y-12700570D02*
X30734670Y-12730570D01*
X30734670Y-12700570D02*
X30704670Y-12730570D01*
X31579670Y-10150570D02*
X31609670Y-10180570D01*
X31609670Y-10150570D02*
X31579670Y-10180570D01*
X31734670Y-17545570D02*
X31764670Y-17575570D01*
X31764670Y-17545570D02*
X31734670Y-17575570D01*
X10287670Y-12139670D02*
G75*
G02*
X10237670Y-12139670I-25000J0D01*
G01*
X10237670Y-12139670D02*
G75*
G02*
X10287670Y-12139670I25000J0D01*
G01*
X10414670Y-12139670D02*
G75*
G02*
X10364670Y-12139670I-25000J0D01*
G01*
X10364670Y-12139670D02*
G75*
G02*
X10414670Y-12139670I25000J0D01*
G01*
X10541670Y-12139670D02*
G75*
G02*
X10491670Y-12139670I-25000J0D01*
G01*
X10491670Y-12139670D02*
G75*
G02*
X10541670Y-12139670I25000J0D01*
G01*
X13487670Y-12139670D02*
G75*
G02*
X13437670Y-12139670I-25000J0D01*
G01*
X13437670Y-12139670D02*
G75*
G02*
X13487670Y-12139670I25000J0D01*
G01*
X13614670Y-12139670D02*
G75*
G02*
X13564670Y-12139670I-25000J0D01*
G01*
X13564670Y-12139670D02*
G75*
G02*
X13614670Y-12139670I25000J0D01*
G01*
X13741670Y-12139670D02*
G75*
G02*
X13691670Y-12139670I-25000J0D01*
G01*
X13691670Y-12139670D02*
G75*
G02*
X13741670Y-12139670I25000J0D01*
G01*
X16187670Y-13859670D02*
G75*
G02*
X16137670Y-13859670I-25000J0D01*
G01*
X16137670Y-13859670D02*
G75*
G02*
X16187670Y-13859670I25000J0D01*
G01*
X16314670Y-13859670D02*
G75*
G02*
X16264670Y-13859670I-25000J0D01*
G01*
X16264670Y-13859670D02*
G75*
G02*
X16314670Y-13859670I25000J0D01*
G01*
X16441670Y-13859670D02*
G75*
G02*
X16391670Y-13859670I-25000J0D01*
G01*
X16391670Y-13859670D02*
G75*
G02*
X16441670Y-13859670I25000J0D01*
G01*
X17313857Y-19720330D02*
G75*
G02*
X17263857Y-19720330I-25000J0D01*
G01*
X17263857Y-19720330D02*
G75*
G02*
X17313857Y-19720330I25000J0D01*
G01*
X17372695Y-19607783D02*
G75*
G02*
X17322695Y-19607783I-25000J0D01*
G01*
X17322695Y-19607783D02*
G75*
G02*
X17372695Y-19607783I25000J0D01*
G01*
X17431534Y-19495235D02*
G75*
G02*
X17381534Y-19495235I-25000J0D01*
G01*
X17381534Y-19495235D02*
G75*
G02*
X17431534Y-19495235I25000J0D01*
G01*
X20547670Y-14309670D02*
G75*
G02*
X20497670Y-14309670I-25000J0D01*
G01*
X20497670Y-14309670D02*
G75*
G02*
X20547670Y-14309670I25000J0D01*
G01*
X20674670Y-14309670D02*
G75*
G02*
X20624670Y-14309670I-25000J0D01*
G01*
X20624670Y-14309670D02*
G75*
G02*
X20674670Y-14309670I25000J0D01*
G01*
X20801670Y-14309670D02*
G75*
G02*
X20751670Y-14309670I-25000J0D01*
G01*
X20751670Y-14309670D02*
G75*
G02*
X20801670Y-14309670I25000J0D01*
G01*
X22157806Y-19495235D02*
G75*
G02*
X22107806Y-19495235I-25000J0D01*
G01*
X22107806Y-19495235D02*
G75*
G02*
X22157806Y-19495235I25000J0D01*
G01*
X22216645Y-19607783D02*
G75*
G02*
X22166645Y-19607783I-25000J0D01*
G01*
X22166645Y-19607783D02*
G75*
G02*
X22216645Y-19607783I25000J0D01*
G01*
X22275483Y-19720330D02*
G75*
G02*
X22225483Y-19720330I-25000J0D01*
G01*
X22225483Y-19720330D02*
G75*
G02*
X22275483Y-19720330I25000J0D01*
G01*
X22647670Y-12359670D02*
G75*
G02*
X22597670Y-12359670I-25000J0D01*
G01*
X22597670Y-12359670D02*
G75*
G02*
X22647670Y-12359670I25000J0D01*
G01*
X22774670Y-12359670D02*
G75*
G02*
X22724670Y-12359670I-25000J0D01*
G01*
X22724670Y-12359670D02*
G75*
G02*
X22774670Y-12359670I25000J0D01*
G01*
X22901670Y-12359670D02*
G75*
G02*
X22851670Y-12359670I-25000J0D01*
G01*
X22851670Y-12359670D02*
G75*
G02*
X22901670Y-12359670I25000J0D01*
G01*
X23147670Y-15459670D02*
G75*
G02*
X23097670Y-15459670I-25000J0D01*
G01*
X23097670Y-15459670D02*
G75*
G02*
X23147670Y-15459670I25000J0D01*
G01*
X23274670Y-15459670D02*
G75*
G02*
X23224670Y-15459670I-25000J0D01*
G01*
X23224670Y-15459670D02*
G75*
G02*
X23274670Y-15459670I25000J0D01*
G01*
X23401670Y-15459670D02*
G75*
G02*
X23351670Y-15459670I-25000J0D01*
G01*
X23351670Y-15459670D02*
G75*
G02*
X23401670Y-15459670I25000J0D01*
G01*
X25347670Y-10639670D02*
G75*
G02*
X25297670Y-10639670I-25000J0D01*
G01*
X25297670Y-10639670D02*
G75*
G02*
X25347670Y-10639670I25000J0D01*
G01*
X25474670Y-10639670D02*
G75*
G02*
X25424670Y-10639670I-25000J0D01*
G01*
X25424670Y-10639670D02*
G75*
G02*
X25474670Y-10639670I25000J0D01*
G01*
X25601670Y-10639670D02*
G75*
G02*
X25551670Y-10639670I-25000J0D01*
G01*
X25551670Y-10639670D02*
G75*
G02*
X25601670Y-10639670I25000J0D01*
G01*
X25847670Y-13739670D02*
G75*
G02*
X25797670Y-13739670I-25000J0D01*
G01*
X25797670Y-13739670D02*
G75*
G02*
X25847670Y-13739670I25000J0D01*
G01*
X25974670Y-13739670D02*
G75*
G02*
X25924670Y-13739670I-25000J0D01*
G01*
X25924670Y-13739670D02*
G75*
G02*
X25974670Y-13739670I25000J0D01*
G01*
X26101670Y-13739670D02*
G75*
G02*
X26051670Y-13739670I-25000J0D01*
G01*
X26051670Y-13739670D02*
G75*
G02*
X26101670Y-13739670I25000J0D01*
G01*
X28647670Y-10639670D02*
G75*
G02*
X28597670Y-10639670I-25000J0D01*
G01*
X28597670Y-10639670D02*
G75*
G02*
X28647670Y-10639670I25000J0D01*
G01*
X28774670Y-10639670D02*
G75*
G02*
X28724670Y-10639670I-25000J0D01*
G01*
X28724670Y-10639670D02*
G75*
G02*
X28774670Y-10639670I25000J0D01*
G01*
X28901670Y-10639670D02*
G75*
G02*
X28851670Y-10639670I-25000J0D01*
G01*
X28851670Y-10639670D02*
G75*
G02*
X28901670Y-10639670I25000J0D01*
G01*
X29047670Y-13739670D02*
G75*
G02*
X28997670Y-13739670I-25000J0D01*
G01*
X28997670Y-13739670D02*
G75*
G02*
X29047670Y-13739670I25000J0D01*
G01*
X29174670Y-13739670D02*
G75*
G02*
X29124670Y-13739670I-25000J0D01*
G01*
X29124670Y-13739670D02*
G75*
G02*
X29174670Y-13739670I25000J0D01*
G01*
X29301670Y-13739670D02*
G75*
G02*
X29251670Y-13739670I-25000J0D01*
G01*
X29251670Y-13739670D02*
G75*
G02*
X29301670Y-13739670I25000J0D01*
G01*
X31627806Y-12681074D02*
G75*
G02*
X31577806Y-12681074I-25000J0D01*
G01*
X31577806Y-12681074D02*
G75*
G02*
X31627806Y-12681074I25000J0D01*
G01*
X31655294Y-12805064D02*
G75*
G02*
X31605294Y-12805064I-25000J0D01*
G01*
X31605294Y-12805064D02*
G75*
G02*
X31655294Y-12805064I25000J0D01*
G01*
X31682781Y-12929054D02*
G75*
G02*
X31632781Y-12929054I-25000J0D01*
G01*
X31632781Y-12929054D02*
G75*
G02*
X31682781Y-12929054I25000J0D01*
G01*
X20304670Y-9735570D02*
X20304670Y-9795570D01*
X20274670Y-9765570D02*
X20334670Y-9765570D01*
X20304670Y-9895570D02*
X20304670Y-9955570D01*
X20274670Y-9925570D02*
X20334670Y-9925570D01*
X20304670Y-10055570D02*
X20304670Y-10115570D01*
X20274670Y-10085570D02*
X20334670Y-10085570D01*
X20304670Y-10215570D02*
X20304670Y-10275570D01*
X20274670Y-10245570D02*
X20334670Y-10245570D01*
X20304670Y-10375570D02*
X20304670Y-10435570D01*
X20274670Y-10405570D02*
X20334670Y-10405570D01*
X20304670Y-10535570D02*
X20304670Y-10595570D01*
X20274670Y-10565570D02*
X20334670Y-10565570D01*
X20304670Y-10695570D02*
X20304670Y-10755570D01*
X20274670Y-10725570D02*
X20334670Y-10725570D01*
X20304670Y-10855570D02*
X20304670Y-10915570D01*
X20274670Y-10885570D02*
X20334670Y-10885570D01*
X10132954Y-7022955D02*
X10132954Y-6966386D01*
X10076385Y-6966386D01*
X10076385Y-7022955D01*
X10132954Y-7022955D01*
X10132954Y-7472955D02*
X10132954Y-7416386D01*
X10076385Y-7416386D01*
X10076385Y-7472955D01*
X10132954Y-7472955D01*
X10862954Y-7022955D02*
X10862954Y-6966386D01*
X10806385Y-6966386D01*
X10806385Y-7022955D01*
X10862954Y-7022955D01*
X10862954Y-7472955D02*
X10862954Y-7416386D01*
X10806385Y-7416386D01*
X10806385Y-7472955D01*
X10862954Y-7472955D01*
X11632954Y-7022955D02*
X11632954Y-6966386D01*
X11576385Y-6966386D01*
X11576385Y-7022955D01*
X11632954Y-7022955D01*
X11632954Y-7472955D02*
X11632954Y-7416386D01*
X11576385Y-7416386D01*
X11576385Y-7472955D01*
X11632954Y-7472955D01*
X12362954Y-7022955D02*
X12362954Y-6966386D01*
X12306385Y-6966386D01*
X12306385Y-7022955D01*
X12362954Y-7022955D01*
X12362954Y-7472955D02*
X12362954Y-7416386D01*
X12306385Y-7416386D01*
X12306385Y-7472955D01*
X12362954Y-7472955D01*
X13132954Y-7022955D02*
X13132954Y-6966386D01*
X13076385Y-6966386D01*
X13076385Y-7022955D01*
X13132954Y-7022955D01*
X13132954Y-7472955D02*
X13132954Y-7416386D01*
X13076385Y-7416386D01*
X13076385Y-7472955D01*
X13132954Y-7472955D01*
X13862954Y-7022955D02*
X13862954Y-6966386D01*
X13806385Y-6966386D01*
X13806385Y-7022955D01*
X13862954Y-7022955D01*
X13862954Y-7472955D02*
X13862954Y-7416386D01*
X13806385Y-7416386D01*
X13806385Y-7472955D01*
X13862954Y-7472955D01*
X25232954Y-7022955D02*
X25232954Y-6966386D01*
X25176385Y-6966386D01*
X25176385Y-7022955D01*
X25232954Y-7022955D01*
X25232954Y-7472955D02*
X25232954Y-7416386D01*
X25176385Y-7416386D01*
X25176385Y-7472955D01*
X25232954Y-7472955D01*
X25962954Y-7022955D02*
X25962954Y-6966386D01*
X25906385Y-6966386D01*
X25906385Y-7022955D01*
X25962954Y-7022955D01*
X25962954Y-7472955D02*
X25962954Y-7416386D01*
X25906385Y-7416386D01*
X25906385Y-7472955D01*
X25962954Y-7472955D01*
X26732954Y-7022955D02*
X26732954Y-6966386D01*
X26676385Y-6966386D01*
X26676385Y-7022955D01*
X26732954Y-7022955D01*
X26732954Y-7472955D02*
X26732954Y-7416386D01*
X26676385Y-7416386D01*
X26676385Y-7472955D01*
X26732954Y-7472955D01*
X27462954Y-7022955D02*
X27462954Y-6966386D01*
X27406385Y-6966386D01*
X27406385Y-7022955D01*
X27462954Y-7022955D01*
X27462954Y-7472955D02*
X27462954Y-7416386D01*
X27406385Y-7416386D01*
X27406385Y-7472955D01*
X27462954Y-7472955D01*
X28232954Y-7022955D02*
X28232954Y-6966386D01*
X28176385Y-6966386D01*
X28176385Y-7022955D01*
X28232954Y-7022955D01*
X28232954Y-7472955D02*
X28232954Y-7416386D01*
X28176385Y-7416386D01*
X28176385Y-7472955D01*
X28232954Y-7472955D01*
X28962954Y-7022955D02*
X28962954Y-6966386D01*
X28906385Y-6966386D01*
X28906385Y-7022955D01*
X28962954Y-7022955D01*
X28962954Y-7472955D02*
X28962954Y-7416386D01*
X28906385Y-7416386D01*
X28906385Y-7472955D01*
X28962954Y-7472955D01*
X18869670Y-9099570D02*
X18919670Y-9049570D01*
X18869670Y-8999570D01*
X18819670Y-9049570D01*
X18869670Y-9099570D01*
X18869670Y-9353570D02*
X18919670Y-9303570D01*
X18869670Y-9253570D01*
X18819670Y-9303570D01*
X18869670Y-9353570D01*
X18869670Y-9607570D02*
X18919670Y-9557570D01*
X18869670Y-9507570D01*
X18819670Y-9557570D01*
X18869670Y-9607570D01*
X18869670Y-9861570D02*
X18919670Y-9811570D01*
X18869670Y-9761570D01*
X18819670Y-9811570D01*
X18869670Y-9861570D01*
X18869670Y-10115570D02*
X18919670Y-10065570D01*
X18869670Y-10015570D01*
X18819670Y-10065570D01*
X18869670Y-10115570D01*
X18869670Y-10369570D02*
X18919670Y-10319570D01*
X18869670Y-10269570D01*
X18819670Y-10319570D01*
X18869670Y-10369570D01*
X18869670Y-10623570D02*
X18919670Y-10573570D01*
X18869670Y-10523570D01*
X18819670Y-10573570D01*
X18869670Y-10623570D01*
X18869670Y-10877570D02*
X18919670Y-10827570D01*
X18869670Y-10777570D01*
X18819670Y-10827570D01*
X18869670Y-10877570D01*
X18869670Y-11131570D02*
X18919670Y-11081570D01*
X18869670Y-11031570D01*
X18819670Y-11081570D01*
X18869670Y-11131570D01*
X20669670Y-9099570D02*
X20719670Y-9049570D01*
X20669670Y-8999570D01*
X20619670Y-9049570D01*
X20669670Y-9099570D01*
X20669670Y-9353570D02*
X20719670Y-9303570D01*
X20669670Y-9253570D01*
X20619670Y-9303570D01*
X20669670Y-9353570D01*
X20669670Y-9607570D02*
X20719670Y-9557570D01*
X20669670Y-9507570D01*
X20619670Y-9557570D01*
X20669670Y-9607570D01*
X20669670Y-9861570D02*
X20719670Y-9811570D01*
X20669670Y-9761570D01*
X20619670Y-9811570D01*
X20669670Y-9861570D01*
X20669670Y-10115570D02*
X20719670Y-10065570D01*
X20669670Y-10015570D01*
X20619670Y-10065570D01*
X20669670Y-10115570D01*
X20669670Y-10369570D02*
X20719670Y-10319570D01*
X20669670Y-10269570D01*
X20619670Y-10319570D01*
X20669670Y-10369570D01*
X20669670Y-10623570D02*
X20719670Y-10573570D01*
X20669670Y-10523570D01*
X20619670Y-10573570D01*
X20669670Y-10623570D01*
X20669670Y-10877570D02*
X20719670Y-10827570D01*
X20669670Y-10777570D01*
X20619670Y-10827570D01*
X20669670Y-10877570D01*
X20669670Y-11131570D02*
X20719670Y-11081570D01*
X20669670Y-11031570D01*
X20619670Y-11081570D01*
X20669670Y-11131570D01*
D14*
X29844670Y-7144670D02*
X29994670Y-7294670D01*
X29994670Y-7144670D02*
X29844670Y-7294670D01*
X29994670Y-7219670D02*
G75*
G02*
X29844670Y-7219670I-75000J0D01*
G01*
X29844670Y-7219670D02*
G75*
G02*
X29994670Y-7219670I75000J0D01*
G01*
X30294670Y-7144670D02*
X30444670Y-7294670D01*
X30444670Y-7144670D02*
X30294670Y-7294670D01*
X30444670Y-7219670D02*
G75*
G02*
X30294670Y-7219670I-75000J0D01*
G01*
X30294670Y-7219670D02*
G75*
G02*
X30444670Y-7219670I75000J0D01*
G01*
X30744670Y-7144670D02*
X30894670Y-7294670D01*
X30894670Y-7144670D02*
X30744670Y-7294670D01*
X30894670Y-7219670D02*
G75*
G02*
X30744670Y-7219670I-75000J0D01*
G01*
X30744670Y-7219670D02*
G75*
G02*
X30894670Y-7219670I75000J0D01*
G01*
D15*
X6609670Y-7859670D02*
X6929670Y-8179670D01*
X6929670Y-7859670D02*
X6609670Y-8179670D01*
X6769670Y-7859670D02*
X6769670Y-8179670D01*
X6609670Y-8019670D02*
X6929670Y-8019670D01*
X6609670Y-14359670D02*
X6929670Y-14679670D01*
X6929670Y-14359670D02*
X6609670Y-14679670D01*
X6769670Y-14359670D02*
X6769670Y-14679670D01*
X6609670Y-14519670D02*
X6929670Y-14519670D01*
X6609670Y-19059670D02*
X6929670Y-19379670D01*
X6929670Y-19059670D02*
X6609670Y-19379670D01*
X6769670Y-19059670D02*
X6769670Y-19379670D01*
X6609670Y-19219670D02*
X6929670Y-19219670D01*
X13609670Y-19859670D02*
X13929670Y-20179670D01*
X13929670Y-19859670D02*
X13609670Y-20179670D01*
X13769670Y-19859670D02*
X13769670Y-20179670D01*
X13609670Y-20019670D02*
X13929670Y-20019670D01*
X17592170Y-7059670D02*
X17912170Y-7379670D01*
X17912170Y-7059670D02*
X17592170Y-7379670D01*
X17752170Y-7059670D02*
X17752170Y-7379670D01*
X17592170Y-7219670D02*
X17912170Y-7219670D01*
X18309670Y-13059670D02*
X18629670Y-13379670D01*
X18629670Y-13059670D02*
X18309670Y-13379670D01*
X18469670Y-13059670D02*
X18469670Y-13379670D01*
X18309670Y-13219670D02*
X18629670Y-13219670D01*
X19609670Y-19859670D02*
X19929670Y-20179670D01*
X19929670Y-19859670D02*
X19609670Y-20179670D01*
X19769670Y-19859670D02*
X19769670Y-20179670D01*
X19609670Y-20019670D02*
X19929670Y-20019670D01*
X21659670Y-7059670D02*
X21979670Y-7379670D01*
X21979670Y-7059670D02*
X21659670Y-7379670D01*
X21819670Y-7059670D02*
X21819670Y-7379670D01*
X21659670Y-7219670D02*
X21979670Y-7219670D01*
X25609670Y-19859670D02*
X25929670Y-20179670D01*
X25929670Y-19859670D02*
X25609670Y-20179670D01*
X25769670Y-19859670D02*
X25769670Y-20179670D01*
X25609670Y-20019670D02*
X25929670Y-20019670D01*
X32609670Y-7859670D02*
X32929670Y-8179670D01*
X32929670Y-7859670D02*
X32609670Y-8179670D01*
X32769670Y-7859670D02*
X32769670Y-8179670D01*
X32609670Y-8019670D02*
X32929670Y-8019670D01*
X32609670Y-14359670D02*
X32929670Y-14679670D01*
X32929670Y-14359670D02*
X32609670Y-14679670D01*
X32769670Y-14359670D02*
X32769670Y-14679670D01*
X32609670Y-14519670D02*
X32929670Y-14519670D01*
X32609670Y-19059670D02*
X32929670Y-19379670D01*
X32929670Y-19059670D02*
X32609670Y-19379670D01*
X32769670Y-19059670D02*
X32769670Y-19379670D01*
X32609670Y-19219670D02*
X32929670Y-19219670D01*
D12*
X6527947Y-20833654D02*
X6527947Y-20633654D01*
X6527947Y-20633654D02*
X6575566Y-20633654D01*
X6575566Y-20633654D02*
X6604137Y-20643178D01*
X6604137Y-20643178D02*
X6623185Y-20662225D01*
X6623185Y-20662225D02*
X6632709Y-20681273D01*
X6632709Y-20681273D02*
X6642232Y-20719368D01*
X6642232Y-20719368D02*
X6642232Y-20747940D01*
X6642232Y-20747940D02*
X6632709Y-20786035D01*
X6632709Y-20786035D02*
X6623185Y-20805082D01*
X6623185Y-20805082D02*
X6604137Y-20824130D01*
X6604137Y-20824130D02*
X6575566Y-20833654D01*
X6575566Y-20833654D02*
X6527947Y-20833654D01*
X6727947Y-20833654D02*
X6727947Y-20700321D01*
X6727947Y-20738416D02*
X6737470Y-20719368D01*
X6737470Y-20719368D02*
X6746994Y-20709844D01*
X6746994Y-20709844D02*
X6766042Y-20700321D01*
X6766042Y-20700321D02*
X6785090Y-20700321D01*
X6851756Y-20833654D02*
X6851756Y-20700321D01*
X6851756Y-20633654D02*
X6842232Y-20643178D01*
X6842232Y-20643178D02*
X6851756Y-20652702D01*
X6851756Y-20652702D02*
X6861280Y-20643178D01*
X6861280Y-20643178D02*
X6851756Y-20633654D01*
X6851756Y-20633654D02*
X6851756Y-20652702D01*
X6975566Y-20833654D02*
X6956518Y-20824130D01*
X6956518Y-20824130D02*
X6946994Y-20805082D01*
X6946994Y-20805082D02*
X6946994Y-20633654D01*
X7080328Y-20833654D02*
X7061280Y-20824130D01*
X7061280Y-20824130D02*
X7051756Y-20805082D01*
X7051756Y-20805082D02*
X7051756Y-20633654D01*
X7308899Y-20833654D02*
X7308899Y-20633654D01*
X7308899Y-20633654D02*
X7375566Y-20776511D01*
X7375566Y-20776511D02*
X7442232Y-20633654D01*
X7442232Y-20633654D02*
X7442232Y-20833654D01*
X7623185Y-20833654D02*
X7623185Y-20728892D01*
X7623185Y-20728892D02*
X7613661Y-20709844D01*
X7613661Y-20709844D02*
X7594613Y-20700321D01*
X7594613Y-20700321D02*
X7556518Y-20700321D01*
X7556518Y-20700321D02*
X7537470Y-20709844D01*
X7623185Y-20824130D02*
X7604137Y-20833654D01*
X7604137Y-20833654D02*
X7556518Y-20833654D01*
X7556518Y-20833654D02*
X7537470Y-20824130D01*
X7537470Y-20824130D02*
X7527947Y-20805082D01*
X7527947Y-20805082D02*
X7527947Y-20786035D01*
X7527947Y-20786035D02*
X7537470Y-20766987D01*
X7537470Y-20766987D02*
X7556518Y-20757463D01*
X7556518Y-20757463D02*
X7604137Y-20757463D01*
X7604137Y-20757463D02*
X7623185Y-20747940D01*
X7718423Y-20700321D02*
X7718423Y-20900321D01*
X7718423Y-20709844D02*
X7737470Y-20700321D01*
X7737470Y-20700321D02*
X7775566Y-20700321D01*
X7775566Y-20700321D02*
X7794613Y-20709844D01*
X7794613Y-20709844D02*
X7804137Y-20719368D01*
X7804137Y-20719368D02*
X7813661Y-20738416D01*
X7813661Y-20738416D02*
X7813661Y-20795559D01*
X7813661Y-20795559D02*
X7804137Y-20814606D01*
X7804137Y-20814606D02*
X7794613Y-20824130D01*
X7794613Y-20824130D02*
X7775566Y-20833654D01*
X7775566Y-20833654D02*
X7737470Y-20833654D01*
X7737470Y-20833654D02*
X7718423Y-20824130D01*
X7899375Y-20814606D02*
X7908899Y-20824130D01*
X7908899Y-20824130D02*
X7899375Y-20833654D01*
X7899375Y-20833654D02*
X7889851Y-20824130D01*
X7889851Y-20824130D02*
X7899375Y-20814606D01*
X7899375Y-20814606D02*
X7899375Y-20833654D01*
X7899375Y-20709844D02*
X7908899Y-20719368D01*
X7908899Y-20719368D02*
X7899375Y-20728892D01*
X7899375Y-20728892D02*
X7889851Y-20719368D01*
X7889851Y-20719368D02*
X7899375Y-20709844D01*
X7899375Y-20709844D02*
X7899375Y-20728892D01*
D13*
X6237170Y-21147170D02*
X6267170Y-21177170D01*
X6267170Y-21147170D02*
X6237170Y-21177170D01*
D12*
X6566042Y-21053654D02*
X6585090Y-21053654D01*
X6585090Y-21053654D02*
X6604137Y-21063178D01*
X6604137Y-21063178D02*
X6613661Y-21072702D01*
X6613661Y-21072702D02*
X6623185Y-21091749D01*
X6623185Y-21091749D02*
X6632709Y-21129844D01*
X6632709Y-21129844D02*
X6632709Y-21177463D01*
X6632709Y-21177463D02*
X6623185Y-21215559D01*
X6623185Y-21215559D02*
X6613661Y-21234606D01*
X6613661Y-21234606D02*
X6604137Y-21244130D01*
X6604137Y-21244130D02*
X6585090Y-21253654D01*
X6585090Y-21253654D02*
X6566042Y-21253654D01*
X6566042Y-21253654D02*
X6546994Y-21244130D01*
X6546994Y-21244130D02*
X6537470Y-21234606D01*
X6537470Y-21234606D02*
X6527947Y-21215559D01*
X6527947Y-21215559D02*
X6518423Y-21177463D01*
X6518423Y-21177463D02*
X6518423Y-21129844D01*
X6518423Y-21129844D02*
X6527947Y-21091749D01*
X6527947Y-21091749D02*
X6537470Y-21072702D01*
X6537470Y-21072702D02*
X6546994Y-21063178D01*
X6546994Y-21063178D02*
X6566042Y-21053654D01*
X6718423Y-21234606D02*
X6727947Y-21244130D01*
X6727947Y-21244130D02*
X6718423Y-21253654D01*
X6718423Y-21253654D02*
X6708899Y-21244130D01*
X6708899Y-21244130D02*
X6718423Y-21234606D01*
X6718423Y-21234606D02*
X6718423Y-21253654D01*
X6794613Y-21053654D02*
X6918423Y-21053654D01*
X6918423Y-21053654D02*
X6851756Y-21129844D01*
X6851756Y-21129844D02*
X6880328Y-21129844D01*
X6880328Y-21129844D02*
X6899375Y-21139368D01*
X6899375Y-21139368D02*
X6908899Y-21148892D01*
X6908899Y-21148892D02*
X6918423Y-21167940D01*
X6918423Y-21167940D02*
X6918423Y-21215559D01*
X6918423Y-21215559D02*
X6908899Y-21234606D01*
X6908899Y-21234606D02*
X6899375Y-21244130D01*
X6899375Y-21244130D02*
X6880328Y-21253654D01*
X6880328Y-21253654D02*
X6823185Y-21253654D01*
X6823185Y-21253654D02*
X6804137Y-21244130D01*
X6804137Y-21244130D02*
X6794613Y-21234606D01*
X7042232Y-21053654D02*
X7061280Y-21053654D01*
X7061280Y-21053654D02*
X7080328Y-21063178D01*
X7080328Y-21063178D02*
X7089851Y-21072702D01*
X7089851Y-21072702D02*
X7099375Y-21091749D01*
X7099375Y-21091749D02*
X7108899Y-21129844D01*
X7108899Y-21129844D02*
X7108899Y-21177463D01*
X7108899Y-21177463D02*
X7099375Y-21215559D01*
X7099375Y-21215559D02*
X7089851Y-21234606D01*
X7089851Y-21234606D02*
X7080328Y-21244130D01*
X7080328Y-21244130D02*
X7061280Y-21253654D01*
X7061280Y-21253654D02*
X7042232Y-21253654D01*
X7042232Y-21253654D02*
X7023185Y-21244130D01*
X7023185Y-21244130D02*
X7013661Y-21234606D01*
X7013661Y-21234606D02*
X7004137Y-21215559D01*
X7004137Y-21215559D02*
X6994613Y-21177463D01*
X6994613Y-21177463D02*
X6994613Y-21129844D01*
X6994613Y-21129844D02*
X7004137Y-21091749D01*
X7004137Y-21091749D02*
X7013661Y-21072702D01*
X7013661Y-21072702D02*
X7023185Y-21063178D01*
X7023185Y-21063178D02*
X7042232Y-21053654D01*
X7232709Y-21053654D02*
X7251756Y-21053654D01*
X7251756Y-21053654D02*
X7270804Y-21063178D01*
X7270804Y-21063178D02*
X7280328Y-21072702D01*
X7280328Y-21072702D02*
X7289851Y-21091749D01*
X7289851Y-21091749D02*
X7299375Y-21129844D01*
X7299375Y-21129844D02*
X7299375Y-21177463D01*
X7299375Y-21177463D02*
X7289851Y-21215559D01*
X7289851Y-21215559D02*
X7280328Y-21234606D01*
X7280328Y-21234606D02*
X7270804Y-21244130D01*
X7270804Y-21244130D02*
X7251756Y-21253654D01*
X7251756Y-21253654D02*
X7232709Y-21253654D01*
X7232709Y-21253654D02*
X7213661Y-21244130D01*
X7213661Y-21244130D02*
X7204137Y-21234606D01*
X7204137Y-21234606D02*
X7194613Y-21215559D01*
X7194613Y-21215559D02*
X7185090Y-21177463D01*
X7185090Y-21177463D02*
X7185090Y-21129844D01*
X7185090Y-21129844D02*
X7194613Y-21091749D01*
X7194613Y-21091749D02*
X7204137Y-21072702D01*
X7204137Y-21072702D02*
X7213661Y-21063178D01*
X7213661Y-21063178D02*
X7232709Y-21053654D01*
X7385090Y-21253654D02*
X7385090Y-21120321D01*
X7385090Y-21139368D02*
X7394613Y-21129844D01*
X7394613Y-21129844D02*
X7413661Y-21120321D01*
X7413661Y-21120321D02*
X7442232Y-21120321D01*
X7442232Y-21120321D02*
X7461280Y-21129844D01*
X7461280Y-21129844D02*
X7470804Y-21148892D01*
X7470804Y-21148892D02*
X7470804Y-21253654D01*
X7470804Y-21148892D02*
X7480328Y-21129844D01*
X7480328Y-21129844D02*
X7499375Y-21120321D01*
X7499375Y-21120321D02*
X7527947Y-21120321D01*
X7527947Y-21120321D02*
X7546994Y-21129844D01*
X7546994Y-21129844D02*
X7556518Y-21148892D01*
X7556518Y-21148892D02*
X7556518Y-21253654D01*
X7651756Y-21253654D02*
X7651756Y-21120321D01*
X7651756Y-21139368D02*
X7661280Y-21129844D01*
X7661280Y-21129844D02*
X7680328Y-21120321D01*
X7680328Y-21120321D02*
X7708899Y-21120321D01*
X7708899Y-21120321D02*
X7727947Y-21129844D01*
X7727947Y-21129844D02*
X7737471Y-21148892D01*
X7737471Y-21148892D02*
X7737471Y-21253654D01*
X7737471Y-21148892D02*
X7746994Y-21129844D01*
X7746994Y-21129844D02*
X7766042Y-21120321D01*
X7766042Y-21120321D02*
X7794613Y-21120321D01*
X7794613Y-21120321D02*
X7813661Y-21129844D01*
X7813661Y-21129844D02*
X7823185Y-21148892D01*
X7823185Y-21148892D02*
X7823185Y-21253654D01*
X8213661Y-21044130D02*
X8042233Y-21301273D01*
X8470804Y-21053654D02*
X8489852Y-21053654D01*
X8489852Y-21053654D02*
X8508899Y-21063178D01*
X8508899Y-21063178D02*
X8518423Y-21072702D01*
X8518423Y-21072702D02*
X8527947Y-21091749D01*
X8527947Y-21091749D02*
X8537471Y-21129844D01*
X8537471Y-21129844D02*
X8537471Y-21177463D01*
X8537471Y-21177463D02*
X8527947Y-21215559D01*
X8527947Y-21215559D02*
X8518423Y-21234606D01*
X8518423Y-21234606D02*
X8508899Y-21244130D01*
X8508899Y-21244130D02*
X8489852Y-21253654D01*
X8489852Y-21253654D02*
X8470804Y-21253654D01*
X8470804Y-21253654D02*
X8451756Y-21244130D01*
X8451756Y-21244130D02*
X8442233Y-21234606D01*
X8442233Y-21234606D02*
X8432709Y-21215559D01*
X8432709Y-21215559D02*
X8423185Y-21177463D01*
X8423185Y-21177463D02*
X8423185Y-21129844D01*
X8423185Y-21129844D02*
X8432709Y-21091749D01*
X8432709Y-21091749D02*
X8442233Y-21072702D01*
X8442233Y-21072702D02*
X8451756Y-21063178D01*
X8451756Y-21063178D02*
X8470804Y-21053654D01*
X8623185Y-21234606D02*
X8632709Y-21244130D01*
X8632709Y-21244130D02*
X8623185Y-21253654D01*
X8623185Y-21253654D02*
X8613661Y-21244130D01*
X8613661Y-21244130D02*
X8623185Y-21234606D01*
X8623185Y-21234606D02*
X8623185Y-21253654D01*
X8756518Y-21053654D02*
X8775566Y-21053654D01*
X8775566Y-21053654D02*
X8794614Y-21063178D01*
X8794614Y-21063178D02*
X8804137Y-21072702D01*
X8804137Y-21072702D02*
X8813661Y-21091749D01*
X8813661Y-21091749D02*
X8823185Y-21129844D01*
X8823185Y-21129844D02*
X8823185Y-21177463D01*
X8823185Y-21177463D02*
X8813661Y-21215559D01*
X8813661Y-21215559D02*
X8804137Y-21234606D01*
X8804137Y-21234606D02*
X8794614Y-21244130D01*
X8794614Y-21244130D02*
X8775566Y-21253654D01*
X8775566Y-21253654D02*
X8756518Y-21253654D01*
X8756518Y-21253654D02*
X8737471Y-21244130D01*
X8737471Y-21244130D02*
X8727947Y-21234606D01*
X8727947Y-21234606D02*
X8718423Y-21215559D01*
X8718423Y-21215559D02*
X8708899Y-21177463D01*
X8708899Y-21177463D02*
X8708899Y-21129844D01*
X8708899Y-21129844D02*
X8718423Y-21091749D01*
X8718423Y-21091749D02*
X8727947Y-21072702D01*
X8727947Y-21072702D02*
X8737471Y-21063178D01*
X8737471Y-21063178D02*
X8756518Y-21053654D01*
X9013661Y-21253654D02*
X8899376Y-21253654D01*
X8956518Y-21253654D02*
X8956518Y-21053654D01*
X8956518Y-21053654D02*
X8937471Y-21082225D01*
X8937471Y-21082225D02*
X8918423Y-21101273D01*
X8918423Y-21101273D02*
X8899376Y-21110797D01*
X9204137Y-21253654D02*
X9089852Y-21253654D01*
X9146995Y-21253654D02*
X9146995Y-21053654D01*
X9146995Y-21053654D02*
X9127947Y-21082225D01*
X9127947Y-21082225D02*
X9108899Y-21101273D01*
X9108899Y-21101273D02*
X9089852Y-21110797D01*
X9318423Y-21139368D02*
X9299376Y-21129844D01*
X9299376Y-21129844D02*
X9289852Y-21120321D01*
X9289852Y-21120321D02*
X9280328Y-21101273D01*
X9280328Y-21101273D02*
X9280328Y-21091749D01*
X9280328Y-21091749D02*
X9289852Y-21072702D01*
X9289852Y-21072702D02*
X9299376Y-21063178D01*
X9299376Y-21063178D02*
X9318423Y-21053654D01*
X9318423Y-21053654D02*
X9356518Y-21053654D01*
X9356518Y-21053654D02*
X9375566Y-21063178D01*
X9375566Y-21063178D02*
X9385090Y-21072702D01*
X9385090Y-21072702D02*
X9394614Y-21091749D01*
X9394614Y-21091749D02*
X9394614Y-21101273D01*
X9394614Y-21101273D02*
X9385090Y-21120321D01*
X9385090Y-21120321D02*
X9375566Y-21129844D01*
X9375566Y-21129844D02*
X9356518Y-21139368D01*
X9356518Y-21139368D02*
X9318423Y-21139368D01*
X9318423Y-21139368D02*
X9299376Y-21148892D01*
X9299376Y-21148892D02*
X9289852Y-21158416D01*
X9289852Y-21158416D02*
X9280328Y-21177463D01*
X9280328Y-21177463D02*
X9280328Y-21215559D01*
X9280328Y-21215559D02*
X9289852Y-21234606D01*
X9289852Y-21234606D02*
X9299376Y-21244130D01*
X9299376Y-21244130D02*
X9318423Y-21253654D01*
X9318423Y-21253654D02*
X9356518Y-21253654D01*
X9356518Y-21253654D02*
X9375566Y-21244130D01*
X9375566Y-21244130D02*
X9385090Y-21234606D01*
X9385090Y-21234606D02*
X9394614Y-21215559D01*
X9394614Y-21215559D02*
X9394614Y-21177463D01*
X9394614Y-21177463D02*
X9385090Y-21158416D01*
X9385090Y-21158416D02*
X9375566Y-21148892D01*
X9375566Y-21148892D02*
X9356518Y-21139368D01*
X9470804Y-21053654D02*
X9470804Y-21091749D01*
X9546995Y-21053654D02*
X9546995Y-21091749D01*
X9842233Y-21329844D02*
X9832709Y-21320321D01*
X9832709Y-21320321D02*
X9813661Y-21291749D01*
X9813661Y-21291749D02*
X9804138Y-21272702D01*
X9804138Y-21272702D02*
X9794614Y-21244130D01*
X9794614Y-21244130D02*
X9785090Y-21196511D01*
X9785090Y-21196511D02*
X9785090Y-21158416D01*
X9785090Y-21158416D02*
X9794614Y-21110797D01*
X9794614Y-21110797D02*
X9804138Y-21082225D01*
X9804138Y-21082225D02*
X9813661Y-21063178D01*
X9813661Y-21063178D02*
X9832709Y-21034606D01*
X9832709Y-21034606D02*
X9842233Y-21025082D01*
X9946995Y-21139368D02*
X9927947Y-21129844D01*
X9927947Y-21129844D02*
X9918423Y-21120321D01*
X9918423Y-21120321D02*
X9908899Y-21101273D01*
X9908899Y-21101273D02*
X9908899Y-21091749D01*
X9908899Y-21091749D02*
X9918423Y-21072702D01*
X9918423Y-21072702D02*
X9927947Y-21063178D01*
X9927947Y-21063178D02*
X9946995Y-21053654D01*
X9946995Y-21053654D02*
X9985090Y-21053654D01*
X9985090Y-21053654D02*
X10004138Y-21063178D01*
X10004138Y-21063178D02*
X10013661Y-21072702D01*
X10013661Y-21072702D02*
X10023185Y-21091749D01*
X10023185Y-21091749D02*
X10023185Y-21101273D01*
X10023185Y-21101273D02*
X10013661Y-21120321D01*
X10013661Y-21120321D02*
X10004138Y-21129844D01*
X10004138Y-21129844D02*
X9985090Y-21139368D01*
X9985090Y-21139368D02*
X9946995Y-21139368D01*
X9946995Y-21139368D02*
X9927947Y-21148892D01*
X9927947Y-21148892D02*
X9918423Y-21158416D01*
X9918423Y-21158416D02*
X9908899Y-21177463D01*
X9908899Y-21177463D02*
X9908899Y-21215559D01*
X9908899Y-21215559D02*
X9918423Y-21234606D01*
X9918423Y-21234606D02*
X9927947Y-21244130D01*
X9927947Y-21244130D02*
X9946995Y-21253654D01*
X9946995Y-21253654D02*
X9985090Y-21253654D01*
X9985090Y-21253654D02*
X10004138Y-21244130D01*
X10004138Y-21244130D02*
X10013661Y-21234606D01*
X10013661Y-21234606D02*
X10023185Y-21215559D01*
X10023185Y-21215559D02*
X10023185Y-21177463D01*
X10023185Y-21177463D02*
X10013661Y-21158416D01*
X10013661Y-21158416D02*
X10004138Y-21148892D01*
X10004138Y-21148892D02*
X9985090Y-21139368D01*
X10099376Y-21072702D02*
X10108899Y-21063178D01*
X10108899Y-21063178D02*
X10127947Y-21053654D01*
X10127947Y-21053654D02*
X10175566Y-21053654D01*
X10175566Y-21053654D02*
X10194614Y-21063178D01*
X10194614Y-21063178D02*
X10204138Y-21072702D01*
X10204138Y-21072702D02*
X10213661Y-21091749D01*
X10213661Y-21091749D02*
X10213661Y-21110797D01*
X10213661Y-21110797D02*
X10204138Y-21139368D01*
X10204138Y-21139368D02*
X10089852Y-21253654D01*
X10089852Y-21253654D02*
X10213661Y-21253654D01*
X10451757Y-21253654D02*
X10451757Y-21053654D01*
X10537471Y-21253654D02*
X10537471Y-21148892D01*
X10537471Y-21148892D02*
X10527947Y-21129844D01*
X10527947Y-21129844D02*
X10508900Y-21120321D01*
X10508900Y-21120321D02*
X10480328Y-21120321D01*
X10480328Y-21120321D02*
X10461280Y-21129844D01*
X10461280Y-21129844D02*
X10451757Y-21139368D01*
X10661280Y-21253654D02*
X10642233Y-21244130D01*
X10642233Y-21244130D02*
X10632709Y-21234606D01*
X10632709Y-21234606D02*
X10623185Y-21215559D01*
X10623185Y-21215559D02*
X10623185Y-21158416D01*
X10623185Y-21158416D02*
X10632709Y-21139368D01*
X10632709Y-21139368D02*
X10642233Y-21129844D01*
X10642233Y-21129844D02*
X10661280Y-21120321D01*
X10661280Y-21120321D02*
X10689852Y-21120321D01*
X10689852Y-21120321D02*
X10708900Y-21129844D01*
X10708900Y-21129844D02*
X10718423Y-21139368D01*
X10718423Y-21139368D02*
X10727947Y-21158416D01*
X10727947Y-21158416D02*
X10727947Y-21215559D01*
X10727947Y-21215559D02*
X10718423Y-21234606D01*
X10718423Y-21234606D02*
X10708900Y-21244130D01*
X10708900Y-21244130D02*
X10689852Y-21253654D01*
X10689852Y-21253654D02*
X10661280Y-21253654D01*
X10842233Y-21253654D02*
X10823185Y-21244130D01*
X10823185Y-21244130D02*
X10813661Y-21225082D01*
X10813661Y-21225082D02*
X10813661Y-21053654D01*
X10994614Y-21244130D02*
X10975566Y-21253654D01*
X10975566Y-21253654D02*
X10937471Y-21253654D01*
X10937471Y-21253654D02*
X10918423Y-21244130D01*
X10918423Y-21244130D02*
X10908900Y-21225082D01*
X10908900Y-21225082D02*
X10908900Y-21148892D01*
X10908900Y-21148892D02*
X10918423Y-21129844D01*
X10918423Y-21129844D02*
X10937471Y-21120321D01*
X10937471Y-21120321D02*
X10975566Y-21120321D01*
X10975566Y-21120321D02*
X10994614Y-21129844D01*
X10994614Y-21129844D02*
X11004138Y-21148892D01*
X11004138Y-21148892D02*
X11004138Y-21167940D01*
X11004138Y-21167940D02*
X10908900Y-21186987D01*
X11080328Y-21244130D02*
X11099376Y-21253654D01*
X11099376Y-21253654D02*
X11137471Y-21253654D01*
X11137471Y-21253654D02*
X11156519Y-21244130D01*
X11156519Y-21244130D02*
X11166042Y-21225082D01*
X11166042Y-21225082D02*
X11166042Y-21215559D01*
X11166042Y-21215559D02*
X11156519Y-21196511D01*
X11156519Y-21196511D02*
X11137471Y-21186987D01*
X11137471Y-21186987D02*
X11108900Y-21186987D01*
X11108900Y-21186987D02*
X11089852Y-21177463D01*
X11089852Y-21177463D02*
X11080328Y-21158416D01*
X11080328Y-21158416D02*
X11080328Y-21148892D01*
X11080328Y-21148892D02*
X11089852Y-21129844D01*
X11089852Y-21129844D02*
X11108900Y-21120321D01*
X11108900Y-21120321D02*
X11137471Y-21120321D01*
X11137471Y-21120321D02*
X11156519Y-21129844D01*
X11232709Y-21329844D02*
X11242233Y-21320321D01*
X11242233Y-21320321D02*
X11261280Y-21291749D01*
X11261280Y-21291749D02*
X11270804Y-21272702D01*
X11270804Y-21272702D02*
X11280328Y-21244130D01*
X11280328Y-21244130D02*
X11289852Y-21196511D01*
X11289852Y-21196511D02*
X11289852Y-21158416D01*
X11289852Y-21158416D02*
X11280328Y-21110797D01*
X11280328Y-21110797D02*
X11270804Y-21082225D01*
X11270804Y-21082225D02*
X11261280Y-21063178D01*
X11261280Y-21063178D02*
X11242233Y-21034606D01*
X11242233Y-21034606D02*
X11232709Y-21025082D01*
D13*
X6267170Y-21426170D02*
G75*
G02*
X6217170Y-21426170I-25000J0D01*
G01*
X6217170Y-21426170D02*
G75*
G02*
X6267170Y-21426170I25000J0D01*
G01*
D12*
X6566042Y-21317654D02*
X6585090Y-21317654D01*
X6585090Y-21317654D02*
X6604137Y-21327178D01*
X6604137Y-21327178D02*
X6613661Y-21336702D01*
X6613661Y-21336702D02*
X6623185Y-21355749D01*
X6623185Y-21355749D02*
X6632709Y-21393844D01*
X6632709Y-21393844D02*
X6632709Y-21441463D01*
X6632709Y-21441463D02*
X6623185Y-21479559D01*
X6623185Y-21479559D02*
X6613661Y-21498606D01*
X6613661Y-21498606D02*
X6604137Y-21508130D01*
X6604137Y-21508130D02*
X6585090Y-21517654D01*
X6585090Y-21517654D02*
X6566042Y-21517654D01*
X6566042Y-21517654D02*
X6546994Y-21508130D01*
X6546994Y-21508130D02*
X6537470Y-21498606D01*
X6537470Y-21498606D02*
X6527947Y-21479559D01*
X6527947Y-21479559D02*
X6518423Y-21441463D01*
X6518423Y-21441463D02*
X6518423Y-21393844D01*
X6518423Y-21393844D02*
X6527947Y-21355749D01*
X6527947Y-21355749D02*
X6537470Y-21336702D01*
X6537470Y-21336702D02*
X6546994Y-21327178D01*
X6546994Y-21327178D02*
X6566042Y-21317654D01*
X6718423Y-21498606D02*
X6727947Y-21508130D01*
X6727947Y-21508130D02*
X6718423Y-21517654D01*
X6718423Y-21517654D02*
X6708899Y-21508130D01*
X6708899Y-21508130D02*
X6718423Y-21498606D01*
X6718423Y-21498606D02*
X6718423Y-21517654D01*
X6908899Y-21317654D02*
X6813661Y-21317654D01*
X6813661Y-21317654D02*
X6804137Y-21412892D01*
X6804137Y-21412892D02*
X6813661Y-21403368D01*
X6813661Y-21403368D02*
X6832709Y-21393844D01*
X6832709Y-21393844D02*
X6880328Y-21393844D01*
X6880328Y-21393844D02*
X6899375Y-21403368D01*
X6899375Y-21403368D02*
X6908899Y-21412892D01*
X6908899Y-21412892D02*
X6918423Y-21431940D01*
X6918423Y-21431940D02*
X6918423Y-21479559D01*
X6918423Y-21479559D02*
X6908899Y-21498606D01*
X6908899Y-21498606D02*
X6899375Y-21508130D01*
X6899375Y-21508130D02*
X6880328Y-21517654D01*
X6880328Y-21517654D02*
X6832709Y-21517654D01*
X6832709Y-21517654D02*
X6813661Y-21508130D01*
X6813661Y-21508130D02*
X6804137Y-21498606D01*
X7042232Y-21317654D02*
X7061280Y-21317654D01*
X7061280Y-21317654D02*
X7080328Y-21327178D01*
X7080328Y-21327178D02*
X7089851Y-21336702D01*
X7089851Y-21336702D02*
X7099375Y-21355749D01*
X7099375Y-21355749D02*
X7108899Y-21393844D01*
X7108899Y-21393844D02*
X7108899Y-21441463D01*
X7108899Y-21441463D02*
X7099375Y-21479559D01*
X7099375Y-21479559D02*
X7089851Y-21498606D01*
X7089851Y-21498606D02*
X7080328Y-21508130D01*
X7080328Y-21508130D02*
X7061280Y-21517654D01*
X7061280Y-21517654D02*
X7042232Y-21517654D01*
X7042232Y-21517654D02*
X7023185Y-21508130D01*
X7023185Y-21508130D02*
X7013661Y-21498606D01*
X7013661Y-21498606D02*
X7004137Y-21479559D01*
X7004137Y-21479559D02*
X6994613Y-21441463D01*
X6994613Y-21441463D02*
X6994613Y-21393844D01*
X6994613Y-21393844D02*
X7004137Y-21355749D01*
X7004137Y-21355749D02*
X7013661Y-21336702D01*
X7013661Y-21336702D02*
X7023185Y-21327178D01*
X7023185Y-21327178D02*
X7042232Y-21317654D01*
X7232709Y-21317654D02*
X7251756Y-21317654D01*
X7251756Y-21317654D02*
X7270804Y-21327178D01*
X7270804Y-21327178D02*
X7280328Y-21336702D01*
X7280328Y-21336702D02*
X7289851Y-21355749D01*
X7289851Y-21355749D02*
X7299375Y-21393844D01*
X7299375Y-21393844D02*
X7299375Y-21441463D01*
X7299375Y-21441463D02*
X7289851Y-21479559D01*
X7289851Y-21479559D02*
X7280328Y-21498606D01*
X7280328Y-21498606D02*
X7270804Y-21508130D01*
X7270804Y-21508130D02*
X7251756Y-21517654D01*
X7251756Y-21517654D02*
X7232709Y-21517654D01*
X7232709Y-21517654D02*
X7213661Y-21508130D01*
X7213661Y-21508130D02*
X7204137Y-21498606D01*
X7204137Y-21498606D02*
X7194613Y-21479559D01*
X7194613Y-21479559D02*
X7185090Y-21441463D01*
X7185090Y-21441463D02*
X7185090Y-21393844D01*
X7185090Y-21393844D02*
X7194613Y-21355749D01*
X7194613Y-21355749D02*
X7204137Y-21336702D01*
X7204137Y-21336702D02*
X7213661Y-21327178D01*
X7213661Y-21327178D02*
X7232709Y-21317654D01*
X7385090Y-21517654D02*
X7385090Y-21384321D01*
X7385090Y-21403368D02*
X7394613Y-21393844D01*
X7394613Y-21393844D02*
X7413661Y-21384321D01*
X7413661Y-21384321D02*
X7442232Y-21384321D01*
X7442232Y-21384321D02*
X7461280Y-21393844D01*
X7461280Y-21393844D02*
X7470804Y-21412892D01*
X7470804Y-21412892D02*
X7470804Y-21517654D01*
X7470804Y-21412892D02*
X7480328Y-21393844D01*
X7480328Y-21393844D02*
X7499375Y-21384321D01*
X7499375Y-21384321D02*
X7527947Y-21384321D01*
X7527947Y-21384321D02*
X7546994Y-21393844D01*
X7546994Y-21393844D02*
X7556518Y-21412892D01*
X7556518Y-21412892D02*
X7556518Y-21517654D01*
X7651756Y-21517654D02*
X7651756Y-21384321D01*
X7651756Y-21403368D02*
X7661280Y-21393844D01*
X7661280Y-21393844D02*
X7680328Y-21384321D01*
X7680328Y-21384321D02*
X7708899Y-21384321D01*
X7708899Y-21384321D02*
X7727947Y-21393844D01*
X7727947Y-21393844D02*
X7737471Y-21412892D01*
X7737471Y-21412892D02*
X7737471Y-21517654D01*
X7737471Y-21412892D02*
X7746994Y-21393844D01*
X7746994Y-21393844D02*
X7766042Y-21384321D01*
X7766042Y-21384321D02*
X7794613Y-21384321D01*
X7794613Y-21384321D02*
X7813661Y-21393844D01*
X7813661Y-21393844D02*
X7823185Y-21412892D01*
X7823185Y-21412892D02*
X7823185Y-21517654D01*
X8213661Y-21308130D02*
X8042233Y-21565273D01*
X8470804Y-21317654D02*
X8489852Y-21317654D01*
X8489852Y-21317654D02*
X8508899Y-21327178D01*
X8508899Y-21327178D02*
X8518423Y-21336702D01*
X8518423Y-21336702D02*
X8527947Y-21355749D01*
X8527947Y-21355749D02*
X8537471Y-21393844D01*
X8537471Y-21393844D02*
X8537471Y-21441463D01*
X8537471Y-21441463D02*
X8527947Y-21479559D01*
X8527947Y-21479559D02*
X8518423Y-21498606D01*
X8518423Y-21498606D02*
X8508899Y-21508130D01*
X8508899Y-21508130D02*
X8489852Y-21517654D01*
X8489852Y-21517654D02*
X8470804Y-21517654D01*
X8470804Y-21517654D02*
X8451756Y-21508130D01*
X8451756Y-21508130D02*
X8442233Y-21498606D01*
X8442233Y-21498606D02*
X8432709Y-21479559D01*
X8432709Y-21479559D02*
X8423185Y-21441463D01*
X8423185Y-21441463D02*
X8423185Y-21393844D01*
X8423185Y-21393844D02*
X8432709Y-21355749D01*
X8432709Y-21355749D02*
X8442233Y-21336702D01*
X8442233Y-21336702D02*
X8451756Y-21327178D01*
X8451756Y-21327178D02*
X8470804Y-21317654D01*
X8623185Y-21498606D02*
X8632709Y-21508130D01*
X8632709Y-21508130D02*
X8623185Y-21517654D01*
X8623185Y-21517654D02*
X8613661Y-21508130D01*
X8613661Y-21508130D02*
X8623185Y-21498606D01*
X8623185Y-21498606D02*
X8623185Y-21517654D01*
X8756518Y-21317654D02*
X8775566Y-21317654D01*
X8775566Y-21317654D02*
X8794614Y-21327178D01*
X8794614Y-21327178D02*
X8804137Y-21336702D01*
X8804137Y-21336702D02*
X8813661Y-21355749D01*
X8813661Y-21355749D02*
X8823185Y-21393844D01*
X8823185Y-21393844D02*
X8823185Y-21441463D01*
X8823185Y-21441463D02*
X8813661Y-21479559D01*
X8813661Y-21479559D02*
X8804137Y-21498606D01*
X8804137Y-21498606D02*
X8794614Y-21508130D01*
X8794614Y-21508130D02*
X8775566Y-21517654D01*
X8775566Y-21517654D02*
X8756518Y-21517654D01*
X8756518Y-21517654D02*
X8737471Y-21508130D01*
X8737471Y-21508130D02*
X8727947Y-21498606D01*
X8727947Y-21498606D02*
X8718423Y-21479559D01*
X8718423Y-21479559D02*
X8708899Y-21441463D01*
X8708899Y-21441463D02*
X8708899Y-21393844D01*
X8708899Y-21393844D02*
X8718423Y-21355749D01*
X8718423Y-21355749D02*
X8727947Y-21336702D01*
X8727947Y-21336702D02*
X8737471Y-21327178D01*
X8737471Y-21327178D02*
X8756518Y-21317654D01*
X9013661Y-21517654D02*
X8899376Y-21517654D01*
X8956518Y-21517654D02*
X8956518Y-21317654D01*
X8956518Y-21317654D02*
X8937471Y-21346225D01*
X8937471Y-21346225D02*
X8918423Y-21365273D01*
X8918423Y-21365273D02*
X8899376Y-21374797D01*
X9108899Y-21517654D02*
X9146995Y-21517654D01*
X9146995Y-21517654D02*
X9166042Y-21508130D01*
X9166042Y-21508130D02*
X9175566Y-21498606D01*
X9175566Y-21498606D02*
X9194614Y-21470035D01*
X9194614Y-21470035D02*
X9204137Y-21431940D01*
X9204137Y-21431940D02*
X9204137Y-21355749D01*
X9204137Y-21355749D02*
X9194614Y-21336702D01*
X9194614Y-21336702D02*
X9185090Y-21327178D01*
X9185090Y-21327178D02*
X9166042Y-21317654D01*
X9166042Y-21317654D02*
X9127947Y-21317654D01*
X9127947Y-21317654D02*
X9108899Y-21327178D01*
X9108899Y-21327178D02*
X9099376Y-21336702D01*
X9099376Y-21336702D02*
X9089852Y-21355749D01*
X9089852Y-21355749D02*
X9089852Y-21403368D01*
X9089852Y-21403368D02*
X9099376Y-21422416D01*
X9099376Y-21422416D02*
X9108899Y-21431940D01*
X9108899Y-21431940D02*
X9127947Y-21441463D01*
X9127947Y-21441463D02*
X9166042Y-21441463D01*
X9166042Y-21441463D02*
X9185090Y-21431940D01*
X9185090Y-21431940D02*
X9194614Y-21422416D01*
X9194614Y-21422416D02*
X9204137Y-21403368D01*
X9270804Y-21317654D02*
X9404137Y-21317654D01*
X9404137Y-21317654D02*
X9318423Y-21517654D01*
X9470804Y-21317654D02*
X9470804Y-21355749D01*
X9546995Y-21317654D02*
X9546995Y-21355749D01*
X9842233Y-21593844D02*
X9832709Y-21584321D01*
X9832709Y-21584321D02*
X9813661Y-21555749D01*
X9813661Y-21555749D02*
X9804138Y-21536702D01*
X9804138Y-21536702D02*
X9794614Y-21508130D01*
X9794614Y-21508130D02*
X9785090Y-21460511D01*
X9785090Y-21460511D02*
X9785090Y-21422416D01*
X9785090Y-21422416D02*
X9794614Y-21374797D01*
X9794614Y-21374797D02*
X9804138Y-21346225D01*
X9804138Y-21346225D02*
X9813661Y-21327178D01*
X9813661Y-21327178D02*
X9832709Y-21298606D01*
X9832709Y-21298606D02*
X9842233Y-21289082D01*
X9899376Y-21317654D02*
X10023185Y-21317654D01*
X10023185Y-21317654D02*
X9956518Y-21393844D01*
X9956518Y-21393844D02*
X9985090Y-21393844D01*
X9985090Y-21393844D02*
X10004138Y-21403368D01*
X10004138Y-21403368D02*
X10013661Y-21412892D01*
X10013661Y-21412892D02*
X10023185Y-21431940D01*
X10023185Y-21431940D02*
X10023185Y-21479559D01*
X10023185Y-21479559D02*
X10013661Y-21498606D01*
X10013661Y-21498606D02*
X10004138Y-21508130D01*
X10004138Y-21508130D02*
X9985090Y-21517654D01*
X9985090Y-21517654D02*
X9927947Y-21517654D01*
X9927947Y-21517654D02*
X9908899Y-21508130D01*
X9908899Y-21508130D02*
X9899376Y-21498606D01*
X10118423Y-21517654D02*
X10156518Y-21517654D01*
X10156518Y-21517654D02*
X10175566Y-21508130D01*
X10175566Y-21508130D02*
X10185090Y-21498606D01*
X10185090Y-21498606D02*
X10204138Y-21470035D01*
X10204138Y-21470035D02*
X10213661Y-21431940D01*
X10213661Y-21431940D02*
X10213661Y-21355749D01*
X10213661Y-21355749D02*
X10204138Y-21336702D01*
X10204138Y-21336702D02*
X10194614Y-21327178D01*
X10194614Y-21327178D02*
X10175566Y-21317654D01*
X10175566Y-21317654D02*
X10137471Y-21317654D01*
X10137471Y-21317654D02*
X10118423Y-21327178D01*
X10118423Y-21327178D02*
X10108899Y-21336702D01*
X10108899Y-21336702D02*
X10099376Y-21355749D01*
X10099376Y-21355749D02*
X10099376Y-21403368D01*
X10099376Y-21403368D02*
X10108899Y-21422416D01*
X10108899Y-21422416D02*
X10118423Y-21431940D01*
X10118423Y-21431940D02*
X10137471Y-21441463D01*
X10137471Y-21441463D02*
X10175566Y-21441463D01*
X10175566Y-21441463D02*
X10194614Y-21431940D01*
X10194614Y-21431940D02*
X10204138Y-21422416D01*
X10204138Y-21422416D02*
X10213661Y-21403368D01*
X10451757Y-21517654D02*
X10451757Y-21317654D01*
X10537471Y-21517654D02*
X10537471Y-21412892D01*
X10537471Y-21412892D02*
X10527947Y-21393844D01*
X10527947Y-21393844D02*
X10508900Y-21384321D01*
X10508900Y-21384321D02*
X10480328Y-21384321D01*
X10480328Y-21384321D02*
X10461280Y-21393844D01*
X10461280Y-21393844D02*
X10451757Y-21403368D01*
X10661280Y-21517654D02*
X10642233Y-21508130D01*
X10642233Y-21508130D02*
X10632709Y-21498606D01*
X10632709Y-21498606D02*
X10623185Y-21479559D01*
X10623185Y-21479559D02*
X10623185Y-21422416D01*
X10623185Y-21422416D02*
X10632709Y-21403368D01*
X10632709Y-21403368D02*
X10642233Y-21393844D01*
X10642233Y-21393844D02*
X10661280Y-21384321D01*
X10661280Y-21384321D02*
X10689852Y-21384321D01*
X10689852Y-21384321D02*
X10708900Y-21393844D01*
X10708900Y-21393844D02*
X10718423Y-21403368D01*
X10718423Y-21403368D02*
X10727947Y-21422416D01*
X10727947Y-21422416D02*
X10727947Y-21479559D01*
X10727947Y-21479559D02*
X10718423Y-21498606D01*
X10718423Y-21498606D02*
X10708900Y-21508130D01*
X10708900Y-21508130D02*
X10689852Y-21517654D01*
X10689852Y-21517654D02*
X10661280Y-21517654D01*
X10842233Y-21517654D02*
X10823185Y-21508130D01*
X10823185Y-21508130D02*
X10813661Y-21489082D01*
X10813661Y-21489082D02*
X10813661Y-21317654D01*
X10994614Y-21508130D02*
X10975566Y-21517654D01*
X10975566Y-21517654D02*
X10937471Y-21517654D01*
X10937471Y-21517654D02*
X10918423Y-21508130D01*
X10918423Y-21508130D02*
X10908900Y-21489082D01*
X10908900Y-21489082D02*
X10908900Y-21412892D01*
X10908900Y-21412892D02*
X10918423Y-21393844D01*
X10918423Y-21393844D02*
X10937471Y-21384321D01*
X10937471Y-21384321D02*
X10975566Y-21384321D01*
X10975566Y-21384321D02*
X10994614Y-21393844D01*
X10994614Y-21393844D02*
X11004138Y-21412892D01*
X11004138Y-21412892D02*
X11004138Y-21431940D01*
X11004138Y-21431940D02*
X10908900Y-21450987D01*
X11080328Y-21508130D02*
X11099376Y-21517654D01*
X11099376Y-21517654D02*
X11137471Y-21517654D01*
X11137471Y-21517654D02*
X11156519Y-21508130D01*
X11156519Y-21508130D02*
X11166042Y-21489082D01*
X11166042Y-21489082D02*
X11166042Y-21479559D01*
X11166042Y-21479559D02*
X11156519Y-21460511D01*
X11156519Y-21460511D02*
X11137471Y-21450987D01*
X11137471Y-21450987D02*
X11108900Y-21450987D01*
X11108900Y-21450987D02*
X11089852Y-21441463D01*
X11089852Y-21441463D02*
X11080328Y-21422416D01*
X11080328Y-21422416D02*
X11080328Y-21412892D01*
X11080328Y-21412892D02*
X11089852Y-21393844D01*
X11089852Y-21393844D02*
X11108900Y-21384321D01*
X11108900Y-21384321D02*
X11137471Y-21384321D01*
X11137471Y-21384321D02*
X11156519Y-21393844D01*
X11232709Y-21593844D02*
X11242233Y-21584321D01*
X11242233Y-21584321D02*
X11261280Y-21555749D01*
X11261280Y-21555749D02*
X11270804Y-21536702D01*
X11270804Y-21536702D02*
X11280328Y-21508130D01*
X11280328Y-21508130D02*
X11289852Y-21460511D01*
X11289852Y-21460511D02*
X11289852Y-21422416D01*
X11289852Y-21422416D02*
X11280328Y-21374797D01*
X11280328Y-21374797D02*
X11270804Y-21346225D01*
X11270804Y-21346225D02*
X11261280Y-21327178D01*
X11261280Y-21327178D02*
X11242233Y-21298606D01*
X11242233Y-21298606D02*
X11232709Y-21289082D01*
D13*
X6237170Y-21660170D02*
X6237170Y-21720170D01*
X6207170Y-21690170D02*
X6267170Y-21690170D01*
D12*
X6566042Y-21581654D02*
X6585090Y-21581654D01*
X6585090Y-21581654D02*
X6604137Y-21591178D01*
X6604137Y-21591178D02*
X6613661Y-21600702D01*
X6613661Y-21600702D02*
X6623185Y-21619749D01*
X6623185Y-21619749D02*
X6632709Y-21657844D01*
X6632709Y-21657844D02*
X6632709Y-21705463D01*
X6632709Y-21705463D02*
X6623185Y-21743559D01*
X6623185Y-21743559D02*
X6613661Y-21762606D01*
X6613661Y-21762606D02*
X6604137Y-21772130D01*
X6604137Y-21772130D02*
X6585090Y-21781654D01*
X6585090Y-21781654D02*
X6566042Y-21781654D01*
X6566042Y-21781654D02*
X6546994Y-21772130D01*
X6546994Y-21772130D02*
X6537470Y-21762606D01*
X6537470Y-21762606D02*
X6527947Y-21743559D01*
X6527947Y-21743559D02*
X6518423Y-21705463D01*
X6518423Y-21705463D02*
X6518423Y-21657844D01*
X6518423Y-21657844D02*
X6527947Y-21619749D01*
X6527947Y-21619749D02*
X6537470Y-21600702D01*
X6537470Y-21600702D02*
X6546994Y-21591178D01*
X6546994Y-21591178D02*
X6566042Y-21581654D01*
X6718423Y-21762606D02*
X6727947Y-21772130D01*
X6727947Y-21772130D02*
X6718423Y-21781654D01*
X6718423Y-21781654D02*
X6708899Y-21772130D01*
X6708899Y-21772130D02*
X6718423Y-21762606D01*
X6718423Y-21762606D02*
X6718423Y-21781654D01*
X6899375Y-21581654D02*
X6861280Y-21581654D01*
X6861280Y-21581654D02*
X6842232Y-21591178D01*
X6842232Y-21591178D02*
X6832709Y-21600702D01*
X6832709Y-21600702D02*
X6813661Y-21629273D01*
X6813661Y-21629273D02*
X6804137Y-21667368D01*
X6804137Y-21667368D02*
X6804137Y-21743559D01*
X6804137Y-21743559D02*
X6813661Y-21762606D01*
X6813661Y-21762606D02*
X6823185Y-21772130D01*
X6823185Y-21772130D02*
X6842232Y-21781654D01*
X6842232Y-21781654D02*
X6880328Y-21781654D01*
X6880328Y-21781654D02*
X6899375Y-21772130D01*
X6899375Y-21772130D02*
X6908899Y-21762606D01*
X6908899Y-21762606D02*
X6918423Y-21743559D01*
X6918423Y-21743559D02*
X6918423Y-21695940D01*
X6918423Y-21695940D02*
X6908899Y-21676892D01*
X6908899Y-21676892D02*
X6899375Y-21667368D01*
X6899375Y-21667368D02*
X6880328Y-21657844D01*
X6880328Y-21657844D02*
X6842232Y-21657844D01*
X6842232Y-21657844D02*
X6823185Y-21667368D01*
X6823185Y-21667368D02*
X6813661Y-21676892D01*
X6813661Y-21676892D02*
X6804137Y-21695940D01*
X7042232Y-21581654D02*
X7061280Y-21581654D01*
X7061280Y-21581654D02*
X7080328Y-21591178D01*
X7080328Y-21591178D02*
X7089851Y-21600702D01*
X7089851Y-21600702D02*
X7099375Y-21619749D01*
X7099375Y-21619749D02*
X7108899Y-21657844D01*
X7108899Y-21657844D02*
X7108899Y-21705463D01*
X7108899Y-21705463D02*
X7099375Y-21743559D01*
X7099375Y-21743559D02*
X7089851Y-21762606D01*
X7089851Y-21762606D02*
X7080328Y-21772130D01*
X7080328Y-21772130D02*
X7061280Y-21781654D01*
X7061280Y-21781654D02*
X7042232Y-21781654D01*
X7042232Y-21781654D02*
X7023185Y-21772130D01*
X7023185Y-21772130D02*
X7013661Y-21762606D01*
X7013661Y-21762606D02*
X7004137Y-21743559D01*
X7004137Y-21743559D02*
X6994613Y-21705463D01*
X6994613Y-21705463D02*
X6994613Y-21657844D01*
X6994613Y-21657844D02*
X7004137Y-21619749D01*
X7004137Y-21619749D02*
X7013661Y-21600702D01*
X7013661Y-21600702D02*
X7023185Y-21591178D01*
X7023185Y-21591178D02*
X7042232Y-21581654D01*
X7232709Y-21581654D02*
X7251756Y-21581654D01*
X7251756Y-21581654D02*
X7270804Y-21591178D01*
X7270804Y-21591178D02*
X7280328Y-21600702D01*
X7280328Y-21600702D02*
X7289851Y-21619749D01*
X7289851Y-21619749D02*
X7299375Y-21657844D01*
X7299375Y-21657844D02*
X7299375Y-21705463D01*
X7299375Y-21705463D02*
X7289851Y-21743559D01*
X7289851Y-21743559D02*
X7280328Y-21762606D01*
X7280328Y-21762606D02*
X7270804Y-21772130D01*
X7270804Y-21772130D02*
X7251756Y-21781654D01*
X7251756Y-21781654D02*
X7232709Y-21781654D01*
X7232709Y-21781654D02*
X7213661Y-21772130D01*
X7213661Y-21772130D02*
X7204137Y-21762606D01*
X7204137Y-21762606D02*
X7194613Y-21743559D01*
X7194613Y-21743559D02*
X7185090Y-21705463D01*
X7185090Y-21705463D02*
X7185090Y-21657844D01*
X7185090Y-21657844D02*
X7194613Y-21619749D01*
X7194613Y-21619749D02*
X7204137Y-21600702D01*
X7204137Y-21600702D02*
X7213661Y-21591178D01*
X7213661Y-21591178D02*
X7232709Y-21581654D01*
X7385090Y-21781654D02*
X7385090Y-21648321D01*
X7385090Y-21667368D02*
X7394613Y-21657844D01*
X7394613Y-21657844D02*
X7413661Y-21648321D01*
X7413661Y-21648321D02*
X7442232Y-21648321D01*
X7442232Y-21648321D02*
X7461280Y-21657844D01*
X7461280Y-21657844D02*
X7470804Y-21676892D01*
X7470804Y-21676892D02*
X7470804Y-21781654D01*
X7470804Y-21676892D02*
X7480328Y-21657844D01*
X7480328Y-21657844D02*
X7499375Y-21648321D01*
X7499375Y-21648321D02*
X7527947Y-21648321D01*
X7527947Y-21648321D02*
X7546994Y-21657844D01*
X7546994Y-21657844D02*
X7556518Y-21676892D01*
X7556518Y-21676892D02*
X7556518Y-21781654D01*
X7651756Y-21781654D02*
X7651756Y-21648321D01*
X7651756Y-21667368D02*
X7661280Y-21657844D01*
X7661280Y-21657844D02*
X7680328Y-21648321D01*
X7680328Y-21648321D02*
X7708899Y-21648321D01*
X7708899Y-21648321D02*
X7727947Y-21657844D01*
X7727947Y-21657844D02*
X7737471Y-21676892D01*
X7737471Y-21676892D02*
X7737471Y-21781654D01*
X7737471Y-21676892D02*
X7746994Y-21657844D01*
X7746994Y-21657844D02*
X7766042Y-21648321D01*
X7766042Y-21648321D02*
X7794613Y-21648321D01*
X7794613Y-21648321D02*
X7813661Y-21657844D01*
X7813661Y-21657844D02*
X7823185Y-21676892D01*
X7823185Y-21676892D02*
X7823185Y-21781654D01*
X8213661Y-21572130D02*
X8042233Y-21829273D01*
X8470804Y-21581654D02*
X8489852Y-21581654D01*
X8489852Y-21581654D02*
X8508899Y-21591178D01*
X8508899Y-21591178D02*
X8518423Y-21600702D01*
X8518423Y-21600702D02*
X8527947Y-21619749D01*
X8527947Y-21619749D02*
X8537471Y-21657844D01*
X8537471Y-21657844D02*
X8537471Y-21705463D01*
X8537471Y-21705463D02*
X8527947Y-21743559D01*
X8527947Y-21743559D02*
X8518423Y-21762606D01*
X8518423Y-21762606D02*
X8508899Y-21772130D01*
X8508899Y-21772130D02*
X8489852Y-21781654D01*
X8489852Y-21781654D02*
X8470804Y-21781654D01*
X8470804Y-21781654D02*
X8451756Y-21772130D01*
X8451756Y-21772130D02*
X8442233Y-21762606D01*
X8442233Y-21762606D02*
X8432709Y-21743559D01*
X8432709Y-21743559D02*
X8423185Y-21705463D01*
X8423185Y-21705463D02*
X8423185Y-21657844D01*
X8423185Y-21657844D02*
X8432709Y-21619749D01*
X8432709Y-21619749D02*
X8442233Y-21600702D01*
X8442233Y-21600702D02*
X8451756Y-21591178D01*
X8451756Y-21591178D02*
X8470804Y-21581654D01*
X8623185Y-21762606D02*
X8632709Y-21772130D01*
X8632709Y-21772130D02*
X8623185Y-21781654D01*
X8623185Y-21781654D02*
X8613661Y-21772130D01*
X8613661Y-21772130D02*
X8623185Y-21762606D01*
X8623185Y-21762606D02*
X8623185Y-21781654D01*
X8756518Y-21581654D02*
X8775566Y-21581654D01*
X8775566Y-21581654D02*
X8794614Y-21591178D01*
X8794614Y-21591178D02*
X8804137Y-21600702D01*
X8804137Y-21600702D02*
X8813661Y-21619749D01*
X8813661Y-21619749D02*
X8823185Y-21657844D01*
X8823185Y-21657844D02*
X8823185Y-21705463D01*
X8823185Y-21705463D02*
X8813661Y-21743559D01*
X8813661Y-21743559D02*
X8804137Y-21762606D01*
X8804137Y-21762606D02*
X8794614Y-21772130D01*
X8794614Y-21772130D02*
X8775566Y-21781654D01*
X8775566Y-21781654D02*
X8756518Y-21781654D01*
X8756518Y-21781654D02*
X8737471Y-21772130D01*
X8737471Y-21772130D02*
X8727947Y-21762606D01*
X8727947Y-21762606D02*
X8718423Y-21743559D01*
X8718423Y-21743559D02*
X8708899Y-21705463D01*
X8708899Y-21705463D02*
X8708899Y-21657844D01*
X8708899Y-21657844D02*
X8718423Y-21619749D01*
X8718423Y-21619749D02*
X8727947Y-21600702D01*
X8727947Y-21600702D02*
X8737471Y-21591178D01*
X8737471Y-21591178D02*
X8756518Y-21581654D01*
X8899376Y-21600702D02*
X8908899Y-21591178D01*
X8908899Y-21591178D02*
X8927947Y-21581654D01*
X8927947Y-21581654D02*
X8975566Y-21581654D01*
X8975566Y-21581654D02*
X8994614Y-21591178D01*
X8994614Y-21591178D02*
X9004137Y-21600702D01*
X9004137Y-21600702D02*
X9013661Y-21619749D01*
X9013661Y-21619749D02*
X9013661Y-21638797D01*
X9013661Y-21638797D02*
X9004137Y-21667368D01*
X9004137Y-21667368D02*
X8889852Y-21781654D01*
X8889852Y-21781654D02*
X9013661Y-21781654D01*
X9080328Y-21581654D02*
X9204137Y-21581654D01*
X9204137Y-21581654D02*
X9137471Y-21657844D01*
X9137471Y-21657844D02*
X9166042Y-21657844D01*
X9166042Y-21657844D02*
X9185090Y-21667368D01*
X9185090Y-21667368D02*
X9194614Y-21676892D01*
X9194614Y-21676892D02*
X9204137Y-21695940D01*
X9204137Y-21695940D02*
X9204137Y-21743559D01*
X9204137Y-21743559D02*
X9194614Y-21762606D01*
X9194614Y-21762606D02*
X9185090Y-21772130D01*
X9185090Y-21772130D02*
X9166042Y-21781654D01*
X9166042Y-21781654D02*
X9108899Y-21781654D01*
X9108899Y-21781654D02*
X9089852Y-21772130D01*
X9089852Y-21772130D02*
X9080328Y-21762606D01*
X9375566Y-21581654D02*
X9337471Y-21581654D01*
X9337471Y-21581654D02*
X9318423Y-21591178D01*
X9318423Y-21591178D02*
X9308899Y-21600702D01*
X9308899Y-21600702D02*
X9289852Y-21629273D01*
X9289852Y-21629273D02*
X9280328Y-21667368D01*
X9280328Y-21667368D02*
X9280328Y-21743559D01*
X9280328Y-21743559D02*
X9289852Y-21762606D01*
X9289852Y-21762606D02*
X9299376Y-21772130D01*
X9299376Y-21772130D02*
X9318423Y-21781654D01*
X9318423Y-21781654D02*
X9356518Y-21781654D01*
X9356518Y-21781654D02*
X9375566Y-21772130D01*
X9375566Y-21772130D02*
X9385090Y-21762606D01*
X9385090Y-21762606D02*
X9394614Y-21743559D01*
X9394614Y-21743559D02*
X9394614Y-21695940D01*
X9394614Y-21695940D02*
X9385090Y-21676892D01*
X9385090Y-21676892D02*
X9375566Y-21667368D01*
X9375566Y-21667368D02*
X9356518Y-21657844D01*
X9356518Y-21657844D02*
X9318423Y-21657844D01*
X9318423Y-21657844D02*
X9299376Y-21667368D01*
X9299376Y-21667368D02*
X9289852Y-21676892D01*
X9289852Y-21676892D02*
X9280328Y-21695940D01*
X9470804Y-21581654D02*
X9470804Y-21619749D01*
X9546995Y-21581654D02*
X9546995Y-21619749D01*
X9842233Y-21857844D02*
X9832709Y-21848321D01*
X9832709Y-21848321D02*
X9813661Y-21819749D01*
X9813661Y-21819749D02*
X9804138Y-21800702D01*
X9804138Y-21800702D02*
X9794614Y-21772130D01*
X9794614Y-21772130D02*
X9785090Y-21724511D01*
X9785090Y-21724511D02*
X9785090Y-21686416D01*
X9785090Y-21686416D02*
X9794614Y-21638797D01*
X9794614Y-21638797D02*
X9804138Y-21610225D01*
X9804138Y-21610225D02*
X9813661Y-21591178D01*
X9813661Y-21591178D02*
X9832709Y-21562606D01*
X9832709Y-21562606D02*
X9842233Y-21553082D01*
X9946995Y-21667368D02*
X9927947Y-21657844D01*
X9927947Y-21657844D02*
X9918423Y-21648321D01*
X9918423Y-21648321D02*
X9908899Y-21629273D01*
X9908899Y-21629273D02*
X9908899Y-21619749D01*
X9908899Y-21619749D02*
X9918423Y-21600702D01*
X9918423Y-21600702D02*
X9927947Y-21591178D01*
X9927947Y-21591178D02*
X9946995Y-21581654D01*
X9946995Y-21581654D02*
X9985090Y-21581654D01*
X9985090Y-21581654D02*
X10004138Y-21591178D01*
X10004138Y-21591178D02*
X10013661Y-21600702D01*
X10013661Y-21600702D02*
X10023185Y-21619749D01*
X10023185Y-21619749D02*
X10023185Y-21629273D01*
X10023185Y-21629273D02*
X10013661Y-21648321D01*
X10013661Y-21648321D02*
X10004138Y-21657844D01*
X10004138Y-21657844D02*
X9985090Y-21667368D01*
X9985090Y-21667368D02*
X9946995Y-21667368D01*
X9946995Y-21667368D02*
X9927947Y-21676892D01*
X9927947Y-21676892D02*
X9918423Y-21686416D01*
X9918423Y-21686416D02*
X9908899Y-21705463D01*
X9908899Y-21705463D02*
X9908899Y-21743559D01*
X9908899Y-21743559D02*
X9918423Y-21762606D01*
X9918423Y-21762606D02*
X9927947Y-21772130D01*
X9927947Y-21772130D02*
X9946995Y-21781654D01*
X9946995Y-21781654D02*
X9985090Y-21781654D01*
X9985090Y-21781654D02*
X10004138Y-21772130D01*
X10004138Y-21772130D02*
X10013661Y-21762606D01*
X10013661Y-21762606D02*
X10023185Y-21743559D01*
X10023185Y-21743559D02*
X10023185Y-21705463D01*
X10023185Y-21705463D02*
X10013661Y-21686416D01*
X10013661Y-21686416D02*
X10004138Y-21676892D01*
X10004138Y-21676892D02*
X9985090Y-21667368D01*
X10261280Y-21781654D02*
X10261280Y-21581654D01*
X10346995Y-21781654D02*
X10346995Y-21676892D01*
X10346995Y-21676892D02*
X10337471Y-21657844D01*
X10337471Y-21657844D02*
X10318423Y-21648321D01*
X10318423Y-21648321D02*
X10289852Y-21648321D01*
X10289852Y-21648321D02*
X10270804Y-21657844D01*
X10270804Y-21657844D02*
X10261280Y-21667368D01*
X10470804Y-21781654D02*
X10451757Y-21772130D01*
X10451757Y-21772130D02*
X10442233Y-21762606D01*
X10442233Y-21762606D02*
X10432709Y-21743559D01*
X10432709Y-21743559D02*
X10432709Y-21686416D01*
X10432709Y-21686416D02*
X10442233Y-21667368D01*
X10442233Y-21667368D02*
X10451757Y-21657844D01*
X10451757Y-21657844D02*
X10470804Y-21648321D01*
X10470804Y-21648321D02*
X10499376Y-21648321D01*
X10499376Y-21648321D02*
X10518423Y-21657844D01*
X10518423Y-21657844D02*
X10527947Y-21667368D01*
X10527947Y-21667368D02*
X10537471Y-21686416D01*
X10537471Y-21686416D02*
X10537471Y-21743559D01*
X10537471Y-21743559D02*
X10527947Y-21762606D01*
X10527947Y-21762606D02*
X10518423Y-21772130D01*
X10518423Y-21772130D02*
X10499376Y-21781654D01*
X10499376Y-21781654D02*
X10470804Y-21781654D01*
X10651757Y-21781654D02*
X10632709Y-21772130D01*
X10632709Y-21772130D02*
X10623185Y-21753082D01*
X10623185Y-21753082D02*
X10623185Y-21581654D01*
X10804138Y-21772130D02*
X10785090Y-21781654D01*
X10785090Y-21781654D02*
X10746995Y-21781654D01*
X10746995Y-21781654D02*
X10727947Y-21772130D01*
X10727947Y-21772130D02*
X10718423Y-21753082D01*
X10718423Y-21753082D02*
X10718423Y-21676892D01*
X10718423Y-21676892D02*
X10727947Y-21657844D01*
X10727947Y-21657844D02*
X10746995Y-21648321D01*
X10746995Y-21648321D02*
X10785090Y-21648321D01*
X10785090Y-21648321D02*
X10804138Y-21657844D01*
X10804138Y-21657844D02*
X10813661Y-21676892D01*
X10813661Y-21676892D02*
X10813661Y-21695940D01*
X10813661Y-21695940D02*
X10718423Y-21714987D01*
X10889852Y-21772130D02*
X10908900Y-21781654D01*
X10908900Y-21781654D02*
X10946995Y-21781654D01*
X10946995Y-21781654D02*
X10966042Y-21772130D01*
X10966042Y-21772130D02*
X10975566Y-21753082D01*
X10975566Y-21753082D02*
X10975566Y-21743559D01*
X10975566Y-21743559D02*
X10966042Y-21724511D01*
X10966042Y-21724511D02*
X10946995Y-21714987D01*
X10946995Y-21714987D02*
X10918423Y-21714987D01*
X10918423Y-21714987D02*
X10899376Y-21705463D01*
X10899376Y-21705463D02*
X10889852Y-21686416D01*
X10889852Y-21686416D02*
X10889852Y-21676892D01*
X10889852Y-21676892D02*
X10899376Y-21657844D01*
X10899376Y-21657844D02*
X10918423Y-21648321D01*
X10918423Y-21648321D02*
X10946995Y-21648321D01*
X10946995Y-21648321D02*
X10966042Y-21657844D01*
X11042233Y-21857844D02*
X11051757Y-21848321D01*
X11051757Y-21848321D02*
X11070804Y-21819749D01*
X11070804Y-21819749D02*
X11080328Y-21800702D01*
X11080328Y-21800702D02*
X11089852Y-21772130D01*
X11089852Y-21772130D02*
X11099376Y-21724511D01*
X11099376Y-21724511D02*
X11099376Y-21686416D01*
X11099376Y-21686416D02*
X11089852Y-21638797D01*
X11089852Y-21638797D02*
X11080328Y-21610225D01*
X11080328Y-21610225D02*
X11070804Y-21591178D01*
X11070804Y-21591178D02*
X11051757Y-21562606D01*
X11051757Y-21562606D02*
X11042233Y-21553082D01*
D13*
X6255454Y-21982455D02*
X6255454Y-21925886D01*
X6198885Y-21925886D01*
X6198885Y-21982455D01*
X6255454Y-21982455D01*
D12*
X6566042Y-21845654D02*
X6585090Y-21845654D01*
X6585090Y-21845654D02*
X6604137Y-21855178D01*
X6604137Y-21855178D02*
X6613661Y-21864702D01*
X6613661Y-21864702D02*
X6623185Y-21883749D01*
X6623185Y-21883749D02*
X6632709Y-21921844D01*
X6632709Y-21921844D02*
X6632709Y-21969463D01*
X6632709Y-21969463D02*
X6623185Y-22007559D01*
X6623185Y-22007559D02*
X6613661Y-22026606D01*
X6613661Y-22026606D02*
X6604137Y-22036130D01*
X6604137Y-22036130D02*
X6585090Y-22045654D01*
X6585090Y-22045654D02*
X6566042Y-22045654D01*
X6566042Y-22045654D02*
X6546994Y-22036130D01*
X6546994Y-22036130D02*
X6537470Y-22026606D01*
X6537470Y-22026606D02*
X6527947Y-22007559D01*
X6527947Y-22007559D02*
X6518423Y-21969463D01*
X6518423Y-21969463D02*
X6518423Y-21921844D01*
X6518423Y-21921844D02*
X6527947Y-21883749D01*
X6527947Y-21883749D02*
X6537470Y-21864702D01*
X6537470Y-21864702D02*
X6546994Y-21855178D01*
X6546994Y-21855178D02*
X6566042Y-21845654D01*
X6718423Y-22026606D02*
X6727947Y-22036130D01*
X6727947Y-22036130D02*
X6718423Y-22045654D01*
X6718423Y-22045654D02*
X6708899Y-22036130D01*
X6708899Y-22036130D02*
X6718423Y-22026606D01*
X6718423Y-22026606D02*
X6718423Y-22045654D01*
X6842232Y-21931368D02*
X6823185Y-21921844D01*
X6823185Y-21921844D02*
X6813661Y-21912321D01*
X6813661Y-21912321D02*
X6804137Y-21893273D01*
X6804137Y-21893273D02*
X6804137Y-21883749D01*
X6804137Y-21883749D02*
X6813661Y-21864702D01*
X6813661Y-21864702D02*
X6823185Y-21855178D01*
X6823185Y-21855178D02*
X6842232Y-21845654D01*
X6842232Y-21845654D02*
X6880328Y-21845654D01*
X6880328Y-21845654D02*
X6899375Y-21855178D01*
X6899375Y-21855178D02*
X6908899Y-21864702D01*
X6908899Y-21864702D02*
X6918423Y-21883749D01*
X6918423Y-21883749D02*
X6918423Y-21893273D01*
X6918423Y-21893273D02*
X6908899Y-21912321D01*
X6908899Y-21912321D02*
X6899375Y-21921844D01*
X6899375Y-21921844D02*
X6880328Y-21931368D01*
X6880328Y-21931368D02*
X6842232Y-21931368D01*
X6842232Y-21931368D02*
X6823185Y-21940892D01*
X6823185Y-21940892D02*
X6813661Y-21950416D01*
X6813661Y-21950416D02*
X6804137Y-21969463D01*
X6804137Y-21969463D02*
X6804137Y-22007559D01*
X6804137Y-22007559D02*
X6813661Y-22026606D01*
X6813661Y-22026606D02*
X6823185Y-22036130D01*
X6823185Y-22036130D02*
X6842232Y-22045654D01*
X6842232Y-22045654D02*
X6880328Y-22045654D01*
X6880328Y-22045654D02*
X6899375Y-22036130D01*
X6899375Y-22036130D02*
X6908899Y-22026606D01*
X6908899Y-22026606D02*
X6918423Y-22007559D01*
X6918423Y-22007559D02*
X6918423Y-21969463D01*
X6918423Y-21969463D02*
X6908899Y-21950416D01*
X6908899Y-21950416D02*
X6899375Y-21940892D01*
X6899375Y-21940892D02*
X6880328Y-21931368D01*
X7042232Y-21845654D02*
X7061280Y-21845654D01*
X7061280Y-21845654D02*
X7080328Y-21855178D01*
X7080328Y-21855178D02*
X7089851Y-21864702D01*
X7089851Y-21864702D02*
X7099375Y-21883749D01*
X7099375Y-21883749D02*
X7108899Y-21921844D01*
X7108899Y-21921844D02*
X7108899Y-21969463D01*
X7108899Y-21969463D02*
X7099375Y-22007559D01*
X7099375Y-22007559D02*
X7089851Y-22026606D01*
X7089851Y-22026606D02*
X7080328Y-22036130D01*
X7080328Y-22036130D02*
X7061280Y-22045654D01*
X7061280Y-22045654D02*
X7042232Y-22045654D01*
X7042232Y-22045654D02*
X7023185Y-22036130D01*
X7023185Y-22036130D02*
X7013661Y-22026606D01*
X7013661Y-22026606D02*
X7004137Y-22007559D01*
X7004137Y-22007559D02*
X6994613Y-21969463D01*
X6994613Y-21969463D02*
X6994613Y-21921844D01*
X6994613Y-21921844D02*
X7004137Y-21883749D01*
X7004137Y-21883749D02*
X7013661Y-21864702D01*
X7013661Y-21864702D02*
X7023185Y-21855178D01*
X7023185Y-21855178D02*
X7042232Y-21845654D01*
X7232709Y-21845654D02*
X7251756Y-21845654D01*
X7251756Y-21845654D02*
X7270804Y-21855178D01*
X7270804Y-21855178D02*
X7280328Y-21864702D01*
X7280328Y-21864702D02*
X7289851Y-21883749D01*
X7289851Y-21883749D02*
X7299375Y-21921844D01*
X7299375Y-21921844D02*
X7299375Y-21969463D01*
X7299375Y-21969463D02*
X7289851Y-22007559D01*
X7289851Y-22007559D02*
X7280328Y-22026606D01*
X7280328Y-22026606D02*
X7270804Y-22036130D01*
X7270804Y-22036130D02*
X7251756Y-22045654D01*
X7251756Y-22045654D02*
X7232709Y-22045654D01*
X7232709Y-22045654D02*
X7213661Y-22036130D01*
X7213661Y-22036130D02*
X7204137Y-22026606D01*
X7204137Y-22026606D02*
X7194613Y-22007559D01*
X7194613Y-22007559D02*
X7185090Y-21969463D01*
X7185090Y-21969463D02*
X7185090Y-21921844D01*
X7185090Y-21921844D02*
X7194613Y-21883749D01*
X7194613Y-21883749D02*
X7204137Y-21864702D01*
X7204137Y-21864702D02*
X7213661Y-21855178D01*
X7213661Y-21855178D02*
X7232709Y-21845654D01*
X7385090Y-22045654D02*
X7385090Y-21912321D01*
X7385090Y-21931368D02*
X7394613Y-21921844D01*
X7394613Y-21921844D02*
X7413661Y-21912321D01*
X7413661Y-21912321D02*
X7442232Y-21912321D01*
X7442232Y-21912321D02*
X7461280Y-21921844D01*
X7461280Y-21921844D02*
X7470804Y-21940892D01*
X7470804Y-21940892D02*
X7470804Y-22045654D01*
X7470804Y-21940892D02*
X7480328Y-21921844D01*
X7480328Y-21921844D02*
X7499375Y-21912321D01*
X7499375Y-21912321D02*
X7527947Y-21912321D01*
X7527947Y-21912321D02*
X7546994Y-21921844D01*
X7546994Y-21921844D02*
X7556518Y-21940892D01*
X7556518Y-21940892D02*
X7556518Y-22045654D01*
X7651756Y-22045654D02*
X7651756Y-21912321D01*
X7651756Y-21931368D02*
X7661280Y-21921844D01*
X7661280Y-21921844D02*
X7680328Y-21912321D01*
X7680328Y-21912321D02*
X7708899Y-21912321D01*
X7708899Y-21912321D02*
X7727947Y-21921844D01*
X7727947Y-21921844D02*
X7737471Y-21940892D01*
X7737471Y-21940892D02*
X7737471Y-22045654D01*
X7737471Y-21940892D02*
X7746994Y-21921844D01*
X7746994Y-21921844D02*
X7766042Y-21912321D01*
X7766042Y-21912321D02*
X7794613Y-21912321D01*
X7794613Y-21912321D02*
X7813661Y-21921844D01*
X7813661Y-21921844D02*
X7823185Y-21940892D01*
X7823185Y-21940892D02*
X7823185Y-22045654D01*
X8213661Y-21836130D02*
X8042233Y-22093273D01*
X8470804Y-21845654D02*
X8489852Y-21845654D01*
X8489852Y-21845654D02*
X8508899Y-21855178D01*
X8508899Y-21855178D02*
X8518423Y-21864702D01*
X8518423Y-21864702D02*
X8527947Y-21883749D01*
X8527947Y-21883749D02*
X8537471Y-21921844D01*
X8537471Y-21921844D02*
X8537471Y-21969463D01*
X8537471Y-21969463D02*
X8527947Y-22007559D01*
X8527947Y-22007559D02*
X8518423Y-22026606D01*
X8518423Y-22026606D02*
X8508899Y-22036130D01*
X8508899Y-22036130D02*
X8489852Y-22045654D01*
X8489852Y-22045654D02*
X8470804Y-22045654D01*
X8470804Y-22045654D02*
X8451756Y-22036130D01*
X8451756Y-22036130D02*
X8442233Y-22026606D01*
X8442233Y-22026606D02*
X8432709Y-22007559D01*
X8432709Y-22007559D02*
X8423185Y-21969463D01*
X8423185Y-21969463D02*
X8423185Y-21921844D01*
X8423185Y-21921844D02*
X8432709Y-21883749D01*
X8432709Y-21883749D02*
X8442233Y-21864702D01*
X8442233Y-21864702D02*
X8451756Y-21855178D01*
X8451756Y-21855178D02*
X8470804Y-21845654D01*
X8623185Y-22026606D02*
X8632709Y-22036130D01*
X8632709Y-22036130D02*
X8623185Y-22045654D01*
X8623185Y-22045654D02*
X8613661Y-22036130D01*
X8613661Y-22036130D02*
X8623185Y-22026606D01*
X8623185Y-22026606D02*
X8623185Y-22045654D01*
X8756518Y-21845654D02*
X8775566Y-21845654D01*
X8775566Y-21845654D02*
X8794614Y-21855178D01*
X8794614Y-21855178D02*
X8804137Y-21864702D01*
X8804137Y-21864702D02*
X8813661Y-21883749D01*
X8813661Y-21883749D02*
X8823185Y-21921844D01*
X8823185Y-21921844D02*
X8823185Y-21969463D01*
X8823185Y-21969463D02*
X8813661Y-22007559D01*
X8813661Y-22007559D02*
X8804137Y-22026606D01*
X8804137Y-22026606D02*
X8794614Y-22036130D01*
X8794614Y-22036130D02*
X8775566Y-22045654D01*
X8775566Y-22045654D02*
X8756518Y-22045654D01*
X8756518Y-22045654D02*
X8737471Y-22036130D01*
X8737471Y-22036130D02*
X8727947Y-22026606D01*
X8727947Y-22026606D02*
X8718423Y-22007559D01*
X8718423Y-22007559D02*
X8708899Y-21969463D01*
X8708899Y-21969463D02*
X8708899Y-21921844D01*
X8708899Y-21921844D02*
X8718423Y-21883749D01*
X8718423Y-21883749D02*
X8727947Y-21864702D01*
X8727947Y-21864702D02*
X8737471Y-21855178D01*
X8737471Y-21855178D02*
X8756518Y-21845654D01*
X8889852Y-21845654D02*
X9013661Y-21845654D01*
X9013661Y-21845654D02*
X8946995Y-21921844D01*
X8946995Y-21921844D02*
X8975566Y-21921844D01*
X8975566Y-21921844D02*
X8994614Y-21931368D01*
X8994614Y-21931368D02*
X9004137Y-21940892D01*
X9004137Y-21940892D02*
X9013661Y-21959940D01*
X9013661Y-21959940D02*
X9013661Y-22007559D01*
X9013661Y-22007559D02*
X9004137Y-22026606D01*
X9004137Y-22026606D02*
X8994614Y-22036130D01*
X8994614Y-22036130D02*
X8975566Y-22045654D01*
X8975566Y-22045654D02*
X8918423Y-22045654D01*
X8918423Y-22045654D02*
X8899376Y-22036130D01*
X8899376Y-22036130D02*
X8889852Y-22026606D01*
X9204137Y-22045654D02*
X9089852Y-22045654D01*
X9146995Y-22045654D02*
X9146995Y-21845654D01*
X9146995Y-21845654D02*
X9127947Y-21874225D01*
X9127947Y-21874225D02*
X9108899Y-21893273D01*
X9108899Y-21893273D02*
X9089852Y-21902797D01*
X9385090Y-21845654D02*
X9289852Y-21845654D01*
X9289852Y-21845654D02*
X9280328Y-21940892D01*
X9280328Y-21940892D02*
X9289852Y-21931368D01*
X9289852Y-21931368D02*
X9308899Y-21921844D01*
X9308899Y-21921844D02*
X9356518Y-21921844D01*
X9356518Y-21921844D02*
X9375566Y-21931368D01*
X9375566Y-21931368D02*
X9385090Y-21940892D01*
X9385090Y-21940892D02*
X9394614Y-21959940D01*
X9394614Y-21959940D02*
X9394614Y-22007559D01*
X9394614Y-22007559D02*
X9385090Y-22026606D01*
X9385090Y-22026606D02*
X9375566Y-22036130D01*
X9375566Y-22036130D02*
X9356518Y-22045654D01*
X9356518Y-22045654D02*
X9308899Y-22045654D01*
X9308899Y-22045654D02*
X9289852Y-22036130D01*
X9289852Y-22036130D02*
X9280328Y-22026606D01*
X9470804Y-21845654D02*
X9470804Y-21883749D01*
X9546995Y-21845654D02*
X9546995Y-21883749D01*
X9842233Y-22121844D02*
X9832709Y-22112321D01*
X9832709Y-22112321D02*
X9813661Y-22083749D01*
X9813661Y-22083749D02*
X9804138Y-22064702D01*
X9804138Y-22064702D02*
X9794614Y-22036130D01*
X9794614Y-22036130D02*
X9785090Y-21988511D01*
X9785090Y-21988511D02*
X9785090Y-21950416D01*
X9785090Y-21950416D02*
X9794614Y-21902797D01*
X9794614Y-21902797D02*
X9804138Y-21874225D01*
X9804138Y-21874225D02*
X9813661Y-21855178D01*
X9813661Y-21855178D02*
X9832709Y-21826606D01*
X9832709Y-21826606D02*
X9842233Y-21817082D01*
X9908899Y-21864702D02*
X9918423Y-21855178D01*
X9918423Y-21855178D02*
X9937471Y-21845654D01*
X9937471Y-21845654D02*
X9985090Y-21845654D01*
X9985090Y-21845654D02*
X10004138Y-21855178D01*
X10004138Y-21855178D02*
X10013661Y-21864702D01*
X10013661Y-21864702D02*
X10023185Y-21883749D01*
X10023185Y-21883749D02*
X10023185Y-21902797D01*
X10023185Y-21902797D02*
X10013661Y-21931368D01*
X10013661Y-21931368D02*
X9899376Y-22045654D01*
X9899376Y-22045654D02*
X10023185Y-22045654D01*
X10194614Y-21912321D02*
X10194614Y-22045654D01*
X10146995Y-21836130D02*
X10099376Y-21978987D01*
X10099376Y-21978987D02*
X10223185Y-21978987D01*
X10451757Y-22045654D02*
X10451757Y-21845654D01*
X10537471Y-22045654D02*
X10537471Y-21940892D01*
X10537471Y-21940892D02*
X10527947Y-21921844D01*
X10527947Y-21921844D02*
X10508900Y-21912321D01*
X10508900Y-21912321D02*
X10480328Y-21912321D01*
X10480328Y-21912321D02*
X10461280Y-21921844D01*
X10461280Y-21921844D02*
X10451757Y-21931368D01*
X10661280Y-22045654D02*
X10642233Y-22036130D01*
X10642233Y-22036130D02*
X10632709Y-22026606D01*
X10632709Y-22026606D02*
X10623185Y-22007559D01*
X10623185Y-22007559D02*
X10623185Y-21950416D01*
X10623185Y-21950416D02*
X10632709Y-21931368D01*
X10632709Y-21931368D02*
X10642233Y-21921844D01*
X10642233Y-21921844D02*
X10661280Y-21912321D01*
X10661280Y-21912321D02*
X10689852Y-21912321D01*
X10689852Y-21912321D02*
X10708900Y-21921844D01*
X10708900Y-21921844D02*
X10718423Y-21931368D01*
X10718423Y-21931368D02*
X10727947Y-21950416D01*
X10727947Y-21950416D02*
X10727947Y-22007559D01*
X10727947Y-22007559D02*
X10718423Y-22026606D01*
X10718423Y-22026606D02*
X10708900Y-22036130D01*
X10708900Y-22036130D02*
X10689852Y-22045654D01*
X10689852Y-22045654D02*
X10661280Y-22045654D01*
X10842233Y-22045654D02*
X10823185Y-22036130D01*
X10823185Y-22036130D02*
X10813661Y-22017082D01*
X10813661Y-22017082D02*
X10813661Y-21845654D01*
X10994614Y-22036130D02*
X10975566Y-22045654D01*
X10975566Y-22045654D02*
X10937471Y-22045654D01*
X10937471Y-22045654D02*
X10918423Y-22036130D01*
X10918423Y-22036130D02*
X10908900Y-22017082D01*
X10908900Y-22017082D02*
X10908900Y-21940892D01*
X10908900Y-21940892D02*
X10918423Y-21921844D01*
X10918423Y-21921844D02*
X10937471Y-21912321D01*
X10937471Y-21912321D02*
X10975566Y-21912321D01*
X10975566Y-21912321D02*
X10994614Y-21921844D01*
X10994614Y-21921844D02*
X11004138Y-21940892D01*
X11004138Y-21940892D02*
X11004138Y-21959940D01*
X11004138Y-21959940D02*
X10908900Y-21978987D01*
X11080328Y-22036130D02*
X11099376Y-22045654D01*
X11099376Y-22045654D02*
X11137471Y-22045654D01*
X11137471Y-22045654D02*
X11156519Y-22036130D01*
X11156519Y-22036130D02*
X11166042Y-22017082D01*
X11166042Y-22017082D02*
X11166042Y-22007559D01*
X11166042Y-22007559D02*
X11156519Y-21988511D01*
X11156519Y-21988511D02*
X11137471Y-21978987D01*
X11137471Y-21978987D02*
X11108900Y-21978987D01*
X11108900Y-21978987D02*
X11089852Y-21969463D01*
X11089852Y-21969463D02*
X11080328Y-21950416D01*
X11080328Y-21950416D02*
X11080328Y-21940892D01*
X11080328Y-21940892D02*
X11089852Y-21921844D01*
X11089852Y-21921844D02*
X11108900Y-21912321D01*
X11108900Y-21912321D02*
X11137471Y-21912321D01*
X11137471Y-21912321D02*
X11156519Y-21921844D01*
X11232709Y-22121844D02*
X11242233Y-22112321D01*
X11242233Y-22112321D02*
X11261280Y-22083749D01*
X11261280Y-22083749D02*
X11270804Y-22064702D01*
X11270804Y-22064702D02*
X11280328Y-22036130D01*
X11280328Y-22036130D02*
X11289852Y-21988511D01*
X11289852Y-21988511D02*
X11289852Y-21950416D01*
X11289852Y-21950416D02*
X11280328Y-21902797D01*
X11280328Y-21902797D02*
X11270804Y-21874225D01*
X11270804Y-21874225D02*
X11261280Y-21855178D01*
X11261280Y-21855178D02*
X11242233Y-21826606D01*
X11242233Y-21826606D02*
X11232709Y-21817082D01*
D13*
X6217170Y-22268170D02*
X6267170Y-22218170D01*
X6217170Y-22168170D01*
X6167170Y-22218170D01*
X6217170Y-22268170D01*
D12*
X6632709Y-22309654D02*
X6518423Y-22309654D01*
X6575566Y-22309654D02*
X6575566Y-22109654D01*
X6575566Y-22109654D02*
X6556518Y-22138225D01*
X6556518Y-22138225D02*
X6537470Y-22157273D01*
X6537470Y-22157273D02*
X6518423Y-22166797D01*
X6718423Y-22290606D02*
X6727947Y-22300130D01*
X6727947Y-22300130D02*
X6718423Y-22309654D01*
X6718423Y-22309654D02*
X6708899Y-22300130D01*
X6708899Y-22300130D02*
X6718423Y-22290606D01*
X6718423Y-22290606D02*
X6718423Y-22309654D01*
X6851756Y-22109654D02*
X6870804Y-22109654D01*
X6870804Y-22109654D02*
X6889851Y-22119178D01*
X6889851Y-22119178D02*
X6899375Y-22128702D01*
X6899375Y-22128702D02*
X6908899Y-22147749D01*
X6908899Y-22147749D02*
X6918423Y-22185844D01*
X6918423Y-22185844D02*
X6918423Y-22233463D01*
X6918423Y-22233463D02*
X6908899Y-22271559D01*
X6908899Y-22271559D02*
X6899375Y-22290606D01*
X6899375Y-22290606D02*
X6889851Y-22300130D01*
X6889851Y-22300130D02*
X6870804Y-22309654D01*
X6870804Y-22309654D02*
X6851756Y-22309654D01*
X6851756Y-22309654D02*
X6832709Y-22300130D01*
X6832709Y-22300130D02*
X6823185Y-22290606D01*
X6823185Y-22290606D02*
X6813661Y-22271559D01*
X6813661Y-22271559D02*
X6804137Y-22233463D01*
X6804137Y-22233463D02*
X6804137Y-22185844D01*
X6804137Y-22185844D02*
X6813661Y-22147749D01*
X6813661Y-22147749D02*
X6823185Y-22128702D01*
X6823185Y-22128702D02*
X6832709Y-22119178D01*
X6832709Y-22119178D02*
X6851756Y-22109654D01*
X7042232Y-22109654D02*
X7061280Y-22109654D01*
X7061280Y-22109654D02*
X7080328Y-22119178D01*
X7080328Y-22119178D02*
X7089851Y-22128702D01*
X7089851Y-22128702D02*
X7099375Y-22147749D01*
X7099375Y-22147749D02*
X7108899Y-22185844D01*
X7108899Y-22185844D02*
X7108899Y-22233463D01*
X7108899Y-22233463D02*
X7099375Y-22271559D01*
X7099375Y-22271559D02*
X7089851Y-22290606D01*
X7089851Y-22290606D02*
X7080328Y-22300130D01*
X7080328Y-22300130D02*
X7061280Y-22309654D01*
X7061280Y-22309654D02*
X7042232Y-22309654D01*
X7042232Y-22309654D02*
X7023185Y-22300130D01*
X7023185Y-22300130D02*
X7013661Y-22290606D01*
X7013661Y-22290606D02*
X7004137Y-22271559D01*
X7004137Y-22271559D02*
X6994613Y-22233463D01*
X6994613Y-22233463D02*
X6994613Y-22185844D01*
X6994613Y-22185844D02*
X7004137Y-22147749D01*
X7004137Y-22147749D02*
X7013661Y-22128702D01*
X7013661Y-22128702D02*
X7023185Y-22119178D01*
X7023185Y-22119178D02*
X7042232Y-22109654D01*
X7232709Y-22109654D02*
X7251756Y-22109654D01*
X7251756Y-22109654D02*
X7270804Y-22119178D01*
X7270804Y-22119178D02*
X7280328Y-22128702D01*
X7280328Y-22128702D02*
X7289851Y-22147749D01*
X7289851Y-22147749D02*
X7299375Y-22185844D01*
X7299375Y-22185844D02*
X7299375Y-22233463D01*
X7299375Y-22233463D02*
X7289851Y-22271559D01*
X7289851Y-22271559D02*
X7280328Y-22290606D01*
X7280328Y-22290606D02*
X7270804Y-22300130D01*
X7270804Y-22300130D02*
X7251756Y-22309654D01*
X7251756Y-22309654D02*
X7232709Y-22309654D01*
X7232709Y-22309654D02*
X7213661Y-22300130D01*
X7213661Y-22300130D02*
X7204137Y-22290606D01*
X7204137Y-22290606D02*
X7194613Y-22271559D01*
X7194613Y-22271559D02*
X7185090Y-22233463D01*
X7185090Y-22233463D02*
X7185090Y-22185844D01*
X7185090Y-22185844D02*
X7194613Y-22147749D01*
X7194613Y-22147749D02*
X7204137Y-22128702D01*
X7204137Y-22128702D02*
X7213661Y-22119178D01*
X7213661Y-22119178D02*
X7232709Y-22109654D01*
X7385090Y-22309654D02*
X7385090Y-22176321D01*
X7385090Y-22195368D02*
X7394613Y-22185844D01*
X7394613Y-22185844D02*
X7413661Y-22176321D01*
X7413661Y-22176321D02*
X7442232Y-22176321D01*
X7442232Y-22176321D02*
X7461280Y-22185844D01*
X7461280Y-22185844D02*
X7470804Y-22204892D01*
X7470804Y-22204892D02*
X7470804Y-22309654D01*
X7470804Y-22204892D02*
X7480328Y-22185844D01*
X7480328Y-22185844D02*
X7499375Y-22176321D01*
X7499375Y-22176321D02*
X7527947Y-22176321D01*
X7527947Y-22176321D02*
X7546994Y-22185844D01*
X7546994Y-22185844D02*
X7556518Y-22204892D01*
X7556518Y-22204892D02*
X7556518Y-22309654D01*
X7651756Y-22309654D02*
X7651756Y-22176321D01*
X7651756Y-22195368D02*
X7661280Y-22185844D01*
X7661280Y-22185844D02*
X7680328Y-22176321D01*
X7680328Y-22176321D02*
X7708899Y-22176321D01*
X7708899Y-22176321D02*
X7727947Y-22185844D01*
X7727947Y-22185844D02*
X7737471Y-22204892D01*
X7737471Y-22204892D02*
X7737471Y-22309654D01*
X7737471Y-22204892D02*
X7746994Y-22185844D01*
X7746994Y-22185844D02*
X7766042Y-22176321D01*
X7766042Y-22176321D02*
X7794613Y-22176321D01*
X7794613Y-22176321D02*
X7813661Y-22185844D01*
X7813661Y-22185844D02*
X7823185Y-22204892D01*
X7823185Y-22204892D02*
X7823185Y-22309654D01*
X8213661Y-22100130D02*
X8042233Y-22357273D01*
X8470804Y-22109654D02*
X8489852Y-22109654D01*
X8489852Y-22109654D02*
X8508899Y-22119178D01*
X8508899Y-22119178D02*
X8518423Y-22128702D01*
X8518423Y-22128702D02*
X8527947Y-22147749D01*
X8527947Y-22147749D02*
X8537471Y-22185844D01*
X8537471Y-22185844D02*
X8537471Y-22233463D01*
X8537471Y-22233463D02*
X8527947Y-22271559D01*
X8527947Y-22271559D02*
X8518423Y-22290606D01*
X8518423Y-22290606D02*
X8508899Y-22300130D01*
X8508899Y-22300130D02*
X8489852Y-22309654D01*
X8489852Y-22309654D02*
X8470804Y-22309654D01*
X8470804Y-22309654D02*
X8451756Y-22300130D01*
X8451756Y-22300130D02*
X8442233Y-22290606D01*
X8442233Y-22290606D02*
X8432709Y-22271559D01*
X8432709Y-22271559D02*
X8423185Y-22233463D01*
X8423185Y-22233463D02*
X8423185Y-22185844D01*
X8423185Y-22185844D02*
X8432709Y-22147749D01*
X8432709Y-22147749D02*
X8442233Y-22128702D01*
X8442233Y-22128702D02*
X8451756Y-22119178D01*
X8451756Y-22119178D02*
X8470804Y-22109654D01*
X8623185Y-22290606D02*
X8632709Y-22300130D01*
X8632709Y-22300130D02*
X8623185Y-22309654D01*
X8623185Y-22309654D02*
X8613661Y-22300130D01*
X8613661Y-22300130D02*
X8623185Y-22290606D01*
X8623185Y-22290606D02*
X8623185Y-22309654D01*
X8756518Y-22109654D02*
X8775566Y-22109654D01*
X8775566Y-22109654D02*
X8794614Y-22119178D01*
X8794614Y-22119178D02*
X8804137Y-22128702D01*
X8804137Y-22128702D02*
X8813661Y-22147749D01*
X8813661Y-22147749D02*
X8823185Y-22185844D01*
X8823185Y-22185844D02*
X8823185Y-22233463D01*
X8823185Y-22233463D02*
X8813661Y-22271559D01*
X8813661Y-22271559D02*
X8804137Y-22290606D01*
X8804137Y-22290606D02*
X8794614Y-22300130D01*
X8794614Y-22300130D02*
X8775566Y-22309654D01*
X8775566Y-22309654D02*
X8756518Y-22309654D01*
X8756518Y-22309654D02*
X8737471Y-22300130D01*
X8737471Y-22300130D02*
X8727947Y-22290606D01*
X8727947Y-22290606D02*
X8718423Y-22271559D01*
X8718423Y-22271559D02*
X8708899Y-22233463D01*
X8708899Y-22233463D02*
X8708899Y-22185844D01*
X8708899Y-22185844D02*
X8718423Y-22147749D01*
X8718423Y-22147749D02*
X8727947Y-22128702D01*
X8727947Y-22128702D02*
X8737471Y-22119178D01*
X8737471Y-22119178D02*
X8756518Y-22109654D01*
X8889852Y-22109654D02*
X9013661Y-22109654D01*
X9013661Y-22109654D02*
X8946995Y-22185844D01*
X8946995Y-22185844D02*
X8975566Y-22185844D01*
X8975566Y-22185844D02*
X8994614Y-22195368D01*
X8994614Y-22195368D02*
X9004137Y-22204892D01*
X9004137Y-22204892D02*
X9013661Y-22223940D01*
X9013661Y-22223940D02*
X9013661Y-22271559D01*
X9013661Y-22271559D02*
X9004137Y-22290606D01*
X9004137Y-22290606D02*
X8994614Y-22300130D01*
X8994614Y-22300130D02*
X8975566Y-22309654D01*
X8975566Y-22309654D02*
X8918423Y-22309654D01*
X8918423Y-22309654D02*
X8899376Y-22300130D01*
X8899376Y-22300130D02*
X8889852Y-22290606D01*
X9108899Y-22309654D02*
X9146995Y-22309654D01*
X9146995Y-22309654D02*
X9166042Y-22300130D01*
X9166042Y-22300130D02*
X9175566Y-22290606D01*
X9175566Y-22290606D02*
X9194614Y-22262035D01*
X9194614Y-22262035D02*
X9204137Y-22223940D01*
X9204137Y-22223940D02*
X9204137Y-22147749D01*
X9204137Y-22147749D02*
X9194614Y-22128702D01*
X9194614Y-22128702D02*
X9185090Y-22119178D01*
X9185090Y-22119178D02*
X9166042Y-22109654D01*
X9166042Y-22109654D02*
X9127947Y-22109654D01*
X9127947Y-22109654D02*
X9108899Y-22119178D01*
X9108899Y-22119178D02*
X9099376Y-22128702D01*
X9099376Y-22128702D02*
X9089852Y-22147749D01*
X9089852Y-22147749D02*
X9089852Y-22195368D01*
X9089852Y-22195368D02*
X9099376Y-22214416D01*
X9099376Y-22214416D02*
X9108899Y-22223940D01*
X9108899Y-22223940D02*
X9127947Y-22233463D01*
X9127947Y-22233463D02*
X9166042Y-22233463D01*
X9166042Y-22233463D02*
X9185090Y-22223940D01*
X9185090Y-22223940D02*
X9194614Y-22214416D01*
X9194614Y-22214416D02*
X9204137Y-22195368D01*
X9375566Y-22176321D02*
X9375566Y-22309654D01*
X9327947Y-22100130D02*
X9280328Y-22242987D01*
X9280328Y-22242987D02*
X9404137Y-22242987D01*
X9470804Y-22109654D02*
X9470804Y-22147749D01*
X9546995Y-22109654D02*
X9546995Y-22147749D01*
X9842233Y-22385844D02*
X9832709Y-22376320D01*
X9832709Y-22376320D02*
X9813661Y-22347749D01*
X9813661Y-22347749D02*
X9804138Y-22328702D01*
X9804138Y-22328702D02*
X9794614Y-22300130D01*
X9794614Y-22300130D02*
X9785090Y-22252511D01*
X9785090Y-22252511D02*
X9785090Y-22214416D01*
X9785090Y-22214416D02*
X9794614Y-22166797D01*
X9794614Y-22166797D02*
X9804138Y-22138225D01*
X9804138Y-22138225D02*
X9813661Y-22119178D01*
X9813661Y-22119178D02*
X9832709Y-22090606D01*
X9832709Y-22090606D02*
X9842233Y-22081082D01*
X10023185Y-22309654D02*
X9908899Y-22309654D01*
X9966042Y-22309654D02*
X9966042Y-22109654D01*
X9966042Y-22109654D02*
X9946995Y-22138225D01*
X9946995Y-22138225D02*
X9927947Y-22157273D01*
X9927947Y-22157273D02*
X9908899Y-22166797D01*
X10137471Y-22195368D02*
X10118423Y-22185844D01*
X10118423Y-22185844D02*
X10108899Y-22176321D01*
X10108899Y-22176321D02*
X10099376Y-22157273D01*
X10099376Y-22157273D02*
X10099376Y-22147749D01*
X10099376Y-22147749D02*
X10108899Y-22128702D01*
X10108899Y-22128702D02*
X10118423Y-22119178D01*
X10118423Y-22119178D02*
X10137471Y-22109654D01*
X10137471Y-22109654D02*
X10175566Y-22109654D01*
X10175566Y-22109654D02*
X10194614Y-22119178D01*
X10194614Y-22119178D02*
X10204138Y-22128702D01*
X10204138Y-22128702D02*
X10213661Y-22147749D01*
X10213661Y-22147749D02*
X10213661Y-22157273D01*
X10213661Y-22157273D02*
X10204138Y-22176321D01*
X10204138Y-22176321D02*
X10194614Y-22185844D01*
X10194614Y-22185844D02*
X10175566Y-22195368D01*
X10175566Y-22195368D02*
X10137471Y-22195368D01*
X10137471Y-22195368D02*
X10118423Y-22204892D01*
X10118423Y-22204892D02*
X10108899Y-22214416D01*
X10108899Y-22214416D02*
X10099376Y-22233463D01*
X10099376Y-22233463D02*
X10099376Y-22271559D01*
X10099376Y-22271559D02*
X10108899Y-22290606D01*
X10108899Y-22290606D02*
X10118423Y-22300130D01*
X10118423Y-22300130D02*
X10137471Y-22309654D01*
X10137471Y-22309654D02*
X10175566Y-22309654D01*
X10175566Y-22309654D02*
X10194614Y-22300130D01*
X10194614Y-22300130D02*
X10204138Y-22290606D01*
X10204138Y-22290606D02*
X10213661Y-22271559D01*
X10213661Y-22271559D02*
X10213661Y-22233463D01*
X10213661Y-22233463D02*
X10204138Y-22214416D01*
X10204138Y-22214416D02*
X10194614Y-22204892D01*
X10194614Y-22204892D02*
X10175566Y-22195368D01*
X10451757Y-22309654D02*
X10451757Y-22109654D01*
X10537471Y-22309654D02*
X10537471Y-22204892D01*
X10537471Y-22204892D02*
X10527947Y-22185844D01*
X10527947Y-22185844D02*
X10508900Y-22176321D01*
X10508900Y-22176321D02*
X10480328Y-22176321D01*
X10480328Y-22176321D02*
X10461280Y-22185844D01*
X10461280Y-22185844D02*
X10451757Y-22195368D01*
X10661280Y-22309654D02*
X10642233Y-22300130D01*
X10642233Y-22300130D02*
X10632709Y-22290606D01*
X10632709Y-22290606D02*
X10623185Y-22271559D01*
X10623185Y-22271559D02*
X10623185Y-22214416D01*
X10623185Y-22214416D02*
X10632709Y-22195368D01*
X10632709Y-22195368D02*
X10642233Y-22185844D01*
X10642233Y-22185844D02*
X10661280Y-22176321D01*
X10661280Y-22176321D02*
X10689852Y-22176321D01*
X10689852Y-22176321D02*
X10708900Y-22185844D01*
X10708900Y-22185844D02*
X10718423Y-22195368D01*
X10718423Y-22195368D02*
X10727947Y-22214416D01*
X10727947Y-22214416D02*
X10727947Y-22271559D01*
X10727947Y-22271559D02*
X10718423Y-22290606D01*
X10718423Y-22290606D02*
X10708900Y-22300130D01*
X10708900Y-22300130D02*
X10689852Y-22309654D01*
X10689852Y-22309654D02*
X10661280Y-22309654D01*
X10842233Y-22309654D02*
X10823185Y-22300130D01*
X10823185Y-22300130D02*
X10813661Y-22281082D01*
X10813661Y-22281082D02*
X10813661Y-22109654D01*
X10994614Y-22300130D02*
X10975566Y-22309654D01*
X10975566Y-22309654D02*
X10937471Y-22309654D01*
X10937471Y-22309654D02*
X10918423Y-22300130D01*
X10918423Y-22300130D02*
X10908900Y-22281082D01*
X10908900Y-22281082D02*
X10908900Y-22204892D01*
X10908900Y-22204892D02*
X10918423Y-22185844D01*
X10918423Y-22185844D02*
X10937471Y-22176321D01*
X10937471Y-22176321D02*
X10975566Y-22176321D01*
X10975566Y-22176321D02*
X10994614Y-22185844D01*
X10994614Y-22185844D02*
X11004138Y-22204892D01*
X11004138Y-22204892D02*
X11004138Y-22223940D01*
X11004138Y-22223940D02*
X10908900Y-22242987D01*
X11080328Y-22300130D02*
X11099376Y-22309654D01*
X11099376Y-22309654D02*
X11137471Y-22309654D01*
X11137471Y-22309654D02*
X11156519Y-22300130D01*
X11156519Y-22300130D02*
X11166042Y-22281082D01*
X11166042Y-22281082D02*
X11166042Y-22271559D01*
X11166042Y-22271559D02*
X11156519Y-22252511D01*
X11156519Y-22252511D02*
X11137471Y-22242987D01*
X11137471Y-22242987D02*
X11108900Y-22242987D01*
X11108900Y-22242987D02*
X11089852Y-22233463D01*
X11089852Y-22233463D02*
X11080328Y-22214416D01*
X11080328Y-22214416D02*
X11080328Y-22204892D01*
X11080328Y-22204892D02*
X11089852Y-22185844D01*
X11089852Y-22185844D02*
X11108900Y-22176321D01*
X11108900Y-22176321D02*
X11137471Y-22176321D01*
X11137471Y-22176321D02*
X11156519Y-22185844D01*
X11232709Y-22385844D02*
X11242233Y-22376320D01*
X11242233Y-22376320D02*
X11261280Y-22347749D01*
X11261280Y-22347749D02*
X11270804Y-22328702D01*
X11270804Y-22328702D02*
X11280328Y-22300130D01*
X11280328Y-22300130D02*
X11289852Y-22252511D01*
X11289852Y-22252511D02*
X11289852Y-22214416D01*
X11289852Y-22214416D02*
X11280328Y-22166797D01*
X11280328Y-22166797D02*
X11270804Y-22138225D01*
X11270804Y-22138225D02*
X11261280Y-22119178D01*
X11261280Y-22119178D02*
X11242233Y-22090606D01*
X11242233Y-22090606D02*
X11232709Y-22081082D01*
D14*
X6117170Y-22407170D02*
X6267170Y-22557170D01*
X6267170Y-22407170D02*
X6117170Y-22557170D01*
X6267170Y-22482170D02*
G75*
G02*
X6117170Y-22482170I-75000J0D01*
G01*
X6117170Y-22482170D02*
G75*
G02*
X6267170Y-22482170I75000J0D01*
G01*
D12*
X6632709Y-22573654D02*
X6518423Y-22573654D01*
X6575566Y-22573654D02*
X6575566Y-22373654D01*
X6575566Y-22373654D02*
X6556518Y-22402225D01*
X6556518Y-22402225D02*
X6537470Y-22421273D01*
X6537470Y-22421273D02*
X6518423Y-22430797D01*
X6718423Y-22554606D02*
X6727947Y-22564130D01*
X6727947Y-22564130D02*
X6718423Y-22573654D01*
X6718423Y-22573654D02*
X6708899Y-22564130D01*
X6708899Y-22564130D02*
X6718423Y-22554606D01*
X6718423Y-22554606D02*
X6718423Y-22573654D01*
X6908899Y-22373654D02*
X6813661Y-22373654D01*
X6813661Y-22373654D02*
X6804137Y-22468892D01*
X6804137Y-22468892D02*
X6813661Y-22459368D01*
X6813661Y-22459368D02*
X6832709Y-22449844D01*
X6832709Y-22449844D02*
X6880328Y-22449844D01*
X6880328Y-22449844D02*
X6899375Y-22459368D01*
X6899375Y-22459368D02*
X6908899Y-22468892D01*
X6908899Y-22468892D02*
X6918423Y-22487940D01*
X6918423Y-22487940D02*
X6918423Y-22535559D01*
X6918423Y-22535559D02*
X6908899Y-22554606D01*
X6908899Y-22554606D02*
X6899375Y-22564130D01*
X6899375Y-22564130D02*
X6880328Y-22573654D01*
X6880328Y-22573654D02*
X6832709Y-22573654D01*
X6832709Y-22573654D02*
X6813661Y-22564130D01*
X6813661Y-22564130D02*
X6804137Y-22554606D01*
X7042232Y-22373654D02*
X7061280Y-22373654D01*
X7061280Y-22373654D02*
X7080328Y-22383178D01*
X7080328Y-22383178D02*
X7089851Y-22392701D01*
X7089851Y-22392701D02*
X7099375Y-22411749D01*
X7099375Y-22411749D02*
X7108899Y-22449844D01*
X7108899Y-22449844D02*
X7108899Y-22497463D01*
X7108899Y-22497463D02*
X7099375Y-22535559D01*
X7099375Y-22535559D02*
X7089851Y-22554606D01*
X7089851Y-22554606D02*
X7080328Y-22564130D01*
X7080328Y-22564130D02*
X7061280Y-22573654D01*
X7061280Y-22573654D02*
X7042232Y-22573654D01*
X7042232Y-22573654D02*
X7023185Y-22564130D01*
X7023185Y-22564130D02*
X7013661Y-22554606D01*
X7013661Y-22554606D02*
X7004137Y-22535559D01*
X7004137Y-22535559D02*
X6994613Y-22497463D01*
X6994613Y-22497463D02*
X6994613Y-22449844D01*
X6994613Y-22449844D02*
X7004137Y-22411749D01*
X7004137Y-22411749D02*
X7013661Y-22392701D01*
X7013661Y-22392701D02*
X7023185Y-22383178D01*
X7023185Y-22383178D02*
X7042232Y-22373654D01*
X7232709Y-22373654D02*
X7251756Y-22373654D01*
X7251756Y-22373654D02*
X7270804Y-22383178D01*
X7270804Y-22383178D02*
X7280328Y-22392701D01*
X7280328Y-22392701D02*
X7289851Y-22411749D01*
X7289851Y-22411749D02*
X7299375Y-22449844D01*
X7299375Y-22449844D02*
X7299375Y-22497463D01*
X7299375Y-22497463D02*
X7289851Y-22535559D01*
X7289851Y-22535559D02*
X7280328Y-22554606D01*
X7280328Y-22554606D02*
X7270804Y-22564130D01*
X7270804Y-22564130D02*
X7251756Y-22573654D01*
X7251756Y-22573654D02*
X7232709Y-22573654D01*
X7232709Y-22573654D02*
X7213661Y-22564130D01*
X7213661Y-22564130D02*
X7204137Y-22554606D01*
X7204137Y-22554606D02*
X7194613Y-22535559D01*
X7194613Y-22535559D02*
X7185090Y-22497463D01*
X7185090Y-22497463D02*
X7185090Y-22449844D01*
X7185090Y-22449844D02*
X7194613Y-22411749D01*
X7194613Y-22411749D02*
X7204137Y-22392701D01*
X7204137Y-22392701D02*
X7213661Y-22383178D01*
X7213661Y-22383178D02*
X7232709Y-22373654D01*
X7385090Y-22573654D02*
X7385090Y-22440320D01*
X7385090Y-22459368D02*
X7394613Y-22449844D01*
X7394613Y-22449844D02*
X7413661Y-22440320D01*
X7413661Y-22440320D02*
X7442232Y-22440320D01*
X7442232Y-22440320D02*
X7461280Y-22449844D01*
X7461280Y-22449844D02*
X7470804Y-22468892D01*
X7470804Y-22468892D02*
X7470804Y-22573654D01*
X7470804Y-22468892D02*
X7480328Y-22449844D01*
X7480328Y-22449844D02*
X7499375Y-22440320D01*
X7499375Y-22440320D02*
X7527947Y-22440320D01*
X7527947Y-22440320D02*
X7546994Y-22449844D01*
X7546994Y-22449844D02*
X7556518Y-22468892D01*
X7556518Y-22468892D02*
X7556518Y-22573654D01*
X7651756Y-22573654D02*
X7651756Y-22440320D01*
X7651756Y-22459368D02*
X7661280Y-22449844D01*
X7661280Y-22449844D02*
X7680328Y-22440320D01*
X7680328Y-22440320D02*
X7708899Y-22440320D01*
X7708899Y-22440320D02*
X7727947Y-22449844D01*
X7727947Y-22449844D02*
X7737471Y-22468892D01*
X7737471Y-22468892D02*
X7737471Y-22573654D01*
X7737471Y-22468892D02*
X7746994Y-22449844D01*
X7746994Y-22449844D02*
X7766042Y-22440320D01*
X7766042Y-22440320D02*
X7794613Y-22440320D01*
X7794613Y-22440320D02*
X7813661Y-22449844D01*
X7813661Y-22449844D02*
X7823185Y-22468892D01*
X7823185Y-22468892D02*
X7823185Y-22573654D01*
X8213661Y-22364130D02*
X8042233Y-22621273D01*
X8470804Y-22373654D02*
X8489852Y-22373654D01*
X8489852Y-22373654D02*
X8508899Y-22383178D01*
X8508899Y-22383178D02*
X8518423Y-22392701D01*
X8518423Y-22392701D02*
X8527947Y-22411749D01*
X8527947Y-22411749D02*
X8537471Y-22449844D01*
X8537471Y-22449844D02*
X8537471Y-22497463D01*
X8537471Y-22497463D02*
X8527947Y-22535559D01*
X8527947Y-22535559D02*
X8518423Y-22554606D01*
X8518423Y-22554606D02*
X8508899Y-22564130D01*
X8508899Y-22564130D02*
X8489852Y-22573654D01*
X8489852Y-22573654D02*
X8470804Y-22573654D01*
X8470804Y-22573654D02*
X8451756Y-22564130D01*
X8451756Y-22564130D02*
X8442233Y-22554606D01*
X8442233Y-22554606D02*
X8432709Y-22535559D01*
X8432709Y-22535559D02*
X8423185Y-22497463D01*
X8423185Y-22497463D02*
X8423185Y-22449844D01*
X8423185Y-22449844D02*
X8432709Y-22411749D01*
X8432709Y-22411749D02*
X8442233Y-22392701D01*
X8442233Y-22392701D02*
X8451756Y-22383178D01*
X8451756Y-22383178D02*
X8470804Y-22373654D01*
X8623185Y-22554606D02*
X8632709Y-22564130D01*
X8632709Y-22564130D02*
X8623185Y-22573654D01*
X8623185Y-22573654D02*
X8613661Y-22564130D01*
X8613661Y-22564130D02*
X8623185Y-22554606D01*
X8623185Y-22554606D02*
X8623185Y-22573654D01*
X8756518Y-22373654D02*
X8775566Y-22373654D01*
X8775566Y-22373654D02*
X8794614Y-22383178D01*
X8794614Y-22383178D02*
X8804137Y-22392701D01*
X8804137Y-22392701D02*
X8813661Y-22411749D01*
X8813661Y-22411749D02*
X8823185Y-22449844D01*
X8823185Y-22449844D02*
X8823185Y-22497463D01*
X8823185Y-22497463D02*
X8813661Y-22535559D01*
X8813661Y-22535559D02*
X8804137Y-22554606D01*
X8804137Y-22554606D02*
X8794614Y-22564130D01*
X8794614Y-22564130D02*
X8775566Y-22573654D01*
X8775566Y-22573654D02*
X8756518Y-22573654D01*
X8756518Y-22573654D02*
X8737471Y-22564130D01*
X8737471Y-22564130D02*
X8727947Y-22554606D01*
X8727947Y-22554606D02*
X8718423Y-22535559D01*
X8718423Y-22535559D02*
X8708899Y-22497463D01*
X8708899Y-22497463D02*
X8708899Y-22449844D01*
X8708899Y-22449844D02*
X8718423Y-22411749D01*
X8718423Y-22411749D02*
X8727947Y-22392701D01*
X8727947Y-22392701D02*
X8737471Y-22383178D01*
X8737471Y-22383178D02*
X8756518Y-22373654D01*
X9004137Y-22373654D02*
X8908899Y-22373654D01*
X8908899Y-22373654D02*
X8899376Y-22468892D01*
X8899376Y-22468892D02*
X8908899Y-22459368D01*
X8908899Y-22459368D02*
X8927947Y-22449844D01*
X8927947Y-22449844D02*
X8975566Y-22449844D01*
X8975566Y-22449844D02*
X8994614Y-22459368D01*
X8994614Y-22459368D02*
X9004137Y-22468892D01*
X9004137Y-22468892D02*
X9013661Y-22487940D01*
X9013661Y-22487940D02*
X9013661Y-22535559D01*
X9013661Y-22535559D02*
X9004137Y-22554606D01*
X9004137Y-22554606D02*
X8994614Y-22564130D01*
X8994614Y-22564130D02*
X8975566Y-22573654D01*
X8975566Y-22573654D02*
X8927947Y-22573654D01*
X8927947Y-22573654D02*
X8908899Y-22564130D01*
X8908899Y-22564130D02*
X8899376Y-22554606D01*
X9108899Y-22573654D02*
X9146995Y-22573654D01*
X9146995Y-22573654D02*
X9166042Y-22564130D01*
X9166042Y-22564130D02*
X9175566Y-22554606D01*
X9175566Y-22554606D02*
X9194614Y-22526035D01*
X9194614Y-22526035D02*
X9204137Y-22487940D01*
X9204137Y-22487940D02*
X9204137Y-22411749D01*
X9204137Y-22411749D02*
X9194614Y-22392701D01*
X9194614Y-22392701D02*
X9185090Y-22383178D01*
X9185090Y-22383178D02*
X9166042Y-22373654D01*
X9166042Y-22373654D02*
X9127947Y-22373654D01*
X9127947Y-22373654D02*
X9108899Y-22383178D01*
X9108899Y-22383178D02*
X9099376Y-22392701D01*
X9099376Y-22392701D02*
X9089852Y-22411749D01*
X9089852Y-22411749D02*
X9089852Y-22459368D01*
X9089852Y-22459368D02*
X9099376Y-22478416D01*
X9099376Y-22478416D02*
X9108899Y-22487940D01*
X9108899Y-22487940D02*
X9127947Y-22497463D01*
X9127947Y-22497463D02*
X9166042Y-22497463D01*
X9166042Y-22497463D02*
X9185090Y-22487940D01*
X9185090Y-22487940D02*
X9194614Y-22478416D01*
X9194614Y-22478416D02*
X9204137Y-22459368D01*
X9394614Y-22573654D02*
X9280328Y-22573654D01*
X9337471Y-22573654D02*
X9337471Y-22373654D01*
X9337471Y-22373654D02*
X9318423Y-22402225D01*
X9318423Y-22402225D02*
X9299376Y-22421273D01*
X9299376Y-22421273D02*
X9280328Y-22430797D01*
X9470804Y-22373654D02*
X9470804Y-22411749D01*
X9546995Y-22373654D02*
X9546995Y-22411749D01*
X9842233Y-22649844D02*
X9832709Y-22640320D01*
X9832709Y-22640320D02*
X9813661Y-22611749D01*
X9813661Y-22611749D02*
X9804138Y-22592701D01*
X9804138Y-22592701D02*
X9794614Y-22564130D01*
X9794614Y-22564130D02*
X9785090Y-22516511D01*
X9785090Y-22516511D02*
X9785090Y-22478416D01*
X9785090Y-22478416D02*
X9794614Y-22430797D01*
X9794614Y-22430797D02*
X9804138Y-22402225D01*
X9804138Y-22402225D02*
X9813661Y-22383178D01*
X9813661Y-22383178D02*
X9832709Y-22354606D01*
X9832709Y-22354606D02*
X9842233Y-22345082D01*
X9899376Y-22373654D02*
X10023185Y-22373654D01*
X10023185Y-22373654D02*
X9956518Y-22449844D01*
X9956518Y-22449844D02*
X9985090Y-22449844D01*
X9985090Y-22449844D02*
X10004138Y-22459368D01*
X10004138Y-22459368D02*
X10013661Y-22468892D01*
X10013661Y-22468892D02*
X10023185Y-22487940D01*
X10023185Y-22487940D02*
X10023185Y-22535559D01*
X10023185Y-22535559D02*
X10013661Y-22554606D01*
X10013661Y-22554606D02*
X10004138Y-22564130D01*
X10004138Y-22564130D02*
X9985090Y-22573654D01*
X9985090Y-22573654D02*
X9927947Y-22573654D01*
X9927947Y-22573654D02*
X9908899Y-22564130D01*
X9908899Y-22564130D02*
X9899376Y-22554606D01*
X10261280Y-22573654D02*
X10261280Y-22373654D01*
X10346995Y-22573654D02*
X10346995Y-22468892D01*
X10346995Y-22468892D02*
X10337471Y-22449844D01*
X10337471Y-22449844D02*
X10318423Y-22440320D01*
X10318423Y-22440320D02*
X10289852Y-22440320D01*
X10289852Y-22440320D02*
X10270804Y-22449844D01*
X10270804Y-22449844D02*
X10261280Y-22459368D01*
X10470804Y-22573654D02*
X10451757Y-22564130D01*
X10451757Y-22564130D02*
X10442233Y-22554606D01*
X10442233Y-22554606D02*
X10432709Y-22535559D01*
X10432709Y-22535559D02*
X10432709Y-22478416D01*
X10432709Y-22478416D02*
X10442233Y-22459368D01*
X10442233Y-22459368D02*
X10451757Y-22449844D01*
X10451757Y-22449844D02*
X10470804Y-22440320D01*
X10470804Y-22440320D02*
X10499376Y-22440320D01*
X10499376Y-22440320D02*
X10518423Y-22449844D01*
X10518423Y-22449844D02*
X10527947Y-22459368D01*
X10527947Y-22459368D02*
X10537471Y-22478416D01*
X10537471Y-22478416D02*
X10537471Y-22535559D01*
X10537471Y-22535559D02*
X10527947Y-22554606D01*
X10527947Y-22554606D02*
X10518423Y-22564130D01*
X10518423Y-22564130D02*
X10499376Y-22573654D01*
X10499376Y-22573654D02*
X10470804Y-22573654D01*
X10651757Y-22573654D02*
X10632709Y-22564130D01*
X10632709Y-22564130D02*
X10623185Y-22545082D01*
X10623185Y-22545082D02*
X10623185Y-22373654D01*
X10804138Y-22564130D02*
X10785090Y-22573654D01*
X10785090Y-22573654D02*
X10746995Y-22573654D01*
X10746995Y-22573654D02*
X10727947Y-22564130D01*
X10727947Y-22564130D02*
X10718423Y-22545082D01*
X10718423Y-22545082D02*
X10718423Y-22468892D01*
X10718423Y-22468892D02*
X10727947Y-22449844D01*
X10727947Y-22449844D02*
X10746995Y-22440320D01*
X10746995Y-22440320D02*
X10785090Y-22440320D01*
X10785090Y-22440320D02*
X10804138Y-22449844D01*
X10804138Y-22449844D02*
X10813661Y-22468892D01*
X10813661Y-22468892D02*
X10813661Y-22487940D01*
X10813661Y-22487940D02*
X10718423Y-22506987D01*
X10889852Y-22564130D02*
X10908900Y-22573654D01*
X10908900Y-22573654D02*
X10946995Y-22573654D01*
X10946995Y-22573654D02*
X10966042Y-22564130D01*
X10966042Y-22564130D02*
X10975566Y-22545082D01*
X10975566Y-22545082D02*
X10975566Y-22535559D01*
X10975566Y-22535559D02*
X10966042Y-22516511D01*
X10966042Y-22516511D02*
X10946995Y-22506987D01*
X10946995Y-22506987D02*
X10918423Y-22506987D01*
X10918423Y-22506987D02*
X10899376Y-22497463D01*
X10899376Y-22497463D02*
X10889852Y-22478416D01*
X10889852Y-22478416D02*
X10889852Y-22468892D01*
X10889852Y-22468892D02*
X10899376Y-22449844D01*
X10899376Y-22449844D02*
X10918423Y-22440320D01*
X10918423Y-22440320D02*
X10946995Y-22440320D01*
X10946995Y-22440320D02*
X10966042Y-22449844D01*
X11042233Y-22649844D02*
X11051757Y-22640320D01*
X11051757Y-22640320D02*
X11070804Y-22611749D01*
X11070804Y-22611749D02*
X11080328Y-22592701D01*
X11080328Y-22592701D02*
X11089852Y-22564130D01*
X11089852Y-22564130D02*
X11099376Y-22516511D01*
X11099376Y-22516511D02*
X11099376Y-22478416D01*
X11099376Y-22478416D02*
X11089852Y-22430797D01*
X11089852Y-22430797D02*
X11080328Y-22402225D01*
X11080328Y-22402225D02*
X11070804Y-22383178D01*
X11070804Y-22383178D02*
X11051757Y-22354606D01*
X11051757Y-22354606D02*
X11042233Y-22345082D01*
X6067170Y-22652170D02*
X6267170Y-22852170D01*
X6267170Y-22652170D02*
X6067170Y-22852170D01*
X6167170Y-22652170D02*
X6167170Y-22852170D01*
X6067170Y-22752170D02*
X6267170Y-22752170D01*
X6508899Y-22643654D02*
X6632709Y-22643654D01*
X6632709Y-22643654D02*
X6566042Y-22719844D01*
X6566042Y-22719844D02*
X6594613Y-22719844D01*
X6594613Y-22719844D02*
X6613661Y-22729368D01*
X6613661Y-22729368D02*
X6623185Y-22738892D01*
X6623185Y-22738892D02*
X6632709Y-22757940D01*
X6632709Y-22757940D02*
X6632709Y-22805559D01*
X6632709Y-22805559D02*
X6623185Y-22824606D01*
X6623185Y-22824606D02*
X6613661Y-22834130D01*
X6613661Y-22834130D02*
X6594613Y-22843654D01*
X6594613Y-22843654D02*
X6537470Y-22843654D01*
X6537470Y-22843654D02*
X6518423Y-22834130D01*
X6518423Y-22834130D02*
X6508899Y-22824606D01*
X6718423Y-22824606D02*
X6727947Y-22834130D01*
X6727947Y-22834130D02*
X6718423Y-22843654D01*
X6718423Y-22843654D02*
X6708899Y-22834130D01*
X6708899Y-22834130D02*
X6718423Y-22824606D01*
X6718423Y-22824606D02*
X6718423Y-22843654D01*
X6804137Y-22662701D02*
X6813661Y-22653178D01*
X6813661Y-22653178D02*
X6832709Y-22643654D01*
X6832709Y-22643654D02*
X6880328Y-22643654D01*
X6880328Y-22643654D02*
X6899375Y-22653178D01*
X6899375Y-22653178D02*
X6908899Y-22662701D01*
X6908899Y-22662701D02*
X6918423Y-22681749D01*
X6918423Y-22681749D02*
X6918423Y-22700797D01*
X6918423Y-22700797D02*
X6908899Y-22729368D01*
X6908899Y-22729368D02*
X6794613Y-22843654D01*
X6794613Y-22843654D02*
X6918423Y-22843654D01*
X7042232Y-22643654D02*
X7061280Y-22643654D01*
X7061280Y-22643654D02*
X7080328Y-22653178D01*
X7080328Y-22653178D02*
X7089851Y-22662701D01*
X7089851Y-22662701D02*
X7099375Y-22681749D01*
X7099375Y-22681749D02*
X7108899Y-22719844D01*
X7108899Y-22719844D02*
X7108899Y-22767463D01*
X7108899Y-22767463D02*
X7099375Y-22805559D01*
X7099375Y-22805559D02*
X7089851Y-22824606D01*
X7089851Y-22824606D02*
X7080328Y-22834130D01*
X7080328Y-22834130D02*
X7061280Y-22843654D01*
X7061280Y-22843654D02*
X7042232Y-22843654D01*
X7042232Y-22843654D02*
X7023185Y-22834130D01*
X7023185Y-22834130D02*
X7013661Y-22824606D01*
X7013661Y-22824606D02*
X7004137Y-22805559D01*
X7004137Y-22805559D02*
X6994613Y-22767463D01*
X6994613Y-22767463D02*
X6994613Y-22719844D01*
X6994613Y-22719844D02*
X7004137Y-22681749D01*
X7004137Y-22681749D02*
X7013661Y-22662701D01*
X7013661Y-22662701D02*
X7023185Y-22653178D01*
X7023185Y-22653178D02*
X7042232Y-22643654D01*
X7232709Y-22643654D02*
X7251756Y-22643654D01*
X7251756Y-22643654D02*
X7270804Y-22653178D01*
X7270804Y-22653178D02*
X7280328Y-22662701D01*
X7280328Y-22662701D02*
X7289851Y-22681749D01*
X7289851Y-22681749D02*
X7299375Y-22719844D01*
X7299375Y-22719844D02*
X7299375Y-22767463D01*
X7299375Y-22767463D02*
X7289851Y-22805559D01*
X7289851Y-22805559D02*
X7280328Y-22824606D01*
X7280328Y-22824606D02*
X7270804Y-22834130D01*
X7270804Y-22834130D02*
X7251756Y-22843654D01*
X7251756Y-22843654D02*
X7232709Y-22843654D01*
X7232709Y-22843654D02*
X7213661Y-22834130D01*
X7213661Y-22834130D02*
X7204137Y-22824606D01*
X7204137Y-22824606D02*
X7194613Y-22805559D01*
X7194613Y-22805559D02*
X7185090Y-22767463D01*
X7185090Y-22767463D02*
X7185090Y-22719844D01*
X7185090Y-22719844D02*
X7194613Y-22681749D01*
X7194613Y-22681749D02*
X7204137Y-22662701D01*
X7204137Y-22662701D02*
X7213661Y-22653178D01*
X7213661Y-22653178D02*
X7232709Y-22643654D01*
X7385090Y-22843654D02*
X7385090Y-22710320D01*
X7385090Y-22729368D02*
X7394613Y-22719844D01*
X7394613Y-22719844D02*
X7413661Y-22710320D01*
X7413661Y-22710320D02*
X7442232Y-22710320D01*
X7442232Y-22710320D02*
X7461280Y-22719844D01*
X7461280Y-22719844D02*
X7470804Y-22738892D01*
X7470804Y-22738892D02*
X7470804Y-22843654D01*
X7470804Y-22738892D02*
X7480328Y-22719844D01*
X7480328Y-22719844D02*
X7499375Y-22710320D01*
X7499375Y-22710320D02*
X7527947Y-22710320D01*
X7527947Y-22710320D02*
X7546994Y-22719844D01*
X7546994Y-22719844D02*
X7556518Y-22738892D01*
X7556518Y-22738892D02*
X7556518Y-22843654D01*
X7651756Y-22843654D02*
X7651756Y-22710320D01*
X7651756Y-22729368D02*
X7661280Y-22719844D01*
X7661280Y-22719844D02*
X7680328Y-22710320D01*
X7680328Y-22710320D02*
X7708899Y-22710320D01*
X7708899Y-22710320D02*
X7727947Y-22719844D01*
X7727947Y-22719844D02*
X7737471Y-22738892D01*
X7737471Y-22738892D02*
X7737471Y-22843654D01*
X7737471Y-22738892D02*
X7746994Y-22719844D01*
X7746994Y-22719844D02*
X7766042Y-22710320D01*
X7766042Y-22710320D02*
X7794613Y-22710320D01*
X7794613Y-22710320D02*
X7813661Y-22719844D01*
X7813661Y-22719844D02*
X7823185Y-22738892D01*
X7823185Y-22738892D02*
X7823185Y-22843654D01*
X8213661Y-22634130D02*
X8042233Y-22891273D01*
X8470804Y-22643654D02*
X8489852Y-22643654D01*
X8489852Y-22643654D02*
X8508899Y-22653178D01*
X8508899Y-22653178D02*
X8518423Y-22662701D01*
X8518423Y-22662701D02*
X8527947Y-22681749D01*
X8527947Y-22681749D02*
X8537471Y-22719844D01*
X8537471Y-22719844D02*
X8537471Y-22767463D01*
X8537471Y-22767463D02*
X8527947Y-22805559D01*
X8527947Y-22805559D02*
X8518423Y-22824606D01*
X8518423Y-22824606D02*
X8508899Y-22834130D01*
X8508899Y-22834130D02*
X8489852Y-22843654D01*
X8489852Y-22843654D02*
X8470804Y-22843654D01*
X8470804Y-22843654D02*
X8451756Y-22834130D01*
X8451756Y-22834130D02*
X8442233Y-22824606D01*
X8442233Y-22824606D02*
X8432709Y-22805559D01*
X8432709Y-22805559D02*
X8423185Y-22767463D01*
X8423185Y-22767463D02*
X8423185Y-22719844D01*
X8423185Y-22719844D02*
X8432709Y-22681749D01*
X8432709Y-22681749D02*
X8442233Y-22662701D01*
X8442233Y-22662701D02*
X8451756Y-22653178D01*
X8451756Y-22653178D02*
X8470804Y-22643654D01*
X8623185Y-22824606D02*
X8632709Y-22834130D01*
X8632709Y-22834130D02*
X8623185Y-22843654D01*
X8623185Y-22843654D02*
X8613661Y-22834130D01*
X8613661Y-22834130D02*
X8623185Y-22824606D01*
X8623185Y-22824606D02*
X8623185Y-22843654D01*
X8823185Y-22843654D02*
X8708899Y-22843654D01*
X8766042Y-22843654D02*
X8766042Y-22643654D01*
X8766042Y-22643654D02*
X8746995Y-22672225D01*
X8746995Y-22672225D02*
X8727947Y-22691273D01*
X8727947Y-22691273D02*
X8708899Y-22700797D01*
X8899376Y-22662701D02*
X8908899Y-22653178D01*
X8908899Y-22653178D02*
X8927947Y-22643654D01*
X8927947Y-22643654D02*
X8975566Y-22643654D01*
X8975566Y-22643654D02*
X8994614Y-22653178D01*
X8994614Y-22653178D02*
X9004137Y-22662701D01*
X9004137Y-22662701D02*
X9013661Y-22681749D01*
X9013661Y-22681749D02*
X9013661Y-22700797D01*
X9013661Y-22700797D02*
X9004137Y-22729368D01*
X9004137Y-22729368D02*
X8889852Y-22843654D01*
X8889852Y-22843654D02*
X9013661Y-22843654D01*
X9185090Y-22643654D02*
X9146995Y-22643654D01*
X9146995Y-22643654D02*
X9127947Y-22653178D01*
X9127947Y-22653178D02*
X9118423Y-22662701D01*
X9118423Y-22662701D02*
X9099376Y-22691273D01*
X9099376Y-22691273D02*
X9089852Y-22729368D01*
X9089852Y-22729368D02*
X9089852Y-22805559D01*
X9089852Y-22805559D02*
X9099376Y-22824606D01*
X9099376Y-22824606D02*
X9108899Y-22834130D01*
X9108899Y-22834130D02*
X9127947Y-22843654D01*
X9127947Y-22843654D02*
X9166042Y-22843654D01*
X9166042Y-22843654D02*
X9185090Y-22834130D01*
X9185090Y-22834130D02*
X9194614Y-22824606D01*
X9194614Y-22824606D02*
X9204137Y-22805559D01*
X9204137Y-22805559D02*
X9204137Y-22757940D01*
X9204137Y-22757940D02*
X9194614Y-22738892D01*
X9194614Y-22738892D02*
X9185090Y-22729368D01*
X9185090Y-22729368D02*
X9166042Y-22719844D01*
X9166042Y-22719844D02*
X9127947Y-22719844D01*
X9127947Y-22719844D02*
X9108899Y-22729368D01*
X9108899Y-22729368D02*
X9099376Y-22738892D01*
X9099376Y-22738892D02*
X9089852Y-22757940D01*
X9327947Y-22643654D02*
X9346995Y-22643654D01*
X9346995Y-22643654D02*
X9366042Y-22653178D01*
X9366042Y-22653178D02*
X9375566Y-22662701D01*
X9375566Y-22662701D02*
X9385090Y-22681749D01*
X9385090Y-22681749D02*
X9394614Y-22719844D01*
X9394614Y-22719844D02*
X9394614Y-22767463D01*
X9394614Y-22767463D02*
X9385090Y-22805559D01*
X9385090Y-22805559D02*
X9375566Y-22824606D01*
X9375566Y-22824606D02*
X9366042Y-22834130D01*
X9366042Y-22834130D02*
X9346995Y-22843654D01*
X9346995Y-22843654D02*
X9327947Y-22843654D01*
X9327947Y-22843654D02*
X9308899Y-22834130D01*
X9308899Y-22834130D02*
X9299376Y-22824606D01*
X9299376Y-22824606D02*
X9289852Y-22805559D01*
X9289852Y-22805559D02*
X9280328Y-22767463D01*
X9280328Y-22767463D02*
X9280328Y-22719844D01*
X9280328Y-22719844D02*
X9289852Y-22681749D01*
X9289852Y-22681749D02*
X9299376Y-22662701D01*
X9299376Y-22662701D02*
X9308899Y-22653178D01*
X9308899Y-22653178D02*
X9327947Y-22643654D01*
X9470804Y-22643654D02*
X9470804Y-22681749D01*
X9546995Y-22643654D02*
X9546995Y-22681749D01*
X9842233Y-22919844D02*
X9832709Y-22910320D01*
X9832709Y-22910320D02*
X9813661Y-22881749D01*
X9813661Y-22881749D02*
X9804138Y-22862701D01*
X9804138Y-22862701D02*
X9794614Y-22834130D01*
X9794614Y-22834130D02*
X9785090Y-22786511D01*
X9785090Y-22786511D02*
X9785090Y-22748416D01*
X9785090Y-22748416D02*
X9794614Y-22700797D01*
X9794614Y-22700797D02*
X9804138Y-22672225D01*
X9804138Y-22672225D02*
X9813661Y-22653178D01*
X9813661Y-22653178D02*
X9832709Y-22624606D01*
X9832709Y-22624606D02*
X9842233Y-22615082D01*
X10023185Y-22843654D02*
X9908899Y-22843654D01*
X9966042Y-22843654D02*
X9966042Y-22643654D01*
X9966042Y-22643654D02*
X9946995Y-22672225D01*
X9946995Y-22672225D02*
X9927947Y-22691273D01*
X9927947Y-22691273D02*
X9908899Y-22700797D01*
X10099376Y-22662701D02*
X10108899Y-22653178D01*
X10108899Y-22653178D02*
X10127947Y-22643654D01*
X10127947Y-22643654D02*
X10175566Y-22643654D01*
X10175566Y-22643654D02*
X10194614Y-22653178D01*
X10194614Y-22653178D02*
X10204138Y-22662701D01*
X10204138Y-22662701D02*
X10213661Y-22681749D01*
X10213661Y-22681749D02*
X10213661Y-22700797D01*
X10213661Y-22700797D02*
X10204138Y-22729368D01*
X10204138Y-22729368D02*
X10089852Y-22843654D01*
X10089852Y-22843654D02*
X10213661Y-22843654D01*
X10451757Y-22843654D02*
X10451757Y-22643654D01*
X10537471Y-22843654D02*
X10537471Y-22738892D01*
X10537471Y-22738892D02*
X10527947Y-22719844D01*
X10527947Y-22719844D02*
X10508900Y-22710320D01*
X10508900Y-22710320D02*
X10480328Y-22710320D01*
X10480328Y-22710320D02*
X10461280Y-22719844D01*
X10461280Y-22719844D02*
X10451757Y-22729368D01*
X10661280Y-22843654D02*
X10642233Y-22834130D01*
X10642233Y-22834130D02*
X10632709Y-22824606D01*
X10632709Y-22824606D02*
X10623185Y-22805559D01*
X10623185Y-22805559D02*
X10623185Y-22748416D01*
X10623185Y-22748416D02*
X10632709Y-22729368D01*
X10632709Y-22729368D02*
X10642233Y-22719844D01*
X10642233Y-22719844D02*
X10661280Y-22710320D01*
X10661280Y-22710320D02*
X10689852Y-22710320D01*
X10689852Y-22710320D02*
X10708900Y-22719844D01*
X10708900Y-22719844D02*
X10718423Y-22729368D01*
X10718423Y-22729368D02*
X10727947Y-22748416D01*
X10727947Y-22748416D02*
X10727947Y-22805559D01*
X10727947Y-22805559D02*
X10718423Y-22824606D01*
X10718423Y-22824606D02*
X10708900Y-22834130D01*
X10708900Y-22834130D02*
X10689852Y-22843654D01*
X10689852Y-22843654D02*
X10661280Y-22843654D01*
X10842233Y-22843654D02*
X10823185Y-22834130D01*
X10823185Y-22834130D02*
X10813661Y-22815082D01*
X10813661Y-22815082D02*
X10813661Y-22643654D01*
X10994614Y-22834130D02*
X10975566Y-22843654D01*
X10975566Y-22843654D02*
X10937471Y-22843654D01*
X10937471Y-22843654D02*
X10918423Y-22834130D01*
X10918423Y-22834130D02*
X10908900Y-22815082D01*
X10908900Y-22815082D02*
X10908900Y-22738892D01*
X10908900Y-22738892D02*
X10918423Y-22719844D01*
X10918423Y-22719844D02*
X10937471Y-22710320D01*
X10937471Y-22710320D02*
X10975566Y-22710320D01*
X10975566Y-22710320D02*
X10994614Y-22719844D01*
X10994614Y-22719844D02*
X11004138Y-22738892D01*
X11004138Y-22738892D02*
X11004138Y-22757940D01*
X11004138Y-22757940D02*
X10908900Y-22776987D01*
X11080328Y-22834130D02*
X11099376Y-22843654D01*
X11099376Y-22843654D02*
X11137471Y-22843654D01*
X11137471Y-22843654D02*
X11156519Y-22834130D01*
X11156519Y-22834130D02*
X11166042Y-22815082D01*
X11166042Y-22815082D02*
X11166042Y-22805559D01*
X11166042Y-22805559D02*
X11156519Y-22786511D01*
X11156519Y-22786511D02*
X11137471Y-22776987D01*
X11137471Y-22776987D02*
X11108900Y-22776987D01*
X11108900Y-22776987D02*
X11089852Y-22767463D01*
X11089852Y-22767463D02*
X11080328Y-22748416D01*
X11080328Y-22748416D02*
X11080328Y-22738892D01*
X11080328Y-22738892D02*
X11089852Y-22719844D01*
X11089852Y-22719844D02*
X11108900Y-22710320D01*
X11108900Y-22710320D02*
X11137471Y-22710320D01*
X11137471Y-22710320D02*
X11156519Y-22719844D01*
X11232709Y-22919844D02*
X11242233Y-22910320D01*
X11242233Y-22910320D02*
X11261280Y-22881749D01*
X11261280Y-22881749D02*
X11270804Y-22862701D01*
X11270804Y-22862701D02*
X11280328Y-22834130D01*
X11280328Y-22834130D02*
X11289852Y-22786511D01*
X11289852Y-22786511D02*
X11289852Y-22748416D01*
X11289852Y-22748416D02*
X11280328Y-22700797D01*
X11280328Y-22700797D02*
X11270804Y-22672225D01*
X11270804Y-22672225D02*
X11261280Y-22653178D01*
X11261280Y-22653178D02*
X11242233Y-22624606D01*
X11242233Y-22624606D02*
X11232709Y-22615082D01*
M02*
