M48
; DRILL file {KiCad 9.0.0} date 2025-05-11T16:12:43-0700
; FORMAT={-:-/ absolute / metric / decimal}
; #@! TF.CreationDate,2025-05-11T16:12:43-07:00
; #@! TF.GenerationSoftware,Kicad,Pcbnew,9.0.0
; #@! TF.FileFunction,Plated,1,2,PTH
FMAT,2
METRIC
; #@! TA.AperFunction,Plated,PTH,ViaDrill
T1C0.300
; #@! TA.AperFunction,Plated,PTH,ComponentDrill
T2C0.500
; #@! TA.AperFunction,Plated,PTH,ComponentDrill
T3C0.600
; #@! TA.AperFunction,Plated,PTH,ComponentDrill
T4C0.800
; #@! TA.AperFunction,Plated,PTH,ComponentDrill
T5C1.000
; #@! TA.AperFunction,Plated,PTH,ComponentDrill
T6C1.500
; #@! TA.AperFunction,Plated,PTH,ComponentDrill
T7C3.200
%
G90
G05
T1
X77.597Y-175.256
X78.197Y-100.706
X103.897Y-127.606
X116.747Y-188.156
X135.997Y-127.606
X147.697Y-80.156
X153.697Y-76.656
X156.697Y-90.656
X159.947Y-109.156
X162.997Y-144.606
X163.147Y-81.156
X166.947Y-90.656
X171.947Y-97.156
X172.197Y-171.656
X172.581Y-103.271
X173.697Y-162.156
X174.581Y-103.271
X176.581Y-103.271
X177.447Y-153.656
X177.447Y-154.468
X177.447Y-155.281
X177.447Y-156.093
X177.447Y-156.906
X181.847Y-196.506
X181.947Y-153.656
X181.947Y-154.468
X181.947Y-155.281
X181.947Y-156.093
X181.947Y-156.906
X182.447Y-162.156
X187.197Y-171.656
X191.083Y-113.273
X191.083Y-114.273
X191.083Y-115.273
X194.947Y-189.656
X198.947Y-159.906
X198.947Y-185.656
X205.447Y-149.656
X210.197Y-117.697
X211.447Y-195.906
X217.197Y-144.156
X220.697Y-78.697
X223.197Y-130.656
X226.947Y-153.656
X226.947Y-154.468
X226.947Y-155.281
X226.947Y-156.093
X226.947Y-156.906
X227.097Y-129.506
X232.447Y-160.906
X233.647Y-82.106
X233.697Y-99.697
X237.197Y-153.656
X237.197Y-154.468
X237.197Y-155.281
X237.197Y-156.093
X237.197Y-156.906
X239.197Y-85.697
X239.197Y-86.697
X239.197Y-87.697
X239.197Y-88.697
X240.447Y-82.406
X243.697Y-79.656
X244.197Y-126.406
X244.197Y-136.406
X247.947Y-133.906
X248.447Y-124.156
X250.697Y-116.697
X253.097Y-112.406
X259.447Y-143.406
X279.797Y-189.656
X287.697Y-112.406
X291.847Y-144.656
X296.447Y-82.406
X300.197Y-79.656
X301.447Y-147.156
X302.697Y-121.406
X302.697Y-135.656
X305.197Y-128.656
X307.197Y-127.156
X315.947Y-101.656
X317.497Y-175.606
T2
X102.627Y-121.397
X103.897Y-121.397
X105.167Y-121.397
X134.627Y-121.397
X135.897Y-121.397
X137.167Y-121.397
X161.627Y-138.597
X162.897Y-138.597
X164.167Y-138.597
X172.889Y-197.203
X173.477Y-196.078
X174.065Y-194.952
X205.227Y-143.097
X206.497Y-143.097
X207.767Y-143.097
X221.328Y-194.952
X221.916Y-196.078
X222.505Y-197.203
X226.227Y-123.597
X227.497Y-123.597
X228.767Y-123.597
X231.227Y-154.597
X232.497Y-154.597
X233.767Y-154.597
X253.227Y-106.397
X254.497Y-106.397
X255.767Y-106.397
X258.227Y-137.397
X259.497Y-137.397
X260.767Y-137.397
X286.227Y-106.397
X287.497Y-106.397
X288.767Y-106.397
X290.227Y-137.397
X291.497Y-137.397
X292.767Y-137.397
X316.028Y-126.811
X316.303Y-128.051
X316.578Y-129.291
T3
X203.047Y-97.656
X203.047Y-99.256
X203.047Y-100.856
X203.047Y-102.456
X203.047Y-104.056
X203.047Y-105.656
X203.047Y-107.256
X203.047Y-108.856
T4
X101.047Y-69.947
X101.047Y-74.447
X108.347Y-69.947
X108.347Y-74.447
X116.047Y-69.947
X116.047Y-74.447
X123.347Y-69.947
X123.347Y-74.447
X131.047Y-69.947
X131.047Y-74.447
X138.347Y-69.947
X138.347Y-74.447
X252.047Y-69.947
X252.047Y-74.447
X259.347Y-69.947
X259.347Y-74.447
X267.047Y-69.947
X267.047Y-74.447
X274.347Y-69.947
X274.347Y-74.447
X282.047Y-69.947
X282.047Y-74.447
X289.347Y-69.947
X289.347Y-74.447
T5
X188.697Y-90.496
X188.697Y-93.036
X188.697Y-95.576
X188.697Y-98.116
X188.697Y-100.656
X188.697Y-103.196
X188.697Y-105.736
X188.697Y-108.276
X188.697Y-110.816
X206.697Y-90.496
X206.697Y-93.036
X206.697Y-95.576
X206.697Y-98.116
X206.697Y-100.656
X206.697Y-103.196
X206.697Y-105.736
X206.697Y-108.276
X206.697Y-110.816
T6
X299.197Y-72.197
X303.697Y-72.197
X308.197Y-72.197
T7
X67.697Y-80.197
X67.697Y-145.197
X67.697Y-192.197
X137.697Y-200.197
X177.522Y-72.197
X184.697Y-132.197
X197.697Y-200.197
X218.197Y-72.197
X257.697Y-200.197
X327.697Y-80.197
X327.697Y-145.197
X327.697Y-192.197
M30
