G04 #@! TF.GenerationSoftware,KiCad,Pcbnew,9.0.0*
G04 #@! TF.CreationDate,2025-05-11T16:12:36-07:00*
G04 #@! TF.ProjectId,HE_Leverless_Mainboard,48455f4c-6576-4657-926c-6573735f4d61,rev?*
G04 #@! TF.SameCoordinates,Original*
G04 #@! TF.FileFunction,Paste,Top*
G04 #@! TF.FilePolarity,Positive*
%FSLAX46Y46*%
G04 Gerber Fmt 4.6, Leading zero omitted, Abs format (unit mm)*
G04 Created by KiCad (PCBNEW 9.0.0) date 2025-05-11 16:12:36*
%MOMM*%
%LPD*%
G01*
G04 APERTURE LIST*
G04 Aperture macros list*
%AMRoundRect*
0 Rectangle with rounded corners*
0 $1 Rounding radius*
0 $2 $3 $4 $5 $6 $7 $8 $9 X,Y pos of 4 corners*
0 Add a 4 corners polygon primitive as box body*
4,1,4,$2,$3,$4,$5,$6,$7,$8,$9,$2,$3,0*
0 Add four circle primitives for the rounded corners*
1,1,$1+$1,$2,$3*
1,1,$1+$1,$4,$5*
1,1,$1+$1,$6,$7*
1,1,$1+$1,$8,$9*
0 Add four rect primitives between the rounded corners*
20,1,$1+$1,$2,$3,$4,$5,0*
20,1,$1+$1,$4,$5,$6,$7,0*
20,1,$1+$1,$6,$7,$8,$9,0*
20,1,$1+$1,$8,$9,$2,$3,0*%
G04 Aperture macros list end*
%ADD10RoundRect,0.250000X-0.475000X0.250000X-0.475000X-0.250000X0.475000X-0.250000X0.475000X0.250000X0*%
%ADD11RoundRect,0.090000X0.360000X-0.660000X0.360000X0.660000X-0.360000X0.660000X-0.360000X-0.660000X0*%
%ADD12RoundRect,0.250000X-0.250000X-0.475000X0.250000X-0.475000X0.250000X0.475000X-0.250000X0.475000X0*%
%ADD13RoundRect,0.250000X0.475000X-0.250000X0.475000X0.250000X-0.475000X0.250000X-0.475000X-0.250000X0*%
%ADD14RoundRect,0.250000X0.250000X0.475000X-0.250000X0.475000X-0.250000X-0.475000X0.250000X-0.475000X0*%
%ADD15RoundRect,0.090000X-0.360000X0.660000X-0.360000X-0.660000X0.360000X-0.660000X0.360000X0.660000X0*%
%ADD16RoundRect,0.090000X-0.660000X-0.360000X0.660000X-0.360000X0.660000X0.360000X-0.660000X0.360000X0*%
%ADD17RoundRect,0.090000X0.660000X0.360000X-0.660000X0.360000X-0.660000X-0.360000X0.660000X-0.360000X0*%
G04 APERTURE END LIST*
D10*
X212946699Y-194005699D03*
X212946699Y-195905699D03*
D11*
X161046699Y-75105699D03*
X164346699Y-75105699D03*
X164346699Y-70205699D03*
X161046699Y-70205699D03*
D12*
X203546698Y-148096699D03*
X205446698Y-148096699D03*
D13*
X180196699Y-198405699D03*
X180196699Y-196505699D03*
D12*
X225196699Y-127905699D03*
X227096699Y-127905699D03*
D13*
X76696699Y-102605699D03*
X76696699Y-100705699D03*
D14*
X281696699Y-191155699D03*
X279796699Y-191155699D03*
D12*
X251196699Y-110905699D03*
X253096699Y-110905699D03*
D10*
X319196699Y-173705699D03*
X319196699Y-175605699D03*
D12*
X231746699Y-80655699D03*
X233646699Y-80655699D03*
X289946699Y-143155699D03*
X291846699Y-143155699D03*
D11*
X231046699Y-75105699D03*
X234346699Y-75105699D03*
X234346699Y-70205699D03*
X231046699Y-70205699D03*
D15*
X281596698Y-195146699D03*
X278296698Y-195146699D03*
X278296698Y-200046699D03*
X281596698Y-200046699D03*
D12*
X134096698Y-126096699D03*
X135996698Y-126096699D03*
D10*
X317696699Y-99755699D03*
X317696699Y-101655699D03*
D14*
X118646699Y-189655699D03*
X116746699Y-189655699D03*
D15*
X118696698Y-194296699D03*
X115396698Y-194296699D03*
X115396698Y-199196699D03*
X118696698Y-199196699D03*
D16*
X323246699Y-99005699D03*
X323246699Y-102305699D03*
X328146699Y-102305699D03*
X328146699Y-99005699D03*
D17*
X72146699Y-102305699D03*
X72146699Y-99005699D03*
X67246699Y-99005699D03*
X67246699Y-102305699D03*
D12*
X257546699Y-141905699D03*
X259446699Y-141905699D03*
X101996698Y-126096699D03*
X103896698Y-126096699D03*
X161246699Y-79655699D03*
X163146699Y-79655699D03*
X285796699Y-110905699D03*
X287696699Y-110905699D03*
D13*
X76196699Y-177155699D03*
X76196699Y-175255699D03*
D16*
X323246699Y-174005699D03*
X323246699Y-177305699D03*
X328146699Y-177305699D03*
X328146699Y-174005699D03*
D17*
X72146699Y-177305699D03*
X72146699Y-174005699D03*
X67246699Y-174005699D03*
X67246699Y-177305699D03*
D12*
X161096698Y-143096699D03*
X162996698Y-143096699D03*
X230546699Y-159405699D03*
X232446699Y-159405699D03*
D10*
X308946699Y-125255699D03*
X308946699Y-127155699D03*
M02*
