G04 #@! TF.GenerationSoftware,KiCad,Pcbnew,9.0.0*
G04 #@! TF.CreationDate,2025-05-11T16:12:36-07:00*
G04 #@! TF.ProjectId,HE_Leverless_Mainboard,48455f4c-6576-4657-926c-6573735f4d61,rev?*
G04 #@! TF.SameCoordinates,Original*
G04 #@! TF.FileFunction,Legend,Top*
G04 #@! TF.FilePolarity,Positive*
%FSLAX46Y46*%
G04 Gerber Fmt 4.6, Leading zero omitted, Abs format (unit mm)*
G04 Created by KiCad (PCBNEW 9.0.0) date 2025-05-11 16:12:36*
%MOMM*%
%LPD*%
G01*
G04 APERTURE LIST*
G04 Aperture macros list*
%AMRoundRect*
0 Rectangle with rounded corners*
0 $1 Rounding radius*
0 $2 $3 $4 $5 $6 $7 $8 $9 X,Y pos of 4 corners*
0 Add a 4 corners polygon primitive as box body*
4,1,4,$2,$3,$4,$5,$6,$7,$8,$9,$2,$3,0*
0 Add four circle primitives for the rounded corners*
1,1,$1+$1,$2,$3*
1,1,$1+$1,$4,$5*
1,1,$1+$1,$6,$7*
1,1,$1+$1,$8,$9*
0 Add four rect primitives between the rounded corners*
20,1,$1+$1,$2,$3,$4,$5,0*
20,1,$1+$1,$4,$5,$6,$7,0*
20,1,$1+$1,$6,$7,$8,$9,0*
20,1,$1+$1,$8,$9,$2,$3,0*%
G04 Aperture macros list end*
%ADD10C,1.000000*%
%ADD11C,0.150000*%
%ADD12C,0.100000*%
%ADD13C,0.120000*%
%ADD14RoundRect,0.250000X-0.475000X0.250000X-0.475000X-0.250000X0.475000X-0.250000X0.475000X0.250000X0*%
%ADD15C,2.500000*%
%ADD16C,1.905000*%
%ADD17RoundRect,0.090000X0.360000X-0.660000X0.360000X0.660000X-0.360000X0.660000X-0.360000X-0.660000X0*%
%ADD18RoundRect,0.250000X-0.250000X-0.475000X0.250000X-0.475000X0.250000X0.475000X-0.250000X0.475000X0*%
%ADD19RoundRect,0.250000X0.475000X-0.250000X0.475000X0.250000X-0.475000X0.250000X-0.475000X-0.250000X0*%
%ADD20C,0.900000*%
%ADD21C,2.700000*%
%ADD22C,1.000000*%
%ADD23C,6.400000*%
%ADD24RoundRect,0.250000X0.250000X0.475000X-0.250000X0.475000X-0.250000X-0.475000X0.250000X-0.475000X0*%
%ADD25C,2.000000*%
%ADD26C,1.200000*%
%ADD27RoundRect,0.090000X-0.360000X0.660000X-0.360000X-0.660000X0.360000X-0.660000X0.360000X0.660000X0*%
%ADD28RoundRect,0.090000X-0.660000X-0.360000X0.660000X-0.360000X0.660000X0.360000X-0.660000X0.360000X0*%
%ADD29RoundRect,0.090000X0.660000X0.360000X-0.660000X0.360000X-0.660000X-0.360000X0.660000X-0.360000X0*%
G04 APERTURE END LIST*
D10*
X94676021Y-169782796D02*
X97533164Y-169782796D01*
X95479593Y-174782796D02*
X96104593Y-169782796D01*
X99289117Y-174782796D02*
X98842688Y-174544701D01*
X98842688Y-174544701D02*
X98634355Y-174306605D01*
X98634355Y-174306605D02*
X98455783Y-173830415D01*
X98455783Y-173830415D02*
X98634355Y-172401843D01*
X98634355Y-172401843D02*
X98931974Y-171925653D01*
X98931974Y-171925653D02*
X99199831Y-171687558D01*
X99199831Y-171687558D02*
X99705783Y-171449462D01*
X99705783Y-171449462D02*
X100420069Y-171449462D01*
X100420069Y-171449462D02*
X100866497Y-171687558D01*
X100866497Y-171687558D02*
X101074831Y-171925653D01*
X101074831Y-171925653D02*
X101253402Y-172401843D01*
X101253402Y-172401843D02*
X101074831Y-173830415D01*
X101074831Y-173830415D02*
X100777212Y-174306605D01*
X100777212Y-174306605D02*
X100509355Y-174544701D01*
X100509355Y-174544701D02*
X100003402Y-174782796D01*
X100003402Y-174782796D02*
X99289117Y-174782796D01*
X103098641Y-174782796D02*
X103515307Y-171449462D01*
X103455784Y-171925653D02*
X103723641Y-171687558D01*
X103723641Y-171687558D02*
X104229593Y-171449462D01*
X104229593Y-171449462D02*
X104943879Y-171449462D01*
X104943879Y-171449462D02*
X105390307Y-171687558D01*
X105390307Y-171687558D02*
X105568879Y-172163748D01*
X105568879Y-172163748D02*
X105241498Y-174782796D01*
X105568879Y-172163748D02*
X105866498Y-171687558D01*
X105866498Y-171687558D02*
X106372450Y-171449462D01*
X106372450Y-171449462D02*
X107086736Y-171449462D01*
X107086736Y-171449462D02*
X107533165Y-171687558D01*
X107533165Y-171687558D02*
X107711736Y-172163748D01*
X107711736Y-172163748D02*
X107384355Y-174782796D01*
X111908165Y-174782796D02*
X112235546Y-172163748D01*
X112235546Y-172163748D02*
X112056974Y-171687558D01*
X112056974Y-171687558D02*
X111610546Y-171449462D01*
X111610546Y-171449462D02*
X110658165Y-171449462D01*
X110658165Y-171449462D02*
X110152213Y-171687558D01*
X111937927Y-174544701D02*
X111431974Y-174782796D01*
X111431974Y-174782796D02*
X110241498Y-174782796D01*
X110241498Y-174782796D02*
X109795070Y-174544701D01*
X109795070Y-174544701D02*
X109616498Y-174068510D01*
X109616498Y-174068510D02*
X109676022Y-173592320D01*
X109676022Y-173592320D02*
X109973641Y-173116129D01*
X109973641Y-173116129D02*
X110479594Y-172878034D01*
X110479594Y-172878034D02*
X111670070Y-172878034D01*
X111670070Y-172878034D02*
X112176022Y-172639939D01*
X113991499Y-171449462D02*
X115896261Y-171449462D01*
X114914118Y-169782796D02*
X114378404Y-174068510D01*
X114378404Y-174068510D02*
X114556975Y-174544701D01*
X114556975Y-174544701D02*
X115003404Y-174782796D01*
X115003404Y-174782796D02*
X115479594Y-174782796D01*
X117860547Y-174782796D02*
X117414118Y-174544701D01*
X117414118Y-174544701D02*
X117205785Y-174306605D01*
X117205785Y-174306605D02*
X117027213Y-173830415D01*
X117027213Y-173830415D02*
X117205785Y-172401843D01*
X117205785Y-172401843D02*
X117503404Y-171925653D01*
X117503404Y-171925653D02*
X117771261Y-171687558D01*
X117771261Y-171687558D02*
X118277213Y-171449462D01*
X118277213Y-171449462D02*
X118991499Y-171449462D01*
X118991499Y-171449462D02*
X119437927Y-171687558D01*
X119437927Y-171687558D02*
X119646261Y-171925653D01*
X119646261Y-171925653D02*
X119824832Y-172401843D01*
X119824832Y-172401843D02*
X119646261Y-173830415D01*
X119646261Y-173830415D02*
X119348642Y-174306605D01*
X119348642Y-174306605D02*
X119080785Y-174544701D01*
X119080785Y-174544701D02*
X118574832Y-174782796D01*
X118574832Y-174782796D02*
X117860547Y-174782796D01*
X123604595Y-174544701D02*
X123098642Y-174782796D01*
X123098642Y-174782796D02*
X122146261Y-174782796D01*
X122146261Y-174782796D02*
X121699833Y-174544701D01*
X121699833Y-174544701D02*
X121521261Y-174068510D01*
X121521261Y-174068510D02*
X121759357Y-172163748D01*
X121759357Y-172163748D02*
X122056976Y-171687558D01*
X122056976Y-171687558D02*
X122562928Y-171449462D01*
X122562928Y-171449462D02*
X123515309Y-171449462D01*
X123515309Y-171449462D02*
X123961737Y-171687558D01*
X123961737Y-171687558D02*
X124140309Y-172163748D01*
X124140309Y-172163748D02*
X124080785Y-172639939D01*
X124080785Y-172639939D02*
X121640309Y-173116129D01*
X125955785Y-174782796D02*
X126580785Y-169782796D01*
X126580785Y-169782796D02*
X128485547Y-169782796D01*
X128485547Y-169782796D02*
X128931975Y-170020891D01*
X128931975Y-170020891D02*
X129140309Y-170258986D01*
X129140309Y-170258986D02*
X129318880Y-170735177D01*
X129318880Y-170735177D02*
X129229594Y-171449462D01*
X129229594Y-171449462D02*
X128931975Y-171925653D01*
X128931975Y-171925653D02*
X128664118Y-172163748D01*
X128664118Y-172163748D02*
X128158166Y-172401843D01*
X128158166Y-172401843D02*
X126253404Y-172401843D01*
X133098642Y-174782796D02*
X133426023Y-172163748D01*
X133426023Y-172163748D02*
X133247451Y-171687558D01*
X133247451Y-171687558D02*
X132801023Y-171449462D01*
X132801023Y-171449462D02*
X131848642Y-171449462D01*
X131848642Y-171449462D02*
X131342690Y-171687558D01*
X133128404Y-174544701D02*
X132622451Y-174782796D01*
X132622451Y-174782796D02*
X131431975Y-174782796D01*
X131431975Y-174782796D02*
X130985547Y-174544701D01*
X130985547Y-174544701D02*
X130806975Y-174068510D01*
X130806975Y-174068510D02*
X130866499Y-173592320D01*
X130866499Y-173592320D02*
X131164118Y-173116129D01*
X131164118Y-173116129D02*
X131670071Y-172878034D01*
X131670071Y-172878034D02*
X132860547Y-172878034D01*
X132860547Y-172878034D02*
X133366499Y-172639939D01*
X137622452Y-174782796D02*
X138247452Y-169782796D01*
X137652214Y-174544701D02*
X137146261Y-174782796D01*
X137146261Y-174782796D02*
X136193881Y-174782796D01*
X136193881Y-174782796D02*
X135747452Y-174544701D01*
X135747452Y-174544701D02*
X135539119Y-174306605D01*
X135539119Y-174306605D02*
X135360547Y-173830415D01*
X135360547Y-173830415D02*
X135539119Y-172401843D01*
X135539119Y-172401843D02*
X135836738Y-171925653D01*
X135836738Y-171925653D02*
X136104595Y-171687558D01*
X136104595Y-171687558D02*
X136610547Y-171449462D01*
X136610547Y-171449462D02*
X137562928Y-171449462D01*
X137562928Y-171449462D02*
X138009357Y-171687558D01*
X138753405Y-175258986D02*
X142562929Y-175258986D01*
X143812929Y-174782796D02*
X144437929Y-169782796D01*
X144437929Y-169782796D02*
X146342691Y-169782796D01*
X146342691Y-169782796D02*
X146789119Y-170020891D01*
X146789119Y-170020891D02*
X146997453Y-170258986D01*
X146997453Y-170258986D02*
X147176024Y-170735177D01*
X147176024Y-170735177D02*
X147086738Y-171449462D01*
X147086738Y-171449462D02*
X146789119Y-171925653D01*
X146789119Y-171925653D02*
X146521262Y-172163748D01*
X146521262Y-172163748D02*
X146015310Y-172401843D01*
X146015310Y-172401843D02*
X144110548Y-172401843D01*
X148812929Y-174782796D02*
X149229595Y-171449462D01*
X149110548Y-172401843D02*
X149408167Y-171925653D01*
X149408167Y-171925653D02*
X149676024Y-171687558D01*
X149676024Y-171687558D02*
X150181976Y-171449462D01*
X150181976Y-171449462D02*
X150658167Y-171449462D01*
X152622453Y-174782796D02*
X152176024Y-174544701D01*
X152176024Y-174544701D02*
X151967691Y-174306605D01*
X151967691Y-174306605D02*
X151789119Y-173830415D01*
X151789119Y-173830415D02*
X151967691Y-172401843D01*
X151967691Y-172401843D02*
X152265310Y-171925653D01*
X152265310Y-171925653D02*
X152533167Y-171687558D01*
X152533167Y-171687558D02*
X153039119Y-171449462D01*
X153039119Y-171449462D02*
X153753405Y-171449462D01*
X153753405Y-171449462D02*
X154199833Y-171687558D01*
X154199833Y-171687558D02*
X154408167Y-171925653D01*
X154408167Y-171925653D02*
X154586738Y-172401843D01*
X154586738Y-172401843D02*
X154408167Y-173830415D01*
X154408167Y-173830415D02*
X154110548Y-174306605D01*
X154110548Y-174306605D02*
X153842691Y-174544701D01*
X153842691Y-174544701D02*
X153336738Y-174782796D01*
X153336738Y-174782796D02*
X152622453Y-174782796D01*
X156134358Y-171449462D02*
X158039120Y-171449462D01*
X157056977Y-169782796D02*
X156521263Y-174068510D01*
X156521263Y-174068510D02*
X156699834Y-174544701D01*
X156699834Y-174544701D02*
X157146263Y-174782796D01*
X157146263Y-174782796D02*
X157622453Y-174782796D01*
X159199834Y-169782796D02*
X160241501Y-174782796D01*
X160241501Y-174782796D02*
X162533167Y-169782796D01*
X166193881Y-174782796D02*
X163336739Y-174782796D01*
X164765310Y-174782796D02*
X165390310Y-169782796D01*
X165390310Y-169782796D02*
X164824834Y-170497081D01*
X164824834Y-170497081D02*
X164289120Y-170973272D01*
X164289120Y-170973272D02*
X163783167Y-171211367D01*
D11*
X214986279Y-195122365D02*
X215033899Y-195169984D01*
X215033899Y-195169984D02*
X215081518Y-195312841D01*
X215081518Y-195312841D02*
X215081518Y-195408079D01*
X215081518Y-195408079D02*
X215033899Y-195550936D01*
X215033899Y-195550936D02*
X214938660Y-195646174D01*
X214938660Y-195646174D02*
X214843422Y-195693793D01*
X214843422Y-195693793D02*
X214652946Y-195741412D01*
X214652946Y-195741412D02*
X214510089Y-195741412D01*
X214510089Y-195741412D02*
X214319613Y-195693793D01*
X214319613Y-195693793D02*
X214224375Y-195646174D01*
X214224375Y-195646174D02*
X214129137Y-195550936D01*
X214129137Y-195550936D02*
X214081518Y-195408079D01*
X214081518Y-195408079D02*
X214081518Y-195312841D01*
X214081518Y-195312841D02*
X214129137Y-195169984D01*
X214129137Y-195169984D02*
X214176756Y-195122365D01*
X214081518Y-194217603D02*
X214081518Y-194693793D01*
X214081518Y-194693793D02*
X214557708Y-194741412D01*
X214557708Y-194741412D02*
X214510089Y-194693793D01*
X214510089Y-194693793D02*
X214462470Y-194598555D01*
X214462470Y-194598555D02*
X214462470Y-194360460D01*
X214462470Y-194360460D02*
X214510089Y-194265222D01*
X214510089Y-194265222D02*
X214557708Y-194217603D01*
X214557708Y-194217603D02*
X214652946Y-194169984D01*
X214652946Y-194169984D02*
X214891041Y-194169984D01*
X214891041Y-194169984D02*
X214986279Y-194217603D01*
X214986279Y-194217603D02*
X215033899Y-194265222D01*
X215033899Y-194265222D02*
X215081518Y-194360460D01*
X215081518Y-194360460D02*
X215081518Y-194598555D01*
X215081518Y-194598555D02*
X215033899Y-194693793D01*
X215033899Y-194693793D02*
X214986279Y-194741412D01*
D12*
X298768127Y-68606501D02*
X298910984Y-68654120D01*
X298910984Y-68654120D02*
X299149079Y-68654120D01*
X299149079Y-68654120D02*
X299244317Y-68606501D01*
X299244317Y-68606501D02*
X299291936Y-68558881D01*
X299291936Y-68558881D02*
X299339555Y-68463643D01*
X299339555Y-68463643D02*
X299339555Y-68368405D01*
X299339555Y-68368405D02*
X299291936Y-68273167D01*
X299291936Y-68273167D02*
X299244317Y-68225548D01*
X299244317Y-68225548D02*
X299149079Y-68177929D01*
X299149079Y-68177929D02*
X298958603Y-68130310D01*
X298958603Y-68130310D02*
X298863365Y-68082691D01*
X298863365Y-68082691D02*
X298815746Y-68035072D01*
X298815746Y-68035072D02*
X298768127Y-67939834D01*
X298768127Y-67939834D02*
X298768127Y-67844596D01*
X298768127Y-67844596D02*
X298815746Y-67749358D01*
X298815746Y-67749358D02*
X298863365Y-67701739D01*
X298863365Y-67701739D02*
X298958603Y-67654120D01*
X298958603Y-67654120D02*
X299196698Y-67654120D01*
X299196698Y-67654120D02*
X299339555Y-67701739D01*
X299768127Y-68654120D02*
X299768127Y-67654120D01*
X299768127Y-67654120D02*
X300149079Y-67654120D01*
X300149079Y-67654120D02*
X300244317Y-67701739D01*
X300244317Y-67701739D02*
X300291936Y-67749358D01*
X300291936Y-67749358D02*
X300339555Y-67844596D01*
X300339555Y-67844596D02*
X300339555Y-67987453D01*
X300339555Y-67987453D02*
X300291936Y-68082691D01*
X300291936Y-68082691D02*
X300244317Y-68130310D01*
X300244317Y-68130310D02*
X300149079Y-68177929D01*
X300149079Y-68177929D02*
X299768127Y-68177929D01*
X300768127Y-68654120D02*
X300768127Y-67654120D01*
X300768127Y-67654120D02*
X301006222Y-67654120D01*
X301006222Y-67654120D02*
X301149079Y-67701739D01*
X301149079Y-67701739D02*
X301244317Y-67796977D01*
X301244317Y-67796977D02*
X301291936Y-67892215D01*
X301291936Y-67892215D02*
X301339555Y-68082691D01*
X301339555Y-68082691D02*
X301339555Y-68225548D01*
X301339555Y-68225548D02*
X301291936Y-68416024D01*
X301291936Y-68416024D02*
X301244317Y-68511262D01*
X301244317Y-68511262D02*
X301149079Y-68606501D01*
X301149079Y-68606501D02*
X301006222Y-68654120D01*
X301006222Y-68654120D02*
X300768127Y-68654120D01*
X301625270Y-67654120D02*
X302196698Y-67654120D01*
X301910984Y-68654120D02*
X301910984Y-67654120D01*
X302291937Y-68749358D02*
X303053841Y-68749358D01*
X303244318Y-68606501D02*
X303387175Y-68654120D01*
X303387175Y-68654120D02*
X303625270Y-68654120D01*
X303625270Y-68654120D02*
X303720508Y-68606501D01*
X303720508Y-68606501D02*
X303768127Y-68558881D01*
X303768127Y-68558881D02*
X303815746Y-68463643D01*
X303815746Y-68463643D02*
X303815746Y-68368405D01*
X303815746Y-68368405D02*
X303768127Y-68273167D01*
X303768127Y-68273167D02*
X303720508Y-68225548D01*
X303720508Y-68225548D02*
X303625270Y-68177929D01*
X303625270Y-68177929D02*
X303434794Y-68130310D01*
X303434794Y-68130310D02*
X303339556Y-68082691D01*
X303339556Y-68082691D02*
X303291937Y-68035072D01*
X303291937Y-68035072D02*
X303244318Y-67939834D01*
X303244318Y-67939834D02*
X303244318Y-67844596D01*
X303244318Y-67844596D02*
X303291937Y-67749358D01*
X303291937Y-67749358D02*
X303339556Y-67701739D01*
X303339556Y-67701739D02*
X303434794Y-67654120D01*
X303434794Y-67654120D02*
X303672889Y-67654120D01*
X303672889Y-67654120D02*
X303815746Y-67701739D01*
X304149080Y-67987453D02*
X304339556Y-68654120D01*
X304339556Y-68654120D02*
X304530032Y-68177929D01*
X304530032Y-68177929D02*
X304720508Y-68654120D01*
X304720508Y-68654120D02*
X304910984Y-67987453D01*
X305291937Y-68654120D02*
X305291937Y-67987453D01*
X305291937Y-67654120D02*
X305244318Y-67701739D01*
X305244318Y-67701739D02*
X305291937Y-67749358D01*
X305291937Y-67749358D02*
X305339556Y-67701739D01*
X305339556Y-67701739D02*
X305291937Y-67654120D01*
X305291937Y-67654120D02*
X305291937Y-67749358D01*
X305625270Y-67987453D02*
X306006222Y-67987453D01*
X305768127Y-67654120D02*
X305768127Y-68511262D01*
X305768127Y-68511262D02*
X305815746Y-68606501D01*
X305815746Y-68606501D02*
X305910984Y-68654120D01*
X305910984Y-68654120D02*
X306006222Y-68654120D01*
X306768127Y-68606501D02*
X306672889Y-68654120D01*
X306672889Y-68654120D02*
X306482413Y-68654120D01*
X306482413Y-68654120D02*
X306387175Y-68606501D01*
X306387175Y-68606501D02*
X306339556Y-68558881D01*
X306339556Y-68558881D02*
X306291937Y-68463643D01*
X306291937Y-68463643D02*
X306291937Y-68177929D01*
X306291937Y-68177929D02*
X306339556Y-68082691D01*
X306339556Y-68082691D02*
X306387175Y-68035072D01*
X306387175Y-68035072D02*
X306482413Y-67987453D01*
X306482413Y-67987453D02*
X306672889Y-67987453D01*
X306672889Y-67987453D02*
X306768127Y-68035072D01*
X307196699Y-68654120D02*
X307196699Y-67654120D01*
X307625270Y-68654120D02*
X307625270Y-68130310D01*
X307625270Y-68130310D02*
X307577651Y-68035072D01*
X307577651Y-68035072D02*
X307482413Y-67987453D01*
X307482413Y-67987453D02*
X307339556Y-67987453D01*
X307339556Y-67987453D02*
X307244318Y-68035072D01*
X307244318Y-68035072D02*
X307196699Y-68082691D01*
X308625270Y-68654120D02*
X308053842Y-68654120D01*
X308339556Y-68654120D02*
X308339556Y-67654120D01*
X308339556Y-67654120D02*
X308244318Y-67796977D01*
X308244318Y-67796977D02*
X308149080Y-67892215D01*
X308149080Y-67892215D02*
X308053842Y-67939834D01*
X133458604Y-73154120D02*
X133458604Y-72154120D01*
X133458604Y-72154120D02*
X133839556Y-72154120D01*
X133839556Y-72154120D02*
X133934794Y-72201739D01*
X133934794Y-72201739D02*
X133982413Y-72249358D01*
X133982413Y-72249358D02*
X134030032Y-72344596D01*
X134030032Y-72344596D02*
X134030032Y-72487453D01*
X134030032Y-72487453D02*
X133982413Y-72582691D01*
X133982413Y-72582691D02*
X133934794Y-72630310D01*
X133934794Y-72630310D02*
X133839556Y-72677929D01*
X133839556Y-72677929D02*
X133458604Y-72677929D01*
X134791937Y-72630310D02*
X134934794Y-72677929D01*
X134934794Y-72677929D02*
X134982413Y-72725548D01*
X134982413Y-72725548D02*
X135030032Y-72820786D01*
X135030032Y-72820786D02*
X135030032Y-72963643D01*
X135030032Y-72963643D02*
X134982413Y-73058881D01*
X134982413Y-73058881D02*
X134934794Y-73106501D01*
X134934794Y-73106501D02*
X134839556Y-73154120D01*
X134839556Y-73154120D02*
X134458604Y-73154120D01*
X134458604Y-73154120D02*
X134458604Y-72154120D01*
X134458604Y-72154120D02*
X134791937Y-72154120D01*
X134791937Y-72154120D02*
X134887175Y-72201739D01*
X134887175Y-72201739D02*
X134934794Y-72249358D01*
X134934794Y-72249358D02*
X134982413Y-72344596D01*
X134982413Y-72344596D02*
X134982413Y-72439834D01*
X134982413Y-72439834D02*
X134934794Y-72535072D01*
X134934794Y-72535072D02*
X134887175Y-72582691D01*
X134887175Y-72582691D02*
X134791937Y-72630310D01*
X134791937Y-72630310D02*
X134458604Y-72630310D01*
X135363366Y-72154120D02*
X135982413Y-72154120D01*
X135982413Y-72154120D02*
X135649080Y-72535072D01*
X135649080Y-72535072D02*
X135791937Y-72535072D01*
X135791937Y-72535072D02*
X135887175Y-72582691D01*
X135887175Y-72582691D02*
X135934794Y-72630310D01*
X135934794Y-72630310D02*
X135982413Y-72725548D01*
X135982413Y-72725548D02*
X135982413Y-72963643D01*
X135982413Y-72963643D02*
X135934794Y-73058881D01*
X135934794Y-73058881D02*
X135887175Y-73106501D01*
X135887175Y-73106501D02*
X135791937Y-73154120D01*
X135791937Y-73154120D02*
X135506223Y-73154120D01*
X135506223Y-73154120D02*
X135410985Y-73106501D01*
X135410985Y-73106501D02*
X135363366Y-73058881D01*
D11*
X159651518Y-73393793D02*
X158651518Y-73393793D01*
X158651518Y-73393793D02*
X158651518Y-73155698D01*
X158651518Y-73155698D02*
X158699137Y-73012841D01*
X158699137Y-73012841D02*
X158794375Y-72917603D01*
X158794375Y-72917603D02*
X158889613Y-72869984D01*
X158889613Y-72869984D02*
X159080089Y-72822365D01*
X159080089Y-72822365D02*
X159222946Y-72822365D01*
X159222946Y-72822365D02*
X159413422Y-72869984D01*
X159413422Y-72869984D02*
X159508660Y-72917603D01*
X159508660Y-72917603D02*
X159603899Y-73012841D01*
X159603899Y-73012841D02*
X159651518Y-73155698D01*
X159651518Y-73155698D02*
X159651518Y-73393793D01*
X159080089Y-72250936D02*
X159032470Y-72346174D01*
X159032470Y-72346174D02*
X158984851Y-72393793D01*
X158984851Y-72393793D02*
X158889613Y-72441412D01*
X158889613Y-72441412D02*
X158841994Y-72441412D01*
X158841994Y-72441412D02*
X158746756Y-72393793D01*
X158746756Y-72393793D02*
X158699137Y-72346174D01*
X158699137Y-72346174D02*
X158651518Y-72250936D01*
X158651518Y-72250936D02*
X158651518Y-72060460D01*
X158651518Y-72060460D02*
X158699137Y-71965222D01*
X158699137Y-71965222D02*
X158746756Y-71917603D01*
X158746756Y-71917603D02*
X158841994Y-71869984D01*
X158841994Y-71869984D02*
X158889613Y-71869984D01*
X158889613Y-71869984D02*
X158984851Y-71917603D01*
X158984851Y-71917603D02*
X159032470Y-71965222D01*
X159032470Y-71965222D02*
X159080089Y-72060460D01*
X159080089Y-72060460D02*
X159080089Y-72250936D01*
X159080089Y-72250936D02*
X159127708Y-72346174D01*
X159127708Y-72346174D02*
X159175327Y-72393793D01*
X159175327Y-72393793D02*
X159270565Y-72441412D01*
X159270565Y-72441412D02*
X159461041Y-72441412D01*
X159461041Y-72441412D02*
X159556279Y-72393793D01*
X159556279Y-72393793D02*
X159603899Y-72346174D01*
X159603899Y-72346174D02*
X159651518Y-72250936D01*
X159651518Y-72250936D02*
X159651518Y-72060460D01*
X159651518Y-72060460D02*
X159603899Y-71965222D01*
X159603899Y-71965222D02*
X159556279Y-71917603D01*
X159556279Y-71917603D02*
X159461041Y-71869984D01*
X159461041Y-71869984D02*
X159270565Y-71869984D01*
X159270565Y-71869984D02*
X159175327Y-71917603D01*
X159175327Y-71917603D02*
X159127708Y-71965222D01*
X159127708Y-71965222D02*
X159080089Y-72060460D01*
X161458994Y-76427127D02*
X161458994Y-76884270D01*
X161458994Y-76655698D02*
X160658994Y-76655698D01*
X160658994Y-76655698D02*
X160773279Y-76731889D01*
X160773279Y-76731889D02*
X160849470Y-76808079D01*
X160849470Y-76808079D02*
X160887565Y-76884270D01*
X204330031Y-146776279D02*
X204282412Y-146823899D01*
X204282412Y-146823899D02*
X204139555Y-146871518D01*
X204139555Y-146871518D02*
X204044317Y-146871518D01*
X204044317Y-146871518D02*
X203901460Y-146823899D01*
X203901460Y-146823899D02*
X203806222Y-146728660D01*
X203806222Y-146728660D02*
X203758603Y-146633422D01*
X203758603Y-146633422D02*
X203710984Y-146442946D01*
X203710984Y-146442946D02*
X203710984Y-146300089D01*
X203710984Y-146300089D02*
X203758603Y-146109613D01*
X203758603Y-146109613D02*
X203806222Y-146014375D01*
X203806222Y-146014375D02*
X203901460Y-145919137D01*
X203901460Y-145919137D02*
X204044317Y-145871518D01*
X204044317Y-145871518D02*
X204139555Y-145871518D01*
X204139555Y-145871518D02*
X204282412Y-145919137D01*
X204282412Y-145919137D02*
X204330031Y-145966756D01*
X205187174Y-145871518D02*
X204996698Y-145871518D01*
X204996698Y-145871518D02*
X204901460Y-145919137D01*
X204901460Y-145919137D02*
X204853841Y-145966756D01*
X204853841Y-145966756D02*
X204758603Y-146109613D01*
X204758603Y-146109613D02*
X204710984Y-146300089D01*
X204710984Y-146300089D02*
X204710984Y-146681041D01*
X204710984Y-146681041D02*
X204758603Y-146776279D01*
X204758603Y-146776279D02*
X204806222Y-146823899D01*
X204806222Y-146823899D02*
X204901460Y-146871518D01*
X204901460Y-146871518D02*
X205091936Y-146871518D01*
X205091936Y-146871518D02*
X205187174Y-146823899D01*
X205187174Y-146823899D02*
X205234793Y-146776279D01*
X205234793Y-146776279D02*
X205282412Y-146681041D01*
X205282412Y-146681041D02*
X205282412Y-146442946D01*
X205282412Y-146442946D02*
X205234793Y-146347708D01*
X205234793Y-146347708D02*
X205187174Y-146300089D01*
X205187174Y-146300089D02*
X205091936Y-146252470D01*
X205091936Y-146252470D02*
X204901460Y-146252470D01*
X204901460Y-146252470D02*
X204806222Y-146300089D01*
X204806222Y-146300089D02*
X204758603Y-146347708D01*
X204758603Y-146347708D02*
X204710984Y-146442946D01*
X178876279Y-197622365D02*
X178923899Y-197669984D01*
X178923899Y-197669984D02*
X178971518Y-197812841D01*
X178971518Y-197812841D02*
X178971518Y-197908079D01*
X178971518Y-197908079D02*
X178923899Y-198050936D01*
X178923899Y-198050936D02*
X178828660Y-198146174D01*
X178828660Y-198146174D02*
X178733422Y-198193793D01*
X178733422Y-198193793D02*
X178542946Y-198241412D01*
X178542946Y-198241412D02*
X178400089Y-198241412D01*
X178400089Y-198241412D02*
X178209613Y-198193793D01*
X178209613Y-198193793D02*
X178114375Y-198146174D01*
X178114375Y-198146174D02*
X178019137Y-198050936D01*
X178019137Y-198050936D02*
X177971518Y-197908079D01*
X177971518Y-197908079D02*
X177971518Y-197812841D01*
X177971518Y-197812841D02*
X178019137Y-197669984D01*
X178019137Y-197669984D02*
X178066756Y-197622365D01*
X178304851Y-196765222D02*
X178971518Y-196765222D01*
X177923899Y-197003317D02*
X178638184Y-197241412D01*
X178638184Y-197241412D02*
X178638184Y-196622365D01*
X225503841Y-126585279D02*
X225456222Y-126632899D01*
X225456222Y-126632899D02*
X225313365Y-126680518D01*
X225313365Y-126680518D02*
X225218127Y-126680518D01*
X225218127Y-126680518D02*
X225075270Y-126632899D01*
X225075270Y-126632899D02*
X224980032Y-126537660D01*
X224980032Y-126537660D02*
X224932413Y-126442422D01*
X224932413Y-126442422D02*
X224884794Y-126251946D01*
X224884794Y-126251946D02*
X224884794Y-126109089D01*
X224884794Y-126109089D02*
X224932413Y-125918613D01*
X224932413Y-125918613D02*
X224980032Y-125823375D01*
X224980032Y-125823375D02*
X225075270Y-125728137D01*
X225075270Y-125728137D02*
X225218127Y-125680518D01*
X225218127Y-125680518D02*
X225313365Y-125680518D01*
X225313365Y-125680518D02*
X225456222Y-125728137D01*
X225456222Y-125728137D02*
X225503841Y-125775756D01*
X226456222Y-126680518D02*
X225884794Y-126680518D01*
X226170508Y-126680518D02*
X226170508Y-125680518D01*
X226170508Y-125680518D02*
X226075270Y-125823375D01*
X226075270Y-125823375D02*
X225980032Y-125918613D01*
X225980032Y-125918613D02*
X225884794Y-125966232D01*
X227075270Y-125680518D02*
X227170508Y-125680518D01*
X227170508Y-125680518D02*
X227265746Y-125728137D01*
X227265746Y-125728137D02*
X227313365Y-125775756D01*
X227313365Y-125775756D02*
X227360984Y-125870994D01*
X227360984Y-125870994D02*
X227408603Y-126061470D01*
X227408603Y-126061470D02*
X227408603Y-126299565D01*
X227408603Y-126299565D02*
X227360984Y-126490041D01*
X227360984Y-126490041D02*
X227313365Y-126585279D01*
X227313365Y-126585279D02*
X227265746Y-126632899D01*
X227265746Y-126632899D02*
X227170508Y-126680518D01*
X227170508Y-126680518D02*
X227075270Y-126680518D01*
X227075270Y-126680518D02*
X226980032Y-126632899D01*
X226980032Y-126632899D02*
X226932413Y-126585279D01*
X226932413Y-126585279D02*
X226884794Y-126490041D01*
X226884794Y-126490041D02*
X226837175Y-126299565D01*
X226837175Y-126299565D02*
X226837175Y-126061470D01*
X226837175Y-126061470D02*
X226884794Y-125870994D01*
X226884794Y-125870994D02*
X226932413Y-125775756D01*
X226932413Y-125775756D02*
X226980032Y-125728137D01*
X226980032Y-125728137D02*
X227075270Y-125680518D01*
D12*
X231401459Y-141101737D02*
X231306221Y-141054118D01*
X231306221Y-141054118D02*
X231163364Y-141054118D01*
X231163364Y-141054118D02*
X231020507Y-141101737D01*
X231020507Y-141101737D02*
X230925269Y-141196975D01*
X230925269Y-141196975D02*
X230877650Y-141292213D01*
X230877650Y-141292213D02*
X230830031Y-141482689D01*
X230830031Y-141482689D02*
X230830031Y-141625546D01*
X230830031Y-141625546D02*
X230877650Y-141816022D01*
X230877650Y-141816022D02*
X230925269Y-141911260D01*
X230925269Y-141911260D02*
X231020507Y-142006499D01*
X231020507Y-142006499D02*
X231163364Y-142054118D01*
X231163364Y-142054118D02*
X231258602Y-142054118D01*
X231258602Y-142054118D02*
X231401459Y-142006499D01*
X231401459Y-142006499D02*
X231449078Y-141958879D01*
X231449078Y-141958879D02*
X231449078Y-141625546D01*
X231449078Y-141625546D02*
X231258602Y-141625546D01*
X232163364Y-141054118D02*
X232163364Y-141768403D01*
X232163364Y-141768403D02*
X232115745Y-141911260D01*
X232115745Y-141911260D02*
X232020507Y-142006499D01*
X232020507Y-142006499D02*
X231877650Y-142054118D01*
X231877650Y-142054118D02*
X231782412Y-142054118D01*
X232639555Y-142054118D02*
X232639555Y-141054118D01*
X232639555Y-141054118D02*
X233020507Y-141054118D01*
X233020507Y-141054118D02*
X233115745Y-141101737D01*
X233115745Y-141101737D02*
X233163364Y-141149356D01*
X233163364Y-141149356D02*
X233210983Y-141244594D01*
X233210983Y-141244594D02*
X233210983Y-141387451D01*
X233210983Y-141387451D02*
X233163364Y-141482689D01*
X233163364Y-141482689D02*
X233115745Y-141530308D01*
X233115745Y-141530308D02*
X233020507Y-141577927D01*
X233020507Y-141577927D02*
X232639555Y-141577927D01*
X233544317Y-141054118D02*
X234210983Y-141054118D01*
X234210983Y-141054118D02*
X233782412Y-142054118D01*
D11*
X79556279Y-102298556D02*
X79603899Y-102346175D01*
X79603899Y-102346175D02*
X79651518Y-102489032D01*
X79651518Y-102489032D02*
X79651518Y-102584270D01*
X79651518Y-102584270D02*
X79603899Y-102727127D01*
X79603899Y-102727127D02*
X79508660Y-102822365D01*
X79508660Y-102822365D02*
X79413422Y-102869984D01*
X79413422Y-102869984D02*
X79222946Y-102917603D01*
X79222946Y-102917603D02*
X79080089Y-102917603D01*
X79080089Y-102917603D02*
X78889613Y-102869984D01*
X78889613Y-102869984D02*
X78794375Y-102822365D01*
X78794375Y-102822365D02*
X78699137Y-102727127D01*
X78699137Y-102727127D02*
X78651518Y-102584270D01*
X78651518Y-102584270D02*
X78651518Y-102489032D01*
X78651518Y-102489032D02*
X78699137Y-102346175D01*
X78699137Y-102346175D02*
X78746756Y-102298556D01*
X78746756Y-101917603D02*
X78699137Y-101869984D01*
X78699137Y-101869984D02*
X78651518Y-101774746D01*
X78651518Y-101774746D02*
X78651518Y-101536651D01*
X78651518Y-101536651D02*
X78699137Y-101441413D01*
X78699137Y-101441413D02*
X78746756Y-101393794D01*
X78746756Y-101393794D02*
X78841994Y-101346175D01*
X78841994Y-101346175D02*
X78937232Y-101346175D01*
X78937232Y-101346175D02*
X79080089Y-101393794D01*
X79080089Y-101393794D02*
X79651518Y-101965222D01*
X79651518Y-101965222D02*
X79651518Y-101346175D01*
X78651518Y-100727127D02*
X78651518Y-100631889D01*
X78651518Y-100631889D02*
X78699137Y-100536651D01*
X78699137Y-100536651D02*
X78746756Y-100489032D01*
X78746756Y-100489032D02*
X78841994Y-100441413D01*
X78841994Y-100441413D02*
X79032470Y-100393794D01*
X79032470Y-100393794D02*
X79270565Y-100393794D01*
X79270565Y-100393794D02*
X79461041Y-100441413D01*
X79461041Y-100441413D02*
X79556279Y-100489032D01*
X79556279Y-100489032D02*
X79603899Y-100536651D01*
X79603899Y-100536651D02*
X79651518Y-100631889D01*
X79651518Y-100631889D02*
X79651518Y-100727127D01*
X79651518Y-100727127D02*
X79603899Y-100822365D01*
X79603899Y-100822365D02*
X79556279Y-100869984D01*
X79556279Y-100869984D02*
X79461041Y-100917603D01*
X79461041Y-100917603D02*
X79270565Y-100965222D01*
X79270565Y-100965222D02*
X79032470Y-100965222D01*
X79032470Y-100965222D02*
X78841994Y-100917603D01*
X78841994Y-100917603D02*
X78746756Y-100869984D01*
X78746756Y-100869984D02*
X78699137Y-100822365D01*
X78699137Y-100822365D02*
X78651518Y-100727127D01*
D12*
X205401459Y-128601737D02*
X205306221Y-128554118D01*
X205306221Y-128554118D02*
X205163364Y-128554118D01*
X205163364Y-128554118D02*
X205020507Y-128601737D01*
X205020507Y-128601737D02*
X204925269Y-128696975D01*
X204925269Y-128696975D02*
X204877650Y-128792213D01*
X204877650Y-128792213D02*
X204830031Y-128982689D01*
X204830031Y-128982689D02*
X204830031Y-129125546D01*
X204830031Y-129125546D02*
X204877650Y-129316022D01*
X204877650Y-129316022D02*
X204925269Y-129411260D01*
X204925269Y-129411260D02*
X205020507Y-129506499D01*
X205020507Y-129506499D02*
X205163364Y-129554118D01*
X205163364Y-129554118D02*
X205258602Y-129554118D01*
X205258602Y-129554118D02*
X205401459Y-129506499D01*
X205401459Y-129506499D02*
X205449078Y-129458879D01*
X205449078Y-129458879D02*
X205449078Y-129125546D01*
X205449078Y-129125546D02*
X205258602Y-129125546D01*
X206163364Y-128554118D02*
X206163364Y-129268403D01*
X206163364Y-129268403D02*
X206115745Y-129411260D01*
X206115745Y-129411260D02*
X206020507Y-129506499D01*
X206020507Y-129506499D02*
X205877650Y-129554118D01*
X205877650Y-129554118D02*
X205782412Y-129554118D01*
X206639555Y-129554118D02*
X206639555Y-128554118D01*
X206639555Y-128554118D02*
X207020507Y-128554118D01*
X207020507Y-128554118D02*
X207115745Y-128601737D01*
X207115745Y-128601737D02*
X207163364Y-128649356D01*
X207163364Y-128649356D02*
X207210983Y-128744594D01*
X207210983Y-128744594D02*
X207210983Y-128887451D01*
X207210983Y-128887451D02*
X207163364Y-128982689D01*
X207163364Y-128982689D02*
X207115745Y-129030308D01*
X207115745Y-129030308D02*
X207020507Y-129077927D01*
X207020507Y-129077927D02*
X206639555Y-129077927D01*
X208068126Y-128554118D02*
X207877650Y-128554118D01*
X207877650Y-128554118D02*
X207782412Y-128601737D01*
X207782412Y-128601737D02*
X207734793Y-128649356D01*
X207734793Y-128649356D02*
X207639555Y-128792213D01*
X207639555Y-128792213D02*
X207591936Y-128982689D01*
X207591936Y-128982689D02*
X207591936Y-129363641D01*
X207591936Y-129363641D02*
X207639555Y-129458879D01*
X207639555Y-129458879D02*
X207687174Y-129506499D01*
X207687174Y-129506499D02*
X207782412Y-129554118D01*
X207782412Y-129554118D02*
X207972888Y-129554118D01*
X207972888Y-129554118D02*
X208068126Y-129506499D01*
X208068126Y-129506499D02*
X208115745Y-129458879D01*
X208115745Y-129458879D02*
X208163364Y-129363641D01*
X208163364Y-129363641D02*
X208163364Y-129125546D01*
X208163364Y-129125546D02*
X208115745Y-129030308D01*
X208115745Y-129030308D02*
X208068126Y-128982689D01*
X208068126Y-128982689D02*
X207972888Y-128935070D01*
X207972888Y-128935070D02*
X207782412Y-128935070D01*
X207782412Y-128935070D02*
X207687174Y-128982689D01*
X207687174Y-128982689D02*
X207639555Y-129030308D01*
X207639555Y-129030308D02*
X207591936Y-129125546D01*
X269458604Y-73154120D02*
X269458604Y-72154120D01*
X269458604Y-72154120D02*
X269839556Y-72154120D01*
X269839556Y-72154120D02*
X269934794Y-72201739D01*
X269934794Y-72201739D02*
X269982413Y-72249358D01*
X269982413Y-72249358D02*
X270030032Y-72344596D01*
X270030032Y-72344596D02*
X270030032Y-72487453D01*
X270030032Y-72487453D02*
X269982413Y-72582691D01*
X269982413Y-72582691D02*
X269934794Y-72630310D01*
X269934794Y-72630310D02*
X269839556Y-72677929D01*
X269839556Y-72677929D02*
X269458604Y-72677929D01*
X270791937Y-72630310D02*
X270934794Y-72677929D01*
X270934794Y-72677929D02*
X270982413Y-72725548D01*
X270982413Y-72725548D02*
X271030032Y-72820786D01*
X271030032Y-72820786D02*
X271030032Y-72963643D01*
X271030032Y-72963643D02*
X270982413Y-73058881D01*
X270982413Y-73058881D02*
X270934794Y-73106501D01*
X270934794Y-73106501D02*
X270839556Y-73154120D01*
X270839556Y-73154120D02*
X270458604Y-73154120D01*
X270458604Y-73154120D02*
X270458604Y-72154120D01*
X270458604Y-72154120D02*
X270791937Y-72154120D01*
X270791937Y-72154120D02*
X270887175Y-72201739D01*
X270887175Y-72201739D02*
X270934794Y-72249358D01*
X270934794Y-72249358D02*
X270982413Y-72344596D01*
X270982413Y-72344596D02*
X270982413Y-72439834D01*
X270982413Y-72439834D02*
X270934794Y-72535072D01*
X270934794Y-72535072D02*
X270887175Y-72582691D01*
X270887175Y-72582691D02*
X270791937Y-72630310D01*
X270791937Y-72630310D02*
X270458604Y-72630310D01*
X271934794Y-72154120D02*
X271458604Y-72154120D01*
X271458604Y-72154120D02*
X271410985Y-72630310D01*
X271410985Y-72630310D02*
X271458604Y-72582691D01*
X271458604Y-72582691D02*
X271553842Y-72535072D01*
X271553842Y-72535072D02*
X271791937Y-72535072D01*
X271791937Y-72535072D02*
X271887175Y-72582691D01*
X271887175Y-72582691D02*
X271934794Y-72630310D01*
X271934794Y-72630310D02*
X271982413Y-72725548D01*
X271982413Y-72725548D02*
X271982413Y-72963643D01*
X271982413Y-72963643D02*
X271934794Y-73058881D01*
X271934794Y-73058881D02*
X271887175Y-73106501D01*
X271887175Y-73106501D02*
X271791937Y-73154120D01*
X271791937Y-73154120D02*
X271553842Y-73154120D01*
X271553842Y-73154120D02*
X271458604Y-73106501D01*
X271458604Y-73106501D02*
X271410985Y-73058881D01*
X134801461Y-107601737D02*
X134706223Y-107554118D01*
X134706223Y-107554118D02*
X134563366Y-107554118D01*
X134563366Y-107554118D02*
X134420509Y-107601737D01*
X134420509Y-107601737D02*
X134325271Y-107696975D01*
X134325271Y-107696975D02*
X134277652Y-107792213D01*
X134277652Y-107792213D02*
X134230033Y-107982689D01*
X134230033Y-107982689D02*
X134230033Y-108125546D01*
X134230033Y-108125546D02*
X134277652Y-108316022D01*
X134277652Y-108316022D02*
X134325271Y-108411260D01*
X134325271Y-108411260D02*
X134420509Y-108506499D01*
X134420509Y-108506499D02*
X134563366Y-108554118D01*
X134563366Y-108554118D02*
X134658604Y-108554118D01*
X134658604Y-108554118D02*
X134801461Y-108506499D01*
X134801461Y-108506499D02*
X134849080Y-108458879D01*
X134849080Y-108458879D02*
X134849080Y-108125546D01*
X134849080Y-108125546D02*
X134658604Y-108125546D01*
X135563366Y-107554118D02*
X135563366Y-108268403D01*
X135563366Y-108268403D02*
X135515747Y-108411260D01*
X135515747Y-108411260D02*
X135420509Y-108506499D01*
X135420509Y-108506499D02*
X135277652Y-108554118D01*
X135277652Y-108554118D02*
X135182414Y-108554118D01*
X136039557Y-108554118D02*
X136039557Y-107554118D01*
X136039557Y-107554118D02*
X136420509Y-107554118D01*
X136420509Y-107554118D02*
X136515747Y-107601737D01*
X136515747Y-107601737D02*
X136563366Y-107649356D01*
X136563366Y-107649356D02*
X136610985Y-107744594D01*
X136610985Y-107744594D02*
X136610985Y-107887451D01*
X136610985Y-107887451D02*
X136563366Y-107982689D01*
X136563366Y-107982689D02*
X136515747Y-108030308D01*
X136515747Y-108030308D02*
X136420509Y-108077927D01*
X136420509Y-108077927D02*
X136039557Y-108077927D01*
X136991938Y-107649356D02*
X137039557Y-107601737D01*
X137039557Y-107601737D02*
X137134795Y-107554118D01*
X137134795Y-107554118D02*
X137372890Y-107554118D01*
X137372890Y-107554118D02*
X137468128Y-107601737D01*
X137468128Y-107601737D02*
X137515747Y-107649356D01*
X137515747Y-107649356D02*
X137563366Y-107744594D01*
X137563366Y-107744594D02*
X137563366Y-107839832D01*
X137563366Y-107839832D02*
X137515747Y-107982689D01*
X137515747Y-107982689D02*
X136944319Y-108554118D01*
X136944319Y-108554118D02*
X137563366Y-108554118D01*
D11*
X256934794Y-196451520D02*
X256934794Y-195451520D01*
X256934794Y-195927710D02*
X257506222Y-195927710D01*
X257506222Y-196451520D02*
X257506222Y-195451520D01*
X258458603Y-195451520D02*
X257982413Y-195451520D01*
X257982413Y-195451520D02*
X257934794Y-195927710D01*
X257934794Y-195927710D02*
X257982413Y-195880091D01*
X257982413Y-195880091D02*
X258077651Y-195832472D01*
X258077651Y-195832472D02*
X258315746Y-195832472D01*
X258315746Y-195832472D02*
X258410984Y-195880091D01*
X258410984Y-195880091D02*
X258458603Y-195927710D01*
X258458603Y-195927710D02*
X258506222Y-196022948D01*
X258506222Y-196022948D02*
X258506222Y-196261043D01*
X258506222Y-196261043D02*
X258458603Y-196356281D01*
X258458603Y-196356281D02*
X258410984Y-196403901D01*
X258410984Y-196403901D02*
X258315746Y-196451520D01*
X258315746Y-196451520D02*
X258077651Y-196451520D01*
X258077651Y-196451520D02*
X257982413Y-196403901D01*
X257982413Y-196403901D02*
X257934794Y-196356281D01*
D12*
X173255407Y-184650642D02*
X173193069Y-184564318D01*
X173193069Y-184564318D02*
X173066468Y-184498133D01*
X173066468Y-184498133D02*
X172917806Y-184474148D01*
X172917806Y-184474148D02*
X172789282Y-184514425D01*
X172789282Y-184514425D02*
X172702959Y-184576764D01*
X172702959Y-184576764D02*
X172572512Y-184723503D01*
X172572512Y-184723503D02*
X172506326Y-184850103D01*
X172506326Y-184850103D02*
X172460280Y-185040966D01*
X172460280Y-185040966D02*
X172458356Y-185147428D01*
X172458356Y-185147428D02*
X172498633Y-185275951D01*
X172498633Y-185275951D02*
X172603172Y-185384337D01*
X172603172Y-185384337D02*
X172687573Y-185428460D01*
X172687573Y-185428460D02*
X172836235Y-185452445D01*
X172836235Y-185452445D02*
X172900497Y-185432307D01*
X172900497Y-185432307D02*
X173054929Y-185136906D01*
X173054929Y-185136906D02*
X172886128Y-185048659D01*
X173952672Y-184961429D02*
X173621746Y-185594432D01*
X173621746Y-185594432D02*
X173513361Y-185698971D01*
X173513361Y-185698971D02*
X173384837Y-185739248D01*
X173384837Y-185739248D02*
X173236175Y-185715263D01*
X173236175Y-185715263D02*
X173151774Y-185671139D01*
X173911378Y-186068250D02*
X174374674Y-185182047D01*
X174374674Y-185182047D02*
X174712275Y-185358540D01*
X174712275Y-185358540D02*
X174774614Y-185444864D01*
X174774614Y-185444864D02*
X174794752Y-185509126D01*
X174794752Y-185509126D02*
X174792829Y-185615588D01*
X174792829Y-185615588D02*
X174726644Y-185742188D01*
X174726644Y-185742188D02*
X174640320Y-185804527D01*
X174640320Y-185804527D02*
X174576058Y-185824665D01*
X174576058Y-185824665D02*
X174469596Y-185822742D01*
X174469596Y-185822742D02*
X174131995Y-185646248D01*
X175486247Y-186139299D02*
X175177383Y-186730102D01*
X175451740Y-185691389D02*
X174909813Y-186214083D01*
X174909813Y-186214083D02*
X175458415Y-186500886D01*
X316855389Y-117953590D02*
X316752102Y-117927714D01*
X316752102Y-117927714D02*
X316612631Y-117958633D01*
X316612631Y-117958633D02*
X316483467Y-118036044D01*
X316483467Y-118036044D02*
X316411099Y-118149638D01*
X316411099Y-118149638D02*
X316385222Y-118252925D01*
X316385222Y-118252925D02*
X316379959Y-118449193D01*
X316379959Y-118449193D02*
X316410879Y-118588663D01*
X316410879Y-118588663D02*
X316498596Y-118764318D01*
X316498596Y-118764318D02*
X316565699Y-118846992D01*
X316565699Y-118846992D02*
X316679293Y-118919359D01*
X316679293Y-118919359D02*
X316829071Y-118934929D01*
X316829071Y-118934929D02*
X316922051Y-118914316D01*
X316922051Y-118914316D02*
X317051215Y-118836906D01*
X317051215Y-118836906D02*
X317087399Y-118780109D01*
X317087399Y-118780109D02*
X317015252Y-118454677D01*
X317015252Y-118454677D02*
X316829291Y-118495904D01*
X317588927Y-117742194D02*
X317743527Y-118439548D01*
X317743527Y-118439548D02*
X317727956Y-118589326D01*
X317727956Y-118589326D02*
X317655589Y-118702919D01*
X317655589Y-118702919D02*
X317526425Y-118780330D01*
X317526425Y-118780330D02*
X317433444Y-118800943D01*
X318270270Y-118615423D02*
X318053830Y-117639127D01*
X318053830Y-117639127D02*
X318425752Y-117556674D01*
X318425752Y-117556674D02*
X318529040Y-117582551D01*
X318529040Y-117582551D02*
X318585836Y-117618735D01*
X318585836Y-117618735D02*
X318652940Y-117701409D01*
X318652940Y-117701409D02*
X318683860Y-117840880D01*
X318683860Y-117840880D02*
X318657983Y-117944167D01*
X318657983Y-117944167D02*
X318621799Y-118000964D01*
X318621799Y-118000964D02*
X318539125Y-118068067D01*
X318539125Y-118068067D02*
X318167203Y-118150520D01*
X319757959Y-118285611D02*
X319200075Y-118409290D01*
X319479017Y-118347450D02*
X319262577Y-117371154D01*
X319262577Y-117371154D02*
X319200517Y-117531239D01*
X319200517Y-117531239D02*
X319128150Y-117644832D01*
X319128150Y-117644832D02*
X319045476Y-117711936D01*
X319866951Y-117237168D02*
X320471325Y-117103182D01*
X320471325Y-117103182D02*
X320228346Y-117547250D01*
X320228346Y-117547250D02*
X320367817Y-117516330D01*
X320367817Y-117516330D02*
X320471104Y-117542207D01*
X320471104Y-117542207D02*
X320527901Y-117578391D01*
X320527901Y-117578391D02*
X320595005Y-117661065D01*
X320595005Y-117661065D02*
X320646538Y-117893516D01*
X320646538Y-117893516D02*
X320620661Y-117996804D01*
X320620661Y-117996804D02*
X320584477Y-118053601D01*
X320584477Y-118053601D02*
X320501803Y-118120704D01*
X320501803Y-118120704D02*
X320222862Y-118182544D01*
X320222862Y-118182544D02*
X320119574Y-118156667D01*
X320119574Y-118156667D02*
X320062778Y-118120483D01*
D11*
X280103841Y-189015279D02*
X280056222Y-189062899D01*
X280056222Y-189062899D02*
X279913365Y-189110518D01*
X279913365Y-189110518D02*
X279818127Y-189110518D01*
X279818127Y-189110518D02*
X279675270Y-189062899D01*
X279675270Y-189062899D02*
X279580032Y-188967660D01*
X279580032Y-188967660D02*
X279532413Y-188872422D01*
X279532413Y-188872422D02*
X279484794Y-188681946D01*
X279484794Y-188681946D02*
X279484794Y-188539089D01*
X279484794Y-188539089D02*
X279532413Y-188348613D01*
X279532413Y-188348613D02*
X279580032Y-188253375D01*
X279580032Y-188253375D02*
X279675270Y-188158137D01*
X279675270Y-188158137D02*
X279818127Y-188110518D01*
X279818127Y-188110518D02*
X279913365Y-188110518D01*
X279913365Y-188110518D02*
X280056222Y-188158137D01*
X280056222Y-188158137D02*
X280103841Y-188205756D01*
X281056222Y-189110518D02*
X280484794Y-189110518D01*
X280770508Y-189110518D02*
X280770508Y-188110518D01*
X280770508Y-188110518D02*
X280675270Y-188253375D01*
X280675270Y-188253375D02*
X280580032Y-188348613D01*
X280580032Y-188348613D02*
X280484794Y-188396232D01*
X281627651Y-188539089D02*
X281532413Y-188491470D01*
X281532413Y-188491470D02*
X281484794Y-188443851D01*
X281484794Y-188443851D02*
X281437175Y-188348613D01*
X281437175Y-188348613D02*
X281437175Y-188300994D01*
X281437175Y-188300994D02*
X281484794Y-188205756D01*
X281484794Y-188205756D02*
X281532413Y-188158137D01*
X281532413Y-188158137D02*
X281627651Y-188110518D01*
X281627651Y-188110518D02*
X281818127Y-188110518D01*
X281818127Y-188110518D02*
X281913365Y-188158137D01*
X281913365Y-188158137D02*
X281960984Y-188205756D01*
X281960984Y-188205756D02*
X282008603Y-188300994D01*
X282008603Y-188300994D02*
X282008603Y-188348613D01*
X282008603Y-188348613D02*
X281960984Y-188443851D01*
X281960984Y-188443851D02*
X281913365Y-188491470D01*
X281913365Y-188491470D02*
X281818127Y-188539089D01*
X281818127Y-188539089D02*
X281627651Y-188539089D01*
X281627651Y-188539089D02*
X281532413Y-188586708D01*
X281532413Y-188586708D02*
X281484794Y-188634327D01*
X281484794Y-188634327D02*
X281437175Y-188729565D01*
X281437175Y-188729565D02*
X281437175Y-188920041D01*
X281437175Y-188920041D02*
X281484794Y-189015279D01*
X281484794Y-189015279D02*
X281532413Y-189062899D01*
X281532413Y-189062899D02*
X281627651Y-189110518D01*
X281627651Y-189110518D02*
X281818127Y-189110518D01*
X281818127Y-189110518D02*
X281913365Y-189062899D01*
X281913365Y-189062899D02*
X281960984Y-189015279D01*
X281960984Y-189015279D02*
X282008603Y-188920041D01*
X282008603Y-188920041D02*
X282008603Y-188729565D01*
X282008603Y-188729565D02*
X281960984Y-188634327D01*
X281960984Y-188634327D02*
X281913365Y-188586708D01*
X281913365Y-188586708D02*
X281818127Y-188539089D01*
X326934794Y-188451520D02*
X326934794Y-187451520D01*
X326934794Y-187927710D02*
X327506222Y-187927710D01*
X327506222Y-188451520D02*
X327506222Y-187451520D01*
X328410984Y-187784853D02*
X328410984Y-188451520D01*
X328172889Y-187403901D02*
X327934794Y-188118186D01*
X327934794Y-188118186D02*
X328553841Y-188118186D01*
X251503841Y-109585279D02*
X251456222Y-109632899D01*
X251456222Y-109632899D02*
X251313365Y-109680518D01*
X251313365Y-109680518D02*
X251218127Y-109680518D01*
X251218127Y-109680518D02*
X251075270Y-109632899D01*
X251075270Y-109632899D02*
X250980032Y-109537660D01*
X250980032Y-109537660D02*
X250932413Y-109442422D01*
X250932413Y-109442422D02*
X250884794Y-109251946D01*
X250884794Y-109251946D02*
X250884794Y-109109089D01*
X250884794Y-109109089D02*
X250932413Y-108918613D01*
X250932413Y-108918613D02*
X250980032Y-108823375D01*
X250980032Y-108823375D02*
X251075270Y-108728137D01*
X251075270Y-108728137D02*
X251218127Y-108680518D01*
X251218127Y-108680518D02*
X251313365Y-108680518D01*
X251313365Y-108680518D02*
X251456222Y-108728137D01*
X251456222Y-108728137D02*
X251503841Y-108775756D01*
X252456222Y-109680518D02*
X251884794Y-109680518D01*
X252170508Y-109680518D02*
X252170508Y-108680518D01*
X252170508Y-108680518D02*
X252075270Y-108823375D01*
X252075270Y-108823375D02*
X251980032Y-108918613D01*
X251980032Y-108918613D02*
X251884794Y-108966232D01*
X253408603Y-109680518D02*
X252837175Y-109680518D01*
X253122889Y-109680518D02*
X253122889Y-108680518D01*
X253122889Y-108680518D02*
X253027651Y-108823375D01*
X253027651Y-108823375D02*
X252932413Y-108918613D01*
X252932413Y-108918613D02*
X252837175Y-108966232D01*
D12*
X102801461Y-107601737D02*
X102706223Y-107554118D01*
X102706223Y-107554118D02*
X102563366Y-107554118D01*
X102563366Y-107554118D02*
X102420509Y-107601737D01*
X102420509Y-107601737D02*
X102325271Y-107696975D01*
X102325271Y-107696975D02*
X102277652Y-107792213D01*
X102277652Y-107792213D02*
X102230033Y-107982689D01*
X102230033Y-107982689D02*
X102230033Y-108125546D01*
X102230033Y-108125546D02*
X102277652Y-108316022D01*
X102277652Y-108316022D02*
X102325271Y-108411260D01*
X102325271Y-108411260D02*
X102420509Y-108506499D01*
X102420509Y-108506499D02*
X102563366Y-108554118D01*
X102563366Y-108554118D02*
X102658604Y-108554118D01*
X102658604Y-108554118D02*
X102801461Y-108506499D01*
X102801461Y-108506499D02*
X102849080Y-108458879D01*
X102849080Y-108458879D02*
X102849080Y-108125546D01*
X102849080Y-108125546D02*
X102658604Y-108125546D01*
X103563366Y-107554118D02*
X103563366Y-108268403D01*
X103563366Y-108268403D02*
X103515747Y-108411260D01*
X103515747Y-108411260D02*
X103420509Y-108506499D01*
X103420509Y-108506499D02*
X103277652Y-108554118D01*
X103277652Y-108554118D02*
X103182414Y-108554118D01*
X104039557Y-108554118D02*
X104039557Y-107554118D01*
X104039557Y-107554118D02*
X104420509Y-107554118D01*
X104420509Y-107554118D02*
X104515747Y-107601737D01*
X104515747Y-107601737D02*
X104563366Y-107649356D01*
X104563366Y-107649356D02*
X104610985Y-107744594D01*
X104610985Y-107744594D02*
X104610985Y-107887451D01*
X104610985Y-107887451D02*
X104563366Y-107982689D01*
X104563366Y-107982689D02*
X104515747Y-108030308D01*
X104515747Y-108030308D02*
X104420509Y-108077927D01*
X104420509Y-108077927D02*
X104039557Y-108077927D01*
X105563366Y-108554118D02*
X104991938Y-108554118D01*
X105277652Y-108554118D02*
X105277652Y-107554118D01*
X105277652Y-107554118D02*
X105182414Y-107696975D01*
X105182414Y-107696975D02*
X105087176Y-107792213D01*
X105087176Y-107792213D02*
X104991938Y-107839832D01*
X118458604Y-73154120D02*
X118458604Y-72154120D01*
X118458604Y-72154120D02*
X118839556Y-72154120D01*
X118839556Y-72154120D02*
X118934794Y-72201739D01*
X118934794Y-72201739D02*
X118982413Y-72249358D01*
X118982413Y-72249358D02*
X119030032Y-72344596D01*
X119030032Y-72344596D02*
X119030032Y-72487453D01*
X119030032Y-72487453D02*
X118982413Y-72582691D01*
X118982413Y-72582691D02*
X118934794Y-72630310D01*
X118934794Y-72630310D02*
X118839556Y-72677929D01*
X118839556Y-72677929D02*
X118458604Y-72677929D01*
X119791937Y-72630310D02*
X119934794Y-72677929D01*
X119934794Y-72677929D02*
X119982413Y-72725548D01*
X119982413Y-72725548D02*
X120030032Y-72820786D01*
X120030032Y-72820786D02*
X120030032Y-72963643D01*
X120030032Y-72963643D02*
X119982413Y-73058881D01*
X119982413Y-73058881D02*
X119934794Y-73106501D01*
X119934794Y-73106501D02*
X119839556Y-73154120D01*
X119839556Y-73154120D02*
X119458604Y-73154120D01*
X119458604Y-73154120D02*
X119458604Y-72154120D01*
X119458604Y-72154120D02*
X119791937Y-72154120D01*
X119791937Y-72154120D02*
X119887175Y-72201739D01*
X119887175Y-72201739D02*
X119934794Y-72249358D01*
X119934794Y-72249358D02*
X119982413Y-72344596D01*
X119982413Y-72344596D02*
X119982413Y-72439834D01*
X119982413Y-72439834D02*
X119934794Y-72535072D01*
X119934794Y-72535072D02*
X119887175Y-72582691D01*
X119887175Y-72582691D02*
X119791937Y-72630310D01*
X119791937Y-72630310D02*
X119458604Y-72630310D01*
X120410985Y-72249358D02*
X120458604Y-72201739D01*
X120458604Y-72201739D02*
X120553842Y-72154120D01*
X120553842Y-72154120D02*
X120791937Y-72154120D01*
X120791937Y-72154120D02*
X120887175Y-72201739D01*
X120887175Y-72201739D02*
X120934794Y-72249358D01*
X120934794Y-72249358D02*
X120982413Y-72344596D01*
X120982413Y-72344596D02*
X120982413Y-72439834D01*
X120982413Y-72439834D02*
X120934794Y-72582691D01*
X120934794Y-72582691D02*
X120363366Y-73154120D01*
X120363366Y-73154120D02*
X120982413Y-73154120D01*
D11*
X317056279Y-175298556D02*
X317103899Y-175346175D01*
X317103899Y-175346175D02*
X317151518Y-175489032D01*
X317151518Y-175489032D02*
X317151518Y-175584270D01*
X317151518Y-175584270D02*
X317103899Y-175727127D01*
X317103899Y-175727127D02*
X317008660Y-175822365D01*
X317008660Y-175822365D02*
X316913422Y-175869984D01*
X316913422Y-175869984D02*
X316722946Y-175917603D01*
X316722946Y-175917603D02*
X316580089Y-175917603D01*
X316580089Y-175917603D02*
X316389613Y-175869984D01*
X316389613Y-175869984D02*
X316294375Y-175822365D01*
X316294375Y-175822365D02*
X316199137Y-175727127D01*
X316199137Y-175727127D02*
X316151518Y-175584270D01*
X316151518Y-175584270D02*
X316151518Y-175489032D01*
X316151518Y-175489032D02*
X316199137Y-175346175D01*
X316199137Y-175346175D02*
X316246756Y-175298556D01*
X317151518Y-174346175D02*
X317151518Y-174917603D01*
X317151518Y-174631889D02*
X316151518Y-174631889D01*
X316151518Y-174631889D02*
X316294375Y-174727127D01*
X316294375Y-174727127D02*
X316389613Y-174822365D01*
X316389613Y-174822365D02*
X316437232Y-174917603D01*
X316151518Y-174012841D02*
X316151518Y-173346175D01*
X316151518Y-173346175D02*
X317151518Y-173774746D01*
X66458604Y-76451520D02*
X66458604Y-75451520D01*
X66458604Y-75927710D02*
X67030032Y-75927710D01*
X67030032Y-76451520D02*
X67030032Y-75451520D01*
X68030032Y-76451520D02*
X67458604Y-76451520D01*
X67744318Y-76451520D02*
X67744318Y-75451520D01*
X67744318Y-75451520D02*
X67649080Y-75594377D01*
X67649080Y-75594377D02*
X67553842Y-75689615D01*
X67553842Y-75689615D02*
X67458604Y-75737234D01*
X68649080Y-75451520D02*
X68744318Y-75451520D01*
X68744318Y-75451520D02*
X68839556Y-75499139D01*
X68839556Y-75499139D02*
X68887175Y-75546758D01*
X68887175Y-75546758D02*
X68934794Y-75641996D01*
X68934794Y-75641996D02*
X68982413Y-75832472D01*
X68982413Y-75832472D02*
X68982413Y-76070567D01*
X68982413Y-76070567D02*
X68934794Y-76261043D01*
X68934794Y-76261043D02*
X68887175Y-76356281D01*
X68887175Y-76356281D02*
X68839556Y-76403901D01*
X68839556Y-76403901D02*
X68744318Y-76451520D01*
X68744318Y-76451520D02*
X68649080Y-76451520D01*
X68649080Y-76451520D02*
X68553842Y-76403901D01*
X68553842Y-76403901D02*
X68506223Y-76356281D01*
X68506223Y-76356281D02*
X68458604Y-76261043D01*
X68458604Y-76261043D02*
X68410985Y-76070567D01*
X68410985Y-76070567D02*
X68410985Y-75832472D01*
X68410985Y-75832472D02*
X68458604Y-75641996D01*
X68458604Y-75641996D02*
X68506223Y-75546758D01*
X68506223Y-75546758D02*
X68553842Y-75499139D01*
X68553842Y-75499139D02*
X68649080Y-75451520D01*
X232053841Y-79335279D02*
X232006222Y-79382899D01*
X232006222Y-79382899D02*
X231863365Y-79430518D01*
X231863365Y-79430518D02*
X231768127Y-79430518D01*
X231768127Y-79430518D02*
X231625270Y-79382899D01*
X231625270Y-79382899D02*
X231530032Y-79287660D01*
X231530032Y-79287660D02*
X231482413Y-79192422D01*
X231482413Y-79192422D02*
X231434794Y-79001946D01*
X231434794Y-79001946D02*
X231434794Y-78859089D01*
X231434794Y-78859089D02*
X231482413Y-78668613D01*
X231482413Y-78668613D02*
X231530032Y-78573375D01*
X231530032Y-78573375D02*
X231625270Y-78478137D01*
X231625270Y-78478137D02*
X231768127Y-78430518D01*
X231768127Y-78430518D02*
X231863365Y-78430518D01*
X231863365Y-78430518D02*
X232006222Y-78478137D01*
X232006222Y-78478137D02*
X232053841Y-78525756D01*
X233006222Y-79430518D02*
X232434794Y-79430518D01*
X232720508Y-79430518D02*
X232720508Y-78430518D01*
X232720508Y-78430518D02*
X232625270Y-78573375D01*
X232625270Y-78573375D02*
X232530032Y-78668613D01*
X232530032Y-78668613D02*
X232434794Y-78716232D01*
X233910984Y-78430518D02*
X233434794Y-78430518D01*
X233434794Y-78430518D02*
X233387175Y-78906708D01*
X233387175Y-78906708D02*
X233434794Y-78859089D01*
X233434794Y-78859089D02*
X233530032Y-78811470D01*
X233530032Y-78811470D02*
X233768127Y-78811470D01*
X233768127Y-78811470D02*
X233863365Y-78859089D01*
X233863365Y-78859089D02*
X233910984Y-78906708D01*
X233910984Y-78906708D02*
X233958603Y-79001946D01*
X233958603Y-79001946D02*
X233958603Y-79240041D01*
X233958603Y-79240041D02*
X233910984Y-79335279D01*
X233910984Y-79335279D02*
X233863365Y-79382899D01*
X233863365Y-79382899D02*
X233768127Y-79430518D01*
X233768127Y-79430518D02*
X233530032Y-79430518D01*
X233530032Y-79430518D02*
X233434794Y-79382899D01*
X233434794Y-79382899D02*
X233387175Y-79335279D01*
X290730032Y-141835279D02*
X290682413Y-141882899D01*
X290682413Y-141882899D02*
X290539556Y-141930518D01*
X290539556Y-141930518D02*
X290444318Y-141930518D01*
X290444318Y-141930518D02*
X290301461Y-141882899D01*
X290301461Y-141882899D02*
X290206223Y-141787660D01*
X290206223Y-141787660D02*
X290158604Y-141692422D01*
X290158604Y-141692422D02*
X290110985Y-141501946D01*
X290110985Y-141501946D02*
X290110985Y-141359089D01*
X290110985Y-141359089D02*
X290158604Y-141168613D01*
X290158604Y-141168613D02*
X290206223Y-141073375D01*
X290206223Y-141073375D02*
X290301461Y-140978137D01*
X290301461Y-140978137D02*
X290444318Y-140930518D01*
X290444318Y-140930518D02*
X290539556Y-140930518D01*
X290539556Y-140930518D02*
X290682413Y-140978137D01*
X290682413Y-140978137D02*
X290730032Y-141025756D01*
X291206223Y-141930518D02*
X291396699Y-141930518D01*
X291396699Y-141930518D02*
X291491937Y-141882899D01*
X291491937Y-141882899D02*
X291539556Y-141835279D01*
X291539556Y-141835279D02*
X291634794Y-141692422D01*
X291634794Y-141692422D02*
X291682413Y-141501946D01*
X291682413Y-141501946D02*
X291682413Y-141120994D01*
X291682413Y-141120994D02*
X291634794Y-141025756D01*
X291634794Y-141025756D02*
X291587175Y-140978137D01*
X291587175Y-140978137D02*
X291491937Y-140930518D01*
X291491937Y-140930518D02*
X291301461Y-140930518D01*
X291301461Y-140930518D02*
X291206223Y-140978137D01*
X291206223Y-140978137D02*
X291158604Y-141025756D01*
X291158604Y-141025756D02*
X291110985Y-141120994D01*
X291110985Y-141120994D02*
X291110985Y-141359089D01*
X291110985Y-141359089D02*
X291158604Y-141454327D01*
X291158604Y-141454327D02*
X291206223Y-141501946D01*
X291206223Y-141501946D02*
X291301461Y-141549565D01*
X291301461Y-141549565D02*
X291491937Y-141549565D01*
X291491937Y-141549565D02*
X291587175Y-141501946D01*
X291587175Y-141501946D02*
X291634794Y-141454327D01*
X291634794Y-141454327D02*
X291682413Y-141359089D01*
D12*
X192696699Y-112613118D02*
X192934794Y-113613118D01*
X192934794Y-113613118D02*
X193125270Y-112898832D01*
X193125270Y-112898832D02*
X193315746Y-113613118D01*
X193315746Y-113613118D02*
X193553842Y-112613118D01*
X193887175Y-113565499D02*
X194030032Y-113613118D01*
X194030032Y-113613118D02*
X194268127Y-113613118D01*
X194268127Y-113613118D02*
X194363365Y-113565499D01*
X194363365Y-113565499D02*
X194410984Y-113517879D01*
X194410984Y-113517879D02*
X194458603Y-113422641D01*
X194458603Y-113422641D02*
X194458603Y-113327403D01*
X194458603Y-113327403D02*
X194410984Y-113232165D01*
X194410984Y-113232165D02*
X194363365Y-113184546D01*
X194363365Y-113184546D02*
X194268127Y-113136927D01*
X194268127Y-113136927D02*
X194077651Y-113089308D01*
X194077651Y-113089308D02*
X193982413Y-113041689D01*
X193982413Y-113041689D02*
X193934794Y-112994070D01*
X193934794Y-112994070D02*
X193887175Y-112898832D01*
X193887175Y-112898832D02*
X193887175Y-112803594D01*
X193887175Y-112803594D02*
X193934794Y-112708356D01*
X193934794Y-112708356D02*
X193982413Y-112660737D01*
X193982413Y-112660737D02*
X194077651Y-112613118D01*
X194077651Y-112613118D02*
X194315746Y-112613118D01*
X194315746Y-112613118D02*
X194458603Y-112660737D01*
X194649080Y-113708356D02*
X195410984Y-113708356D01*
X195649080Y-113089308D02*
X195982413Y-113089308D01*
X196125270Y-113613118D02*
X195649080Y-113613118D01*
X195649080Y-113613118D02*
X195649080Y-112613118D01*
X195649080Y-112613118D02*
X196125270Y-112613118D01*
X196506223Y-113565499D02*
X196649080Y-113613118D01*
X196649080Y-113613118D02*
X196887175Y-113613118D01*
X196887175Y-113613118D02*
X196982413Y-113565499D01*
X196982413Y-113565499D02*
X197030032Y-113517879D01*
X197030032Y-113517879D02*
X197077651Y-113422641D01*
X197077651Y-113422641D02*
X197077651Y-113327403D01*
X197077651Y-113327403D02*
X197030032Y-113232165D01*
X197030032Y-113232165D02*
X196982413Y-113184546D01*
X196982413Y-113184546D02*
X196887175Y-113136927D01*
X196887175Y-113136927D02*
X196696699Y-113089308D01*
X196696699Y-113089308D02*
X196601461Y-113041689D01*
X196601461Y-113041689D02*
X196553842Y-112994070D01*
X196553842Y-112994070D02*
X196506223Y-112898832D01*
X196506223Y-112898832D02*
X196506223Y-112803594D01*
X196506223Y-112803594D02*
X196553842Y-112708356D01*
X196553842Y-112708356D02*
X196601461Y-112660737D01*
X196601461Y-112660737D02*
X196696699Y-112613118D01*
X196696699Y-112613118D02*
X196934794Y-112613118D01*
X196934794Y-112613118D02*
X197077651Y-112660737D01*
X197506223Y-113613118D02*
X197506223Y-112613118D01*
X197506223Y-112613118D02*
X197887175Y-112613118D01*
X197887175Y-112613118D02*
X197982413Y-112660737D01*
X197982413Y-112660737D02*
X198030032Y-112708356D01*
X198030032Y-112708356D02*
X198077651Y-112803594D01*
X198077651Y-112803594D02*
X198077651Y-112946451D01*
X198077651Y-112946451D02*
X198030032Y-113041689D01*
X198030032Y-113041689D02*
X197982413Y-113089308D01*
X197982413Y-113089308D02*
X197887175Y-113136927D01*
X197887175Y-113136927D02*
X197506223Y-113136927D01*
X198410985Y-112613118D02*
X199030032Y-112613118D01*
X199030032Y-112613118D02*
X198696699Y-112994070D01*
X198696699Y-112994070D02*
X198839556Y-112994070D01*
X198839556Y-112994070D02*
X198934794Y-113041689D01*
X198934794Y-113041689D02*
X198982413Y-113089308D01*
X198982413Y-113089308D02*
X199030032Y-113184546D01*
X199030032Y-113184546D02*
X199030032Y-113422641D01*
X199030032Y-113422641D02*
X198982413Y-113517879D01*
X198982413Y-113517879D02*
X198934794Y-113565499D01*
X198934794Y-113565499D02*
X198839556Y-113613118D01*
X198839556Y-113613118D02*
X198553842Y-113613118D01*
X198553842Y-113613118D02*
X198458604Y-113565499D01*
X198458604Y-113565499D02*
X198410985Y-113517879D01*
X199410985Y-112708356D02*
X199458604Y-112660737D01*
X199458604Y-112660737D02*
X199553842Y-112613118D01*
X199553842Y-112613118D02*
X199791937Y-112613118D01*
X199791937Y-112613118D02*
X199887175Y-112660737D01*
X199887175Y-112660737D02*
X199934794Y-112708356D01*
X199934794Y-112708356D02*
X199982413Y-112803594D01*
X199982413Y-112803594D02*
X199982413Y-112898832D01*
X199982413Y-112898832D02*
X199934794Y-113041689D01*
X199934794Y-113041689D02*
X199363366Y-113613118D01*
X199363366Y-113613118D02*
X199982413Y-113613118D01*
X200172890Y-113708356D02*
X200934794Y-113708356D01*
X201077652Y-112613118D02*
X201744318Y-112613118D01*
X201744318Y-112613118D02*
X201077652Y-113613118D01*
X201077652Y-113613118D02*
X201744318Y-113613118D01*
X202649080Y-113613118D02*
X202077652Y-113613118D01*
X202363366Y-113613118D02*
X202363366Y-112613118D01*
X202363366Y-112613118D02*
X202268128Y-112755975D01*
X202268128Y-112755975D02*
X202172890Y-112851213D01*
X202172890Y-112851213D02*
X202077652Y-112898832D01*
D11*
X136934794Y-196451520D02*
X136934794Y-195451520D01*
X136934794Y-195927710D02*
X137506222Y-195927710D01*
X137506222Y-196451520D02*
X137506222Y-195451520D01*
X137887175Y-195451520D02*
X138553841Y-195451520D01*
X138553841Y-195451520D02*
X138125270Y-196451520D01*
X229651518Y-73393793D02*
X228651518Y-73393793D01*
X228651518Y-73393793D02*
X228651518Y-73155698D01*
X228651518Y-73155698D02*
X228699137Y-73012841D01*
X228699137Y-73012841D02*
X228794375Y-72917603D01*
X228794375Y-72917603D02*
X228889613Y-72869984D01*
X228889613Y-72869984D02*
X229080089Y-72822365D01*
X229080089Y-72822365D02*
X229222946Y-72822365D01*
X229222946Y-72822365D02*
X229413422Y-72869984D01*
X229413422Y-72869984D02*
X229508660Y-72917603D01*
X229508660Y-72917603D02*
X229603899Y-73012841D01*
X229603899Y-73012841D02*
X229651518Y-73155698D01*
X229651518Y-73155698D02*
X229651518Y-73393793D01*
X229651518Y-71869984D02*
X229651518Y-72441412D01*
X229651518Y-72155698D02*
X228651518Y-72155698D01*
X228651518Y-72155698D02*
X228794375Y-72250936D01*
X228794375Y-72250936D02*
X228889613Y-72346174D01*
X228889613Y-72346174D02*
X228937232Y-72441412D01*
X231458994Y-76427127D02*
X231458994Y-76884270D01*
X231458994Y-76655698D02*
X230658994Y-76655698D01*
X230658994Y-76655698D02*
X230773279Y-76731889D01*
X230773279Y-76731889D02*
X230849470Y-76808079D01*
X230849470Y-76808079D02*
X230887565Y-76884270D01*
X66934794Y-141451520D02*
X66934794Y-140451520D01*
X66934794Y-140927710D02*
X67506222Y-140927710D01*
X67506222Y-141451520D02*
X67506222Y-140451520D01*
X68030032Y-141451520D02*
X68220508Y-141451520D01*
X68220508Y-141451520D02*
X68315746Y-141403901D01*
X68315746Y-141403901D02*
X68363365Y-141356281D01*
X68363365Y-141356281D02*
X68458603Y-141213424D01*
X68458603Y-141213424D02*
X68506222Y-141022948D01*
X68506222Y-141022948D02*
X68506222Y-140641996D01*
X68506222Y-140641996D02*
X68458603Y-140546758D01*
X68458603Y-140546758D02*
X68410984Y-140499139D01*
X68410984Y-140499139D02*
X68315746Y-140451520D01*
X68315746Y-140451520D02*
X68125270Y-140451520D01*
X68125270Y-140451520D02*
X68030032Y-140499139D01*
X68030032Y-140499139D02*
X67982413Y-140546758D01*
X67982413Y-140546758D02*
X67934794Y-140641996D01*
X67934794Y-140641996D02*
X67934794Y-140880091D01*
X67934794Y-140880091D02*
X67982413Y-140975329D01*
X67982413Y-140975329D02*
X68030032Y-141022948D01*
X68030032Y-141022948D02*
X68125270Y-141070567D01*
X68125270Y-141070567D02*
X68315746Y-141070567D01*
X68315746Y-141070567D02*
X68410984Y-141022948D01*
X68410984Y-141022948D02*
X68458603Y-140975329D01*
X68458603Y-140975329D02*
X68506222Y-140880091D01*
D12*
X161901459Y-122601737D02*
X161806221Y-122554118D01*
X161806221Y-122554118D02*
X161663364Y-122554118D01*
X161663364Y-122554118D02*
X161520507Y-122601737D01*
X161520507Y-122601737D02*
X161425269Y-122696975D01*
X161425269Y-122696975D02*
X161377650Y-122792213D01*
X161377650Y-122792213D02*
X161330031Y-122982689D01*
X161330031Y-122982689D02*
X161330031Y-123125546D01*
X161330031Y-123125546D02*
X161377650Y-123316022D01*
X161377650Y-123316022D02*
X161425269Y-123411260D01*
X161425269Y-123411260D02*
X161520507Y-123506499D01*
X161520507Y-123506499D02*
X161663364Y-123554118D01*
X161663364Y-123554118D02*
X161758602Y-123554118D01*
X161758602Y-123554118D02*
X161901459Y-123506499D01*
X161901459Y-123506499D02*
X161949078Y-123458879D01*
X161949078Y-123458879D02*
X161949078Y-123125546D01*
X161949078Y-123125546D02*
X161758602Y-123125546D01*
X162663364Y-122554118D02*
X162663364Y-123268403D01*
X162663364Y-123268403D02*
X162615745Y-123411260D01*
X162615745Y-123411260D02*
X162520507Y-123506499D01*
X162520507Y-123506499D02*
X162377650Y-123554118D01*
X162377650Y-123554118D02*
X162282412Y-123554118D01*
X163139555Y-123554118D02*
X163139555Y-122554118D01*
X163139555Y-122554118D02*
X163520507Y-122554118D01*
X163520507Y-122554118D02*
X163615745Y-122601737D01*
X163615745Y-122601737D02*
X163663364Y-122649356D01*
X163663364Y-122649356D02*
X163710983Y-122744594D01*
X163710983Y-122744594D02*
X163710983Y-122887451D01*
X163710983Y-122887451D02*
X163663364Y-122982689D01*
X163663364Y-122982689D02*
X163615745Y-123030308D01*
X163615745Y-123030308D02*
X163520507Y-123077927D01*
X163520507Y-123077927D02*
X163139555Y-123077927D01*
X164044317Y-122554118D02*
X164663364Y-122554118D01*
X164663364Y-122554118D02*
X164330031Y-122935070D01*
X164330031Y-122935070D02*
X164472888Y-122935070D01*
X164472888Y-122935070D02*
X164568126Y-122982689D01*
X164568126Y-122982689D02*
X164615745Y-123030308D01*
X164615745Y-123030308D02*
X164663364Y-123125546D01*
X164663364Y-123125546D02*
X164663364Y-123363641D01*
X164663364Y-123363641D02*
X164615745Y-123458879D01*
X164615745Y-123458879D02*
X164568126Y-123506499D01*
X164568126Y-123506499D02*
X164472888Y-123554118D01*
X164472888Y-123554118D02*
X164187174Y-123554118D01*
X164187174Y-123554118D02*
X164091936Y-123506499D01*
X164091936Y-123506499D02*
X164044317Y-123458879D01*
D11*
X283901517Y-198334793D02*
X282901517Y-198334793D01*
X282901517Y-198334793D02*
X282901517Y-198096698D01*
X282901517Y-198096698D02*
X282949136Y-197953841D01*
X282949136Y-197953841D02*
X283044374Y-197858603D01*
X283044374Y-197858603D02*
X283139612Y-197810984D01*
X283139612Y-197810984D02*
X283330088Y-197763365D01*
X283330088Y-197763365D02*
X283472945Y-197763365D01*
X283472945Y-197763365D02*
X283663421Y-197810984D01*
X283663421Y-197810984D02*
X283758659Y-197858603D01*
X283758659Y-197858603D02*
X283853898Y-197953841D01*
X283853898Y-197953841D02*
X283901517Y-198096698D01*
X283901517Y-198096698D02*
X283901517Y-198334793D01*
X283234850Y-196906222D02*
X283901517Y-196906222D01*
X282853898Y-197144317D02*
X283568183Y-197382412D01*
X283568183Y-197382412D02*
X283568183Y-196763365D01*
X283334403Y-194134270D02*
X283334403Y-193677127D01*
X283334403Y-193905699D02*
X284134403Y-193905699D01*
X284134403Y-193905699D02*
X284020118Y-193829508D01*
X284020118Y-193829508D02*
X283943927Y-193753318D01*
X283943927Y-193753318D02*
X283905832Y-193677127D01*
X134880031Y-124776279D02*
X134832412Y-124823899D01*
X134832412Y-124823899D02*
X134689555Y-124871518D01*
X134689555Y-124871518D02*
X134594317Y-124871518D01*
X134594317Y-124871518D02*
X134451460Y-124823899D01*
X134451460Y-124823899D02*
X134356222Y-124728660D01*
X134356222Y-124728660D02*
X134308603Y-124633422D01*
X134308603Y-124633422D02*
X134260984Y-124442946D01*
X134260984Y-124442946D02*
X134260984Y-124300089D01*
X134260984Y-124300089D02*
X134308603Y-124109613D01*
X134308603Y-124109613D02*
X134356222Y-124014375D01*
X134356222Y-124014375D02*
X134451460Y-123919137D01*
X134451460Y-123919137D02*
X134594317Y-123871518D01*
X134594317Y-123871518D02*
X134689555Y-123871518D01*
X134689555Y-123871518D02*
X134832412Y-123919137D01*
X134832412Y-123919137D02*
X134880031Y-123966756D01*
X135260984Y-123966756D02*
X135308603Y-123919137D01*
X135308603Y-123919137D02*
X135403841Y-123871518D01*
X135403841Y-123871518D02*
X135641936Y-123871518D01*
X135641936Y-123871518D02*
X135737174Y-123919137D01*
X135737174Y-123919137D02*
X135784793Y-123966756D01*
X135784793Y-123966756D02*
X135832412Y-124061994D01*
X135832412Y-124061994D02*
X135832412Y-124157232D01*
X135832412Y-124157232D02*
X135784793Y-124300089D01*
X135784793Y-124300089D02*
X135213365Y-124871518D01*
X135213365Y-124871518D02*
X135832412Y-124871518D01*
D12*
X290401459Y-123101737D02*
X290306221Y-123054118D01*
X290306221Y-123054118D02*
X290163364Y-123054118D01*
X290163364Y-123054118D02*
X290020507Y-123101737D01*
X290020507Y-123101737D02*
X289925269Y-123196975D01*
X289925269Y-123196975D02*
X289877650Y-123292213D01*
X289877650Y-123292213D02*
X289830031Y-123482689D01*
X289830031Y-123482689D02*
X289830031Y-123625546D01*
X289830031Y-123625546D02*
X289877650Y-123816022D01*
X289877650Y-123816022D02*
X289925269Y-123911260D01*
X289925269Y-123911260D02*
X290020507Y-124006499D01*
X290020507Y-124006499D02*
X290163364Y-124054118D01*
X290163364Y-124054118D02*
X290258602Y-124054118D01*
X290258602Y-124054118D02*
X290401459Y-124006499D01*
X290401459Y-124006499D02*
X290449078Y-123958879D01*
X290449078Y-123958879D02*
X290449078Y-123625546D01*
X290449078Y-123625546D02*
X290258602Y-123625546D01*
X291163364Y-123054118D02*
X291163364Y-123768403D01*
X291163364Y-123768403D02*
X291115745Y-123911260D01*
X291115745Y-123911260D02*
X291020507Y-124006499D01*
X291020507Y-124006499D02*
X290877650Y-124054118D01*
X290877650Y-124054118D02*
X290782412Y-124054118D01*
X291639555Y-124054118D02*
X291639555Y-123054118D01*
X291639555Y-123054118D02*
X292020507Y-123054118D01*
X292020507Y-123054118D02*
X292115745Y-123101737D01*
X292115745Y-123101737D02*
X292163364Y-123149356D01*
X292163364Y-123149356D02*
X292210983Y-123244594D01*
X292210983Y-123244594D02*
X292210983Y-123387451D01*
X292210983Y-123387451D02*
X292163364Y-123482689D01*
X292163364Y-123482689D02*
X292115745Y-123530308D01*
X292115745Y-123530308D02*
X292020507Y-123577927D01*
X292020507Y-123577927D02*
X291639555Y-123577927D01*
X292687174Y-124054118D02*
X292877650Y-124054118D01*
X292877650Y-124054118D02*
X292972888Y-124006499D01*
X292972888Y-124006499D02*
X293020507Y-123958879D01*
X293020507Y-123958879D02*
X293115745Y-123816022D01*
X293115745Y-123816022D02*
X293163364Y-123625546D01*
X293163364Y-123625546D02*
X293163364Y-123244594D01*
X293163364Y-123244594D02*
X293115745Y-123149356D01*
X293115745Y-123149356D02*
X293068126Y-123101737D01*
X293068126Y-123101737D02*
X292972888Y-123054118D01*
X292972888Y-123054118D02*
X292782412Y-123054118D01*
X292782412Y-123054118D02*
X292687174Y-123101737D01*
X292687174Y-123101737D02*
X292639555Y-123149356D01*
X292639555Y-123149356D02*
X292591936Y-123244594D01*
X292591936Y-123244594D02*
X292591936Y-123482689D01*
X292591936Y-123482689D02*
X292639555Y-123577927D01*
X292639555Y-123577927D02*
X292687174Y-123625546D01*
X292687174Y-123625546D02*
X292782412Y-123673165D01*
X292782412Y-123673165D02*
X292972888Y-123673165D01*
X292972888Y-123673165D02*
X293068126Y-123625546D01*
X293068126Y-123625546D02*
X293115745Y-123577927D01*
X293115745Y-123577927D02*
X293163364Y-123482689D01*
D11*
X319736279Y-101348556D02*
X319783899Y-101396175D01*
X319783899Y-101396175D02*
X319831518Y-101539032D01*
X319831518Y-101539032D02*
X319831518Y-101634270D01*
X319831518Y-101634270D02*
X319783899Y-101777127D01*
X319783899Y-101777127D02*
X319688660Y-101872365D01*
X319688660Y-101872365D02*
X319593422Y-101919984D01*
X319593422Y-101919984D02*
X319402946Y-101967603D01*
X319402946Y-101967603D02*
X319260089Y-101967603D01*
X319260089Y-101967603D02*
X319069613Y-101919984D01*
X319069613Y-101919984D02*
X318974375Y-101872365D01*
X318974375Y-101872365D02*
X318879137Y-101777127D01*
X318879137Y-101777127D02*
X318831518Y-101634270D01*
X318831518Y-101634270D02*
X318831518Y-101539032D01*
X318831518Y-101539032D02*
X318879137Y-101396175D01*
X318879137Y-101396175D02*
X318926756Y-101348556D01*
X319831518Y-100396175D02*
X319831518Y-100967603D01*
X319831518Y-100681889D02*
X318831518Y-100681889D01*
X318831518Y-100681889D02*
X318974375Y-100777127D01*
X318974375Y-100777127D02*
X319069613Y-100872365D01*
X319069613Y-100872365D02*
X319117232Y-100967603D01*
X318831518Y-99539032D02*
X318831518Y-99729508D01*
X318831518Y-99729508D02*
X318879137Y-99824746D01*
X318879137Y-99824746D02*
X318926756Y-99872365D01*
X318926756Y-99872365D02*
X319069613Y-99967603D01*
X319069613Y-99967603D02*
X319260089Y-100015222D01*
X319260089Y-100015222D02*
X319641041Y-100015222D01*
X319641041Y-100015222D02*
X319736279Y-99967603D01*
X319736279Y-99967603D02*
X319783899Y-99919984D01*
X319783899Y-99919984D02*
X319831518Y-99824746D01*
X319831518Y-99824746D02*
X319831518Y-99634270D01*
X319831518Y-99634270D02*
X319783899Y-99539032D01*
X319783899Y-99539032D02*
X319736279Y-99491413D01*
X319736279Y-99491413D02*
X319641041Y-99443794D01*
X319641041Y-99443794D02*
X319402946Y-99443794D01*
X319402946Y-99443794D02*
X319307708Y-99491413D01*
X319307708Y-99491413D02*
X319260089Y-99539032D01*
X319260089Y-99539032D02*
X319212470Y-99634270D01*
X319212470Y-99634270D02*
X319212470Y-99824746D01*
X319212470Y-99824746D02*
X319260089Y-99919984D01*
X319260089Y-99919984D02*
X319307708Y-99967603D01*
X319307708Y-99967603D02*
X319402946Y-100015222D01*
X326934794Y-76451520D02*
X326934794Y-75451520D01*
X326934794Y-75927710D02*
X327506222Y-75927710D01*
X327506222Y-76451520D02*
X327506222Y-75451520D01*
X327934794Y-75546758D02*
X327982413Y-75499139D01*
X327982413Y-75499139D02*
X328077651Y-75451520D01*
X328077651Y-75451520D02*
X328315746Y-75451520D01*
X328315746Y-75451520D02*
X328410984Y-75499139D01*
X328410984Y-75499139D02*
X328458603Y-75546758D01*
X328458603Y-75546758D02*
X328506222Y-75641996D01*
X328506222Y-75641996D02*
X328506222Y-75737234D01*
X328506222Y-75737234D02*
X328458603Y-75880091D01*
X328458603Y-75880091D02*
X327887175Y-76451520D01*
X327887175Y-76451520D02*
X328506222Y-76451520D01*
D12*
X103458604Y-72654120D02*
X103458604Y-71654120D01*
X103458604Y-71654120D02*
X103839556Y-71654120D01*
X103839556Y-71654120D02*
X103934794Y-71701739D01*
X103934794Y-71701739D02*
X103982413Y-71749358D01*
X103982413Y-71749358D02*
X104030032Y-71844596D01*
X104030032Y-71844596D02*
X104030032Y-71987453D01*
X104030032Y-71987453D02*
X103982413Y-72082691D01*
X103982413Y-72082691D02*
X103934794Y-72130310D01*
X103934794Y-72130310D02*
X103839556Y-72177929D01*
X103839556Y-72177929D02*
X103458604Y-72177929D01*
X104791937Y-72130310D02*
X104934794Y-72177929D01*
X104934794Y-72177929D02*
X104982413Y-72225548D01*
X104982413Y-72225548D02*
X105030032Y-72320786D01*
X105030032Y-72320786D02*
X105030032Y-72463643D01*
X105030032Y-72463643D02*
X104982413Y-72558881D01*
X104982413Y-72558881D02*
X104934794Y-72606501D01*
X104934794Y-72606501D02*
X104839556Y-72654120D01*
X104839556Y-72654120D02*
X104458604Y-72654120D01*
X104458604Y-72654120D02*
X104458604Y-71654120D01*
X104458604Y-71654120D02*
X104791937Y-71654120D01*
X104791937Y-71654120D02*
X104887175Y-71701739D01*
X104887175Y-71701739D02*
X104934794Y-71749358D01*
X104934794Y-71749358D02*
X104982413Y-71844596D01*
X104982413Y-71844596D02*
X104982413Y-71939834D01*
X104982413Y-71939834D02*
X104934794Y-72035072D01*
X104934794Y-72035072D02*
X104887175Y-72082691D01*
X104887175Y-72082691D02*
X104791937Y-72130310D01*
X104791937Y-72130310D02*
X104458604Y-72130310D01*
X105982413Y-72654120D02*
X105410985Y-72654120D01*
X105696699Y-72654120D02*
X105696699Y-71654120D01*
X105696699Y-71654120D02*
X105601461Y-71796977D01*
X105601461Y-71796977D02*
X105506223Y-71892215D01*
X105506223Y-71892215D02*
X105410985Y-71939834D01*
D11*
X326934794Y-141451520D02*
X326934794Y-140451520D01*
X326934794Y-140927710D02*
X327506222Y-140927710D01*
X327506222Y-141451520D02*
X327506222Y-140451520D01*
X327887175Y-140451520D02*
X328506222Y-140451520D01*
X328506222Y-140451520D02*
X328172889Y-140832472D01*
X328172889Y-140832472D02*
X328315746Y-140832472D01*
X328315746Y-140832472D02*
X328410984Y-140880091D01*
X328410984Y-140880091D02*
X328458603Y-140927710D01*
X328458603Y-140927710D02*
X328506222Y-141022948D01*
X328506222Y-141022948D02*
X328506222Y-141261043D01*
X328506222Y-141261043D02*
X328458603Y-141356281D01*
X328458603Y-141356281D02*
X328410984Y-141403901D01*
X328410984Y-141403901D02*
X328315746Y-141451520D01*
X328315746Y-141451520D02*
X328030032Y-141451520D01*
X328030032Y-141451520D02*
X327934794Y-141403901D01*
X327934794Y-141403901D02*
X327887175Y-141356281D01*
X117053841Y-187515279D02*
X117006222Y-187562899D01*
X117006222Y-187562899D02*
X116863365Y-187610518D01*
X116863365Y-187610518D02*
X116768127Y-187610518D01*
X116768127Y-187610518D02*
X116625270Y-187562899D01*
X116625270Y-187562899D02*
X116530032Y-187467660D01*
X116530032Y-187467660D02*
X116482413Y-187372422D01*
X116482413Y-187372422D02*
X116434794Y-187181946D01*
X116434794Y-187181946D02*
X116434794Y-187039089D01*
X116434794Y-187039089D02*
X116482413Y-186848613D01*
X116482413Y-186848613D02*
X116530032Y-186753375D01*
X116530032Y-186753375D02*
X116625270Y-186658137D01*
X116625270Y-186658137D02*
X116768127Y-186610518D01*
X116768127Y-186610518D02*
X116863365Y-186610518D01*
X116863365Y-186610518D02*
X117006222Y-186658137D01*
X117006222Y-186658137D02*
X117053841Y-186705756D01*
X118006222Y-187610518D02*
X117434794Y-187610518D01*
X117720508Y-187610518D02*
X117720508Y-186610518D01*
X117720508Y-186610518D02*
X117625270Y-186753375D01*
X117625270Y-186753375D02*
X117530032Y-186848613D01*
X117530032Y-186848613D02*
X117434794Y-186896232D01*
X118482413Y-187610518D02*
X118672889Y-187610518D01*
X118672889Y-187610518D02*
X118768127Y-187562899D01*
X118768127Y-187562899D02*
X118815746Y-187515279D01*
X118815746Y-187515279D02*
X118910984Y-187372422D01*
X118910984Y-187372422D02*
X118958603Y-187181946D01*
X118958603Y-187181946D02*
X118958603Y-186800994D01*
X118958603Y-186800994D02*
X118910984Y-186705756D01*
X118910984Y-186705756D02*
X118863365Y-186658137D01*
X118863365Y-186658137D02*
X118768127Y-186610518D01*
X118768127Y-186610518D02*
X118577651Y-186610518D01*
X118577651Y-186610518D02*
X118482413Y-186658137D01*
X118482413Y-186658137D02*
X118434794Y-186705756D01*
X118434794Y-186705756D02*
X118387175Y-186800994D01*
X118387175Y-186800994D02*
X118387175Y-187039089D01*
X118387175Y-187039089D02*
X118434794Y-187134327D01*
X118434794Y-187134327D02*
X118482413Y-187181946D01*
X118482413Y-187181946D02*
X118577651Y-187229565D01*
X118577651Y-187229565D02*
X118768127Y-187229565D01*
X118768127Y-187229565D02*
X118863365Y-187181946D01*
X118863365Y-187181946D02*
X118910984Y-187134327D01*
X118910984Y-187134327D02*
X118958603Y-187039089D01*
D12*
X285925269Y-92101737D02*
X285830031Y-92054118D01*
X285830031Y-92054118D02*
X285687174Y-92054118D01*
X285687174Y-92054118D02*
X285544317Y-92101737D01*
X285544317Y-92101737D02*
X285449079Y-92196975D01*
X285449079Y-92196975D02*
X285401460Y-92292213D01*
X285401460Y-92292213D02*
X285353841Y-92482689D01*
X285353841Y-92482689D02*
X285353841Y-92625546D01*
X285353841Y-92625546D02*
X285401460Y-92816022D01*
X285401460Y-92816022D02*
X285449079Y-92911260D01*
X285449079Y-92911260D02*
X285544317Y-93006499D01*
X285544317Y-93006499D02*
X285687174Y-93054118D01*
X285687174Y-93054118D02*
X285782412Y-93054118D01*
X285782412Y-93054118D02*
X285925269Y-93006499D01*
X285925269Y-93006499D02*
X285972888Y-92958879D01*
X285972888Y-92958879D02*
X285972888Y-92625546D01*
X285972888Y-92625546D02*
X285782412Y-92625546D01*
X286687174Y-92054118D02*
X286687174Y-92768403D01*
X286687174Y-92768403D02*
X286639555Y-92911260D01*
X286639555Y-92911260D02*
X286544317Y-93006499D01*
X286544317Y-93006499D02*
X286401460Y-93054118D01*
X286401460Y-93054118D02*
X286306222Y-93054118D01*
X287163365Y-93054118D02*
X287163365Y-92054118D01*
X287163365Y-92054118D02*
X287544317Y-92054118D01*
X287544317Y-92054118D02*
X287639555Y-92101737D01*
X287639555Y-92101737D02*
X287687174Y-92149356D01*
X287687174Y-92149356D02*
X287734793Y-92244594D01*
X287734793Y-92244594D02*
X287734793Y-92387451D01*
X287734793Y-92387451D02*
X287687174Y-92482689D01*
X287687174Y-92482689D02*
X287639555Y-92530308D01*
X287639555Y-92530308D02*
X287544317Y-92577927D01*
X287544317Y-92577927D02*
X287163365Y-92577927D01*
X288687174Y-93054118D02*
X288115746Y-93054118D01*
X288401460Y-93054118D02*
X288401460Y-92054118D01*
X288401460Y-92054118D02*
X288306222Y-92196975D01*
X288306222Y-92196975D02*
X288210984Y-92292213D01*
X288210984Y-92292213D02*
X288115746Y-92339832D01*
X289068127Y-92149356D02*
X289115746Y-92101737D01*
X289115746Y-92101737D02*
X289210984Y-92054118D01*
X289210984Y-92054118D02*
X289449079Y-92054118D01*
X289449079Y-92054118D02*
X289544317Y-92101737D01*
X289544317Y-92101737D02*
X289591936Y-92149356D01*
X289591936Y-92149356D02*
X289639555Y-92244594D01*
X289639555Y-92244594D02*
X289639555Y-92339832D01*
X289639555Y-92339832D02*
X289591936Y-92482689D01*
X289591936Y-92482689D02*
X289020508Y-93054118D01*
X289020508Y-93054118D02*
X289639555Y-93054118D01*
D11*
X121001517Y-197484793D02*
X120001517Y-197484793D01*
X120001517Y-197484793D02*
X120001517Y-197246698D01*
X120001517Y-197246698D02*
X120049136Y-197103841D01*
X120049136Y-197103841D02*
X120144374Y-197008603D01*
X120144374Y-197008603D02*
X120239612Y-196960984D01*
X120239612Y-196960984D02*
X120430088Y-196913365D01*
X120430088Y-196913365D02*
X120572945Y-196913365D01*
X120572945Y-196913365D02*
X120763421Y-196960984D01*
X120763421Y-196960984D02*
X120858659Y-197008603D01*
X120858659Y-197008603D02*
X120953898Y-197103841D01*
X120953898Y-197103841D02*
X121001517Y-197246698D01*
X121001517Y-197246698D02*
X121001517Y-197484793D01*
X120001517Y-196008603D02*
X120001517Y-196484793D01*
X120001517Y-196484793D02*
X120477707Y-196532412D01*
X120477707Y-196532412D02*
X120430088Y-196484793D01*
X120430088Y-196484793D02*
X120382469Y-196389555D01*
X120382469Y-196389555D02*
X120382469Y-196151460D01*
X120382469Y-196151460D02*
X120430088Y-196056222D01*
X120430088Y-196056222D02*
X120477707Y-196008603D01*
X120477707Y-196008603D02*
X120572945Y-195960984D01*
X120572945Y-195960984D02*
X120811040Y-195960984D01*
X120811040Y-195960984D02*
X120906278Y-196008603D01*
X120906278Y-196008603D02*
X120953898Y-196056222D01*
X120953898Y-196056222D02*
X121001517Y-196151460D01*
X121001517Y-196151460D02*
X121001517Y-196389555D01*
X121001517Y-196389555D02*
X120953898Y-196484793D01*
X120953898Y-196484793D02*
X120906278Y-196532412D01*
X118284402Y-192975270D02*
X118284402Y-192518127D01*
X118284402Y-192746699D02*
X119084402Y-192746699D01*
X119084402Y-192746699D02*
X118970117Y-192670508D01*
X118970117Y-192670508D02*
X118893926Y-192594318D01*
X118893926Y-192594318D02*
X118855831Y-192518127D01*
X176283604Y-68451520D02*
X176283604Y-67451520D01*
X176283604Y-67927710D02*
X176855032Y-67927710D01*
X176855032Y-68451520D02*
X176855032Y-67451520D01*
X177855032Y-68451520D02*
X177283604Y-68451520D01*
X177569318Y-68451520D02*
X177569318Y-67451520D01*
X177569318Y-67451520D02*
X177474080Y-67594377D01*
X177474080Y-67594377D02*
X177378842Y-67689615D01*
X177378842Y-67689615D02*
X177283604Y-67737234D01*
X178807413Y-68451520D02*
X178235985Y-68451520D01*
X178521699Y-68451520D02*
X178521699Y-67451520D01*
X178521699Y-67451520D02*
X178426461Y-67594377D01*
X178426461Y-67594377D02*
X178331223Y-67689615D01*
X178331223Y-67689615D02*
X178235985Y-67737234D01*
X324958604Y-97610518D02*
X324958604Y-96610518D01*
X324958604Y-96610518D02*
X325196699Y-96610518D01*
X325196699Y-96610518D02*
X325339556Y-96658137D01*
X325339556Y-96658137D02*
X325434794Y-96753375D01*
X325434794Y-96753375D02*
X325482413Y-96848613D01*
X325482413Y-96848613D02*
X325530032Y-97039089D01*
X325530032Y-97039089D02*
X325530032Y-97181946D01*
X325530032Y-97181946D02*
X325482413Y-97372422D01*
X325482413Y-97372422D02*
X325434794Y-97467660D01*
X325434794Y-97467660D02*
X325339556Y-97562899D01*
X325339556Y-97562899D02*
X325196699Y-97610518D01*
X325196699Y-97610518D02*
X324958604Y-97610518D01*
X325910985Y-96705756D02*
X325958604Y-96658137D01*
X325958604Y-96658137D02*
X326053842Y-96610518D01*
X326053842Y-96610518D02*
X326291937Y-96610518D01*
X326291937Y-96610518D02*
X326387175Y-96658137D01*
X326387175Y-96658137D02*
X326434794Y-96705756D01*
X326434794Y-96705756D02*
X326482413Y-96800994D01*
X326482413Y-96800994D02*
X326482413Y-96896232D01*
X326482413Y-96896232D02*
X326434794Y-97039089D01*
X326434794Y-97039089D02*
X325863366Y-97610518D01*
X325863366Y-97610518D02*
X326482413Y-97610518D01*
X321925270Y-99417994D02*
X321468127Y-99417994D01*
X321696699Y-99417994D02*
X321696699Y-98617994D01*
X321696699Y-98617994D02*
X321620508Y-98732279D01*
X321620508Y-98732279D02*
X321544318Y-98808470D01*
X321544318Y-98808470D02*
X321468127Y-98846565D01*
X68958604Y-104610518D02*
X68958604Y-103610518D01*
X68958604Y-103610518D02*
X69196699Y-103610518D01*
X69196699Y-103610518D02*
X69339556Y-103658137D01*
X69339556Y-103658137D02*
X69434794Y-103753375D01*
X69434794Y-103753375D02*
X69482413Y-103848613D01*
X69482413Y-103848613D02*
X69530032Y-104039089D01*
X69530032Y-104039089D02*
X69530032Y-104181946D01*
X69530032Y-104181946D02*
X69482413Y-104372422D01*
X69482413Y-104372422D02*
X69434794Y-104467660D01*
X69434794Y-104467660D02*
X69339556Y-104562899D01*
X69339556Y-104562899D02*
X69196699Y-104610518D01*
X69196699Y-104610518D02*
X68958604Y-104610518D01*
X69863366Y-103610518D02*
X70530032Y-103610518D01*
X70530032Y-103610518D02*
X70101461Y-104610518D01*
X73468127Y-101893403D02*
X73925270Y-101893403D01*
X73696698Y-101893403D02*
X73696698Y-102693403D01*
X73696698Y-102693403D02*
X73772889Y-102579118D01*
X73772889Y-102579118D02*
X73849079Y-102502927D01*
X73849079Y-102502927D02*
X73925270Y-102464832D01*
D12*
X252925269Y-92601737D02*
X252830031Y-92554118D01*
X252830031Y-92554118D02*
X252687174Y-92554118D01*
X252687174Y-92554118D02*
X252544317Y-92601737D01*
X252544317Y-92601737D02*
X252449079Y-92696975D01*
X252449079Y-92696975D02*
X252401460Y-92792213D01*
X252401460Y-92792213D02*
X252353841Y-92982689D01*
X252353841Y-92982689D02*
X252353841Y-93125546D01*
X252353841Y-93125546D02*
X252401460Y-93316022D01*
X252401460Y-93316022D02*
X252449079Y-93411260D01*
X252449079Y-93411260D02*
X252544317Y-93506499D01*
X252544317Y-93506499D02*
X252687174Y-93554118D01*
X252687174Y-93554118D02*
X252782412Y-93554118D01*
X252782412Y-93554118D02*
X252925269Y-93506499D01*
X252925269Y-93506499D02*
X252972888Y-93458879D01*
X252972888Y-93458879D02*
X252972888Y-93125546D01*
X252972888Y-93125546D02*
X252782412Y-93125546D01*
X253687174Y-92554118D02*
X253687174Y-93268403D01*
X253687174Y-93268403D02*
X253639555Y-93411260D01*
X253639555Y-93411260D02*
X253544317Y-93506499D01*
X253544317Y-93506499D02*
X253401460Y-93554118D01*
X253401460Y-93554118D02*
X253306222Y-93554118D01*
X254163365Y-93554118D02*
X254163365Y-92554118D01*
X254163365Y-92554118D02*
X254544317Y-92554118D01*
X254544317Y-92554118D02*
X254639555Y-92601737D01*
X254639555Y-92601737D02*
X254687174Y-92649356D01*
X254687174Y-92649356D02*
X254734793Y-92744594D01*
X254734793Y-92744594D02*
X254734793Y-92887451D01*
X254734793Y-92887451D02*
X254687174Y-92982689D01*
X254687174Y-92982689D02*
X254639555Y-93030308D01*
X254639555Y-93030308D02*
X254544317Y-93077927D01*
X254544317Y-93077927D02*
X254163365Y-93077927D01*
X255687174Y-93554118D02*
X255115746Y-93554118D01*
X255401460Y-93554118D02*
X255401460Y-92554118D01*
X255401460Y-92554118D02*
X255306222Y-92696975D01*
X255306222Y-92696975D02*
X255210984Y-92792213D01*
X255210984Y-92792213D02*
X255115746Y-92839832D01*
X256639555Y-93554118D02*
X256068127Y-93554118D01*
X256353841Y-93554118D02*
X256353841Y-92554118D01*
X256353841Y-92554118D02*
X256258603Y-92696975D01*
X256258603Y-92696975D02*
X256163365Y-92792213D01*
X256163365Y-92792213D02*
X256068127Y-92839832D01*
D11*
X258330032Y-140585279D02*
X258282413Y-140632899D01*
X258282413Y-140632899D02*
X258139556Y-140680518D01*
X258139556Y-140680518D02*
X258044318Y-140680518D01*
X258044318Y-140680518D02*
X257901461Y-140632899D01*
X257901461Y-140632899D02*
X257806223Y-140537660D01*
X257806223Y-140537660D02*
X257758604Y-140442422D01*
X257758604Y-140442422D02*
X257710985Y-140251946D01*
X257710985Y-140251946D02*
X257710985Y-140109089D01*
X257710985Y-140109089D02*
X257758604Y-139918613D01*
X257758604Y-139918613D02*
X257806223Y-139823375D01*
X257806223Y-139823375D02*
X257901461Y-139728137D01*
X257901461Y-139728137D02*
X258044318Y-139680518D01*
X258044318Y-139680518D02*
X258139556Y-139680518D01*
X258139556Y-139680518D02*
X258282413Y-139728137D01*
X258282413Y-139728137D02*
X258330032Y-139775756D01*
X258901461Y-140109089D02*
X258806223Y-140061470D01*
X258806223Y-140061470D02*
X258758604Y-140013851D01*
X258758604Y-140013851D02*
X258710985Y-139918613D01*
X258710985Y-139918613D02*
X258710985Y-139870994D01*
X258710985Y-139870994D02*
X258758604Y-139775756D01*
X258758604Y-139775756D02*
X258806223Y-139728137D01*
X258806223Y-139728137D02*
X258901461Y-139680518D01*
X258901461Y-139680518D02*
X259091937Y-139680518D01*
X259091937Y-139680518D02*
X259187175Y-139728137D01*
X259187175Y-139728137D02*
X259234794Y-139775756D01*
X259234794Y-139775756D02*
X259282413Y-139870994D01*
X259282413Y-139870994D02*
X259282413Y-139918613D01*
X259282413Y-139918613D02*
X259234794Y-140013851D01*
X259234794Y-140013851D02*
X259187175Y-140061470D01*
X259187175Y-140061470D02*
X259091937Y-140109089D01*
X259091937Y-140109089D02*
X258901461Y-140109089D01*
X258901461Y-140109089D02*
X258806223Y-140156708D01*
X258806223Y-140156708D02*
X258758604Y-140204327D01*
X258758604Y-140204327D02*
X258710985Y-140299565D01*
X258710985Y-140299565D02*
X258710985Y-140490041D01*
X258710985Y-140490041D02*
X258758604Y-140585279D01*
X258758604Y-140585279D02*
X258806223Y-140632899D01*
X258806223Y-140632899D02*
X258901461Y-140680518D01*
X258901461Y-140680518D02*
X259091937Y-140680518D01*
X259091937Y-140680518D02*
X259187175Y-140632899D01*
X259187175Y-140632899D02*
X259234794Y-140585279D01*
X259234794Y-140585279D02*
X259282413Y-140490041D01*
X259282413Y-140490041D02*
X259282413Y-140299565D01*
X259282413Y-140299565D02*
X259234794Y-140204327D01*
X259234794Y-140204327D02*
X259187175Y-140156708D01*
X259187175Y-140156708D02*
X259091937Y-140109089D01*
X102780031Y-124776279D02*
X102732412Y-124823899D01*
X102732412Y-124823899D02*
X102589555Y-124871518D01*
X102589555Y-124871518D02*
X102494317Y-124871518D01*
X102494317Y-124871518D02*
X102351460Y-124823899D01*
X102351460Y-124823899D02*
X102256222Y-124728660D01*
X102256222Y-124728660D02*
X102208603Y-124633422D01*
X102208603Y-124633422D02*
X102160984Y-124442946D01*
X102160984Y-124442946D02*
X102160984Y-124300089D01*
X102160984Y-124300089D02*
X102208603Y-124109613D01*
X102208603Y-124109613D02*
X102256222Y-124014375D01*
X102256222Y-124014375D02*
X102351460Y-123919137D01*
X102351460Y-123919137D02*
X102494317Y-123871518D01*
X102494317Y-123871518D02*
X102589555Y-123871518D01*
X102589555Y-123871518D02*
X102732412Y-123919137D01*
X102732412Y-123919137D02*
X102780031Y-123966756D01*
X103732412Y-124871518D02*
X103160984Y-124871518D01*
X103446698Y-124871518D02*
X103446698Y-123871518D01*
X103446698Y-123871518D02*
X103351460Y-124014375D01*
X103351460Y-124014375D02*
X103256222Y-124109613D01*
X103256222Y-124109613D02*
X103160984Y-124157232D01*
X161553841Y-82515279D02*
X161506222Y-82562899D01*
X161506222Y-82562899D02*
X161363365Y-82610518D01*
X161363365Y-82610518D02*
X161268127Y-82610518D01*
X161268127Y-82610518D02*
X161125270Y-82562899D01*
X161125270Y-82562899D02*
X161030032Y-82467660D01*
X161030032Y-82467660D02*
X160982413Y-82372422D01*
X160982413Y-82372422D02*
X160934794Y-82181946D01*
X160934794Y-82181946D02*
X160934794Y-82039089D01*
X160934794Y-82039089D02*
X160982413Y-81848613D01*
X160982413Y-81848613D02*
X161030032Y-81753375D01*
X161030032Y-81753375D02*
X161125270Y-81658137D01*
X161125270Y-81658137D02*
X161268127Y-81610518D01*
X161268127Y-81610518D02*
X161363365Y-81610518D01*
X161363365Y-81610518D02*
X161506222Y-81658137D01*
X161506222Y-81658137D02*
X161553841Y-81705756D01*
X161934794Y-81705756D02*
X161982413Y-81658137D01*
X161982413Y-81658137D02*
X162077651Y-81610518D01*
X162077651Y-81610518D02*
X162315746Y-81610518D01*
X162315746Y-81610518D02*
X162410984Y-81658137D01*
X162410984Y-81658137D02*
X162458603Y-81705756D01*
X162458603Y-81705756D02*
X162506222Y-81800994D01*
X162506222Y-81800994D02*
X162506222Y-81896232D01*
X162506222Y-81896232D02*
X162458603Y-82039089D01*
X162458603Y-82039089D02*
X161887175Y-82610518D01*
X161887175Y-82610518D02*
X162506222Y-82610518D01*
X163458603Y-82610518D02*
X162887175Y-82610518D01*
X163172889Y-82610518D02*
X163172889Y-81610518D01*
X163172889Y-81610518D02*
X163077651Y-81753375D01*
X163077651Y-81753375D02*
X162982413Y-81848613D01*
X162982413Y-81848613D02*
X162887175Y-81896232D01*
X286053841Y-109265279D02*
X286006222Y-109312899D01*
X286006222Y-109312899D02*
X285863365Y-109360518D01*
X285863365Y-109360518D02*
X285768127Y-109360518D01*
X285768127Y-109360518D02*
X285625270Y-109312899D01*
X285625270Y-109312899D02*
X285530032Y-109217660D01*
X285530032Y-109217660D02*
X285482413Y-109122422D01*
X285482413Y-109122422D02*
X285434794Y-108931946D01*
X285434794Y-108931946D02*
X285434794Y-108789089D01*
X285434794Y-108789089D02*
X285482413Y-108598613D01*
X285482413Y-108598613D02*
X285530032Y-108503375D01*
X285530032Y-108503375D02*
X285625270Y-108408137D01*
X285625270Y-108408137D02*
X285768127Y-108360518D01*
X285768127Y-108360518D02*
X285863365Y-108360518D01*
X285863365Y-108360518D02*
X286006222Y-108408137D01*
X286006222Y-108408137D02*
X286053841Y-108455756D01*
X287006222Y-109360518D02*
X286434794Y-109360518D01*
X286720508Y-109360518D02*
X286720508Y-108360518D01*
X286720508Y-108360518D02*
X286625270Y-108503375D01*
X286625270Y-108503375D02*
X286530032Y-108598613D01*
X286530032Y-108598613D02*
X286434794Y-108646232D01*
X287387175Y-108455756D02*
X287434794Y-108408137D01*
X287434794Y-108408137D02*
X287530032Y-108360518D01*
X287530032Y-108360518D02*
X287768127Y-108360518D01*
X287768127Y-108360518D02*
X287863365Y-108408137D01*
X287863365Y-108408137D02*
X287910984Y-108455756D01*
X287910984Y-108455756D02*
X287958603Y-108550994D01*
X287958603Y-108550994D02*
X287958603Y-108646232D01*
X287958603Y-108646232D02*
X287910984Y-108789089D01*
X287910984Y-108789089D02*
X287339556Y-109360518D01*
X287339556Y-109360518D02*
X287958603Y-109360518D01*
X196934794Y-196451520D02*
X196934794Y-195451520D01*
X196934794Y-195927710D02*
X197506222Y-195927710D01*
X197506222Y-196451520D02*
X197506222Y-195451520D01*
X198410984Y-195451520D02*
X198220508Y-195451520D01*
X198220508Y-195451520D02*
X198125270Y-195499139D01*
X198125270Y-195499139D02*
X198077651Y-195546758D01*
X198077651Y-195546758D02*
X197982413Y-195689615D01*
X197982413Y-195689615D02*
X197934794Y-195880091D01*
X197934794Y-195880091D02*
X197934794Y-196261043D01*
X197934794Y-196261043D02*
X197982413Y-196356281D01*
X197982413Y-196356281D02*
X198030032Y-196403901D01*
X198030032Y-196403901D02*
X198125270Y-196451520D01*
X198125270Y-196451520D02*
X198315746Y-196451520D01*
X198315746Y-196451520D02*
X198410984Y-196403901D01*
X198410984Y-196403901D02*
X198458603Y-196356281D01*
X198458603Y-196356281D02*
X198506222Y-196261043D01*
X198506222Y-196261043D02*
X198506222Y-196022948D01*
X198506222Y-196022948D02*
X198458603Y-195927710D01*
X198458603Y-195927710D02*
X198410984Y-195880091D01*
X198410984Y-195880091D02*
X198315746Y-195832472D01*
X198315746Y-195832472D02*
X198125270Y-195832472D01*
X198125270Y-195832472D02*
X198030032Y-195880091D01*
X198030032Y-195880091D02*
X197982413Y-195927710D01*
X197982413Y-195927710D02*
X197934794Y-196022948D01*
D12*
X284458604Y-73154120D02*
X284458604Y-72154120D01*
X284458604Y-72154120D02*
X284839556Y-72154120D01*
X284839556Y-72154120D02*
X284934794Y-72201739D01*
X284934794Y-72201739D02*
X284982413Y-72249358D01*
X284982413Y-72249358D02*
X285030032Y-72344596D01*
X285030032Y-72344596D02*
X285030032Y-72487453D01*
X285030032Y-72487453D02*
X284982413Y-72582691D01*
X284982413Y-72582691D02*
X284934794Y-72630310D01*
X284934794Y-72630310D02*
X284839556Y-72677929D01*
X284839556Y-72677929D02*
X284458604Y-72677929D01*
X285791937Y-72630310D02*
X285934794Y-72677929D01*
X285934794Y-72677929D02*
X285982413Y-72725548D01*
X285982413Y-72725548D02*
X286030032Y-72820786D01*
X286030032Y-72820786D02*
X286030032Y-72963643D01*
X286030032Y-72963643D02*
X285982413Y-73058881D01*
X285982413Y-73058881D02*
X285934794Y-73106501D01*
X285934794Y-73106501D02*
X285839556Y-73154120D01*
X285839556Y-73154120D02*
X285458604Y-73154120D01*
X285458604Y-73154120D02*
X285458604Y-72154120D01*
X285458604Y-72154120D02*
X285791937Y-72154120D01*
X285791937Y-72154120D02*
X285887175Y-72201739D01*
X285887175Y-72201739D02*
X285934794Y-72249358D01*
X285934794Y-72249358D02*
X285982413Y-72344596D01*
X285982413Y-72344596D02*
X285982413Y-72439834D01*
X285982413Y-72439834D02*
X285934794Y-72535072D01*
X285934794Y-72535072D02*
X285887175Y-72582691D01*
X285887175Y-72582691D02*
X285791937Y-72630310D01*
X285791937Y-72630310D02*
X285458604Y-72630310D01*
X286887175Y-72154120D02*
X286696699Y-72154120D01*
X286696699Y-72154120D02*
X286601461Y-72201739D01*
X286601461Y-72201739D02*
X286553842Y-72249358D01*
X286553842Y-72249358D02*
X286458604Y-72392215D01*
X286458604Y-72392215D02*
X286410985Y-72582691D01*
X286410985Y-72582691D02*
X286410985Y-72963643D01*
X286410985Y-72963643D02*
X286458604Y-73058881D01*
X286458604Y-73058881D02*
X286506223Y-73106501D01*
X286506223Y-73106501D02*
X286601461Y-73154120D01*
X286601461Y-73154120D02*
X286791937Y-73154120D01*
X286791937Y-73154120D02*
X286887175Y-73106501D01*
X286887175Y-73106501D02*
X286934794Y-73058881D01*
X286934794Y-73058881D02*
X286982413Y-72963643D01*
X286982413Y-72963643D02*
X286982413Y-72725548D01*
X286982413Y-72725548D02*
X286934794Y-72630310D01*
X286934794Y-72630310D02*
X286887175Y-72582691D01*
X286887175Y-72582691D02*
X286791937Y-72535072D01*
X286791937Y-72535072D02*
X286601461Y-72535072D01*
X286601461Y-72535072D02*
X286506223Y-72582691D01*
X286506223Y-72582691D02*
X286458604Y-72630310D01*
X286458604Y-72630310D02*
X286410985Y-72725548D01*
D11*
X79056279Y-176848556D02*
X79103899Y-176896175D01*
X79103899Y-176896175D02*
X79151518Y-177039032D01*
X79151518Y-177039032D02*
X79151518Y-177134270D01*
X79151518Y-177134270D02*
X79103899Y-177277127D01*
X79103899Y-177277127D02*
X79008660Y-177372365D01*
X79008660Y-177372365D02*
X78913422Y-177419984D01*
X78913422Y-177419984D02*
X78722946Y-177467603D01*
X78722946Y-177467603D02*
X78580089Y-177467603D01*
X78580089Y-177467603D02*
X78389613Y-177419984D01*
X78389613Y-177419984D02*
X78294375Y-177372365D01*
X78294375Y-177372365D02*
X78199137Y-177277127D01*
X78199137Y-177277127D02*
X78151518Y-177134270D01*
X78151518Y-177134270D02*
X78151518Y-177039032D01*
X78151518Y-177039032D02*
X78199137Y-176896175D01*
X78199137Y-176896175D02*
X78246756Y-176848556D01*
X79151518Y-175896175D02*
X79151518Y-176467603D01*
X79151518Y-176181889D02*
X78151518Y-176181889D01*
X78151518Y-176181889D02*
X78294375Y-176277127D01*
X78294375Y-176277127D02*
X78389613Y-176372365D01*
X78389613Y-176372365D02*
X78437232Y-176467603D01*
X78484851Y-175039032D02*
X79151518Y-175039032D01*
X78103899Y-175277127D02*
X78818184Y-175515222D01*
X78818184Y-175515222D02*
X78818184Y-174896175D01*
X324958604Y-172610518D02*
X324958604Y-171610518D01*
X324958604Y-171610518D02*
X325196699Y-171610518D01*
X325196699Y-171610518D02*
X325339556Y-171658137D01*
X325339556Y-171658137D02*
X325434794Y-171753375D01*
X325434794Y-171753375D02*
X325482413Y-171848613D01*
X325482413Y-171848613D02*
X325530032Y-172039089D01*
X325530032Y-172039089D02*
X325530032Y-172181946D01*
X325530032Y-172181946D02*
X325482413Y-172372422D01*
X325482413Y-172372422D02*
X325434794Y-172467660D01*
X325434794Y-172467660D02*
X325339556Y-172562899D01*
X325339556Y-172562899D02*
X325196699Y-172610518D01*
X325196699Y-172610518D02*
X324958604Y-172610518D01*
X325863366Y-171610518D02*
X326482413Y-171610518D01*
X326482413Y-171610518D02*
X326149080Y-171991470D01*
X326149080Y-171991470D02*
X326291937Y-171991470D01*
X326291937Y-171991470D02*
X326387175Y-172039089D01*
X326387175Y-172039089D02*
X326434794Y-172086708D01*
X326434794Y-172086708D02*
X326482413Y-172181946D01*
X326482413Y-172181946D02*
X326482413Y-172420041D01*
X326482413Y-172420041D02*
X326434794Y-172515279D01*
X326434794Y-172515279D02*
X326387175Y-172562899D01*
X326387175Y-172562899D02*
X326291937Y-172610518D01*
X326291937Y-172610518D02*
X326006223Y-172610518D01*
X326006223Y-172610518D02*
X325910985Y-172562899D01*
X325910985Y-172562899D02*
X325863366Y-172515279D01*
X321925270Y-172517994D02*
X321468127Y-172517994D01*
X321696699Y-172517994D02*
X321696699Y-171717994D01*
X321696699Y-171717994D02*
X321620508Y-171832279D01*
X321620508Y-171832279D02*
X321544318Y-171908470D01*
X321544318Y-171908470D02*
X321468127Y-171946565D01*
X68958604Y-179610518D02*
X68958604Y-178610518D01*
X68958604Y-178610518D02*
X69196699Y-178610518D01*
X69196699Y-178610518D02*
X69339556Y-178658137D01*
X69339556Y-178658137D02*
X69434794Y-178753375D01*
X69434794Y-178753375D02*
X69482413Y-178848613D01*
X69482413Y-178848613D02*
X69530032Y-179039089D01*
X69530032Y-179039089D02*
X69530032Y-179181946D01*
X69530032Y-179181946D02*
X69482413Y-179372422D01*
X69482413Y-179372422D02*
X69434794Y-179467660D01*
X69434794Y-179467660D02*
X69339556Y-179562899D01*
X69339556Y-179562899D02*
X69196699Y-179610518D01*
X69196699Y-179610518D02*
X68958604Y-179610518D01*
X70387175Y-178610518D02*
X70196699Y-178610518D01*
X70196699Y-178610518D02*
X70101461Y-178658137D01*
X70101461Y-178658137D02*
X70053842Y-178705756D01*
X70053842Y-178705756D02*
X69958604Y-178848613D01*
X69958604Y-178848613D02*
X69910985Y-179039089D01*
X69910985Y-179039089D02*
X69910985Y-179420041D01*
X69910985Y-179420041D02*
X69958604Y-179515279D01*
X69958604Y-179515279D02*
X70006223Y-179562899D01*
X70006223Y-179562899D02*
X70101461Y-179610518D01*
X70101461Y-179610518D02*
X70291937Y-179610518D01*
X70291937Y-179610518D02*
X70387175Y-179562899D01*
X70387175Y-179562899D02*
X70434794Y-179515279D01*
X70434794Y-179515279D02*
X70482413Y-179420041D01*
X70482413Y-179420041D02*
X70482413Y-179181946D01*
X70482413Y-179181946D02*
X70434794Y-179086708D01*
X70434794Y-179086708D02*
X70387175Y-179039089D01*
X70387175Y-179039089D02*
X70291937Y-178991470D01*
X70291937Y-178991470D02*
X70101461Y-178991470D01*
X70101461Y-178991470D02*
X70006223Y-179039089D01*
X70006223Y-179039089D02*
X69958604Y-179086708D01*
X69958604Y-179086708D02*
X69910985Y-179181946D01*
X73218127Y-179293403D02*
X73675270Y-179293403D01*
X73446698Y-179293403D02*
X73446698Y-180093403D01*
X73446698Y-180093403D02*
X73522889Y-179979118D01*
X73522889Y-179979118D02*
X73599079Y-179902927D01*
X73599079Y-179902927D02*
X73675270Y-179864832D01*
X161880031Y-141776279D02*
X161832412Y-141823899D01*
X161832412Y-141823899D02*
X161689555Y-141871518D01*
X161689555Y-141871518D02*
X161594317Y-141871518D01*
X161594317Y-141871518D02*
X161451460Y-141823899D01*
X161451460Y-141823899D02*
X161356222Y-141728660D01*
X161356222Y-141728660D02*
X161308603Y-141633422D01*
X161308603Y-141633422D02*
X161260984Y-141442946D01*
X161260984Y-141442946D02*
X161260984Y-141300089D01*
X161260984Y-141300089D02*
X161308603Y-141109613D01*
X161308603Y-141109613D02*
X161356222Y-141014375D01*
X161356222Y-141014375D02*
X161451460Y-140919137D01*
X161451460Y-140919137D02*
X161594317Y-140871518D01*
X161594317Y-140871518D02*
X161689555Y-140871518D01*
X161689555Y-140871518D02*
X161832412Y-140919137D01*
X161832412Y-140919137D02*
X161880031Y-140966756D01*
X162213365Y-140871518D02*
X162832412Y-140871518D01*
X162832412Y-140871518D02*
X162499079Y-141252470D01*
X162499079Y-141252470D02*
X162641936Y-141252470D01*
X162641936Y-141252470D02*
X162737174Y-141300089D01*
X162737174Y-141300089D02*
X162784793Y-141347708D01*
X162784793Y-141347708D02*
X162832412Y-141442946D01*
X162832412Y-141442946D02*
X162832412Y-141681041D01*
X162832412Y-141681041D02*
X162784793Y-141776279D01*
X162784793Y-141776279D02*
X162737174Y-141823899D01*
X162737174Y-141823899D02*
X162641936Y-141871518D01*
X162641936Y-141871518D02*
X162356222Y-141871518D01*
X162356222Y-141871518D02*
X162260984Y-141823899D01*
X162260984Y-141823899D02*
X162213365Y-141776279D01*
X183458604Y-128451520D02*
X183458604Y-127451520D01*
X183458604Y-127927710D02*
X184030032Y-127927710D01*
X184030032Y-128451520D02*
X184030032Y-127451520D01*
X185030032Y-128451520D02*
X184458604Y-128451520D01*
X184744318Y-128451520D02*
X184744318Y-127451520D01*
X184744318Y-127451520D02*
X184649080Y-127594377D01*
X184649080Y-127594377D02*
X184553842Y-127689615D01*
X184553842Y-127689615D02*
X184458604Y-127737234D01*
X185410985Y-127546758D02*
X185458604Y-127499139D01*
X185458604Y-127499139D02*
X185553842Y-127451520D01*
X185553842Y-127451520D02*
X185791937Y-127451520D01*
X185791937Y-127451520D02*
X185887175Y-127499139D01*
X185887175Y-127499139D02*
X185934794Y-127546758D01*
X185934794Y-127546758D02*
X185982413Y-127641996D01*
X185982413Y-127641996D02*
X185982413Y-127737234D01*
X185982413Y-127737234D02*
X185934794Y-127880091D01*
X185934794Y-127880091D02*
X185363366Y-128451520D01*
X185363366Y-128451520D02*
X185982413Y-128451520D01*
D12*
X225925269Y-110101737D02*
X225830031Y-110054118D01*
X225830031Y-110054118D02*
X225687174Y-110054118D01*
X225687174Y-110054118D02*
X225544317Y-110101737D01*
X225544317Y-110101737D02*
X225449079Y-110196975D01*
X225449079Y-110196975D02*
X225401460Y-110292213D01*
X225401460Y-110292213D02*
X225353841Y-110482689D01*
X225353841Y-110482689D02*
X225353841Y-110625546D01*
X225353841Y-110625546D02*
X225401460Y-110816022D01*
X225401460Y-110816022D02*
X225449079Y-110911260D01*
X225449079Y-110911260D02*
X225544317Y-111006499D01*
X225544317Y-111006499D02*
X225687174Y-111054118D01*
X225687174Y-111054118D02*
X225782412Y-111054118D01*
X225782412Y-111054118D02*
X225925269Y-111006499D01*
X225925269Y-111006499D02*
X225972888Y-110958879D01*
X225972888Y-110958879D02*
X225972888Y-110625546D01*
X225972888Y-110625546D02*
X225782412Y-110625546D01*
X226687174Y-110054118D02*
X226687174Y-110768403D01*
X226687174Y-110768403D02*
X226639555Y-110911260D01*
X226639555Y-110911260D02*
X226544317Y-111006499D01*
X226544317Y-111006499D02*
X226401460Y-111054118D01*
X226401460Y-111054118D02*
X226306222Y-111054118D01*
X227163365Y-111054118D02*
X227163365Y-110054118D01*
X227163365Y-110054118D02*
X227544317Y-110054118D01*
X227544317Y-110054118D02*
X227639555Y-110101737D01*
X227639555Y-110101737D02*
X227687174Y-110149356D01*
X227687174Y-110149356D02*
X227734793Y-110244594D01*
X227734793Y-110244594D02*
X227734793Y-110387451D01*
X227734793Y-110387451D02*
X227687174Y-110482689D01*
X227687174Y-110482689D02*
X227639555Y-110530308D01*
X227639555Y-110530308D02*
X227544317Y-110577927D01*
X227544317Y-110577927D02*
X227163365Y-110577927D01*
X228687174Y-111054118D02*
X228115746Y-111054118D01*
X228401460Y-111054118D02*
X228401460Y-110054118D01*
X228401460Y-110054118D02*
X228306222Y-110196975D01*
X228306222Y-110196975D02*
X228210984Y-110292213D01*
X228210984Y-110292213D02*
X228115746Y-110339832D01*
X229306222Y-110054118D02*
X229401460Y-110054118D01*
X229401460Y-110054118D02*
X229496698Y-110101737D01*
X229496698Y-110101737D02*
X229544317Y-110149356D01*
X229544317Y-110149356D02*
X229591936Y-110244594D01*
X229591936Y-110244594D02*
X229639555Y-110435070D01*
X229639555Y-110435070D02*
X229639555Y-110673165D01*
X229639555Y-110673165D02*
X229591936Y-110863641D01*
X229591936Y-110863641D02*
X229544317Y-110958879D01*
X229544317Y-110958879D02*
X229496698Y-111006499D01*
X229496698Y-111006499D02*
X229401460Y-111054118D01*
X229401460Y-111054118D02*
X229306222Y-111054118D01*
X229306222Y-111054118D02*
X229210984Y-111006499D01*
X229210984Y-111006499D02*
X229163365Y-110958879D01*
X229163365Y-110958879D02*
X229115746Y-110863641D01*
X229115746Y-110863641D02*
X229068127Y-110673165D01*
X229068127Y-110673165D02*
X229068127Y-110435070D01*
X229068127Y-110435070D02*
X229115746Y-110244594D01*
X229115746Y-110244594D02*
X229163365Y-110149356D01*
X229163365Y-110149356D02*
X229210984Y-110101737D01*
X229210984Y-110101737D02*
X229306222Y-110054118D01*
D11*
X217434794Y-68451520D02*
X217434794Y-67451520D01*
X217434794Y-67927710D02*
X218006222Y-67927710D01*
X218006222Y-68451520D02*
X218006222Y-67451520D01*
X219006222Y-68451520D02*
X218434794Y-68451520D01*
X218720508Y-68451520D02*
X218720508Y-67451520D01*
X218720508Y-67451520D02*
X218625270Y-67594377D01*
X218625270Y-67594377D02*
X218530032Y-67689615D01*
X218530032Y-67689615D02*
X218434794Y-67737234D01*
D12*
X254458604Y-73154120D02*
X254458604Y-72154120D01*
X254458604Y-72154120D02*
X254839556Y-72154120D01*
X254839556Y-72154120D02*
X254934794Y-72201739D01*
X254934794Y-72201739D02*
X254982413Y-72249358D01*
X254982413Y-72249358D02*
X255030032Y-72344596D01*
X255030032Y-72344596D02*
X255030032Y-72487453D01*
X255030032Y-72487453D02*
X254982413Y-72582691D01*
X254982413Y-72582691D02*
X254934794Y-72630310D01*
X254934794Y-72630310D02*
X254839556Y-72677929D01*
X254839556Y-72677929D02*
X254458604Y-72677929D01*
X255791937Y-72630310D02*
X255934794Y-72677929D01*
X255934794Y-72677929D02*
X255982413Y-72725548D01*
X255982413Y-72725548D02*
X256030032Y-72820786D01*
X256030032Y-72820786D02*
X256030032Y-72963643D01*
X256030032Y-72963643D02*
X255982413Y-73058881D01*
X255982413Y-73058881D02*
X255934794Y-73106501D01*
X255934794Y-73106501D02*
X255839556Y-73154120D01*
X255839556Y-73154120D02*
X255458604Y-73154120D01*
X255458604Y-73154120D02*
X255458604Y-72154120D01*
X255458604Y-72154120D02*
X255791937Y-72154120D01*
X255791937Y-72154120D02*
X255887175Y-72201739D01*
X255887175Y-72201739D02*
X255934794Y-72249358D01*
X255934794Y-72249358D02*
X255982413Y-72344596D01*
X255982413Y-72344596D02*
X255982413Y-72439834D01*
X255982413Y-72439834D02*
X255934794Y-72535072D01*
X255934794Y-72535072D02*
X255887175Y-72582691D01*
X255887175Y-72582691D02*
X255791937Y-72630310D01*
X255791937Y-72630310D02*
X255458604Y-72630310D01*
X256887175Y-72487453D02*
X256887175Y-73154120D01*
X256649080Y-72106501D02*
X256410985Y-72820786D01*
X256410985Y-72820786D02*
X257030032Y-72820786D01*
X258401459Y-123601737D02*
X258306221Y-123554118D01*
X258306221Y-123554118D02*
X258163364Y-123554118D01*
X258163364Y-123554118D02*
X258020507Y-123601737D01*
X258020507Y-123601737D02*
X257925269Y-123696975D01*
X257925269Y-123696975D02*
X257877650Y-123792213D01*
X257877650Y-123792213D02*
X257830031Y-123982689D01*
X257830031Y-123982689D02*
X257830031Y-124125546D01*
X257830031Y-124125546D02*
X257877650Y-124316022D01*
X257877650Y-124316022D02*
X257925269Y-124411260D01*
X257925269Y-124411260D02*
X258020507Y-124506499D01*
X258020507Y-124506499D02*
X258163364Y-124554118D01*
X258163364Y-124554118D02*
X258258602Y-124554118D01*
X258258602Y-124554118D02*
X258401459Y-124506499D01*
X258401459Y-124506499D02*
X258449078Y-124458879D01*
X258449078Y-124458879D02*
X258449078Y-124125546D01*
X258449078Y-124125546D02*
X258258602Y-124125546D01*
X259163364Y-123554118D02*
X259163364Y-124268403D01*
X259163364Y-124268403D02*
X259115745Y-124411260D01*
X259115745Y-124411260D02*
X259020507Y-124506499D01*
X259020507Y-124506499D02*
X258877650Y-124554118D01*
X258877650Y-124554118D02*
X258782412Y-124554118D01*
X259639555Y-124554118D02*
X259639555Y-123554118D01*
X259639555Y-123554118D02*
X260020507Y-123554118D01*
X260020507Y-123554118D02*
X260115745Y-123601737D01*
X260115745Y-123601737D02*
X260163364Y-123649356D01*
X260163364Y-123649356D02*
X260210983Y-123744594D01*
X260210983Y-123744594D02*
X260210983Y-123887451D01*
X260210983Y-123887451D02*
X260163364Y-123982689D01*
X260163364Y-123982689D02*
X260115745Y-124030308D01*
X260115745Y-124030308D02*
X260020507Y-124077927D01*
X260020507Y-124077927D02*
X259639555Y-124077927D01*
X260782412Y-123982689D02*
X260687174Y-123935070D01*
X260687174Y-123935070D02*
X260639555Y-123887451D01*
X260639555Y-123887451D02*
X260591936Y-123792213D01*
X260591936Y-123792213D02*
X260591936Y-123744594D01*
X260591936Y-123744594D02*
X260639555Y-123649356D01*
X260639555Y-123649356D02*
X260687174Y-123601737D01*
X260687174Y-123601737D02*
X260782412Y-123554118D01*
X260782412Y-123554118D02*
X260972888Y-123554118D01*
X260972888Y-123554118D02*
X261068126Y-123601737D01*
X261068126Y-123601737D02*
X261115745Y-123649356D01*
X261115745Y-123649356D02*
X261163364Y-123744594D01*
X261163364Y-123744594D02*
X261163364Y-123792213D01*
X261163364Y-123792213D02*
X261115745Y-123887451D01*
X261115745Y-123887451D02*
X261068126Y-123935070D01*
X261068126Y-123935070D02*
X260972888Y-123982689D01*
X260972888Y-123982689D02*
X260782412Y-123982689D01*
X260782412Y-123982689D02*
X260687174Y-124030308D01*
X260687174Y-124030308D02*
X260639555Y-124077927D01*
X260639555Y-124077927D02*
X260591936Y-124173165D01*
X260591936Y-124173165D02*
X260591936Y-124363641D01*
X260591936Y-124363641D02*
X260639555Y-124458879D01*
X260639555Y-124458879D02*
X260687174Y-124506499D01*
X260687174Y-124506499D02*
X260782412Y-124554118D01*
X260782412Y-124554118D02*
X260972888Y-124554118D01*
X260972888Y-124554118D02*
X261068126Y-124506499D01*
X261068126Y-124506499D02*
X261115745Y-124458879D01*
X261115745Y-124458879D02*
X261163364Y-124363641D01*
X261163364Y-124363641D02*
X261163364Y-124173165D01*
X261163364Y-124173165D02*
X261115745Y-124077927D01*
X261115745Y-124077927D02*
X261068126Y-124030308D01*
X261068126Y-124030308D02*
X260972888Y-123982689D01*
D11*
X66934794Y-188451520D02*
X66934794Y-187451520D01*
X66934794Y-187927710D02*
X67506222Y-187927710D01*
X67506222Y-188451520D02*
X67506222Y-187451520D01*
X68125270Y-187880091D02*
X68030032Y-187832472D01*
X68030032Y-187832472D02*
X67982413Y-187784853D01*
X67982413Y-187784853D02*
X67934794Y-187689615D01*
X67934794Y-187689615D02*
X67934794Y-187641996D01*
X67934794Y-187641996D02*
X67982413Y-187546758D01*
X67982413Y-187546758D02*
X68030032Y-187499139D01*
X68030032Y-187499139D02*
X68125270Y-187451520D01*
X68125270Y-187451520D02*
X68315746Y-187451520D01*
X68315746Y-187451520D02*
X68410984Y-187499139D01*
X68410984Y-187499139D02*
X68458603Y-187546758D01*
X68458603Y-187546758D02*
X68506222Y-187641996D01*
X68506222Y-187641996D02*
X68506222Y-187689615D01*
X68506222Y-187689615D02*
X68458603Y-187784853D01*
X68458603Y-187784853D02*
X68410984Y-187832472D01*
X68410984Y-187832472D02*
X68315746Y-187880091D01*
X68315746Y-187880091D02*
X68125270Y-187880091D01*
X68125270Y-187880091D02*
X68030032Y-187927710D01*
X68030032Y-187927710D02*
X67982413Y-187975329D01*
X67982413Y-187975329D02*
X67934794Y-188070567D01*
X67934794Y-188070567D02*
X67934794Y-188261043D01*
X67934794Y-188261043D02*
X67982413Y-188356281D01*
X67982413Y-188356281D02*
X68030032Y-188403901D01*
X68030032Y-188403901D02*
X68125270Y-188451520D01*
X68125270Y-188451520D02*
X68315746Y-188451520D01*
X68315746Y-188451520D02*
X68410984Y-188403901D01*
X68410984Y-188403901D02*
X68458603Y-188356281D01*
X68458603Y-188356281D02*
X68506222Y-188261043D01*
X68506222Y-188261043D02*
X68506222Y-188070567D01*
X68506222Y-188070567D02*
X68458603Y-187975329D01*
X68458603Y-187975329D02*
X68410984Y-187927710D01*
X68410984Y-187927710D02*
X68315746Y-187880091D01*
X231330032Y-158085279D02*
X231282413Y-158132899D01*
X231282413Y-158132899D02*
X231139556Y-158180518D01*
X231139556Y-158180518D02*
X231044318Y-158180518D01*
X231044318Y-158180518D02*
X230901461Y-158132899D01*
X230901461Y-158132899D02*
X230806223Y-158037660D01*
X230806223Y-158037660D02*
X230758604Y-157942422D01*
X230758604Y-157942422D02*
X230710985Y-157751946D01*
X230710985Y-157751946D02*
X230710985Y-157609089D01*
X230710985Y-157609089D02*
X230758604Y-157418613D01*
X230758604Y-157418613D02*
X230806223Y-157323375D01*
X230806223Y-157323375D02*
X230901461Y-157228137D01*
X230901461Y-157228137D02*
X231044318Y-157180518D01*
X231044318Y-157180518D02*
X231139556Y-157180518D01*
X231139556Y-157180518D02*
X231282413Y-157228137D01*
X231282413Y-157228137D02*
X231330032Y-157275756D01*
X231663366Y-157180518D02*
X232330032Y-157180518D01*
X232330032Y-157180518D02*
X231901461Y-158180518D01*
X310986279Y-126848556D02*
X311033899Y-126896175D01*
X311033899Y-126896175D02*
X311081518Y-127039032D01*
X311081518Y-127039032D02*
X311081518Y-127134270D01*
X311081518Y-127134270D02*
X311033899Y-127277127D01*
X311033899Y-127277127D02*
X310938660Y-127372365D01*
X310938660Y-127372365D02*
X310843422Y-127419984D01*
X310843422Y-127419984D02*
X310652946Y-127467603D01*
X310652946Y-127467603D02*
X310510089Y-127467603D01*
X310510089Y-127467603D02*
X310319613Y-127419984D01*
X310319613Y-127419984D02*
X310224375Y-127372365D01*
X310224375Y-127372365D02*
X310129137Y-127277127D01*
X310129137Y-127277127D02*
X310081518Y-127134270D01*
X310081518Y-127134270D02*
X310081518Y-127039032D01*
X310081518Y-127039032D02*
X310129137Y-126896175D01*
X310129137Y-126896175D02*
X310176756Y-126848556D01*
X311081518Y-125896175D02*
X311081518Y-126467603D01*
X311081518Y-126181889D02*
X310081518Y-126181889D01*
X310081518Y-126181889D02*
X310224375Y-126277127D01*
X310224375Y-126277127D02*
X310319613Y-126372365D01*
X310319613Y-126372365D02*
X310367232Y-126467603D01*
X310081518Y-125562841D02*
X310081518Y-124943794D01*
X310081518Y-124943794D02*
X310462470Y-125277127D01*
X310462470Y-125277127D02*
X310462470Y-125134270D01*
X310462470Y-125134270D02*
X310510089Y-125039032D01*
X310510089Y-125039032D02*
X310557708Y-124991413D01*
X310557708Y-124991413D02*
X310652946Y-124943794D01*
X310652946Y-124943794D02*
X310891041Y-124943794D01*
X310891041Y-124943794D02*
X310986279Y-124991413D01*
X310986279Y-124991413D02*
X311033899Y-125039032D01*
X311033899Y-125039032D02*
X311081518Y-125134270D01*
X311081518Y-125134270D02*
X311081518Y-125419984D01*
X311081518Y-125419984D02*
X311033899Y-125515222D01*
X311033899Y-125515222D02*
X310986279Y-125562841D01*
D12*
X220296780Y-185665481D02*
X220190318Y-185667404D01*
X220190318Y-185667404D02*
X220063717Y-185733589D01*
X220063717Y-185733589D02*
X219959178Y-185841975D01*
X219959178Y-185841975D02*
X219918901Y-185970499D01*
X219918901Y-185970499D02*
X219920825Y-186076961D01*
X219920825Y-186076961D02*
X219966871Y-186267823D01*
X219966871Y-186267823D02*
X220033056Y-186394423D01*
X220033056Y-186394423D02*
X220163503Y-186541162D01*
X220163503Y-186541162D02*
X220249827Y-186603501D01*
X220249827Y-186603501D02*
X220378351Y-186643778D01*
X220378351Y-186643778D02*
X220527013Y-186619793D01*
X220527013Y-186619793D02*
X220611413Y-186575670D01*
X220611413Y-186575670D02*
X220715952Y-186467284D01*
X220715952Y-186467284D02*
X220736091Y-186403022D01*
X220736091Y-186403022D02*
X220581659Y-186107621D01*
X220581659Y-186107621D02*
X220412858Y-186195868D01*
X220949921Y-185270293D02*
X221280846Y-185903296D01*
X221280846Y-185903296D02*
X221304831Y-186051958D01*
X221304831Y-186051958D02*
X221264554Y-186180482D01*
X221264554Y-186180482D02*
X221160016Y-186288867D01*
X221160016Y-186288867D02*
X221075615Y-186332991D01*
X221835219Y-185935880D02*
X221371922Y-185049676D01*
X221371922Y-185049676D02*
X221709524Y-184873182D01*
X221709524Y-184873182D02*
X221815986Y-184871259D01*
X221815986Y-184871259D02*
X221880248Y-184891398D01*
X221880248Y-184891398D02*
X221966571Y-184953736D01*
X221966571Y-184953736D02*
X222032757Y-185080337D01*
X222032757Y-185080337D02*
X222034680Y-185186799D01*
X222034680Y-185186799D02*
X222014541Y-185251061D01*
X222014541Y-185251061D02*
X221952203Y-185337384D01*
X221952203Y-185337384D02*
X221614601Y-185513878D01*
X222680128Y-184365763D02*
X222258126Y-184586380D01*
X222258126Y-184586380D02*
X222436543Y-185030444D01*
X222436543Y-185030444D02*
X222456682Y-184966182D01*
X222456682Y-184966182D02*
X222519020Y-184879858D01*
X222519020Y-184879858D02*
X222730021Y-184769549D01*
X222730021Y-184769549D02*
X222836483Y-184767626D01*
X222836483Y-184767626D02*
X222900745Y-184787765D01*
X222900745Y-184787765D02*
X222987069Y-184850103D01*
X222987069Y-184850103D02*
X223097377Y-185061104D01*
X223097377Y-185061104D02*
X223099300Y-185167566D01*
X223099300Y-185167566D02*
X223079162Y-185231828D01*
X223079162Y-185231828D02*
X223016823Y-185318152D01*
X223016823Y-185318152D02*
X222805822Y-185428460D01*
X222805822Y-185428460D02*
X222699360Y-185430383D01*
X222699360Y-185430383D02*
X222635099Y-185410245D01*
D13*
X212211699Y-194694447D02*
X212211699Y-195216951D01*
X213681699Y-194694447D02*
X213681699Y-195216951D01*
X159946699Y-76155699D02*
X159946699Y-69155699D01*
X159946699Y-76155699D02*
X165446699Y-76155699D01*
X163596699Y-69955699D02*
X161796699Y-69955699D01*
X163596699Y-75355699D02*
X161796699Y-75355699D01*
X164996699Y-69155699D02*
X159946699Y-69155699D01*
X165446699Y-69605699D02*
X164996699Y-69155699D01*
X165446699Y-76155699D02*
X165446699Y-69605699D01*
X204235446Y-147361699D02*
X204757950Y-147361699D01*
X204235446Y-148831699D02*
X204757950Y-148831699D01*
X179461699Y-197716951D02*
X179461699Y-197194447D01*
X180931699Y-197716951D02*
X180931699Y-197194447D01*
X225885447Y-127170699D02*
X226407951Y-127170699D01*
X225885447Y-128640699D02*
X226407951Y-128640699D01*
D12*
X230446698Y-148406699D02*
X234546698Y-148406699D01*
X234546698Y-151586699D01*
X230446698Y-151586699D01*
X230446698Y-148406699D01*
D13*
X75961699Y-101916951D02*
X75961699Y-101394447D01*
X77431699Y-101916951D02*
X77431699Y-101394447D01*
D12*
X204446698Y-136906699D02*
X208546698Y-136906699D01*
X208546698Y-140086699D01*
X204446698Y-140086699D01*
X204446698Y-136906699D01*
X133846700Y-115206699D02*
X137946700Y-115206699D01*
X137946700Y-118386699D01*
X133846700Y-118386699D01*
X133846700Y-115206699D01*
X171745337Y-192893172D02*
X169845824Y-196526607D01*
X167027696Y-195053326D01*
X168927210Y-191419891D01*
X171745337Y-192893172D01*
X322796404Y-128741575D02*
X319691782Y-129429853D01*
X318804380Y-125427039D01*
X321909001Y-124738761D01*
X322796404Y-128741575D01*
D13*
X281007951Y-190420699D02*
X280485447Y-190420699D01*
X281007951Y-191890699D02*
X280485447Y-191890699D01*
X251885447Y-110170699D02*
X252407951Y-110170699D01*
X251885447Y-111640699D02*
X252407951Y-111640699D01*
D12*
X101846700Y-115206700D02*
X105946700Y-115206700D01*
X105946700Y-118386700D01*
X101846700Y-118386700D01*
X101846700Y-115206700D01*
D13*
X318461699Y-174394447D02*
X318461699Y-174916951D01*
X319931699Y-174394447D02*
X319931699Y-174916951D01*
X232435447Y-79920699D02*
X232957951Y-79920699D01*
X232435447Y-81390699D02*
X232957951Y-81390699D01*
X290635447Y-142420699D02*
X291157951Y-142420699D01*
X290635447Y-143890699D02*
X291157951Y-143890699D01*
D12*
X203021699Y-95405699D02*
X203021699Y-110905699D01*
D13*
X229946699Y-76155699D02*
X229946699Y-69155699D01*
X229946699Y-76155699D02*
X235446699Y-76155699D01*
X233596699Y-69955699D02*
X231796699Y-69955699D01*
X233596699Y-75355699D02*
X231796699Y-75355699D01*
X234996699Y-69155699D02*
X229946699Y-69155699D01*
X235446699Y-69605699D02*
X234996699Y-69155699D01*
X235446699Y-76155699D02*
X235446699Y-69605699D01*
D12*
X160846700Y-132406699D02*
X164946700Y-132406699D01*
X164946700Y-135586699D01*
X160846700Y-135586699D01*
X160846700Y-132406699D01*
D13*
X277196698Y-194096699D02*
X277196698Y-200646699D01*
X277196698Y-200646699D02*
X277646698Y-201096699D01*
X277646698Y-201096699D02*
X282696698Y-201096699D01*
X279046698Y-194896699D02*
X280846698Y-194896699D01*
X279046698Y-200296699D02*
X280846698Y-200296699D01*
X282696698Y-194096699D02*
X277196698Y-194096699D01*
X282696698Y-194096699D02*
X282696698Y-201096699D01*
X134785446Y-125361699D02*
X135307950Y-125361699D01*
X134785446Y-126831699D02*
X135307950Y-126831699D01*
D12*
X289446698Y-131206700D02*
X293546698Y-131206700D01*
X293546698Y-134386700D01*
X289446698Y-134386700D01*
X289446698Y-131206700D01*
D13*
X316961699Y-100444447D02*
X316961699Y-100966951D01*
X318431699Y-100444447D02*
X318431699Y-100966951D01*
X117957951Y-188920699D02*
X117435447Y-188920699D01*
X117957951Y-190390699D02*
X117435447Y-190390699D01*
D12*
X285446698Y-100206700D02*
X289546698Y-100206700D01*
X289546698Y-103386700D01*
X285446698Y-103386700D01*
X285446698Y-100206700D01*
D13*
X114296698Y-193246699D02*
X114296698Y-199796699D01*
X114296698Y-199796699D02*
X114746698Y-200246699D01*
X114746698Y-200246699D02*
X119796698Y-200246699D01*
X116146698Y-194046699D02*
X117946698Y-194046699D01*
X116146698Y-199446699D02*
X117946698Y-199446699D01*
X119796698Y-193246699D02*
X114296698Y-193246699D01*
X119796698Y-193246699D02*
X119796698Y-200246699D01*
X322196699Y-97905699D02*
X322196699Y-103405699D01*
X322196699Y-97905699D02*
X329196699Y-97905699D01*
X322196699Y-103405699D02*
X328746699Y-103405699D01*
X322996699Y-101555699D02*
X322996699Y-99755699D01*
X328396699Y-101555699D02*
X328396699Y-99755699D01*
X328746699Y-103405699D02*
X329196699Y-102955699D01*
X329196699Y-102955699D02*
X329196699Y-97905699D01*
X66196699Y-98355699D02*
X66196699Y-103405699D01*
X66646699Y-97905699D02*
X66196699Y-98355699D01*
X66996699Y-99755699D02*
X66996699Y-101555699D01*
X72396699Y-99755699D02*
X72396699Y-101555699D01*
X73196699Y-97905699D02*
X66646699Y-97905699D01*
X73196699Y-103405699D02*
X66196699Y-103405699D01*
X73196699Y-103405699D02*
X73196699Y-97905699D01*
D12*
X252446698Y-100206699D02*
X256546698Y-100206699D01*
X256546698Y-103386699D01*
X252446698Y-103386699D01*
X252446698Y-100206699D01*
D13*
X258235447Y-141170699D02*
X258757951Y-141170699D01*
X258235447Y-142640699D02*
X258757951Y-142640699D01*
X102685446Y-125361699D02*
X103207950Y-125361699D01*
X102685446Y-126831699D02*
X103207950Y-126831699D01*
X161935447Y-78920699D02*
X162457951Y-78920699D01*
X161935447Y-80390699D02*
X162457951Y-80390699D01*
X286485447Y-110170699D02*
X287007951Y-110170699D01*
X286485447Y-111640699D02*
X287007951Y-111640699D01*
X75461699Y-176466951D02*
X75461699Y-175944447D01*
X76931699Y-176466951D02*
X76931699Y-175944447D01*
X322196699Y-172905699D02*
X322196699Y-178405699D01*
X322196699Y-172905699D02*
X329196699Y-172905699D01*
X322196699Y-178405699D02*
X328746699Y-178405699D01*
X322996699Y-176555699D02*
X322996699Y-174755699D01*
X328396699Y-176555699D02*
X328396699Y-174755699D01*
X328746699Y-178405699D02*
X329196699Y-177955699D01*
X329196699Y-177955699D02*
X329196699Y-172905699D01*
X66196699Y-173355699D02*
X66196699Y-178405699D01*
X66646699Y-172905699D02*
X66196699Y-173355699D01*
X66996699Y-174755699D02*
X66996699Y-176555699D01*
X72396699Y-174755699D02*
X72396699Y-176555699D01*
X73196699Y-172905699D02*
X66646699Y-172905699D01*
X73196699Y-178405699D02*
X66196699Y-178405699D01*
X73196699Y-178405699D02*
X73196699Y-172905699D01*
X161785446Y-142361699D02*
X162307950Y-142361699D01*
X161785446Y-143831699D02*
X162307950Y-143831699D01*
D12*
X225446698Y-117406699D02*
X229546698Y-117406699D01*
X229546698Y-120586699D01*
X225446698Y-120586699D01*
X225446698Y-117406699D01*
X257446698Y-131206699D02*
X261546698Y-131206699D01*
X261546698Y-134386699D01*
X257446698Y-134386699D01*
X257446698Y-131206699D01*
D13*
X231235447Y-158670699D02*
X231757951Y-158670699D01*
X231235447Y-160140699D02*
X231757951Y-160140699D01*
X308211699Y-125944447D02*
X308211699Y-126466951D01*
X309681699Y-125944447D02*
X309681699Y-126466951D01*
D12*
X228365702Y-195053326D02*
X225547574Y-196526607D01*
X223648061Y-192893172D01*
X226466188Y-191419891D01*
X228365702Y-195053326D01*
%LPC*%
D14*
X212946699Y-194005699D03*
X212946699Y-195905699D03*
D15*
X299196699Y-72196701D03*
X303696699Y-72196701D03*
X308196699Y-72196701D03*
D16*
X138346699Y-74446701D03*
X131046699Y-74446701D03*
X138346699Y-69946701D03*
X131046699Y-69946701D03*
D17*
X161046699Y-75105699D03*
X164346699Y-75105699D03*
X164346699Y-70205699D03*
X161046699Y-70205699D03*
D18*
X203546698Y-148096699D03*
X205446698Y-148096699D03*
D19*
X180196699Y-198405699D03*
X180196699Y-196505699D03*
D18*
X225196699Y-127905699D03*
X227096699Y-127905699D03*
D20*
X227416698Y-145596699D03*
D21*
X232496698Y-145596699D03*
D20*
X237576698Y-145596699D03*
D22*
X231226698Y-154596699D03*
X232496698Y-154596699D03*
X233766698Y-154596699D03*
D19*
X76696699Y-102605699D03*
X76696699Y-100705699D03*
D20*
X201416698Y-134096699D03*
D21*
X206496698Y-134096699D03*
D20*
X211576698Y-134096699D03*
D22*
X205226698Y-143096699D03*
X206496698Y-143096699D03*
X207766698Y-143096699D03*
D16*
X274346699Y-74446701D03*
X267046699Y-74446701D03*
X274346699Y-69946701D03*
X267046699Y-69946701D03*
D20*
X130816700Y-112396699D03*
D21*
X135896700Y-112396699D03*
D20*
X140976700Y-112396699D03*
D22*
X134626700Y-121396699D03*
X135896700Y-121396699D03*
X137166700Y-121396699D03*
D23*
X257696699Y-200196701D03*
D20*
X167080626Y-187419100D03*
D21*
X171582540Y-189772644D03*
D20*
X176084454Y-192126188D03*
D22*
X172888566Y-197203303D03*
X173476952Y-196077825D03*
X174065338Y-194952346D03*
D20*
X314814884Y-123556177D03*
D21*
X319774468Y-122456664D03*
D20*
X324734052Y-121357151D03*
D22*
X316028059Y-126810744D03*
X316302937Y-128050640D03*
X316577815Y-129290536D03*
D24*
X281696699Y-191155699D03*
X279796699Y-191155699D03*
D23*
X327696699Y-192196701D03*
D18*
X251196699Y-110905699D03*
X253096699Y-110905699D03*
D20*
X98816700Y-112396700D03*
D21*
X103896700Y-112396700D03*
D20*
X108976700Y-112396700D03*
D22*
X102626700Y-121396700D03*
X103896700Y-121396700D03*
X105166700Y-121396700D03*
D16*
X123346699Y-74446701D03*
X116046699Y-74446701D03*
X123346699Y-69946701D03*
X116046699Y-69946701D03*
D14*
X319196699Y-173705699D03*
X319196699Y-175605699D03*
D23*
X67696699Y-80196701D03*
D18*
X231746699Y-80655699D03*
X233646699Y-80655699D03*
X289946699Y-143155699D03*
X291846699Y-143155699D03*
D25*
X188696699Y-90495699D03*
X188696699Y-93035699D03*
X188696699Y-95575699D03*
X188696699Y-98115699D03*
X188696699Y-100655699D03*
X188696699Y-103195699D03*
X188696699Y-105735699D03*
X188696699Y-108275699D03*
X188696699Y-110815699D03*
X206696699Y-110815699D03*
X206696699Y-108275699D03*
X206696699Y-105735699D03*
X206696699Y-103195699D03*
X206696699Y-100655699D03*
X206696699Y-98115699D03*
X206696699Y-95575699D03*
X206696699Y-93035699D03*
X206696699Y-90495699D03*
D26*
X203046699Y-108855699D03*
X203046699Y-107255699D03*
X203046699Y-105655699D03*
X203046699Y-104055699D03*
X203046699Y-102455699D03*
X203046699Y-100855699D03*
X203046699Y-99255699D03*
X203046699Y-97655699D03*
D23*
X137696699Y-200196701D03*
D17*
X231046699Y-75105699D03*
X234346699Y-75105699D03*
X234346699Y-70205699D03*
X231046699Y-70205699D03*
D23*
X67696699Y-145196701D03*
D20*
X157816700Y-129596699D03*
D21*
X162896700Y-129596699D03*
D20*
X167976700Y-129596699D03*
D22*
X161626700Y-138596699D03*
X162896700Y-138596699D03*
X164166700Y-138596699D03*
D27*
X281596698Y-195146699D03*
X278296698Y-195146699D03*
X278296698Y-200046699D03*
X281596698Y-200046699D03*
D18*
X134096698Y-126096699D03*
X135996698Y-126096699D03*
D20*
X286416698Y-128396700D03*
D21*
X291496698Y-128396700D03*
D20*
X296576698Y-128396700D03*
D22*
X290226698Y-137396700D03*
X291496698Y-137396700D03*
X292766698Y-137396700D03*
D14*
X317696699Y-99755699D03*
X317696699Y-101655699D03*
D23*
X327696699Y-80196701D03*
D16*
X108346699Y-74446701D03*
X101046699Y-74446701D03*
X108346699Y-69946701D03*
X101046699Y-69946701D03*
D23*
X327696699Y-145196701D03*
D24*
X118646699Y-189655699D03*
X116746699Y-189655699D03*
D20*
X282416698Y-97396700D03*
D21*
X287496698Y-97396700D03*
D20*
X292576698Y-97396700D03*
D22*
X286226698Y-106396700D03*
X287496698Y-106396700D03*
X288766698Y-106396700D03*
D27*
X118696698Y-194296699D03*
X115396698Y-194296699D03*
X115396698Y-199196699D03*
X118696698Y-199196699D03*
D23*
X177521699Y-72196701D03*
D28*
X323246699Y-99005699D03*
X323246699Y-102305699D03*
X328146699Y-102305699D03*
X328146699Y-99005699D03*
D29*
X72146699Y-102305699D03*
X72146699Y-99005699D03*
X67246699Y-99005699D03*
X67246699Y-102305699D03*
D20*
X249416698Y-97396699D03*
D21*
X254496698Y-97396699D03*
D20*
X259576698Y-97396699D03*
D22*
X253226698Y-106396699D03*
X254496698Y-106396699D03*
X255766698Y-106396699D03*
D18*
X257546699Y-141905699D03*
X259446699Y-141905699D03*
X101996698Y-126096699D03*
X103896698Y-126096699D03*
X161246699Y-79655699D03*
X163146699Y-79655699D03*
X285796699Y-110905699D03*
X287696699Y-110905699D03*
D23*
X197696699Y-200196701D03*
D16*
X289346699Y-74446701D03*
X282046699Y-74446701D03*
X289346699Y-69946701D03*
X282046699Y-69946701D03*
D19*
X76196699Y-177155699D03*
X76196699Y-175255699D03*
D28*
X323246699Y-174005699D03*
X323246699Y-177305699D03*
X328146699Y-177305699D03*
X328146699Y-174005699D03*
D29*
X72146699Y-177305699D03*
X72146699Y-174005699D03*
X67246699Y-174005699D03*
X67246699Y-177305699D03*
D18*
X161096698Y-143096699D03*
X162996698Y-143096699D03*
D23*
X184696699Y-132196701D03*
D20*
X222416698Y-114596699D03*
D21*
X227496698Y-114596699D03*
D20*
X232576698Y-114596699D03*
D22*
X226226698Y-123596699D03*
X227496698Y-123596699D03*
X228766698Y-123596699D03*
D23*
X218196699Y-72196701D03*
D16*
X259346699Y-74446701D03*
X252046699Y-74446701D03*
X259346699Y-69946701D03*
X252046699Y-69946701D03*
D20*
X254416698Y-128396699D03*
D21*
X259496698Y-128396699D03*
D20*
X264576698Y-128396699D03*
D22*
X258226698Y-137396699D03*
X259496698Y-137396699D03*
X260766698Y-137396699D03*
D23*
X67696699Y-192196701D03*
D18*
X230546699Y-159405699D03*
X232446699Y-159405699D03*
D14*
X308946699Y-125255699D03*
X308946699Y-127155699D03*
D20*
X219308944Y-192126188D03*
D21*
X223810858Y-189772644D03*
D20*
X228312772Y-187419100D03*
D22*
X221328060Y-194952346D03*
X221916446Y-196077825D03*
X222504832Y-197203303D03*
%LPD*%
M02*
