G04 #@! TF.GenerationSoftware,KiCad,Pcbnew,9.0.0*
G04 #@! TF.CreationDate,2025-05-11T16:12:36-07:00*
G04 #@! TF.ProjectId,HE_Leverless_Mainboard,48455f4c-6576-4657-926c-6573735f4d61,rev?*
G04 #@! TF.SameCoordinates,Original*
G04 #@! TF.FileFunction,Soldermask,Bot*
G04 #@! TF.FilePolarity,Negative*
%FSLAX46Y46*%
G04 Gerber Fmt 4.6, Leading zero omitted, Abs format (unit mm)*
G04 Created by KiCad (PCBNEW 9.0.0) date 2025-05-11 16:12:36*
%MOMM*%
%LPD*%
G01*
G04 APERTURE LIST*
%ADD10C,2.500000*%
%ADD11C,1.905000*%
%ADD12C,0.900000*%
%ADD13C,2.700000*%
%ADD14C,1.000000*%
%ADD15C,6.400000*%
%ADD16C,2.000000*%
%ADD17C,1.200000*%
G04 APERTURE END LIST*
D10*
X299196699Y-72196701D03*
X303696699Y-72196701D03*
X308196699Y-72196701D03*
D11*
X138346699Y-74446701D03*
X131046699Y-74446701D03*
X138346699Y-69946701D03*
X131046699Y-69946701D03*
D12*
X227416698Y-145596699D03*
D13*
X232496698Y-145596699D03*
D12*
X237576698Y-145596699D03*
D14*
X231226698Y-154596699D03*
X232496698Y-154596699D03*
X233766698Y-154596699D03*
D12*
X201416698Y-134096699D03*
D13*
X206496698Y-134096699D03*
D12*
X211576698Y-134096699D03*
D14*
X205226698Y-143096699D03*
X206496698Y-143096699D03*
X207766698Y-143096699D03*
D11*
X274346699Y-74446701D03*
X267046699Y-74446701D03*
X274346699Y-69946701D03*
X267046699Y-69946701D03*
D12*
X130816700Y-112396699D03*
D13*
X135896700Y-112396699D03*
D12*
X140976700Y-112396699D03*
D14*
X134626700Y-121396699D03*
X135896700Y-121396699D03*
X137166700Y-121396699D03*
D15*
X257696699Y-200196701D03*
D12*
X167080626Y-187419100D03*
D13*
X171582540Y-189772644D03*
D12*
X176084454Y-192126188D03*
D14*
X172888566Y-197203303D03*
X173476952Y-196077825D03*
X174065338Y-194952346D03*
D12*
X314814884Y-123556177D03*
D13*
X319774468Y-122456664D03*
D12*
X324734052Y-121357151D03*
D14*
X316028059Y-126810744D03*
X316302937Y-128050640D03*
X316577815Y-129290536D03*
D15*
X327696699Y-192196701D03*
D12*
X98816700Y-112396700D03*
D13*
X103896700Y-112396700D03*
D12*
X108976700Y-112396700D03*
D14*
X102626700Y-121396700D03*
X103896700Y-121396700D03*
X105166700Y-121396700D03*
D11*
X123346699Y-74446701D03*
X116046699Y-74446701D03*
X123346699Y-69946701D03*
X116046699Y-69946701D03*
D15*
X67696699Y-80196701D03*
D16*
X188696699Y-90495699D03*
X188696699Y-93035699D03*
X188696699Y-95575699D03*
X188696699Y-98115699D03*
X188696699Y-100655699D03*
X188696699Y-103195699D03*
X188696699Y-105735699D03*
X188696699Y-108275699D03*
X188696699Y-110815699D03*
X206696699Y-110815699D03*
X206696699Y-108275699D03*
X206696699Y-105735699D03*
X206696699Y-103195699D03*
X206696699Y-100655699D03*
X206696699Y-98115699D03*
X206696699Y-95575699D03*
X206696699Y-93035699D03*
X206696699Y-90495699D03*
D17*
X203046699Y-108855699D03*
X203046699Y-107255699D03*
X203046699Y-105655699D03*
X203046699Y-104055699D03*
X203046699Y-102455699D03*
X203046699Y-100855699D03*
X203046699Y-99255699D03*
X203046699Y-97655699D03*
D15*
X137696699Y-200196701D03*
X67696699Y-145196701D03*
D12*
X157816700Y-129596699D03*
D13*
X162896700Y-129596699D03*
D12*
X167976700Y-129596699D03*
D14*
X161626700Y-138596699D03*
X162896700Y-138596699D03*
X164166700Y-138596699D03*
D12*
X286416698Y-128396700D03*
D13*
X291496698Y-128396700D03*
D12*
X296576698Y-128396700D03*
D14*
X290226698Y-137396700D03*
X291496698Y-137396700D03*
X292766698Y-137396700D03*
D15*
X327696699Y-80196701D03*
D11*
X108346699Y-74446701D03*
X101046699Y-74446701D03*
X108346699Y-69946701D03*
X101046699Y-69946701D03*
D15*
X327696699Y-145196701D03*
D12*
X282416698Y-97396700D03*
D13*
X287496698Y-97396700D03*
D12*
X292576698Y-97396700D03*
D14*
X286226698Y-106396700D03*
X287496698Y-106396700D03*
X288766698Y-106396700D03*
D15*
X177521699Y-72196701D03*
D12*
X249416698Y-97396699D03*
D13*
X254496698Y-97396699D03*
D12*
X259576698Y-97396699D03*
D14*
X253226698Y-106396699D03*
X254496698Y-106396699D03*
X255766698Y-106396699D03*
D15*
X197696699Y-200196701D03*
D11*
X289346699Y-74446701D03*
X282046699Y-74446701D03*
X289346699Y-69946701D03*
X282046699Y-69946701D03*
D15*
X184696699Y-132196701D03*
D12*
X222416698Y-114596699D03*
D13*
X227496698Y-114596699D03*
D12*
X232576698Y-114596699D03*
D14*
X226226698Y-123596699D03*
X227496698Y-123596699D03*
X228766698Y-123596699D03*
D15*
X218196699Y-72196701D03*
D11*
X259346699Y-74446701D03*
X252046699Y-74446701D03*
X259346699Y-69946701D03*
X252046699Y-69946701D03*
D12*
X254416698Y-128396699D03*
D13*
X259496698Y-128396699D03*
D12*
X264576698Y-128396699D03*
D14*
X258226698Y-137396699D03*
X259496698Y-137396699D03*
X260766698Y-137396699D03*
D15*
X67696699Y-192196701D03*
D12*
X219308944Y-192126188D03*
D13*
X223810858Y-189772644D03*
D12*
X228312772Y-187419100D03*
D14*
X221328060Y-194952346D03*
X221916446Y-196077825D03*
X222504832Y-197203303D03*
M02*
