%TF.GenerationSoftware,KiCad,Pcbnew,9.0.0*%
%TF.CreationDate,2025-05-11T16:12:43-07:00*%
%TF.ProjectId,HE_Leverless_Mainboard,48455f4c-6576-4657-926c-6573735f4d61,rev?*%
%TF.SameCoordinates,Original*%
%TF.FileFunction,Drillmap*%
%TF.FilePolarity,Positive*%
%FSLAX45Y45*%
G04 Gerber Fmt 4.5, Leading zero omitted, Abs format (unit mm)*
G04 Created by KiCad (PCBNEW 9.0.0) date 2025-05-11 16:12:43*
%MOMM*%
%LPD*%
G01*
G04 APERTURE LIST*
%ADD10C,0.050000*%
%ADD11C,0.010050*%
%ADD12C,0.200000*%
%ADD13C,0.180000*%
%ADD14C,0.540000*%
G04 APERTURE END LIST*
D10*
X20302170Y-8890570D02*
G75*
G02*
X20402170Y-8790570I100000J0D01*
G01*
X32519670Y-6719670D02*
G75*
G02*
X33269670Y-7469670I0J-750000D01*
G01*
X7019670Y-20519670D02*
X32519670Y-20515570D01*
X7019670Y-6719670D02*
X18152170Y-6719669D01*
X21419670Y-6719670D02*
X32519670Y-6719670D01*
X21319670Y-6819670D02*
G75*
G02*
X21419670Y-6719670I100000J0D01*
G01*
X33269670Y-19765570D02*
G75*
G02*
X32519670Y-20515570I-750000J0D01*
G01*
X20402170Y-8790570D02*
X21119670Y-8790570D01*
X6269670Y-19769670D02*
X6269670Y-7469670D01*
X7019670Y-20519670D02*
G75*
G02*
X6269670Y-19769670I0J750000D01*
G01*
X21319670Y-8590570D02*
G75*
G02*
X21119670Y-8790570I-200000J0D01*
G01*
X18152170Y-6719669D02*
G75*
G02*
X18252171Y-6819669I0J-100001D01*
G01*
D11*
X10390173Y-11239670D02*
G75*
G02*
X10389168Y-11239670I-503J0D01*
G01*
X10389168Y-11239670D02*
G75*
G02*
X10390173Y-11239670I503J0D01*
G01*
D10*
X33269670Y-7469670D02*
X33269670Y-19765570D01*
X21319670Y-8590570D02*
X21319670Y-6819670D01*
X19137170Y-8790570D02*
G75*
G02*
X19237170Y-8890570I0J-100000D01*
G01*
X18452170Y-8790570D02*
G75*
G02*
X18252170Y-8590570I0J200000D01*
G01*
X18252170Y-8590570D02*
X18252170Y-6819669D01*
X6269670Y-7469670D02*
G75*
G02*
X7019670Y-6719670I750000J0D01*
G01*
X18452170Y-8790570D02*
X19137170Y-8790570D01*
X19237170Y-8890570D02*
X19237170Y-11115570D01*
X20069670Y-9665570D02*
X20069670Y-10965570D01*
X20119670Y-9615570D02*
X20237170Y-9615570D01*
X20237170Y-11015570D02*
X20119670Y-11015570D01*
X20252170Y-11165570D02*
X19287170Y-11165570D01*
X20302170Y-9615570D02*
X20302170Y-8890570D01*
X20302170Y-11015570D02*
X20302170Y-11115570D01*
X19287170Y-11165570D02*
G75*
G02*
X19237170Y-11115570I0J50000D01*
G01*
X20069670Y-9665570D02*
G75*
G02*
X20119670Y-9615570I50000J0D01*
G01*
X20119670Y-11015570D02*
G75*
G02*
X20069670Y-10965570I0J50000D01*
G01*
X20237170Y-11015570D02*
G75*
G02*
X20302170Y-11015570I32500J0D01*
G01*
X20302170Y-9615570D02*
G75*
G02*
X20237170Y-9615570I-32500J0D01*
G01*
X20302170Y-11115570D02*
G75*
G02*
X20252170Y-11165570I-50000J0D01*
G01*
D12*
D13*
X9791670Y-11149670D02*
X9971670Y-11329670D01*
X9971670Y-11149670D02*
X9791670Y-11329670D01*
X10807670Y-11149670D02*
X10987670Y-11329670D01*
X10987670Y-11149670D02*
X10807670Y-11329670D01*
X12991670Y-11149670D02*
X13171670Y-11329670D01*
X13171670Y-11149670D02*
X12991670Y-11329670D01*
X14007670Y-11149670D02*
X14187670Y-11329670D01*
X14187670Y-11149670D02*
X14007670Y-11329670D01*
X15691670Y-12869670D02*
X15871670Y-13049670D01*
X15871670Y-12869670D02*
X15691670Y-13049670D01*
X16618063Y-18651910D02*
X16798063Y-18831910D01*
X16798063Y-18651910D02*
X16618063Y-18831910D01*
X16707670Y-12869670D02*
X16887670Y-13049670D01*
X16887670Y-12869670D02*
X16707670Y-13049670D01*
X17518445Y-19122619D02*
X17698445Y-19302619D01*
X17698445Y-19122619D02*
X17518445Y-19302619D01*
X20051670Y-13319670D02*
X20231670Y-13499670D01*
X20231670Y-13319670D02*
X20051670Y-13499670D01*
X21067670Y-13319670D02*
X21247670Y-13499670D01*
X21247670Y-13319670D02*
X21067670Y-13499670D01*
X21840894Y-19122619D02*
X22020894Y-19302619D01*
X22020894Y-19122619D02*
X21840894Y-19302619D01*
X22151670Y-11369670D02*
X22331670Y-11549670D01*
X22331670Y-11369670D02*
X22151670Y-11549670D01*
X22651670Y-14469670D02*
X22831670Y-14649670D01*
X22831670Y-14469670D02*
X22651670Y-14649670D01*
X22741277Y-18651910D02*
X22921277Y-18831910D01*
X22921277Y-18651910D02*
X22741277Y-18831910D01*
X23167670Y-11369670D02*
X23347670Y-11549670D01*
X23347670Y-11369670D02*
X23167670Y-11549670D01*
X23667670Y-14469670D02*
X23847670Y-14649670D01*
X23847670Y-14469670D02*
X23667670Y-14649670D01*
X24851670Y-9649670D02*
X25031670Y-9829670D01*
X25031670Y-9649670D02*
X24851670Y-9829670D01*
X25351670Y-12749670D02*
X25531670Y-12929670D01*
X25531670Y-12749670D02*
X25351670Y-12929670D01*
X25867670Y-9649670D02*
X26047670Y-9829670D01*
X26047670Y-9649670D02*
X25867670Y-9829670D01*
X26367670Y-12749670D02*
X26547670Y-12929670D01*
X26547670Y-12749670D02*
X26367670Y-12929670D01*
X28151670Y-9649670D02*
X28331670Y-9829670D01*
X28331670Y-9649670D02*
X28151670Y-9829670D01*
X28551670Y-12749670D02*
X28731670Y-12929670D01*
X28731670Y-12749670D02*
X28551670Y-12929670D01*
X29167670Y-9649670D02*
X29347670Y-9829670D01*
X29347670Y-9649670D02*
X29167670Y-9829670D01*
X29567670Y-12749670D02*
X29747670Y-12929670D01*
X29747670Y-12749670D02*
X29567670Y-12929670D01*
X31391488Y-12265618D02*
X31571488Y-12445618D01*
X31571488Y-12265618D02*
X31391488Y-12445618D01*
X32383405Y-12045715D02*
X32563405Y-12225715D01*
X32563405Y-12045715D02*
X32383405Y-12225715D01*
D14*
X10659670Y-11239670D02*
G75*
G02*
X10119670Y-11239670I-270000J0D01*
G01*
X10119670Y-11239670D02*
G75*
G02*
X10659670Y-11239670I270000J0D01*
G01*
X13859670Y-11239670D02*
G75*
G02*
X13319670Y-11239670I-270000J0D01*
G01*
X13319670Y-11239670D02*
G75*
G02*
X13859670Y-11239670I270000J0D01*
G01*
X16559670Y-12959670D02*
G75*
G02*
X16019670Y-12959670I-270000J0D01*
G01*
X16019670Y-12959670D02*
G75*
G02*
X16559670Y-12959670I270000J0D01*
G01*
X17428254Y-18977264D02*
G75*
G02*
X16888254Y-18977264I-270000J0D01*
G01*
X16888254Y-18977264D02*
G75*
G02*
X17428254Y-18977264I270000J0D01*
G01*
X20919670Y-13409670D02*
G75*
G02*
X20379670Y-13409670I-270000J0D01*
G01*
X20379670Y-13409670D02*
G75*
G02*
X20919670Y-13409670I270000J0D01*
G01*
X22651086Y-18977264D02*
G75*
G02*
X22111086Y-18977264I-270000J0D01*
G01*
X22111086Y-18977264D02*
G75*
G02*
X22651086Y-18977264I270000J0D01*
G01*
X23019670Y-11459670D02*
G75*
G02*
X22479670Y-11459670I-270000J0D01*
G01*
X22479670Y-11459670D02*
G75*
G02*
X23019670Y-11459670I270000J0D01*
G01*
X23519670Y-14559670D02*
G75*
G02*
X22979670Y-14559670I-270000J0D01*
G01*
X22979670Y-14559670D02*
G75*
G02*
X23519670Y-14559670I270000J0D01*
G01*
X25719670Y-9739670D02*
G75*
G02*
X25179670Y-9739670I-270000J0D01*
G01*
X25179670Y-9739670D02*
G75*
G02*
X25719670Y-9739670I270000J0D01*
G01*
X26219670Y-12839670D02*
G75*
G02*
X25679670Y-12839670I-270000J0D01*
G01*
X25679670Y-12839670D02*
G75*
G02*
X26219670Y-12839670I270000J0D01*
G01*
X29019670Y-9739670D02*
G75*
G02*
X28479670Y-9739670I-270000J0D01*
G01*
X28479670Y-9739670D02*
G75*
G02*
X29019670Y-9739670I270000J0D01*
G01*
X29419670Y-12839670D02*
G75*
G02*
X28879670Y-12839670I-270000J0D01*
G01*
X28879670Y-12839670D02*
G75*
G02*
X29419670Y-12839670I270000J0D01*
G01*
X32247447Y-12245666D02*
G75*
G02*
X31707447Y-12245666I-270000J0D01*
G01*
X31707447Y-12245666D02*
G75*
G02*
X32247447Y-12245666I270000J0D01*
G01*
D12*
X6527947Y-20833654D02*
X6527947Y-20633654D01*
X6527947Y-20633654D02*
X6575566Y-20633654D01*
X6575566Y-20633654D02*
X6604137Y-20643178D01*
X6604137Y-20643178D02*
X6623185Y-20662225D01*
X6623185Y-20662225D02*
X6632709Y-20681273D01*
X6632709Y-20681273D02*
X6642232Y-20719368D01*
X6642232Y-20719368D02*
X6642232Y-20747940D01*
X6642232Y-20747940D02*
X6632709Y-20786035D01*
X6632709Y-20786035D02*
X6623185Y-20805082D01*
X6623185Y-20805082D02*
X6604137Y-20824130D01*
X6604137Y-20824130D02*
X6575566Y-20833654D01*
X6575566Y-20833654D02*
X6527947Y-20833654D01*
X6727947Y-20833654D02*
X6727947Y-20700321D01*
X6727947Y-20738416D02*
X6737470Y-20719368D01*
X6737470Y-20719368D02*
X6746994Y-20709844D01*
X6746994Y-20709844D02*
X6766042Y-20700321D01*
X6766042Y-20700321D02*
X6785090Y-20700321D01*
X6851756Y-20833654D02*
X6851756Y-20700321D01*
X6851756Y-20633654D02*
X6842232Y-20643178D01*
X6842232Y-20643178D02*
X6851756Y-20652702D01*
X6851756Y-20652702D02*
X6861280Y-20643178D01*
X6861280Y-20643178D02*
X6851756Y-20633654D01*
X6851756Y-20633654D02*
X6851756Y-20652702D01*
X6975566Y-20833654D02*
X6956518Y-20824130D01*
X6956518Y-20824130D02*
X6946994Y-20805082D01*
X6946994Y-20805082D02*
X6946994Y-20633654D01*
X7080328Y-20833654D02*
X7061280Y-20824130D01*
X7061280Y-20824130D02*
X7051756Y-20805082D01*
X7051756Y-20805082D02*
X7051756Y-20633654D01*
X7308899Y-20833654D02*
X7308899Y-20633654D01*
X7308899Y-20633654D02*
X7375566Y-20776511D01*
X7375566Y-20776511D02*
X7442232Y-20633654D01*
X7442232Y-20633654D02*
X7442232Y-20833654D01*
X7623185Y-20833654D02*
X7623185Y-20728892D01*
X7623185Y-20728892D02*
X7613661Y-20709844D01*
X7613661Y-20709844D02*
X7594613Y-20700321D01*
X7594613Y-20700321D02*
X7556518Y-20700321D01*
X7556518Y-20700321D02*
X7537470Y-20709844D01*
X7623185Y-20824130D02*
X7604137Y-20833654D01*
X7604137Y-20833654D02*
X7556518Y-20833654D01*
X7556518Y-20833654D02*
X7537470Y-20824130D01*
X7537470Y-20824130D02*
X7527947Y-20805082D01*
X7527947Y-20805082D02*
X7527947Y-20786035D01*
X7527947Y-20786035D02*
X7537470Y-20766987D01*
X7537470Y-20766987D02*
X7556518Y-20757463D01*
X7556518Y-20757463D02*
X7604137Y-20757463D01*
X7604137Y-20757463D02*
X7623185Y-20747940D01*
X7718423Y-20700321D02*
X7718423Y-20900321D01*
X7718423Y-20709844D02*
X7737470Y-20700321D01*
X7737470Y-20700321D02*
X7775566Y-20700321D01*
X7775566Y-20700321D02*
X7794613Y-20709844D01*
X7794613Y-20709844D02*
X7804137Y-20719368D01*
X7804137Y-20719368D02*
X7813661Y-20738416D01*
X7813661Y-20738416D02*
X7813661Y-20795559D01*
X7813661Y-20795559D02*
X7804137Y-20814606D01*
X7804137Y-20814606D02*
X7794613Y-20824130D01*
X7794613Y-20824130D02*
X7775566Y-20833654D01*
X7775566Y-20833654D02*
X7737470Y-20833654D01*
X7737470Y-20833654D02*
X7718423Y-20824130D01*
X7899375Y-20814606D02*
X7908899Y-20824130D01*
X7908899Y-20824130D02*
X7899375Y-20833654D01*
X7899375Y-20833654D02*
X7889851Y-20824130D01*
X7889851Y-20824130D02*
X7899375Y-20814606D01*
X7899375Y-20814606D02*
X7899375Y-20833654D01*
X7899375Y-20709844D02*
X7908899Y-20719368D01*
X7908899Y-20719368D02*
X7899375Y-20728892D01*
X7899375Y-20728892D02*
X7889851Y-20719368D01*
X7889851Y-20719368D02*
X7899375Y-20709844D01*
X7899375Y-20709844D02*
X7899375Y-20728892D01*
D13*
X6087170Y-21072170D02*
X6267170Y-21252170D01*
X6267170Y-21072170D02*
X6087170Y-21252170D01*
D12*
X6632709Y-21253654D02*
X6518423Y-21253654D01*
X6575566Y-21253654D02*
X6575566Y-21053654D01*
X6575566Y-21053654D02*
X6556518Y-21082225D01*
X6556518Y-21082225D02*
X6537470Y-21101273D01*
X6537470Y-21101273D02*
X6518423Y-21110797D01*
X6718423Y-21234606D02*
X6727947Y-21244130D01*
X6727947Y-21244130D02*
X6718423Y-21253654D01*
X6718423Y-21253654D02*
X6708899Y-21244130D01*
X6708899Y-21244130D02*
X6718423Y-21234606D01*
X6718423Y-21234606D02*
X6718423Y-21253654D01*
X6842232Y-21139368D02*
X6823185Y-21129844D01*
X6823185Y-21129844D02*
X6813661Y-21120321D01*
X6813661Y-21120321D02*
X6804137Y-21101273D01*
X6804137Y-21101273D02*
X6804137Y-21091749D01*
X6804137Y-21091749D02*
X6813661Y-21072702D01*
X6813661Y-21072702D02*
X6823185Y-21063178D01*
X6823185Y-21063178D02*
X6842232Y-21053654D01*
X6842232Y-21053654D02*
X6880328Y-21053654D01*
X6880328Y-21053654D02*
X6899375Y-21063178D01*
X6899375Y-21063178D02*
X6908899Y-21072702D01*
X6908899Y-21072702D02*
X6918423Y-21091749D01*
X6918423Y-21091749D02*
X6918423Y-21101273D01*
X6918423Y-21101273D02*
X6908899Y-21120321D01*
X6908899Y-21120321D02*
X6899375Y-21129844D01*
X6899375Y-21129844D02*
X6880328Y-21139368D01*
X6880328Y-21139368D02*
X6842232Y-21139368D01*
X6842232Y-21139368D02*
X6823185Y-21148892D01*
X6823185Y-21148892D02*
X6813661Y-21158416D01*
X6813661Y-21158416D02*
X6804137Y-21177463D01*
X6804137Y-21177463D02*
X6804137Y-21215559D01*
X6804137Y-21215559D02*
X6813661Y-21234606D01*
X6813661Y-21234606D02*
X6823185Y-21244130D01*
X6823185Y-21244130D02*
X6842232Y-21253654D01*
X6842232Y-21253654D02*
X6880328Y-21253654D01*
X6880328Y-21253654D02*
X6899375Y-21244130D01*
X6899375Y-21244130D02*
X6908899Y-21234606D01*
X6908899Y-21234606D02*
X6918423Y-21215559D01*
X6918423Y-21215559D02*
X6918423Y-21177463D01*
X6918423Y-21177463D02*
X6908899Y-21158416D01*
X6908899Y-21158416D02*
X6899375Y-21148892D01*
X6899375Y-21148892D02*
X6880328Y-21139368D01*
X7042232Y-21053654D02*
X7061280Y-21053654D01*
X7061280Y-21053654D02*
X7080328Y-21063178D01*
X7080328Y-21063178D02*
X7089851Y-21072702D01*
X7089851Y-21072702D02*
X7099375Y-21091749D01*
X7099375Y-21091749D02*
X7108899Y-21129844D01*
X7108899Y-21129844D02*
X7108899Y-21177463D01*
X7108899Y-21177463D02*
X7099375Y-21215559D01*
X7099375Y-21215559D02*
X7089851Y-21234606D01*
X7089851Y-21234606D02*
X7080328Y-21244130D01*
X7080328Y-21244130D02*
X7061280Y-21253654D01*
X7061280Y-21253654D02*
X7042232Y-21253654D01*
X7042232Y-21253654D02*
X7023185Y-21244130D01*
X7023185Y-21244130D02*
X7013661Y-21234606D01*
X7013661Y-21234606D02*
X7004137Y-21215559D01*
X7004137Y-21215559D02*
X6994613Y-21177463D01*
X6994613Y-21177463D02*
X6994613Y-21129844D01*
X6994613Y-21129844D02*
X7004137Y-21091749D01*
X7004137Y-21091749D02*
X7013661Y-21072702D01*
X7013661Y-21072702D02*
X7023185Y-21063178D01*
X7023185Y-21063178D02*
X7042232Y-21053654D01*
X7232709Y-21053654D02*
X7251756Y-21053654D01*
X7251756Y-21053654D02*
X7270804Y-21063178D01*
X7270804Y-21063178D02*
X7280328Y-21072702D01*
X7280328Y-21072702D02*
X7289851Y-21091749D01*
X7289851Y-21091749D02*
X7299375Y-21129844D01*
X7299375Y-21129844D02*
X7299375Y-21177463D01*
X7299375Y-21177463D02*
X7289851Y-21215559D01*
X7289851Y-21215559D02*
X7280328Y-21234606D01*
X7280328Y-21234606D02*
X7270804Y-21244130D01*
X7270804Y-21244130D02*
X7251756Y-21253654D01*
X7251756Y-21253654D02*
X7232709Y-21253654D01*
X7232709Y-21253654D02*
X7213661Y-21244130D01*
X7213661Y-21244130D02*
X7204137Y-21234606D01*
X7204137Y-21234606D02*
X7194613Y-21215559D01*
X7194613Y-21215559D02*
X7185090Y-21177463D01*
X7185090Y-21177463D02*
X7185090Y-21129844D01*
X7185090Y-21129844D02*
X7194613Y-21091749D01*
X7194613Y-21091749D02*
X7204137Y-21072702D01*
X7204137Y-21072702D02*
X7213661Y-21063178D01*
X7213661Y-21063178D02*
X7232709Y-21053654D01*
X7385090Y-21253654D02*
X7385090Y-21120321D01*
X7385090Y-21139368D02*
X7394613Y-21129844D01*
X7394613Y-21129844D02*
X7413661Y-21120321D01*
X7413661Y-21120321D02*
X7442232Y-21120321D01*
X7442232Y-21120321D02*
X7461280Y-21129844D01*
X7461280Y-21129844D02*
X7470804Y-21148892D01*
X7470804Y-21148892D02*
X7470804Y-21253654D01*
X7470804Y-21148892D02*
X7480328Y-21129844D01*
X7480328Y-21129844D02*
X7499375Y-21120321D01*
X7499375Y-21120321D02*
X7527947Y-21120321D01*
X7527947Y-21120321D02*
X7546994Y-21129844D01*
X7546994Y-21129844D02*
X7556518Y-21148892D01*
X7556518Y-21148892D02*
X7556518Y-21253654D01*
X7651756Y-21253654D02*
X7651756Y-21120321D01*
X7651756Y-21139368D02*
X7661280Y-21129844D01*
X7661280Y-21129844D02*
X7680328Y-21120321D01*
X7680328Y-21120321D02*
X7708899Y-21120321D01*
X7708899Y-21120321D02*
X7727947Y-21129844D01*
X7727947Y-21129844D02*
X7737471Y-21148892D01*
X7737471Y-21148892D02*
X7737471Y-21253654D01*
X7737471Y-21148892D02*
X7746994Y-21129844D01*
X7746994Y-21129844D02*
X7766042Y-21120321D01*
X7766042Y-21120321D02*
X7794613Y-21120321D01*
X7794613Y-21120321D02*
X7813661Y-21129844D01*
X7813661Y-21129844D02*
X7823185Y-21148892D01*
X7823185Y-21148892D02*
X7823185Y-21253654D01*
X8213661Y-21044130D02*
X8042233Y-21301273D01*
X8470804Y-21053654D02*
X8489852Y-21053654D01*
X8489852Y-21053654D02*
X8508899Y-21063178D01*
X8508899Y-21063178D02*
X8518423Y-21072702D01*
X8518423Y-21072702D02*
X8527947Y-21091749D01*
X8527947Y-21091749D02*
X8537471Y-21129844D01*
X8537471Y-21129844D02*
X8537471Y-21177463D01*
X8537471Y-21177463D02*
X8527947Y-21215559D01*
X8527947Y-21215559D02*
X8518423Y-21234606D01*
X8518423Y-21234606D02*
X8508899Y-21244130D01*
X8508899Y-21244130D02*
X8489852Y-21253654D01*
X8489852Y-21253654D02*
X8470804Y-21253654D01*
X8470804Y-21253654D02*
X8451756Y-21244130D01*
X8451756Y-21244130D02*
X8442233Y-21234606D01*
X8442233Y-21234606D02*
X8432709Y-21215559D01*
X8432709Y-21215559D02*
X8423185Y-21177463D01*
X8423185Y-21177463D02*
X8423185Y-21129844D01*
X8423185Y-21129844D02*
X8432709Y-21091749D01*
X8432709Y-21091749D02*
X8442233Y-21072702D01*
X8442233Y-21072702D02*
X8451756Y-21063178D01*
X8451756Y-21063178D02*
X8470804Y-21053654D01*
X8623185Y-21234606D02*
X8632709Y-21244130D01*
X8632709Y-21244130D02*
X8623185Y-21253654D01*
X8623185Y-21253654D02*
X8613661Y-21244130D01*
X8613661Y-21244130D02*
X8623185Y-21234606D01*
X8623185Y-21234606D02*
X8623185Y-21253654D01*
X8756518Y-21053654D02*
X8775566Y-21053654D01*
X8775566Y-21053654D02*
X8794614Y-21063178D01*
X8794614Y-21063178D02*
X8804137Y-21072702D01*
X8804137Y-21072702D02*
X8813661Y-21091749D01*
X8813661Y-21091749D02*
X8823185Y-21129844D01*
X8823185Y-21129844D02*
X8823185Y-21177463D01*
X8823185Y-21177463D02*
X8813661Y-21215559D01*
X8813661Y-21215559D02*
X8804137Y-21234606D01*
X8804137Y-21234606D02*
X8794614Y-21244130D01*
X8794614Y-21244130D02*
X8775566Y-21253654D01*
X8775566Y-21253654D02*
X8756518Y-21253654D01*
X8756518Y-21253654D02*
X8737471Y-21244130D01*
X8737471Y-21244130D02*
X8727947Y-21234606D01*
X8727947Y-21234606D02*
X8718423Y-21215559D01*
X8718423Y-21215559D02*
X8708899Y-21177463D01*
X8708899Y-21177463D02*
X8708899Y-21129844D01*
X8708899Y-21129844D02*
X8718423Y-21091749D01*
X8718423Y-21091749D02*
X8727947Y-21072702D01*
X8727947Y-21072702D02*
X8737471Y-21063178D01*
X8737471Y-21063178D02*
X8756518Y-21053654D01*
X8889852Y-21053654D02*
X9023185Y-21053654D01*
X9023185Y-21053654D02*
X8937471Y-21253654D01*
X9137471Y-21053654D02*
X9156518Y-21053654D01*
X9156518Y-21053654D02*
X9175566Y-21063178D01*
X9175566Y-21063178D02*
X9185090Y-21072702D01*
X9185090Y-21072702D02*
X9194614Y-21091749D01*
X9194614Y-21091749D02*
X9204137Y-21129844D01*
X9204137Y-21129844D02*
X9204137Y-21177463D01*
X9204137Y-21177463D02*
X9194614Y-21215559D01*
X9194614Y-21215559D02*
X9185090Y-21234606D01*
X9185090Y-21234606D02*
X9175566Y-21244130D01*
X9175566Y-21244130D02*
X9156518Y-21253654D01*
X9156518Y-21253654D02*
X9137471Y-21253654D01*
X9137471Y-21253654D02*
X9118423Y-21244130D01*
X9118423Y-21244130D02*
X9108899Y-21234606D01*
X9108899Y-21234606D02*
X9099376Y-21215559D01*
X9099376Y-21215559D02*
X9089852Y-21177463D01*
X9089852Y-21177463D02*
X9089852Y-21129844D01*
X9089852Y-21129844D02*
X9099376Y-21091749D01*
X9099376Y-21091749D02*
X9108899Y-21072702D01*
X9108899Y-21072702D02*
X9118423Y-21063178D01*
X9118423Y-21063178D02*
X9137471Y-21053654D01*
X9299376Y-21253654D02*
X9337471Y-21253654D01*
X9337471Y-21253654D02*
X9356518Y-21244130D01*
X9356518Y-21244130D02*
X9366042Y-21234606D01*
X9366042Y-21234606D02*
X9385090Y-21206035D01*
X9385090Y-21206035D02*
X9394614Y-21167940D01*
X9394614Y-21167940D02*
X9394614Y-21091749D01*
X9394614Y-21091749D02*
X9385090Y-21072702D01*
X9385090Y-21072702D02*
X9375566Y-21063178D01*
X9375566Y-21063178D02*
X9356518Y-21053654D01*
X9356518Y-21053654D02*
X9318423Y-21053654D01*
X9318423Y-21053654D02*
X9299376Y-21063178D01*
X9299376Y-21063178D02*
X9289852Y-21072702D01*
X9289852Y-21072702D02*
X9280328Y-21091749D01*
X9280328Y-21091749D02*
X9280328Y-21139368D01*
X9280328Y-21139368D02*
X9289852Y-21158416D01*
X9289852Y-21158416D02*
X9299376Y-21167940D01*
X9299376Y-21167940D02*
X9318423Y-21177463D01*
X9318423Y-21177463D02*
X9356518Y-21177463D01*
X9356518Y-21177463D02*
X9375566Y-21167940D01*
X9375566Y-21167940D02*
X9385090Y-21158416D01*
X9385090Y-21158416D02*
X9394614Y-21139368D01*
X9470804Y-21053654D02*
X9470804Y-21091749D01*
X9546995Y-21053654D02*
X9546995Y-21091749D01*
X9842233Y-21329844D02*
X9832709Y-21320321D01*
X9832709Y-21320321D02*
X9813661Y-21291749D01*
X9813661Y-21291749D02*
X9804138Y-21272702D01*
X9804138Y-21272702D02*
X9794614Y-21244130D01*
X9794614Y-21244130D02*
X9785090Y-21196511D01*
X9785090Y-21196511D02*
X9785090Y-21158416D01*
X9785090Y-21158416D02*
X9794614Y-21110797D01*
X9794614Y-21110797D02*
X9804138Y-21082225D01*
X9804138Y-21082225D02*
X9813661Y-21063178D01*
X9813661Y-21063178D02*
X9832709Y-21034606D01*
X9832709Y-21034606D02*
X9842233Y-21025082D01*
X9908899Y-21072702D02*
X9918423Y-21063178D01*
X9918423Y-21063178D02*
X9937471Y-21053654D01*
X9937471Y-21053654D02*
X9985090Y-21053654D01*
X9985090Y-21053654D02*
X10004138Y-21063178D01*
X10004138Y-21063178D02*
X10013661Y-21072702D01*
X10013661Y-21072702D02*
X10023185Y-21091749D01*
X10023185Y-21091749D02*
X10023185Y-21110797D01*
X10023185Y-21110797D02*
X10013661Y-21139368D01*
X10013661Y-21139368D02*
X9899376Y-21253654D01*
X9899376Y-21253654D02*
X10023185Y-21253654D01*
X10194614Y-21053654D02*
X10156518Y-21053654D01*
X10156518Y-21053654D02*
X10137471Y-21063178D01*
X10137471Y-21063178D02*
X10127947Y-21072702D01*
X10127947Y-21072702D02*
X10108899Y-21101273D01*
X10108899Y-21101273D02*
X10099376Y-21139368D01*
X10099376Y-21139368D02*
X10099376Y-21215559D01*
X10099376Y-21215559D02*
X10108899Y-21234606D01*
X10108899Y-21234606D02*
X10118423Y-21244130D01*
X10118423Y-21244130D02*
X10137471Y-21253654D01*
X10137471Y-21253654D02*
X10175566Y-21253654D01*
X10175566Y-21253654D02*
X10194614Y-21244130D01*
X10194614Y-21244130D02*
X10204138Y-21234606D01*
X10204138Y-21234606D02*
X10213661Y-21215559D01*
X10213661Y-21215559D02*
X10213661Y-21167940D01*
X10213661Y-21167940D02*
X10204138Y-21148892D01*
X10204138Y-21148892D02*
X10194614Y-21139368D01*
X10194614Y-21139368D02*
X10175566Y-21129844D01*
X10175566Y-21129844D02*
X10137471Y-21129844D01*
X10137471Y-21129844D02*
X10118423Y-21139368D01*
X10118423Y-21139368D02*
X10108899Y-21148892D01*
X10108899Y-21148892D02*
X10099376Y-21167940D01*
X10451757Y-21253654D02*
X10451757Y-21053654D01*
X10537471Y-21253654D02*
X10537471Y-21148892D01*
X10537471Y-21148892D02*
X10527947Y-21129844D01*
X10527947Y-21129844D02*
X10508900Y-21120321D01*
X10508900Y-21120321D02*
X10480328Y-21120321D01*
X10480328Y-21120321D02*
X10461280Y-21129844D01*
X10461280Y-21129844D02*
X10451757Y-21139368D01*
X10661280Y-21253654D02*
X10642233Y-21244130D01*
X10642233Y-21244130D02*
X10632709Y-21234606D01*
X10632709Y-21234606D02*
X10623185Y-21215559D01*
X10623185Y-21215559D02*
X10623185Y-21158416D01*
X10623185Y-21158416D02*
X10632709Y-21139368D01*
X10632709Y-21139368D02*
X10642233Y-21129844D01*
X10642233Y-21129844D02*
X10661280Y-21120321D01*
X10661280Y-21120321D02*
X10689852Y-21120321D01*
X10689852Y-21120321D02*
X10708900Y-21129844D01*
X10708900Y-21129844D02*
X10718423Y-21139368D01*
X10718423Y-21139368D02*
X10727947Y-21158416D01*
X10727947Y-21158416D02*
X10727947Y-21215559D01*
X10727947Y-21215559D02*
X10718423Y-21234606D01*
X10718423Y-21234606D02*
X10708900Y-21244130D01*
X10708900Y-21244130D02*
X10689852Y-21253654D01*
X10689852Y-21253654D02*
X10661280Y-21253654D01*
X10842233Y-21253654D02*
X10823185Y-21244130D01*
X10823185Y-21244130D02*
X10813661Y-21225082D01*
X10813661Y-21225082D02*
X10813661Y-21053654D01*
X10994614Y-21244130D02*
X10975566Y-21253654D01*
X10975566Y-21253654D02*
X10937471Y-21253654D01*
X10937471Y-21253654D02*
X10918423Y-21244130D01*
X10918423Y-21244130D02*
X10908900Y-21225082D01*
X10908900Y-21225082D02*
X10908900Y-21148892D01*
X10908900Y-21148892D02*
X10918423Y-21129844D01*
X10918423Y-21129844D02*
X10937471Y-21120321D01*
X10937471Y-21120321D02*
X10975566Y-21120321D01*
X10975566Y-21120321D02*
X10994614Y-21129844D01*
X10994614Y-21129844D02*
X11004138Y-21148892D01*
X11004138Y-21148892D02*
X11004138Y-21167940D01*
X11004138Y-21167940D02*
X10908900Y-21186987D01*
X11080328Y-21244130D02*
X11099376Y-21253654D01*
X11099376Y-21253654D02*
X11137471Y-21253654D01*
X11137471Y-21253654D02*
X11156519Y-21244130D01*
X11156519Y-21244130D02*
X11166042Y-21225082D01*
X11166042Y-21225082D02*
X11166042Y-21215559D01*
X11166042Y-21215559D02*
X11156519Y-21196511D01*
X11156519Y-21196511D02*
X11137471Y-21186987D01*
X11137471Y-21186987D02*
X11108900Y-21186987D01*
X11108900Y-21186987D02*
X11089852Y-21177463D01*
X11089852Y-21177463D02*
X11080328Y-21158416D01*
X11080328Y-21158416D02*
X11080328Y-21148892D01*
X11080328Y-21148892D02*
X11089852Y-21129844D01*
X11089852Y-21129844D02*
X11108900Y-21120321D01*
X11108900Y-21120321D02*
X11137471Y-21120321D01*
X11137471Y-21120321D02*
X11156519Y-21129844D01*
X11232709Y-21329844D02*
X11242233Y-21320321D01*
X11242233Y-21320321D02*
X11261280Y-21291749D01*
X11261280Y-21291749D02*
X11270804Y-21272702D01*
X11270804Y-21272702D02*
X11280328Y-21244130D01*
X11280328Y-21244130D02*
X11289852Y-21196511D01*
X11289852Y-21196511D02*
X11289852Y-21158416D01*
X11289852Y-21158416D02*
X11280328Y-21110797D01*
X11280328Y-21110797D02*
X11270804Y-21082225D01*
X11270804Y-21082225D02*
X11261280Y-21063178D01*
X11261280Y-21063178D02*
X11242233Y-21034606D01*
X11242233Y-21034606D02*
X11232709Y-21025082D01*
X11594614Y-21329844D02*
X11585090Y-21320321D01*
X11585090Y-21320321D02*
X11566042Y-21291749D01*
X11566042Y-21291749D02*
X11556519Y-21272702D01*
X11556519Y-21272702D02*
X11546995Y-21244130D01*
X11546995Y-21244130D02*
X11537471Y-21196511D01*
X11537471Y-21196511D02*
X11537471Y-21158416D01*
X11537471Y-21158416D02*
X11546995Y-21110797D01*
X11546995Y-21110797D02*
X11556519Y-21082225D01*
X11556519Y-21082225D02*
X11566042Y-21063178D01*
X11566042Y-21063178D02*
X11585090Y-21034606D01*
X11585090Y-21034606D02*
X11594614Y-21025082D01*
X11670804Y-21120321D02*
X11670804Y-21253654D01*
X11670804Y-21139368D02*
X11680328Y-21129844D01*
X11680328Y-21129844D02*
X11699376Y-21120321D01*
X11699376Y-21120321D02*
X11727947Y-21120321D01*
X11727947Y-21120321D02*
X11746995Y-21129844D01*
X11746995Y-21129844D02*
X11756519Y-21148892D01*
X11756519Y-21148892D02*
X11756519Y-21253654D01*
X11880328Y-21253654D02*
X11861280Y-21244130D01*
X11861280Y-21244130D02*
X11851757Y-21234606D01*
X11851757Y-21234606D02*
X11842233Y-21215559D01*
X11842233Y-21215559D02*
X11842233Y-21158416D01*
X11842233Y-21158416D02*
X11851757Y-21139368D01*
X11851757Y-21139368D02*
X11861280Y-21129844D01*
X11861280Y-21129844D02*
X11880328Y-21120321D01*
X11880328Y-21120321D02*
X11908900Y-21120321D01*
X11908900Y-21120321D02*
X11927947Y-21129844D01*
X11927947Y-21129844D02*
X11937471Y-21139368D01*
X11937471Y-21139368D02*
X11946995Y-21158416D01*
X11946995Y-21158416D02*
X11946995Y-21215559D01*
X11946995Y-21215559D02*
X11937471Y-21234606D01*
X11937471Y-21234606D02*
X11927947Y-21244130D01*
X11927947Y-21244130D02*
X11908900Y-21253654D01*
X11908900Y-21253654D02*
X11880328Y-21253654D01*
X12004138Y-21120321D02*
X12080328Y-21120321D01*
X12032709Y-21053654D02*
X12032709Y-21225082D01*
X12032709Y-21225082D02*
X12042233Y-21244130D01*
X12042233Y-21244130D02*
X12061280Y-21253654D01*
X12061280Y-21253654D02*
X12080328Y-21253654D01*
X12299376Y-21120321D02*
X12299376Y-21320321D01*
X12299376Y-21129844D02*
X12318423Y-21120321D01*
X12318423Y-21120321D02*
X12356519Y-21120321D01*
X12356519Y-21120321D02*
X12375566Y-21129844D01*
X12375566Y-21129844D02*
X12385090Y-21139368D01*
X12385090Y-21139368D02*
X12394614Y-21158416D01*
X12394614Y-21158416D02*
X12394614Y-21215559D01*
X12394614Y-21215559D02*
X12385090Y-21234606D01*
X12385090Y-21234606D02*
X12375566Y-21244130D01*
X12375566Y-21244130D02*
X12356519Y-21253654D01*
X12356519Y-21253654D02*
X12318423Y-21253654D01*
X12318423Y-21253654D02*
X12299376Y-21244130D01*
X12508900Y-21253654D02*
X12489852Y-21244130D01*
X12489852Y-21244130D02*
X12480328Y-21225082D01*
X12480328Y-21225082D02*
X12480328Y-21053654D01*
X12670804Y-21253654D02*
X12670804Y-21148892D01*
X12670804Y-21148892D02*
X12661281Y-21129844D01*
X12661281Y-21129844D02*
X12642233Y-21120321D01*
X12642233Y-21120321D02*
X12604138Y-21120321D01*
X12604138Y-21120321D02*
X12585090Y-21129844D01*
X12670804Y-21244130D02*
X12651757Y-21253654D01*
X12651757Y-21253654D02*
X12604138Y-21253654D01*
X12604138Y-21253654D02*
X12585090Y-21244130D01*
X12585090Y-21244130D02*
X12575566Y-21225082D01*
X12575566Y-21225082D02*
X12575566Y-21206035D01*
X12575566Y-21206035D02*
X12585090Y-21186987D01*
X12585090Y-21186987D02*
X12604138Y-21177463D01*
X12604138Y-21177463D02*
X12651757Y-21177463D01*
X12651757Y-21177463D02*
X12670804Y-21167940D01*
X12737471Y-21120321D02*
X12813661Y-21120321D01*
X12766042Y-21053654D02*
X12766042Y-21225082D01*
X12766042Y-21225082D02*
X12775566Y-21244130D01*
X12775566Y-21244130D02*
X12794614Y-21253654D01*
X12794614Y-21253654D02*
X12813661Y-21253654D01*
X12956519Y-21244130D02*
X12937471Y-21253654D01*
X12937471Y-21253654D02*
X12899376Y-21253654D01*
X12899376Y-21253654D02*
X12880328Y-21244130D01*
X12880328Y-21244130D02*
X12870804Y-21225082D01*
X12870804Y-21225082D02*
X12870804Y-21148892D01*
X12870804Y-21148892D02*
X12880328Y-21129844D01*
X12880328Y-21129844D02*
X12899376Y-21120321D01*
X12899376Y-21120321D02*
X12937471Y-21120321D01*
X12937471Y-21120321D02*
X12956519Y-21129844D01*
X12956519Y-21129844D02*
X12966042Y-21148892D01*
X12966042Y-21148892D02*
X12966042Y-21167940D01*
X12966042Y-21167940D02*
X12870804Y-21186987D01*
X13137471Y-21253654D02*
X13137471Y-21053654D01*
X13137471Y-21244130D02*
X13118423Y-21253654D01*
X13118423Y-21253654D02*
X13080328Y-21253654D01*
X13080328Y-21253654D02*
X13061281Y-21244130D01*
X13061281Y-21244130D02*
X13051757Y-21234606D01*
X13051757Y-21234606D02*
X13042233Y-21215559D01*
X13042233Y-21215559D02*
X13042233Y-21158416D01*
X13042233Y-21158416D02*
X13051757Y-21139368D01*
X13051757Y-21139368D02*
X13061281Y-21129844D01*
X13061281Y-21129844D02*
X13080328Y-21120321D01*
X13080328Y-21120321D02*
X13118423Y-21120321D01*
X13118423Y-21120321D02*
X13137471Y-21129844D01*
X13213662Y-21329844D02*
X13223185Y-21320321D01*
X13223185Y-21320321D02*
X13242233Y-21291749D01*
X13242233Y-21291749D02*
X13251757Y-21272702D01*
X13251757Y-21272702D02*
X13261281Y-21244130D01*
X13261281Y-21244130D02*
X13270804Y-21196511D01*
X13270804Y-21196511D02*
X13270804Y-21158416D01*
X13270804Y-21158416D02*
X13261281Y-21110797D01*
X13261281Y-21110797D02*
X13251757Y-21082225D01*
X13251757Y-21082225D02*
X13242233Y-21063178D01*
X13242233Y-21063178D02*
X13223185Y-21034606D01*
X13223185Y-21034606D02*
X13213662Y-21025082D01*
X6267170Y-21462170D02*
G75*
G02*
X6067170Y-21462170I-100000J0D01*
G01*
X6067170Y-21462170D02*
G75*
G02*
X6267170Y-21462170I100000J0D01*
G01*
X6623185Y-21353654D02*
X6527947Y-21353654D01*
X6527947Y-21353654D02*
X6518423Y-21448892D01*
X6518423Y-21448892D02*
X6527947Y-21439368D01*
X6527947Y-21439368D02*
X6546994Y-21429844D01*
X6546994Y-21429844D02*
X6594613Y-21429844D01*
X6594613Y-21429844D02*
X6613661Y-21439368D01*
X6613661Y-21439368D02*
X6623185Y-21448892D01*
X6623185Y-21448892D02*
X6632709Y-21467940D01*
X6632709Y-21467940D02*
X6632709Y-21515559D01*
X6632709Y-21515559D02*
X6623185Y-21534606D01*
X6623185Y-21534606D02*
X6613661Y-21544130D01*
X6613661Y-21544130D02*
X6594613Y-21553654D01*
X6594613Y-21553654D02*
X6546994Y-21553654D01*
X6546994Y-21553654D02*
X6527947Y-21544130D01*
X6527947Y-21544130D02*
X6518423Y-21534606D01*
X6718423Y-21534606D02*
X6727947Y-21544130D01*
X6727947Y-21544130D02*
X6718423Y-21553654D01*
X6718423Y-21553654D02*
X6708899Y-21544130D01*
X6708899Y-21544130D02*
X6718423Y-21534606D01*
X6718423Y-21534606D02*
X6718423Y-21553654D01*
X6899375Y-21420321D02*
X6899375Y-21553654D01*
X6851756Y-21344130D02*
X6804137Y-21486987D01*
X6804137Y-21486987D02*
X6927947Y-21486987D01*
X7042232Y-21353654D02*
X7061280Y-21353654D01*
X7061280Y-21353654D02*
X7080328Y-21363178D01*
X7080328Y-21363178D02*
X7089851Y-21372702D01*
X7089851Y-21372702D02*
X7099375Y-21391749D01*
X7099375Y-21391749D02*
X7108899Y-21429844D01*
X7108899Y-21429844D02*
X7108899Y-21477463D01*
X7108899Y-21477463D02*
X7099375Y-21515559D01*
X7099375Y-21515559D02*
X7089851Y-21534606D01*
X7089851Y-21534606D02*
X7080328Y-21544130D01*
X7080328Y-21544130D02*
X7061280Y-21553654D01*
X7061280Y-21553654D02*
X7042232Y-21553654D01*
X7042232Y-21553654D02*
X7023185Y-21544130D01*
X7023185Y-21544130D02*
X7013661Y-21534606D01*
X7013661Y-21534606D02*
X7004137Y-21515559D01*
X7004137Y-21515559D02*
X6994613Y-21477463D01*
X6994613Y-21477463D02*
X6994613Y-21429844D01*
X6994613Y-21429844D02*
X7004137Y-21391749D01*
X7004137Y-21391749D02*
X7013661Y-21372702D01*
X7013661Y-21372702D02*
X7023185Y-21363178D01*
X7023185Y-21363178D02*
X7042232Y-21353654D01*
X7232709Y-21353654D02*
X7251756Y-21353654D01*
X7251756Y-21353654D02*
X7270804Y-21363178D01*
X7270804Y-21363178D02*
X7280328Y-21372702D01*
X7280328Y-21372702D02*
X7289851Y-21391749D01*
X7289851Y-21391749D02*
X7299375Y-21429844D01*
X7299375Y-21429844D02*
X7299375Y-21477463D01*
X7299375Y-21477463D02*
X7289851Y-21515559D01*
X7289851Y-21515559D02*
X7280328Y-21534606D01*
X7280328Y-21534606D02*
X7270804Y-21544130D01*
X7270804Y-21544130D02*
X7251756Y-21553654D01*
X7251756Y-21553654D02*
X7232709Y-21553654D01*
X7232709Y-21553654D02*
X7213661Y-21544130D01*
X7213661Y-21544130D02*
X7204137Y-21534606D01*
X7204137Y-21534606D02*
X7194613Y-21515559D01*
X7194613Y-21515559D02*
X7185090Y-21477463D01*
X7185090Y-21477463D02*
X7185090Y-21429844D01*
X7185090Y-21429844D02*
X7194613Y-21391749D01*
X7194613Y-21391749D02*
X7204137Y-21372702D01*
X7204137Y-21372702D02*
X7213661Y-21363178D01*
X7213661Y-21363178D02*
X7232709Y-21353654D01*
X7385090Y-21553654D02*
X7385090Y-21420321D01*
X7385090Y-21439368D02*
X7394613Y-21429844D01*
X7394613Y-21429844D02*
X7413661Y-21420321D01*
X7413661Y-21420321D02*
X7442232Y-21420321D01*
X7442232Y-21420321D02*
X7461280Y-21429844D01*
X7461280Y-21429844D02*
X7470804Y-21448892D01*
X7470804Y-21448892D02*
X7470804Y-21553654D01*
X7470804Y-21448892D02*
X7480328Y-21429844D01*
X7480328Y-21429844D02*
X7499375Y-21420321D01*
X7499375Y-21420321D02*
X7527947Y-21420321D01*
X7527947Y-21420321D02*
X7546994Y-21429844D01*
X7546994Y-21429844D02*
X7556518Y-21448892D01*
X7556518Y-21448892D02*
X7556518Y-21553654D01*
X7651756Y-21553654D02*
X7651756Y-21420321D01*
X7651756Y-21439368D02*
X7661280Y-21429844D01*
X7661280Y-21429844D02*
X7680328Y-21420321D01*
X7680328Y-21420321D02*
X7708899Y-21420321D01*
X7708899Y-21420321D02*
X7727947Y-21429844D01*
X7727947Y-21429844D02*
X7737471Y-21448892D01*
X7737471Y-21448892D02*
X7737471Y-21553654D01*
X7737471Y-21448892D02*
X7746994Y-21429844D01*
X7746994Y-21429844D02*
X7766042Y-21420321D01*
X7766042Y-21420321D02*
X7794613Y-21420321D01*
X7794613Y-21420321D02*
X7813661Y-21429844D01*
X7813661Y-21429844D02*
X7823185Y-21448892D01*
X7823185Y-21448892D02*
X7823185Y-21553654D01*
X8213661Y-21344130D02*
X8042233Y-21601273D01*
X8470804Y-21353654D02*
X8489852Y-21353654D01*
X8489852Y-21353654D02*
X8508899Y-21363178D01*
X8508899Y-21363178D02*
X8518423Y-21372702D01*
X8518423Y-21372702D02*
X8527947Y-21391749D01*
X8527947Y-21391749D02*
X8537471Y-21429844D01*
X8537471Y-21429844D02*
X8537471Y-21477463D01*
X8537471Y-21477463D02*
X8527947Y-21515559D01*
X8527947Y-21515559D02*
X8518423Y-21534606D01*
X8518423Y-21534606D02*
X8508899Y-21544130D01*
X8508899Y-21544130D02*
X8489852Y-21553654D01*
X8489852Y-21553654D02*
X8470804Y-21553654D01*
X8470804Y-21553654D02*
X8451756Y-21544130D01*
X8451756Y-21544130D02*
X8442233Y-21534606D01*
X8442233Y-21534606D02*
X8432709Y-21515559D01*
X8432709Y-21515559D02*
X8423185Y-21477463D01*
X8423185Y-21477463D02*
X8423185Y-21429844D01*
X8423185Y-21429844D02*
X8432709Y-21391749D01*
X8432709Y-21391749D02*
X8442233Y-21372702D01*
X8442233Y-21372702D02*
X8451756Y-21363178D01*
X8451756Y-21363178D02*
X8470804Y-21353654D01*
X8623185Y-21534606D02*
X8632709Y-21544130D01*
X8632709Y-21544130D02*
X8623185Y-21553654D01*
X8623185Y-21553654D02*
X8613661Y-21544130D01*
X8613661Y-21544130D02*
X8623185Y-21534606D01*
X8623185Y-21534606D02*
X8623185Y-21553654D01*
X8708899Y-21372702D02*
X8718423Y-21363178D01*
X8718423Y-21363178D02*
X8737471Y-21353654D01*
X8737471Y-21353654D02*
X8785090Y-21353654D01*
X8785090Y-21353654D02*
X8804137Y-21363178D01*
X8804137Y-21363178D02*
X8813661Y-21372702D01*
X8813661Y-21372702D02*
X8823185Y-21391749D01*
X8823185Y-21391749D02*
X8823185Y-21410797D01*
X8823185Y-21410797D02*
X8813661Y-21439368D01*
X8813661Y-21439368D02*
X8699376Y-21553654D01*
X8699376Y-21553654D02*
X8823185Y-21553654D01*
X9013661Y-21553654D02*
X8899376Y-21553654D01*
X8956518Y-21553654D02*
X8956518Y-21353654D01*
X8956518Y-21353654D02*
X8937471Y-21382225D01*
X8937471Y-21382225D02*
X8918423Y-21401273D01*
X8918423Y-21401273D02*
X8899376Y-21410797D01*
X9089852Y-21372702D02*
X9099376Y-21363178D01*
X9099376Y-21363178D02*
X9118423Y-21353654D01*
X9118423Y-21353654D02*
X9166042Y-21353654D01*
X9166042Y-21353654D02*
X9185090Y-21363178D01*
X9185090Y-21363178D02*
X9194614Y-21372702D01*
X9194614Y-21372702D02*
X9204137Y-21391749D01*
X9204137Y-21391749D02*
X9204137Y-21410797D01*
X9204137Y-21410797D02*
X9194614Y-21439368D01*
X9194614Y-21439368D02*
X9080328Y-21553654D01*
X9080328Y-21553654D02*
X9204137Y-21553654D01*
X9375566Y-21353654D02*
X9337471Y-21353654D01*
X9337471Y-21353654D02*
X9318423Y-21363178D01*
X9318423Y-21363178D02*
X9308899Y-21372702D01*
X9308899Y-21372702D02*
X9289852Y-21401273D01*
X9289852Y-21401273D02*
X9280328Y-21439368D01*
X9280328Y-21439368D02*
X9280328Y-21515559D01*
X9280328Y-21515559D02*
X9289852Y-21534606D01*
X9289852Y-21534606D02*
X9299376Y-21544130D01*
X9299376Y-21544130D02*
X9318423Y-21553654D01*
X9318423Y-21553654D02*
X9356518Y-21553654D01*
X9356518Y-21553654D02*
X9375566Y-21544130D01*
X9375566Y-21544130D02*
X9385090Y-21534606D01*
X9385090Y-21534606D02*
X9394614Y-21515559D01*
X9394614Y-21515559D02*
X9394614Y-21467940D01*
X9394614Y-21467940D02*
X9385090Y-21448892D01*
X9385090Y-21448892D02*
X9375566Y-21439368D01*
X9375566Y-21439368D02*
X9356518Y-21429844D01*
X9356518Y-21429844D02*
X9318423Y-21429844D01*
X9318423Y-21429844D02*
X9299376Y-21439368D01*
X9299376Y-21439368D02*
X9289852Y-21448892D01*
X9289852Y-21448892D02*
X9280328Y-21467940D01*
X9470804Y-21353654D02*
X9470804Y-21391749D01*
X9546995Y-21353654D02*
X9546995Y-21391749D01*
X9842233Y-21629844D02*
X9832709Y-21620321D01*
X9832709Y-21620321D02*
X9813661Y-21591749D01*
X9813661Y-21591749D02*
X9804138Y-21572702D01*
X9804138Y-21572702D02*
X9794614Y-21544130D01*
X9794614Y-21544130D02*
X9785090Y-21496511D01*
X9785090Y-21496511D02*
X9785090Y-21458416D01*
X9785090Y-21458416D02*
X9794614Y-21410797D01*
X9794614Y-21410797D02*
X9804138Y-21382225D01*
X9804138Y-21382225D02*
X9813661Y-21363178D01*
X9813661Y-21363178D02*
X9832709Y-21334606D01*
X9832709Y-21334606D02*
X9842233Y-21325082D01*
X10023185Y-21553654D02*
X9908899Y-21553654D01*
X9966042Y-21553654D02*
X9966042Y-21353654D01*
X9966042Y-21353654D02*
X9946995Y-21382225D01*
X9946995Y-21382225D02*
X9927947Y-21401273D01*
X9927947Y-21401273D02*
X9908899Y-21410797D01*
X10089852Y-21353654D02*
X10213661Y-21353654D01*
X10213661Y-21353654D02*
X10146995Y-21429844D01*
X10146995Y-21429844D02*
X10175566Y-21429844D01*
X10175566Y-21429844D02*
X10194614Y-21439368D01*
X10194614Y-21439368D02*
X10204138Y-21448892D01*
X10204138Y-21448892D02*
X10213661Y-21467940D01*
X10213661Y-21467940D02*
X10213661Y-21515559D01*
X10213661Y-21515559D02*
X10204138Y-21534606D01*
X10204138Y-21534606D02*
X10194614Y-21544130D01*
X10194614Y-21544130D02*
X10175566Y-21553654D01*
X10175566Y-21553654D02*
X10118423Y-21553654D01*
X10118423Y-21553654D02*
X10099376Y-21544130D01*
X10099376Y-21544130D02*
X10089852Y-21534606D01*
X10451757Y-21553654D02*
X10451757Y-21353654D01*
X10537471Y-21553654D02*
X10537471Y-21448892D01*
X10537471Y-21448892D02*
X10527947Y-21429844D01*
X10527947Y-21429844D02*
X10508900Y-21420321D01*
X10508900Y-21420321D02*
X10480328Y-21420321D01*
X10480328Y-21420321D02*
X10461280Y-21429844D01*
X10461280Y-21429844D02*
X10451757Y-21439368D01*
X10661280Y-21553654D02*
X10642233Y-21544130D01*
X10642233Y-21544130D02*
X10632709Y-21534606D01*
X10632709Y-21534606D02*
X10623185Y-21515559D01*
X10623185Y-21515559D02*
X10623185Y-21458416D01*
X10623185Y-21458416D02*
X10632709Y-21439368D01*
X10632709Y-21439368D02*
X10642233Y-21429844D01*
X10642233Y-21429844D02*
X10661280Y-21420321D01*
X10661280Y-21420321D02*
X10689852Y-21420321D01*
X10689852Y-21420321D02*
X10708900Y-21429844D01*
X10708900Y-21429844D02*
X10718423Y-21439368D01*
X10718423Y-21439368D02*
X10727947Y-21458416D01*
X10727947Y-21458416D02*
X10727947Y-21515559D01*
X10727947Y-21515559D02*
X10718423Y-21534606D01*
X10718423Y-21534606D02*
X10708900Y-21544130D01*
X10708900Y-21544130D02*
X10689852Y-21553654D01*
X10689852Y-21553654D02*
X10661280Y-21553654D01*
X10842233Y-21553654D02*
X10823185Y-21544130D01*
X10823185Y-21544130D02*
X10813661Y-21525082D01*
X10813661Y-21525082D02*
X10813661Y-21353654D01*
X10994614Y-21544130D02*
X10975566Y-21553654D01*
X10975566Y-21553654D02*
X10937471Y-21553654D01*
X10937471Y-21553654D02*
X10918423Y-21544130D01*
X10918423Y-21544130D02*
X10908900Y-21525082D01*
X10908900Y-21525082D02*
X10908900Y-21448892D01*
X10908900Y-21448892D02*
X10918423Y-21429844D01*
X10918423Y-21429844D02*
X10937471Y-21420321D01*
X10937471Y-21420321D02*
X10975566Y-21420321D01*
X10975566Y-21420321D02*
X10994614Y-21429844D01*
X10994614Y-21429844D02*
X11004138Y-21448892D01*
X11004138Y-21448892D02*
X11004138Y-21467940D01*
X11004138Y-21467940D02*
X10908900Y-21486987D01*
X11080328Y-21544130D02*
X11099376Y-21553654D01*
X11099376Y-21553654D02*
X11137471Y-21553654D01*
X11137471Y-21553654D02*
X11156519Y-21544130D01*
X11156519Y-21544130D02*
X11166042Y-21525082D01*
X11166042Y-21525082D02*
X11166042Y-21515559D01*
X11166042Y-21515559D02*
X11156519Y-21496511D01*
X11156519Y-21496511D02*
X11137471Y-21486987D01*
X11137471Y-21486987D02*
X11108900Y-21486987D01*
X11108900Y-21486987D02*
X11089852Y-21477463D01*
X11089852Y-21477463D02*
X11080328Y-21458416D01*
X11080328Y-21458416D02*
X11080328Y-21448892D01*
X11080328Y-21448892D02*
X11089852Y-21429844D01*
X11089852Y-21429844D02*
X11108900Y-21420321D01*
X11108900Y-21420321D02*
X11137471Y-21420321D01*
X11137471Y-21420321D02*
X11156519Y-21429844D01*
X11232709Y-21629844D02*
X11242233Y-21620321D01*
X11242233Y-21620321D02*
X11261280Y-21591749D01*
X11261280Y-21591749D02*
X11270804Y-21572702D01*
X11270804Y-21572702D02*
X11280328Y-21544130D01*
X11280328Y-21544130D02*
X11289852Y-21496511D01*
X11289852Y-21496511D02*
X11289852Y-21458416D01*
X11289852Y-21458416D02*
X11280328Y-21410797D01*
X11280328Y-21410797D02*
X11270804Y-21382225D01*
X11270804Y-21382225D02*
X11261280Y-21363178D01*
X11261280Y-21363178D02*
X11242233Y-21334606D01*
X11242233Y-21334606D02*
X11232709Y-21325082D01*
X11594614Y-21629844D02*
X11585090Y-21620321D01*
X11585090Y-21620321D02*
X11566042Y-21591749D01*
X11566042Y-21591749D02*
X11556519Y-21572702D01*
X11556519Y-21572702D02*
X11546995Y-21544130D01*
X11546995Y-21544130D02*
X11537471Y-21496511D01*
X11537471Y-21496511D02*
X11537471Y-21458416D01*
X11537471Y-21458416D02*
X11546995Y-21410797D01*
X11546995Y-21410797D02*
X11556519Y-21382225D01*
X11556519Y-21382225D02*
X11566042Y-21363178D01*
X11566042Y-21363178D02*
X11585090Y-21334606D01*
X11585090Y-21334606D02*
X11594614Y-21325082D01*
X11670804Y-21420321D02*
X11670804Y-21553654D01*
X11670804Y-21439368D02*
X11680328Y-21429844D01*
X11680328Y-21429844D02*
X11699376Y-21420321D01*
X11699376Y-21420321D02*
X11727947Y-21420321D01*
X11727947Y-21420321D02*
X11746995Y-21429844D01*
X11746995Y-21429844D02*
X11756519Y-21448892D01*
X11756519Y-21448892D02*
X11756519Y-21553654D01*
X11880328Y-21553654D02*
X11861280Y-21544130D01*
X11861280Y-21544130D02*
X11851757Y-21534606D01*
X11851757Y-21534606D02*
X11842233Y-21515559D01*
X11842233Y-21515559D02*
X11842233Y-21458416D01*
X11842233Y-21458416D02*
X11851757Y-21439368D01*
X11851757Y-21439368D02*
X11861280Y-21429844D01*
X11861280Y-21429844D02*
X11880328Y-21420321D01*
X11880328Y-21420321D02*
X11908900Y-21420321D01*
X11908900Y-21420321D02*
X11927947Y-21429844D01*
X11927947Y-21429844D02*
X11937471Y-21439368D01*
X11937471Y-21439368D02*
X11946995Y-21458416D01*
X11946995Y-21458416D02*
X11946995Y-21515559D01*
X11946995Y-21515559D02*
X11937471Y-21534606D01*
X11937471Y-21534606D02*
X11927947Y-21544130D01*
X11927947Y-21544130D02*
X11908900Y-21553654D01*
X11908900Y-21553654D02*
X11880328Y-21553654D01*
X12004138Y-21420321D02*
X12080328Y-21420321D01*
X12032709Y-21353654D02*
X12032709Y-21525082D01*
X12032709Y-21525082D02*
X12042233Y-21544130D01*
X12042233Y-21544130D02*
X12061280Y-21553654D01*
X12061280Y-21553654D02*
X12080328Y-21553654D01*
X12299376Y-21420321D02*
X12299376Y-21620321D01*
X12299376Y-21429844D02*
X12318423Y-21420321D01*
X12318423Y-21420321D02*
X12356519Y-21420321D01*
X12356519Y-21420321D02*
X12375566Y-21429844D01*
X12375566Y-21429844D02*
X12385090Y-21439368D01*
X12385090Y-21439368D02*
X12394614Y-21458416D01*
X12394614Y-21458416D02*
X12394614Y-21515559D01*
X12394614Y-21515559D02*
X12385090Y-21534606D01*
X12385090Y-21534606D02*
X12375566Y-21544130D01*
X12375566Y-21544130D02*
X12356519Y-21553654D01*
X12356519Y-21553654D02*
X12318423Y-21553654D01*
X12318423Y-21553654D02*
X12299376Y-21544130D01*
X12508900Y-21553654D02*
X12489852Y-21544130D01*
X12489852Y-21544130D02*
X12480328Y-21525082D01*
X12480328Y-21525082D02*
X12480328Y-21353654D01*
X12670804Y-21553654D02*
X12670804Y-21448892D01*
X12670804Y-21448892D02*
X12661281Y-21429844D01*
X12661281Y-21429844D02*
X12642233Y-21420321D01*
X12642233Y-21420321D02*
X12604138Y-21420321D01*
X12604138Y-21420321D02*
X12585090Y-21429844D01*
X12670804Y-21544130D02*
X12651757Y-21553654D01*
X12651757Y-21553654D02*
X12604138Y-21553654D01*
X12604138Y-21553654D02*
X12585090Y-21544130D01*
X12585090Y-21544130D02*
X12575566Y-21525082D01*
X12575566Y-21525082D02*
X12575566Y-21506035D01*
X12575566Y-21506035D02*
X12585090Y-21486987D01*
X12585090Y-21486987D02*
X12604138Y-21477463D01*
X12604138Y-21477463D02*
X12651757Y-21477463D01*
X12651757Y-21477463D02*
X12670804Y-21467940D01*
X12737471Y-21420321D02*
X12813661Y-21420321D01*
X12766042Y-21353654D02*
X12766042Y-21525082D01*
X12766042Y-21525082D02*
X12775566Y-21544130D01*
X12775566Y-21544130D02*
X12794614Y-21553654D01*
X12794614Y-21553654D02*
X12813661Y-21553654D01*
X12956519Y-21544130D02*
X12937471Y-21553654D01*
X12937471Y-21553654D02*
X12899376Y-21553654D01*
X12899376Y-21553654D02*
X12880328Y-21544130D01*
X12880328Y-21544130D02*
X12870804Y-21525082D01*
X12870804Y-21525082D02*
X12870804Y-21448892D01*
X12870804Y-21448892D02*
X12880328Y-21429844D01*
X12880328Y-21429844D02*
X12899376Y-21420321D01*
X12899376Y-21420321D02*
X12937471Y-21420321D01*
X12937471Y-21420321D02*
X12956519Y-21429844D01*
X12956519Y-21429844D02*
X12966042Y-21448892D01*
X12966042Y-21448892D02*
X12966042Y-21467940D01*
X12966042Y-21467940D02*
X12870804Y-21486987D01*
X13137471Y-21553654D02*
X13137471Y-21353654D01*
X13137471Y-21544130D02*
X13118423Y-21553654D01*
X13118423Y-21553654D02*
X13080328Y-21553654D01*
X13080328Y-21553654D02*
X13061281Y-21544130D01*
X13061281Y-21544130D02*
X13051757Y-21534606D01*
X13051757Y-21534606D02*
X13042233Y-21515559D01*
X13042233Y-21515559D02*
X13042233Y-21458416D01*
X13042233Y-21458416D02*
X13051757Y-21439368D01*
X13051757Y-21439368D02*
X13061281Y-21429844D01*
X13061281Y-21429844D02*
X13080328Y-21420321D01*
X13080328Y-21420321D02*
X13118423Y-21420321D01*
X13118423Y-21420321D02*
X13137471Y-21429844D01*
X13213662Y-21629844D02*
X13223185Y-21620321D01*
X13223185Y-21620321D02*
X13242233Y-21591749D01*
X13242233Y-21591749D02*
X13251757Y-21572702D01*
X13251757Y-21572702D02*
X13261281Y-21544130D01*
X13261281Y-21544130D02*
X13270804Y-21496511D01*
X13270804Y-21496511D02*
X13270804Y-21458416D01*
X13270804Y-21458416D02*
X13261281Y-21410797D01*
X13261281Y-21410797D02*
X13251757Y-21382225D01*
X13251757Y-21382225D02*
X13242233Y-21363178D01*
X13242233Y-21363178D02*
X13223185Y-21334606D01*
X13223185Y-21334606D02*
X13213662Y-21325082D01*
M02*
