M48
; DRILL file {KiCad 9.0.0} date 2025-05-11T16:12:43-0700
; FORMAT={-:-/ absolute / metric / decimal}
; #@! TF.CreationDate,2025-05-11T16:12:43-07:00
; #@! TF.GenerationSoftware,Kicad,Pcbnew,9.0.0
; #@! TF.FileFunction,NonPlated,1,2,NPTH
FMAT,2
METRIC
; #@! TA.AperFunction,NonPlated,NPTH,ComponentDrill
T1C1.800
; #@! TA.AperFunction,NonPlated,NPTH,ComponentDrill
T2C5.400
%
G90
G05
T1
X98.817Y-112.397
X108.977Y-112.397
X130.817Y-112.397
X140.977Y-112.397
X157.817Y-129.597
X167.081Y-187.419
X167.977Y-129.597
X176.084Y-192.126
X201.417Y-134.097
X211.577Y-134.097
X219.309Y-192.126
X222.417Y-114.597
X227.417Y-145.597
X228.313Y-187.419
X232.577Y-114.597
X237.577Y-145.597
X249.417Y-97.397
X254.417Y-128.397
X259.577Y-97.397
X264.577Y-128.397
X282.417Y-97.397
X286.417Y-128.397
X292.577Y-97.397
X296.577Y-128.397
X314.815Y-123.556
X324.734Y-121.357
T2
X103.897Y-112.397
X135.897Y-112.397
X162.897Y-129.597
X171.583Y-189.773
X206.497Y-134.097
X223.811Y-189.773
X227.497Y-114.597
X232.497Y-145.597
X254.497Y-97.397
X259.497Y-128.397
X287.497Y-97.397
X291.497Y-128.397
X319.774Y-122.457
M30
